<svg width="9843" height="12300" viewBox="0 0 9843 12300" fill="none" xmlns="http://www.w3.org/2000/svg">
<g id="Building layer">
<g id="WELCH_RYANG_AUDITORIUM">
<path d="M2871.16 7527.15L2969.35 7713.92L2978.98 7702.36L3046.37 7827.52L3113.76 7952.67L3254.84 7877.93L3313.64 7846.78L3365.62 7819.24L3469.95 7763.98L3405.88 7641.75L3240.83 7326.91L3175.37 7363.5C3158.68 7362.21 3112.6 7366.58 3061.77 7394.3C3010.94 7422.03 2972.56 7459.77 2959.73 7475.17L2924.25 7495.99L2871.16 7527.15Z" fill="#E9F1EB"/>
<path d="M3240.83 7326.91L3175.37 7363.5C3158.68 7362.21 3112.6 7366.58 3061.77 7394.3C3010.94 7422.03 2972.56 7459.77 2959.73 7475.17L2924.25 7495.99M3240.83 7326.91L3405.88 7641.75M3240.83 7326.91L3213 7381.5L3095.99 7443M3046.37 7827.52L2978.98 7702.36L2969.35 7713.92L2871.16 7527.15L2924.25 7495.99M3046.37 7827.52L3113.76 7952.67L3254.84 7877.93M3046.37 7827.52L3088.16 7805.92M3405.88 7641.75L3469.95 7763.98L3365.62 7819.24M3405.88 7641.75L3370.12 7723.84L3324.55 7748.1M3405.88 7641.75L3247.02 7723.84M3088.16 7805.92L3168.75 7827.52L3213 7805.46M3088.16 7805.92L2924.25 7495.99M3088.16 7805.92L3247.02 7723.84M2924.25 7495.99L2978.98 7504.5L3095.99 7443M3095.99 7443L3247.02 7723.84M3213 7805.46L3254.84 7877.93M3213 7805.46L3272.62 7775.75M3254.84 7877.93L3313.64 7846.78M3272.62 7775.75L3313.64 7846.78M3272.62 7775.75L3324.55 7748.1M3313.64 7846.78L3365.62 7819.24M3365.62 7819.24L3324.55 7748.1" stroke="#BBD7BC" stroke-width="3"/>
</g>
<g id="STUDENT_UNION">
<path d="M3452.45 6484.49L3413.94 6453.68H3394.68V6419.25L3506.36 6303.73H3581.45L3595.15 6314.43L3610.87 6298.5L3579.52 6267.15L3610.33 6236.34L3641.36 6267.37L3658.69 6250.04L3554.49 6138.14L3604.5 6091.5L3619.87 6110.03L3650.76 6078.46L3876.03 6303.73L3839.45 6340.31V6413.47H3877.96H3916.47V6497.97H3877.96H3860.63V6589.49H3541.82V6560.61L3462.07 6465.86L3452.45 6484.49Z" fill="#E9F1EB"/>
<path d="M3413.94 6453.68L3452.45 6484.49L3462.07 6465.86L3541.82 6560.61M3413.94 6453.68H3394.68V6419.25L3506.36 6303.73H3581.45L3595.15 6314.43M3413.94 6453.68H3497.62M3595.15 6314.43L3610.87 6298.5M3595.15 6314.43L3679.5 6395.94M3610.87 6298.5L3579.52 6267.15L3610.33 6236.34L3641.36 6267.37M3610.87 6298.5L3641.36 6267.37M3641.36 6267.37L3658.69 6250.04M3658.69 6250.04L3554.49 6138.14L3604.5 6091.5L3619.87 6110.03M3658.69 6250.04L3741.27 6336.38M3619.87 6110.03L3650.76 6078.46L3876.03 6303.73L3839.45 6340.31M3619.87 6110.03L3839.45 6340.31M3839.45 6340.31V6413.47M3839.45 6340.31L3792 6389.25L3741.27 6336.38M3839.45 6413.47H3877.96M3839.45 6413.47V6497.97H3860.63M3860.63 6497.97V6589.49H3541.82V6560.61M3860.63 6497.97H3877.96M3541.82 6560.61V6507.38L3497.62 6453.68M3497.62 6453.68H3698.25V6413.47L3679.5 6395.94M3679.5 6395.94L3741.27 6336.38M3877.96 6413.47H3916.47V6497.97H3877.96M3877.96 6413.47V6497.97" stroke="#BBD7BC" stroke-width="3"/>
</g>
<path id="SPORT_TRACK" d="M3221.16 8934.12C3290.68 8931.09 3349.5 8984.98 3352.53 9054.51C3354.91 9109.06 3322.23 9157.03 3274.45 9176.62L3275.14 9179.5L3377.65 9171.28L3380.13 9228.17L2154.3 9281.69L2151.81 9224.75L2357 9215.79L2357.38 9212.86C2308.08 9197.51 2271.34 9152.57 2268.96 9098.02C2265.92 9028.5 2319.82 8969.68 2389.34 8966.64L2389.34 8966.64L3221.15 8934.12H3221.16Z" fill="#E9F1EB" stroke="#BBD7BC" stroke-width="3"/>
<g id="SENTENNIAL_MUSEUM">
<path d="M2755.23 8681.58L2724.42 8637.3L2755.23 8591.09L2816.84 8546.81V8479.42L2909.34 8484.26L2982.38 8488.09L3153.75 8497.07L3221.18 8500.6L3216.36 8558.36L3214.78 8577.38L3211.55 8616.12L3236.58 8637.3V8671.96L3203.85 8700.84V8727.79V8746.5V8808.66H3136.13H2997.83V8795.18H2957.4H2895.86H2803.37V8720.09L2755.23 8681.58Z" fill="#E9F1EB"/>
<path d="M2816.84 8546.81L2755.23 8591.09L2724.42 8637.3L2755.23 8681.58L2803.37 8720.09M2816.84 8546.81V8479.42L2909.34 8484.26M2816.84 8546.81L2868.75 8608.38M2816.84 8546.81L2907.38 8548.88M2957.4 8795.18H2997.83V8808.66H3136.13M2957.4 8795.18L2895.86 8720.09M2957.4 8795.18H2895.86M2957.4 8795.18L3031.88 8734.13M2803.37 8720.09V8795.18H2895.86M2803.37 8720.09L2856.04 8671.5M3136.13 8808.66H3203.85V8746.5M3136.13 8808.66L3203.85 8746.5M3136.13 8808.66L3082.31 8734.13M3203.85 8746.5L3144.38 8683.13M3203.85 8746.5V8727.79M2893.13 8637.3L2856.04 8671.5M2893.13 8637.3L2931.99 8689.61M2893.13 8637.3L2868.75 8608.38M2856.04 8671.5L2895.86 8720.09M2895.86 8720.09V8795.18M2895.86 8720.09L2931.99 8689.61M2968.13 8659.13L3031.88 8734.13M2968.13 8659.13L2931.99 8689.61M2968.13 8659.13V8626.5M3031.88 8734.13H3082.31M2868.75 8608.38L2921.25 8566.88M2907.38 8548.88L2909.34 8484.26M2907.38 8548.88L2921.25 8566.88M2907.38 8548.88L2982.38 8488.09M2909.34 8484.26L2982.38 8488.09M2921.25 8566.88L2968.13 8626.5M2982.38 8488.09L3046.22 8566.88M2982.38 8488.09L3153.75 8497.07M3046.22 8566.88L2968.13 8626.5M3046.22 8566.88H3082.31M3082.31 8566.88L3153.75 8497.07M3082.31 8566.88L3144.38 8630.35M3153.75 8497.07L3221.18 8500.6L3216.36 8558.36M3153.75 8497.07L3216.36 8558.36M3216.36 8558.36L3144.38 8630.35M3216.36 8558.36L3214.78 8577.38M3144.38 8630.35V8683.13M3144.38 8630.35H3161.25M3082.31 8734.13L3144.38 8683.13M3144.38 8683.13H3161.25M3203.85 8727.79V8700.84L3236.58 8671.96V8637.3L3211.55 8616.12L3214.78 8577.38M3203.85 8727.79L3161.25 8683.13M3161.25 8683.13V8630.35M3161.25 8630.35L3214.78 8577.38M3082.31 8710.13H3039.75M3082.31 8710.13L3123.75 8672.67M3082.31 8710.13V8668.21M3039.75 8710.13L2997.83 8659.13M3039.75 8710.13L3041.93 8669.02M2997.83 8659.13V8626.5M2997.83 8659.13L3082.31 8668.21M2997.83 8626.5L3046.22 8587.88M2997.83 8626.5L3044.1 8627.92M3046.22 8587.88H3082.31M3046.22 8587.88L3044.1 8627.92M3082.31 8587.88L3123.75 8630.35M3082.31 8587.88V8628.05M3123.75 8630.35V8672.67M3123.75 8630.35L3044.1 8627.92M3123.75 8672.67L3082.31 8668.21M3082.31 8668.21L3044.1 8627.92M3082.31 8668.21V8628.05M3044.1 8627.92L3041.93 8669.02M3041.93 8669.02L3082.31 8628.05" stroke="#BBD7BC" stroke-width="3"/>
</g>
<g id="HYUUT_GIL">
<path fill-rule="evenodd" clip-rule="evenodd" d="M3565.82 8206.01L3471.48 8019.25L3535.02 7913.35L3494.58 7886.4L3505.28 7867.88L3518.05 7845.75L3531.26 7822.88L3543.39 7801.88L3553.35 7784.63L3563.44 7767.16L3573.52 7749.7C3576.25 7742.97 3579.39 7736.18 3582.89 7729.35C3586.88 7721.57 3591.35 7713.74 3596.23 7705.88C3599.72 7700.26 3603.42 7694.64 3607.31 7689L3647.63 7720.89C3650.76 7715.9 3653.85 7710.88 3657.03 7705.88L3647.63 7720.89L3635.19 7740.75L3635.19 7740.75L3734.25 7817.63L3860.41 7832.63L3908.54 7857.52L3918.17 7970.57L3703.8 8094.34L3687.12 8065.46L3642.84 8105.89L3681.35 8163.65C3665.3 8177.77 3628.97 8208.71 3612.03 8219.49C3595.09 8230.27 3574.16 8215 3565.82 8206.01ZM3936.33 7817.63L4341.75 7235.62C4341.75 7232.41 4340.6 7224.83 4335.98 7220.21L4301.32 7185.56C4292.98 7181.71 4271.67 7177.47 4253.19 7191.33C4239.11 7201.89 4090.26 7300.14 3965.63 7382.12C4041.07 7459.26 4042.13 7517.64 4042.82 7555.63C4042.84 7556.73 4042.85 7557.81 4042.88 7558.88C4043.48 7589.18 3959.99 7738 3918.17 7808.63L3936.33 7817.63ZM3943.5 7396.67C3912.77 7416.88 3884.2 7435.64 3860.41 7451.26C3838.65 7466.07 3809.76 7487.41 3778.5 7512.99C3774.17 7516.53 3769.79 7520.16 3765.38 7523.86C3759.5 7528.8 3753.56 7533.86 3747.6 7539.05C3741.42 7544.42 3735.21 7549.92 3729 7555.54C3722.74 7561.2 3716.47 7566.98 3710.25 7572.86C3703.65 7579.1 3697.09 7585.44 3690.61 7591.88C3684.96 7597.49 3679.37 7603.17 3673.88 7608.91C3668.15 7614.88 3662.53 7620.92 3657.03 7627C3653.17 7631.27 3649.37 7635.57 3645.64 7639.88C3641.02 7645.23 3636.51 7650.61 3632.13 7656C3627.18 7662.11 3622.4 7668.24 3617.82 7674.38L3657.03 7705.88L3759 7784.63L3891 7797.38C3927.5 7737.25 4003.8 7604.48 4017 7554.38C4030.2 7504.28 3973.5 7428.37 3943.5 7396.67Z" fill="#E9F1EB"/>
<path d="M3642.84 8105.89L3681.34 8163.65C3665.3 8177.77 3628.97 8208.71 3612.03 8219.49C3595.09 8230.27 3574.16 8215 3565.82 8206.01L3471.48 8019.25L3535.02 7913.35M3642.84 8105.89L3687.12 8065.46M3642.84 8105.89L3612.03 8065.46L3647.63 7989.38M3687.12 8065.46L3703.8 8094.34L3918.17 7970.57M3687.12 8065.46L3647.63 7989.38M3918.17 7970.57L3908.54 7857.52M3918.17 7970.57L3846.75 7876.88L3647.63 7989.38M3908.54 7857.52L3936.33 7817.63M3908.54 7857.52L3860.41 7832.63L3734.25 7817.63L3635.19 7740.75M4335.98 7220.21C4340.6 7224.83 4341.75 7232.41 4341.75 7235.62L3936.33 7817.63M4335.98 7220.21C4331.36 7215.59 4310.95 7195.18 4301.32 7185.56M4335.98 7220.21L4301.32 7185.56M4301.32 7185.56C4292.98 7181.71 4271.67 7177.47 4253.19 7191.33C4239.11 7201.89 4090.26 7300.14 3965.63 7382.12M3860.41 7451.26C3884.2 7435.64 3912.77 7416.88 3943.5 7396.67M3860.41 7451.26C3835.34 7467.73 3805.37 7499.25 3773.6 7539.05M3860.41 7451.26C3838.65 7466.07 3809.76 7487.41 3778.5 7512.99M3573.52 7749.7L3563.44 7767.16M3573.52 7749.7L3612.03 7778.78M3573.52 7749.7C3576.25 7742.97 3579.39 7736.18 3582.89 7729.35M3535.02 7913.35L3494.58 7886.4L3505.28 7867.88M3535.02 7913.35C3538.62 7906.69 3542.47 7899.64 3546.55 7892.25M3936.33 7817.63L3918.17 7808.63C3959.99 7738 4043.48 7589.18 4042.88 7558.88C4042.85 7557.81 4042.84 7556.73 4042.82 7555.63C4042.13 7517.64 4041.07 7459.26 3965.63 7382.12M3965.63 7382.12C3958.15 7387.04 3950.77 7391.9 3943.5 7396.67M3943.5 7396.67C3973.5 7428.37 4030.2 7504.28 4017 7554.38C4003.8 7604.48 3927.5 7737.25 3891 7797.38L3759 7784.63L3657.03 7705.88M3657.03 7705.88L3617.82 7674.38M3657.03 7705.88L3657.03 7705.88M3635.19 7740.75L3596.23 7705.88M3635.19 7740.75L3635.19 7740.75M3546.55 7892.25L3505.28 7867.88M3546.55 7892.25C3550.84 7884.48 3555.38 7876.34 3560.15 7867.88M3505.28 7867.88L3518.05 7845.75M3518.05 7845.75L3560.15 7867.88M3518.05 7845.75L3531.26 7822.88M3560.15 7867.88C3563.84 7861.33 3567.66 7854.6 3571.61 7847.7M3531.26 7822.88L3571.61 7847.7M3531.26 7822.88L3543.39 7801.88M3571.61 7847.7C3575.27 7841.31 3579.03 7834.78 3582.89 7828.13M3543.39 7801.88L3582.89 7828.13M3543.39 7801.88L3553.35 7784.63M3582.89 7828.13C3586.18 7822.46 3589.54 7816.71 3592.96 7810.88M3553.35 7784.63L3592.96 7810.88M3553.35 7784.63L3563.44 7767.16M3592.96 7810.88C3596.09 7805.56 3599.26 7800.18 3602.49 7794.75M3563.44 7767.16L3602.49 7794.75M3602.49 7794.75C3605.62 7789.47 3608.81 7784.15 3612.03 7778.78M3612.03 7778.78C3615.64 7772.77 3619.3 7766.72 3623.01 7760.63M3582.89 7729.35L3623.01 7760.63M3582.89 7729.35C3586.88 7721.57 3591.35 7713.74 3596.23 7705.88M3623.01 7760.63C3627.02 7754.04 3631.08 7747.41 3635.19 7740.75M3596.23 7705.88C3599.72 7700.26 3603.42 7694.64 3607.31 7689M3607.31 7689L3647.63 7720.89M3607.31 7689C3610.68 7684.13 3614.18 7679.25 3617.82 7674.38M3647.63 7720.89C3650.76 7715.9 3653.85 7710.88 3657.03 7705.88M3647.63 7720.89C3643.46 7727.53 3639.27 7734.15 3635.19 7740.75M3647.63 7720.89L3657.03 7705.88M3647.63 7720.89L3635.19 7740.75M3617.82 7674.38C3622.4 7668.24 3627.18 7662.11 3632.13 7656M3632.13 7656L3671.21 7683.75M3632.13 7656C3636.51 7650.61 3641.02 7645.23 3645.64 7639.88M3671.21 7683.75C3675.68 7676.85 3680.18 7669.97 3684.7 7663.13M3671.21 7683.75C3666.45 7691.11 3661.72 7698.49 3657.03 7705.88M3645.64 7639.88L3684.7 7663.13M3645.64 7639.88C3649.37 7635.57 3653.17 7631.27 3657.03 7627M3684.7 7663.13C3688.6 7657.22 3692.51 7651.34 3696.44 7645.5M3657.03 7627L3696.44 7645.5M3657.03 7627C3662.53 7620.92 3668.15 7614.88 3673.88 7608.91M3696.44 7645.5C3701.03 7638.67 3705.64 7631.9 3710.25 7625.2M3673.88 7608.91L3710.25 7625.2M3673.88 7608.91C3679.37 7603.17 3684.96 7597.49 3690.61 7591.88M3710.25 7625.2C3714.03 7619.71 3717.8 7614.28 3721.58 7608.91M3690.61 7591.88L3721.58 7608.91M3690.61 7591.88C3697.09 7585.44 3703.65 7579.1 3710.25 7572.86M3721.58 7608.91C3725.62 7603.16 3729.66 7597.48 3733.69 7591.88M3710.25 7572.86L3733.69 7591.88M3710.25 7572.86C3716.47 7566.98 3722.74 7561.2 3729 7555.54M3733.69 7591.88C3738.34 7585.42 3742.98 7579.08 3747.6 7572.86M3729 7555.54L3747.6 7572.86M3729 7555.54C3735.21 7549.92 3741.42 7544.42 3747.6 7539.05M3747.6 7572.86C3751.98 7566.97 3756.35 7561.19 3760.69 7555.54M3747.6 7539.05L3760.69 7555.54M3747.6 7539.05C3753.56 7533.86 3759.5 7528.8 3765.38 7523.86M3760.69 7555.54C3765.02 7549.9 3769.33 7544.4 3773.6 7539.05M3773.6 7539.05L3765.38 7523.86M3765.38 7523.86C3769.79 7520.16 3774.17 7516.53 3778.5 7512.99M3778.5 7512.99L3792.75 7518.75" stroke="#BBD7BC" stroke-width="3"/>
</g>
<g id="HUMAN_ECOLOGY_BUILDING">
<path d="M2651.26 7424.3L2468.35 7607.21L2414.87 7553.73L2308.54 7447.4L2327.8 7428.15L2285.44 7385.79L2314.32 7356.91L2302.77 7345.36V7320.33L2285.44 7301.07L2467.47 7118.36L2566.5 7018.96L2720.01 6864.87L2799.52 6785.07L2826.47 6808.17L2920.82 6719.61L2958 6762.75L3055.59 6665.7L3115.28 6725.38L3015.16 6825.5L3057.28 6867.62L3132.61 6942.95L2794.5 7281.06L2651.26 7424.3Z" fill="#E9F1EB"/>
<path d="M3015.16 6825.5L3115.28 6725.38L3055.59 6665.7L2958 6762.75M3015.16 6825.5L2966.25 6874.41L2918.38 6825.5M3015.16 6825.5L2958 6762.75M3015.16 6825.5L3057.28 6867.62M2958 6762.75L2920.82 6719.61L2826.47 6808.17M2958 6762.75L2907.75 6814.64L2918.38 6825.5M2826.47 6808.17L2799.52 6785.07L2720.01 6864.87M2826.47 6808.17L2591.02 7043.62M2327.8 7428.15L2285.44 7385.79L2314.32 7356.91L2302.77 7345.36V7320.33L2285.44 7301.07L2467.47 7118.36M2327.8 7428.15L2308.54 7447.4L2414.87 7553.73M2327.8 7428.15L2379.69 7374.75L2325.27 7320.33L2365.13 7280.47M2327.8 7428.15L2404.13 7504.48M2918.38 6825.5L2836.62 6907.26M2799.52 6944.37L2720.01 6864.87M2799.52 6944.37L2810.64 6955.5L2847.75 6918.39L2836.62 6907.26M2799.52 6944.37L2836.62 6907.26M2720.01 6864.87L2566.5 7018.96M2591.02 7043.62L2566.5 7018.96M2591.02 7043.62L2736.15 7188.75M2566.5 7018.96L2467.47 7118.36M2566.5 7018.96V7118.36M2736.15 7188.75H2637M2736.15 7188.75L3057.28 6867.62M2736.15 7188.75L2720.01 7204.88M2637 7287.9V7188.75M2637 7287.9L2543.63 7194.52M2637 7287.9L2657.63 7308.52L2613.05 7353.95M2637 7287.9L2720.01 7204.88M2467.47 7118.36H2566.5M2467.47 7118.36L2497.35 7148.25M2566.5 7118.36L2637 7188.75M2497.35 7148.25L2519.95 7170.84M2497.35 7148.25L2455.5 7190.1M2404.13 7504.48L2498.63 7409.98M2404.13 7504.48L2434.13 7534.48M2498.63 7409.98L2528.63 7439.98M2498.63 7409.98L2401.62 7312.98M2528.63 7439.98L2434.13 7534.48M2528.63 7439.98L2613.05 7353.95M2414.87 7553.73L2468.35 7607.21L2651.26 7424.3L2794.5 7281.06M2414.87 7553.73L2434.13 7534.48M2519.95 7170.84L2389.72 7301.07L2401.62 7312.98M2519.95 7170.84L2531.85 7182.75M2531.85 7182.75L2401.62 7312.98M2531.85 7182.75L2543.63 7194.52M2543.63 7194.52L2498.63 7239.52L2613.05 7353.95M3057.28 6867.62L3132.61 6942.95L2794.5 7281.06M2720.01 7204.88L2794.5 7281.06M2365.13 7280.47L2349 7264.35L2439.38 7173.97L2455.5 7190.1M2365.13 7280.47L2455.5 7190.1" stroke="#BBD7BC" stroke-width="3"/>
</g>
<g id="HAK_GWAN">
<path d="M3061.37 5406.49L3119.13 5464.25L3176.89 5522.02L3398.31 5300.6L3669.84 5572.12L3719.85 5622.14L3746.81 5649.09L3719.85 5676.05L3893.14 5849.33L4043.32 5699.15L3868.12 5523.96L3843 5498.84L3795.54 5451.38L3710.22 5366.06L3681.34 5394.94L3494.58 5208.18L3519.61 5183.15L3502.46 5166L3460.89 5124.42L3402.16 5065.7L3061.37 5406.49Z" fill="#E9F1EB"/>
<path d="M3398.31 5300.6L3176.89 5522.02L3119.13 5464.25M3398.31 5300.6L3396.75 5189.25M3398.31 5300.6L3669.84 5572.12M3746.81 5649.09L3719.85 5676.05L3893.14 5849.33L4043.32 5699.15L3868.12 5523.96M3746.81 5649.09L3719.85 5622.14M3746.81 5649.09L3868.12 5523.96M3681.34 5394.94L3710.22 5366.06L3795.54 5451.38M3681.34 5394.94L3494.58 5208.18M3681.34 5394.94L3765.99 5478.38M3494.58 5208.18L3519.61 5183.15L3502.46 5166M3494.58 5208.18L3477.37 5191.12M3119.13 5464.25L3061.37 5406.49L3402.16 5065.7L3460.89 5124.42M3119.13 5464.25L3396.75 5189.25M3460.89 5124.42L3396.75 5189.25M3460.89 5124.42L3502.46 5166M3396.75 5189.25L3477.37 5191.12M3396.75 5189.25L3724.12 5516.62M3477.37 5191.12L3502.46 5166M3724.12 5516.62L3669.84 5572.12M3724.12 5516.62L3765.99 5478.38M3669.84 5572.12L3719.85 5622.14M3795.54 5451.38L3843 5498.84M3795.54 5451.38L3765.99 5478.38M3719.85 5622.14L3843 5498.84M3843 5498.84L3868.12 5523.96" stroke="#BBD7BC" stroke-width="3"/>
</g>
<g id="GRASS_GROUND">
<path d="M3945.12 8981.94C3914.32 8989.27 3857.32 8989.64 3860.4 9043.55C3861.18 9057.17 3861.65 9065.75 3861.89 9070.66L3868.1 9143.67C3870.03 9153.3 3891.21 9170.63 3960.52 9162.93C4029.84 9155.22 4505.41 9114.79 4734.53 9095.54L4930.92 9043.55L5410.34 8845.24C5427.67 8834.97 5461.94 8802.88 5460.4 8756.67C5458.48 8698.91 5416.12 8654.62 5358.36 8652.7C5300.59 8650.77 5233.63 8684.91 5154.26 8673.88C5115.79 8668.53 5056.07 8652.7 4996.38 8646.92C4654.53 8613.84 4208.9 8877.97 4208.9 8877.97C4208.9 8877.97 4074.51 8951.13 3945.12 8981.94Z" fill="#E9F1EB"/>
<path d="M3861.89 9070.66C3861.65 9065.75 3861.18 9057.17 3860.4 9043.55C3857.32 8989.64 3914.32 8989.27 3945.12 8981.94C4074.51 8951.13 4208.9 8877.97 4208.9 8877.97C4208.9 8877.97 4654.53 8613.84 4996.38 8646.92C5056.07 8652.7 5115.79 8668.53 5154.26 8673.88C5233.63 8684.91 5300.59 8650.77 5358.36 8652.7C5416.12 8654.62 5458.48 8698.91 5460.4 8756.67C5461.94 8802.88 5427.67 8834.97 5410.34 8845.24L4930.92 9043.55L4734.53 9095.54C4505.41 9114.79 4029.84 9155.22 3960.52 9162.93C3891.21 9170.63 3870.03 9153.3 3868.1 9143.67L3861.89 9070.66ZM3861.89 9070.66L3860.4 9053.18C3861.36 9067.57 3862.61 9085.19 3861.89 9070.66Z" stroke="#BBD7BC" stroke-width="3"/>
</g>
<g id="EWHA_SHINSEGAE_BUILDING">
<path d="M1216.18 7613.66L1123.76 7706.08L978.75 7561.08L925.441 7507.77L1016.85 7417.27L1072.13 7362.55L1119.18 7315.96L1185.75 7250.63L1238.43 7200.38L1328.52 7108.54L1382.86 7162.88L1528.76 7308.78L1438.27 7399.27L1357.4 7318.41L1306.13 7369.68L1268.14 7407.67L1347.08 7486.61L1270.09 7563.6L1189.22 7482.74L1137.23 7534.72L1216.18 7613.66Z" fill="#E9F1EB"/>
<path d="M1137.23 7534.72L1216.18 7613.66L1123.76 7706.08L978.75 7561.08M1137.23 7534.72L1189.22 7482.74M1137.23 7534.72L1104.34 7502.63M1189.22 7482.74L1270.09 7563.6L1347.08 7486.61L1268.14 7407.67M1189.22 7482.74L1216.18 7453.5L1154.84 7387.68M1189.22 7482.74L1155.62 7448.25M1268.14 7407.67L1201.48 7341.75M1268.14 7407.67L1306.13 7369.68M1357.4 7318.41L1438.27 7399.27L1528.76 7308.78L1382.86 7162.88M1357.4 7318.41L1306.13 7369.68M1357.4 7318.41L1350.75 7311.81M978.75 7561.08L925.441 7507.77L1016.85 7417.27M978.75 7561.08L1154.84 7387.68M1382.86 7162.88L1328.52 7108.54L1238.43 7200.38M1382.86 7162.88L1365.08 7180.38M1016.85 7417.27L1072.13 7362.55M1016.85 7417.27L1104.34 7502.63M1072.13 7362.55L1119.18 7315.96M1072.13 7362.55L1155.62 7448.25M1201.48 7341.75L1171.88 7370.91M1201.48 7341.75L1335.25 7209.75M1306.13 7369.68L1271.06 7335M1185.75 7250.63L1119.18 7315.96M1185.75 7250.63L1238.43 7200.38M1185.75 7250.63L1271.06 7335M1119.18 7315.96L1171.88 7370.91M1171.88 7370.91L1154.84 7387.68M1238.43 7200.38L1312.88 7274.23M1104.34 7502.63L1155.62 7448.25M1271.06 7335L1323.86 7285.13M1323.86 7285.13L1312.88 7274.23M1323.86 7285.13L1335.25 7296.44M1312.88 7274.23L1357.4 7231.88L1335.25 7209.75M1335.25 7209.75L1365.08 7180.38M1335.25 7296.44L1409.25 7223.63M1335.25 7296.44L1350.75 7311.81M1409.25 7223.63L1365.08 7180.38M1409.25 7223.63L1424.63 7239L1350.75 7311.81M1404 7326H1486.13C1489.5 7304.63 1486.35 7261.88 1446.75 7261.88C1407.15 7261.88 1401.75 7304.63 1404 7326ZM1222.5 7507.5H1302.75C1309.61 7483.88 1311.49 7436.63 1264.13 7436.63C1216.77 7436.63 1216.64 7483.88 1222.5 7507.5Z" stroke="#BBD7BC" stroke-width="3"/>
</g>
<circle id="EWHA_POSCO_BUILDING" cx="4819.5" cy="5839.5" r="51" fill="#E9F1EB" stroke="#BBD7BC" stroke-width="3"/>
<g id="EWHA_POSCO_BUILDING_2">
<path d="M4361.01 5454.63L4435.13 5482.65L4456 5490.55L4477.5 5498.68L4527.38 5517.53L4551 5526.47L4582.13 5538.23L4692.01 5579.78L4715.41 5588.63L4738.22 5597.25L4788.75 5616.36L4810.65 5624.64L4831.5 5632.52L4905.89 5660.65L4880.86 5737.66L4919.37 5751.14L4944.4 5674.5L4934.25 5670.75L4944.4 5641.39L4998.31 5660.65L5018.53 5611.55L5038.74 5562.45L4982.91 5541.27L4992.53 5516.24L4890 5477.36L4869.75 5469.68L4850.63 5462.43L4795.88 5441.67L4774.88 5433.71L4754.63 5426.03L4732.88 5417.78L4654.13 5387.92L4633.88 5380.24L4612.5 5372.14L4585.5 5361.9L4533.75 5342.27L4515.63 5335.4L4497.71 5328.61L4418.77 5298.67L4407.22 5325.63L4374.48 5314.08L4358.35 5355.75L4351.38 5373.76V5416.12L4368.38 5423.63L4361.01 5454.63Z" fill="#E9F1EB"/>
<path d="M4361.01 5579.78V5731.89V5872.44H4497.71V5928.28H4711.43V5872.44V5801.63V5731.89H4497.71V5579.78H4429.36H4361.01Z" fill="#E9F1EB"/>
<path d="M4361.01 5579.78V5454.63M4361.01 5579.78V5731.89M4361.01 5579.78H4429.36M4497.71 5872.44H4361.01V5731.89M4497.71 5872.44V5928.28M4497.71 5872.44H4711.43M4497.71 5928.28H4711.43V5872.44M4497.71 5928.28V5801.63M4497.71 5731.89H4711.43V5801.63M4497.71 5731.89V5579.78H4429.36M4497.71 5731.89V5801.63M4497.71 5731.89H4429.36M4361.01 5454.63L4368.38 5423.63M4361.01 5454.63L4435.13 5482.65M4944.4 5641.39L4934.25 5670.75L4944.4 5674.5L4919.37 5751.14L4880.86 5737.66L4905.89 5660.65L4831.5 5632.52M4944.4 5641.39L4998.31 5660.65L5018.53 5611.55M4944.4 5641.39L4368.38 5423.63M4944.4 5641.39L4982.91 5541.27M4982.91 5541.27L5038.74 5562.45L5018.53 5611.55M4982.91 5541.27L4992.53 5516.24L4890 5477.36M4407.22 5325.63L4418.77 5298.67L4497.71 5328.61M4407.22 5325.63L4374.48 5314.08L4358.35 5355.75M4407.22 5325.63L4368.38 5423.63M4368.38 5423.63L4351.38 5416.12V5373.76L4358.35 5355.75M4361.01 5731.89H4429.36M4497.71 5801.63H4527.38M4527.38 5801.63V5776.5H4685.63V5801.63M4527.38 5801.63V5821.88H4685.63V5801.63M4685.63 5801.63H4711.43M4711.43 5801.63V5872.44M4429.36 5731.89V5702.25M4429.36 5702.25H4454.25V5597.25H4429.36M4429.36 5702.25H4405.5V5597.25H4429.36M4429.36 5597.25V5579.78M4358.35 5355.75L5018.53 5611.55M4551 5526.47L4612.5 5372.14M4551 5526.47L4582.13 5538.23M4551 5526.47L4527.38 5517.53M4612.5 5372.14L4585.5 5361.9M4612.5 5372.14L4633.88 5380.24M4456 5490.55L4515.63 5335.4M4456 5490.55L4477.5 5498.68M4456 5490.55L4435.13 5482.65M4515.63 5335.4L4497.71 5328.61M4515.63 5335.4L4533.75 5342.27M4715.41 5588.63L4774.88 5433.71M4715.41 5588.63L4692.01 5579.78M4715.41 5588.63L4738.22 5597.25M4774.88 5433.71L4795.88 5441.67M4774.88 5433.71L4754.63 5426.03M4869.75 5469.68L4810.65 5624.64M4869.75 5469.68L4850.63 5462.43M4869.75 5469.68L4890 5477.36M4810.65 5624.64L4831.5 5632.52M4810.65 5624.64L4788.75 5616.36M4497.71 5328.61L4477.5 5498.68M4477.5 5498.68L4527.38 5517.53M4435.13 5482.65L4533.75 5342.27M4533.75 5342.27L4585.5 5361.9M4585.5 5361.9L4582.13 5538.23M4582.13 5538.23L4692.01 5579.78M4633.88 5380.24L4527.38 5517.53M4633.88 5380.24L4654.13 5387.92M4692.01 5579.78L4795.88 5441.67M4795.88 5441.67L4850.63 5462.43M4738.22 5597.25L4754.63 5426.03M4738.22 5597.25L4788.75 5616.36M4754.63 5426.03L4732.88 5417.78M4850.63 5462.43L4831.5 5632.52M4788.75 5616.36L4890 5477.36M4654.13 5387.92L4633.88 5441.67L4711.43 5469.68L4732.88 5417.78M4654.13 5387.92L4732.88 5417.78" stroke="#BBD7BC" stroke-width="3"/>
</g>
<circle id="EDUCATION_BUILDING" cx="4477.5" cy="4312.5" r="51" fill="#E9F1EB" stroke="#BBD7BC" stroke-width="3"/>
<g id="EDUCATION_BUILDING_2">
<path d="M3964.38 4307.1L4006.88 4337.25L4309.02 4551.62L4381.88 4449L4195.42 4318.65L4236.29 4257L4253.19 4268.59L4309.02 4191.57L4287 4176.26L4297.5 4159.73L4316.72 4172.73L4378.34 4091.45L4243.85 3995.63L4277.41 3947.25L4411.07 4041.39L4430.32 4016.36L4513.5 4076.63L4495.89 4100.63L4538.63 4130.94L4573.88 4155L4634.41 4197.35L4651.74 4172.73L4669.07 4185.8L4659.44 4201.2L4738.38 4259.84L4794.22 4301.32L4875.09 4189.65L4812.95 4147.88L4796.15 4135.74L4805.77 4122.26L4748.01 4081.83L4738.38 4093.38L4670.99 4047.17L4680.62 4033.69L4630.56 3998.07L4580.5 3962.45L4568.95 3975.93L4360.13 3828L4316.72 3796.87L4233.85 3916.88L4036 4203.38L3964.38 4307.1Z" fill="#E9F1EB"/>
<path d="M4195.42 4318.65L4381.88 4449L4309.02 4551.62L4006.88 4337.25M4195.42 4318.65L4236.29 4257L4253.19 4268.59M4195.42 4318.65L4078.41 4234.13M4253.19 4268.59L4309.02 4191.57M4253.19 4268.59L4118.55 4176.26M4309.02 4191.57L4287 4176.26L4297.5 4159.73L4316.72 4172.73M4309.02 4191.57L4173.37 4097.23M4316.72 4172.73L4378.34 4091.45L4243.85 3995.63L4277.41 3947.25M4316.72 4172.73L4183.5 4082.63M4277.41 3947.25L4411.07 4041.39L4430.32 4016.36L4513.5 4076.63M4277.41 3947.25L4233.85 3916.88M4513.5 4076.63L4495.89 4100.63L4538.63 4130.94M4513.5 4076.63L4670.99 4047.17M4670.99 4047.17L4738.38 4093.38L4748.01 4081.83L4805.77 4122.26L4796.14 4135.74L4812.95 4147.88M4670.99 4047.17L4680.62 4033.69L4630.56 3998.07M4568.95 3975.93L4580.5 3962.45L4630.56 3998.07M4568.95 3975.93L4360.13 3828M4568.95 3975.93L4596.38 4122.38L4573.88 4155M4006.88 4337.25L3964.38 4307.1L4036 4203.38M4006.88 4337.25L4078.41 4234.13M4360.13 3828L4316.72 3796.87L4233.85 3916.88M4360.13 3828L4328.91 3873M4233.85 3916.88L4036 4203.38M4183.5 4082.63L4118.55 4176.26M4183.5 4082.63L4328.91 3873M4118.55 4176.26L4078.41 4234.13M4078.41 4234.13L4036 4203.38M4328.91 3873L4775.25 4204.13M4775.25 4204.13L4738.38 4259.84M4775.25 4204.13L4812.95 4147.88M4738.38 4259.84L4659.44 4201.2L4669.07 4185.8L4651.74 4172.73L4634.41 4197.35L4573.88 4155M4738.38 4259.84L4794.22 4301.32L4875.09 4189.65L4812.95 4147.88M4538.63 4130.94L4630.56 3998.07M4538.63 4130.94L4573.88 4155" stroke="#BBD7BC" stroke-width="3"/>
</g>
</g>
</svg>
