<svg width="6562" height="8200" viewBox="0 0 6562 8200" fill="none" xmlns="http://www.w3.org/2000/svg">
<g id="Building layer">
<g id="WELCH_RYANG_AUDITORIUM">
<path d="M1914.11 5018.1L1979.57 5142.61L1985.99 5134.91L2030.91 5218.34L2075.84 5301.78L2169.89 5251.95L2209.09 5231.19L2243.75 5212.83L2313.3 5175.98L2270.59 5094.5L2160.56 4884.61L2116.91 4909C2105.79 4908.14 2075.07 4911.05 2041.18 4929.54C2007.29 4948.02 1981.71 4973.18 1973.15 4983.45L1949.5 4997.33L1914.11 5018.1Z" fill="#E9F1EB"/>
<path d="M2160.56 4884.61L2116.91 4909C2105.79 4908.14 2075.07 4911.05 2041.18 4929.54C2007.29 4948.02 1981.71 4973.18 1973.15 4983.45L1949.5 4997.33M2160.56 4884.61L2270.59 5094.5M2160.56 4884.61L2142 4921L2063.99 4962M2030.91 5218.34L1985.99 5134.91L1979.57 5142.61L1914.11 5018.1L1949.5 4997.33M2030.91 5218.34L2075.84 5301.78L2169.89 5251.95M2030.91 5218.34L2058.77 5203.95M2270.59 5094.5L2313.3 5175.98L2243.75 5212.83M2270.59 5094.5L2246.75 5149.22L2216.37 5165.4M2270.59 5094.5L2164.68 5149.22M2058.77 5203.95L2112.5 5218.34L2142 5203.64M2058.77 5203.95L1949.5 4997.33M2058.77 5203.95L2164.68 5149.22M1949.5 4997.33L1985.99 5003L2063.99 4962M2063.99 4962L2164.68 5149.22M2142 5203.64L2169.89 5251.95M2142 5203.64L2181.75 5183.83M2169.89 5251.95L2209.09 5231.19M2181.75 5183.83L2209.09 5231.19M2181.75 5183.83L2216.37 5165.4M2209.09 5231.19L2243.75 5212.83M2243.75 5212.83L2216.37 5165.4" stroke="#BBD7BC" stroke-width="2"/>
</g>
<g id="STUDENT_UNION">
<path d="M2301.63 4322.99L2275.96 4302.46H2263.12V4279.5L2337.57 4202.49H2387.63L2396.77 4209.62L2407.25 4199L2386.35 4178.1L2406.89 4157.56L2427.57 4178.25L2439.12 4166.69L2369.66 4092.1L2403 4061L2413.25 4073.35L2433.84 4052.3L2584.02 4202.49L2559.63 4226.87V4275.65H2585.3H2610.98V4331.98H2585.3H2573.75V4392.99H2361.21V4373.74L2308.05 4310.58L2301.63 4322.99Z" fill="#E9F1EB"/>
<path d="M2275.96 4302.46L2301.63 4322.99L2308.05 4310.58L2361.21 4373.74M2275.96 4302.46H2263.12V4279.5L2337.57 4202.49H2387.63L2396.77 4209.62M2275.96 4302.46H2331.75M2396.77 4209.62L2407.25 4199M2396.77 4209.62L2453 4263.96M2407.25 4199L2386.35 4178.1L2406.89 4157.56L2427.57 4178.25M2407.25 4199L2427.57 4178.25M2427.57 4178.25L2439.12 4166.69M2439.12 4166.69L2369.66 4092.1L2403 4061L2413.25 4073.35M2439.12 4166.69L2494.18 4224.25M2413.25 4073.35L2433.84 4052.3L2584.02 4202.49L2559.63 4226.87M2413.25 4073.35L2559.63 4226.87M2559.63 4226.87V4275.65M2559.63 4226.87L2528 4259.5L2494.18 4224.25M2559.63 4275.65H2585.3M2559.63 4275.65V4331.98H2573.75M2573.75 4331.98V4392.99H2361.21V4373.74M2573.75 4331.98H2585.3M2361.21 4373.74V4338.25L2331.75 4302.46M2331.75 4302.46H2465.5V4275.65L2453 4263.96M2453 4263.96L2494.18 4224.25M2585.3 4275.65H2610.98V4331.98H2585.3M2585.3 4275.65V4331.98" stroke="#BBD7BC" stroke-width="2"/>
</g>
<path id="SPORT_TRACK" d="M2147.44 5956.08C2193.78 5954.06 2233 5989.99 2235.02 6036.34C2236.61 6072.71 2214.82 6104.69 2182.97 6117.75L2183.43 6119.67L2251.77 6114.19L2253.42 6152.12L1436.2 6187.8L1434.54 6149.83L1571.33 6143.86L1571.59 6141.91C1538.72 6131.67 1514.23 6101.72 1512.64 6065.34C1510.62 6019 1546.55 5979.78 1592.9 5977.76L1592.89 5977.76L2147.43 5956.08L2147.44 5956.08Z" fill="#E9F1EB" stroke="#BBD7BC" stroke-width="2"/>
<g id="SENTENNIAL_MUSEUM">
<path d="M1836.82 5787.72L1816.28 5758.2L1836.82 5727.39L1877.9 5697.87V5652.95L1939.56 5656.18L1988.25 5658.73L2102.5 5664.71L2147.45 5667.06L2144.24 5705.57L2143.18 5718.25L2141.03 5744.08L2157.72 5758.2V5781.3L2135.9 5800.56V5818.53V5831V5872.44H2090.75H1998.55V5863.45H1971.6H1930.57H1868.91V5813.39L1836.82 5787.72Z" fill="#E9F1EB"/>
<path d="M1877.9 5697.87L1836.82 5727.39L1816.28 5758.2L1836.82 5787.72L1868.91 5813.39M1877.9 5697.87V5652.95L1939.56 5656.18M1877.9 5697.87L1912.5 5738.92M1877.9 5697.87L1938.25 5699.25M1971.6 5863.45H1998.55V5872.44H2090.75M1971.6 5863.45L1930.57 5813.39M1971.6 5863.45H1930.57M1971.6 5863.45L2021.25 5822.75M1868.91 5813.39V5863.45H1930.57M1868.91 5813.39L1904.03 5781M2090.75 5872.44H2135.9V5831M2090.75 5872.44L2135.9 5831M2090.75 5872.44L2054.88 5822.75M2135.9 5831L2096.25 5788.75M2135.9 5831V5818.53M1928.75 5758.2L1904.03 5781M1928.75 5758.2L1954.66 5793.07M1928.75 5758.2L1912.5 5738.92M1904.03 5781L1930.57 5813.39M1930.57 5813.39V5863.45M1930.57 5813.39L1954.66 5793.07M1978.75 5772.75L2021.25 5822.75M1978.75 5772.75L1954.66 5793.07M1978.75 5772.75V5751M2021.25 5822.75H2054.88M1912.5 5738.92L1947.5 5711.25M1938.25 5699.25L1939.56 5656.18M1938.25 5699.25L1947.5 5711.25M1938.25 5699.25L1988.25 5658.73M1939.56 5656.18L1988.25 5658.73M1947.5 5711.25L1978.75 5751M1988.25 5658.73L2030.81 5711.25M1988.25 5658.73L2102.5 5664.71M2030.81 5711.25L1978.75 5751M2030.81 5711.25H2054.88M2054.88 5711.25L2102.5 5664.71M2054.88 5711.25L2096.25 5753.56M2102.5 5664.71L2147.45 5667.06L2144.24 5705.57M2102.5 5664.71L2144.24 5705.57M2144.24 5705.57L2096.25 5753.56M2144.24 5705.57L2143.18 5718.25M2096.25 5753.56V5788.75M2096.25 5753.56H2107.5M2054.88 5822.75L2096.25 5788.75M2096.25 5788.75H2107.5M2135.9 5818.53V5800.56L2157.72 5781.3V5758.2L2141.03 5744.08L2143.18 5718.25M2135.9 5818.53L2107.5 5788.75M2107.5 5788.75V5753.56M2107.5 5753.56L2143.18 5718.25M2054.88 5806.75H2026.5M2054.88 5806.75L2082.5 5781.78M2054.88 5806.75V5778.81M2026.5 5806.75L1998.55 5772.75M2026.5 5806.75L2027.95 5779.35M1998.55 5772.75V5751M1998.55 5772.75L2054.88 5778.81M1998.55 5751L2030.81 5725.25M1998.55 5751L2029.4 5751.94M2030.81 5725.25H2054.88M2030.81 5725.25L2029.4 5751.94M2054.88 5725.25L2082.5 5753.56M2054.88 5725.25V5752.03M2082.5 5753.56V5781.78M2082.5 5753.56L2029.4 5751.94M2082.5 5781.78L2054.88 5778.81M2054.88 5778.81L2029.4 5751.94M2054.88 5778.81V5752.03M2029.4 5751.94L2027.95 5779.35M2027.95 5779.35L2054.88 5752.03" stroke="#BBD7BC" stroke-width="2"/>
</g>
<g id="HYUUT_GIL">
<path fill-rule="evenodd" clip-rule="evenodd" d="M2377.21 5470.67L2314.32 5346.17L2356.68 5275.57L2329.72 5257.6L2336.85 5245.25L2345.37 5230.5L2354.17 5215.25L2362.26 5201.25L2368.9 5189.75L2375.62 5178.11L2382.35 5166.46C2384.17 5161.98 2386.26 5157.46 2388.59 5152.9C2391.25 5147.72 2394.23 5142.49 2397.49 5137.25C2399.81 5133.51 2402.28 5129.76 2404.87 5126L2431.75 5147.26C2433.84 5143.93 2435.9 5140.59 2438.02 5137.25L2431.75 5147.26L2423.46 5160.5L2423.46 5160.5L2489.5 5211.75L2573.6 5221.75L2605.69 5238.34L2612.11 5313.71L2469.2 5396.23L2458.08 5376.97L2428.56 5403.93L2454.23 5442.44C2443.53 5451.85 2419.32 5472.47 2408.02 5479.66C2396.73 5486.85 2382.78 5476.66 2377.21 5470.67ZM2624.22 5211.75L2894.5 4823.74C2894.5 4821.6 2893.73 4816.56 2890.65 4813.48L2867.55 4790.37C2861.98 4787.8 2847.78 4784.98 2835.46 4794.22C2826.08 4801.26 2726.84 4866.76 2643.75 4921.42C2694.05 4972.84 2694.75 5011.76 2695.21 5037.09C2695.22 5037.82 2695.24 5038.54 2695.25 5039.25C2695.65 5059.45 2639.99 5158.67 2612.11 5205.75L2624.22 5211.75ZM2629 4931.12C2608.51 4944.59 2589.47 4957.1 2573.6 4967.51C2559.1 4977.38 2539.84 4991.6 2519 5008.66C2516.11 5011.02 2513.19 5013.44 2510.25 5015.91C2506.33 5019.2 2502.38 5022.57 2498.4 5026.03C2494.28 5029.61 2490.14 5033.28 2486 5037.03C2481.82 5040.8 2477.65 5044.66 2473.5 5048.57C2469.1 5052.73 2464.72 5056.96 2460.41 5061.25C2456.64 5064.99 2452.91 5068.78 2449.25 5072.61C2445.43 5076.59 2441.68 5080.61 2438.02 5084.67C2435.44 5087.51 2432.91 5090.38 2430.43 5093.25C2427.34 5096.82 2424.34 5100.41 2421.42 5104C2418.12 5108.07 2414.93 5112.16 2411.88 5116.25L2438.02 5137.25L2506 5189.75L2594 5198.25C2618.33 5158.17 2669.2 5069.65 2678 5036.25C2686.8 5002.85 2649 4952.25 2629 4931.12Z" fill="#E9F1EB"/>
<path d="M2428.56 5403.93L2454.23 5442.44C2443.53 5451.85 2419.32 5472.47 2408.02 5479.66C2396.73 5486.85 2382.78 5476.66 2377.21 5470.67L2314.32 5346.17L2356.68 5275.57M2428.56 5403.93L2458.08 5376.97M2428.56 5403.93L2408.02 5376.97L2431.75 5326.25M2458.08 5376.97L2469.2 5396.23L2612.11 5313.71M2458.08 5376.97L2431.75 5326.25M2612.11 5313.71L2605.69 5238.34M2612.11 5313.71L2564.5 5251.25L2431.75 5326.25M2605.69 5238.34L2624.22 5211.75M2605.69 5238.34L2573.6 5221.75L2489.5 5211.75L2423.46 5160.5M2890.65 4813.48C2893.73 4816.56 2894.5 4821.6 2894.5 4823.74L2624.22 5211.75M2890.65 4813.48C2887.57 4810.39 2873.96 4796.79 2867.55 4790.37M2890.65 4813.48L2867.55 4790.37M2867.55 4790.37C2861.98 4787.8 2847.78 4784.98 2835.46 4794.22C2826.08 4801.26 2726.84 4866.76 2643.75 4921.42M2573.6 4967.51C2589.47 4957.1 2608.51 4944.59 2629 4931.12M2573.6 4967.51C2556.89 4978.49 2536.92 4999.5 2515.73 5026.03M2573.6 4967.51C2559.1 4977.38 2539.84 4991.6 2519 5008.66M2382.35 5166.46L2375.62 5178.11M2382.35 5166.46L2408.02 5185.85M2382.35 5166.46C2384.17 5161.98 2386.26 5157.46 2388.59 5152.9M2356.68 5275.57L2329.72 5257.6L2336.85 5245.25M2356.68 5275.57C2359.08 5271.13 2361.65 5266.43 2364.37 5261.5M2624.22 5211.75L2612.11 5205.75C2639.99 5158.67 2695.65 5059.45 2695.25 5039.25C2695.24 5038.54 2695.22 5037.82 2695.21 5037.09C2694.75 5011.76 2694.05 4972.84 2643.75 4921.42M2643.75 4921.42C2638.77 4924.69 2633.84 4927.93 2629 4931.12M2629 4931.12C2649 4952.25 2686.8 5002.85 2678 5036.25C2669.2 5069.65 2618.33 5158.17 2594 5198.25L2506 5189.75L2438.02 5137.25M2438.02 5137.25L2411.88 5116.25M2438.02 5137.25L2438.02 5137.25M2423.46 5160.5L2397.49 5137.25M2423.46 5160.5L2423.46 5160.5M2364.37 5261.5L2336.85 5245.25M2364.37 5261.5C2367.23 5256.32 2370.25 5250.89 2373.43 5245.25M2336.85 5245.25L2345.37 5230.5M2345.37 5230.5L2373.43 5245.25M2345.37 5230.5L2354.17 5215.25M2373.43 5245.25C2375.89 5240.89 2378.44 5236.4 2381.07 5231.8M2354.17 5215.25L2381.07 5231.8M2354.17 5215.25L2362.26 5201.25M2381.07 5231.8C2383.51 5227.54 2386.02 5223.18 2388.59 5218.75M2362.26 5201.25L2388.59 5218.75M2362.26 5201.25L2368.9 5189.75M2388.59 5218.75C2390.79 5214.97 2393.03 5211.14 2395.31 5207.25M2368.9 5189.75L2395.31 5207.25M2368.9 5189.75L2375.62 5178.11M2395.31 5207.25C2397.39 5203.71 2399.51 5200.12 2401.66 5196.5M2375.62 5178.11L2401.66 5196.5M2401.66 5196.5C2403.75 5192.98 2405.87 5189.43 2408.02 5185.85M2408.02 5185.85C2410.43 5181.85 2412.87 5177.81 2415.34 5173.75M2388.59 5152.9L2415.34 5173.75M2388.59 5152.9C2391.25 5147.72 2394.23 5142.49 2397.49 5137.25M2415.34 5173.75C2418.01 5169.36 2420.72 5164.94 2423.46 5160.5M2397.49 5137.25C2399.81 5133.51 2402.28 5129.76 2404.87 5126M2404.87 5126L2431.75 5147.26M2404.87 5126C2407.12 5122.75 2409.46 5119.5 2411.88 5116.25M2431.75 5147.26C2433.84 5143.93 2435.9 5140.59 2438.02 5137.25M2431.75 5147.26C2428.97 5151.69 2426.18 5156.1 2423.46 5160.5M2431.75 5147.26L2438.02 5137.25M2431.75 5147.26L2423.46 5160.5M2411.88 5116.25C2414.93 5112.16 2418.12 5108.07 2421.42 5104M2421.42 5104L2447.48 5122.5M2421.42 5104C2424.34 5100.41 2427.34 5096.82 2430.43 5093.25M2447.48 5122.5C2450.45 5117.9 2453.45 5113.31 2456.46 5108.75M2447.48 5122.5C2444.3 5127.41 2441.15 5132.33 2438.02 5137.25M2430.43 5093.25L2456.46 5108.75M2430.43 5093.25C2432.91 5090.38 2435.44 5087.51 2438.02 5084.67M2456.46 5108.75C2459.06 5104.81 2461.68 5100.89 2464.29 5097M2438.02 5084.67L2464.29 5097M2438.02 5084.67C2441.68 5080.61 2445.43 5076.59 2449.25 5072.61M2464.29 5097C2467.36 5092.45 2470.43 5087.93 2473.5 5083.46M2449.25 5072.61L2473.5 5083.46M2449.25 5072.61C2452.91 5068.78 2456.64 5064.99 2460.41 5061.25M2473.5 5083.46C2476.02 5079.81 2478.53 5076.19 2481.05 5072.61M2460.41 5061.25L2481.05 5072.61M2460.41 5061.25C2464.72 5056.96 2469.1 5052.73 2473.5 5048.57M2481.05 5072.61C2483.75 5068.77 2486.44 5064.98 2489.13 5061.25M2473.5 5048.57L2489.13 5061.25M2473.5 5048.57C2477.65 5044.66 2481.82 5040.8 2486 5037.03M2489.13 5061.25C2492.23 5056.95 2495.32 5052.72 2498.4 5048.57M2486 5037.03L2498.4 5048.57M2486 5037.03C2490.14 5033.28 2494.28 5029.61 2498.4 5026.03M2498.4 5048.57C2501.32 5044.64 2504.23 5040.79 2507.13 5037.03M2498.4 5026.03L2507.13 5037.03M2498.4 5026.03C2502.38 5022.57 2506.33 5019.2 2510.25 5015.91M2507.13 5037.03C2510.01 5033.27 2512.88 5029.6 2515.73 5026.03M2515.73 5026.03L2510.25 5015.91M2510.25 5015.91C2513.19 5013.44 2516.11 5011.02 2519 5008.66M2519 5008.66L2528.5 5012.5" stroke="#BBD7BC" stroke-width="2"/>
</g>
<g id="HUMAN_ECOLOGY_BUILDING">
<path d="M1767.51 4949.53L1645.57 5071.47L1609.91 5035.82L1539.03 4964.94L1551.86 4952.1L1523.62 4923.86L1542.88 4904.61L1535.18 4896.91V4880.22L1523.62 4867.38L1644.98 4745.58L1711 4679.31L1813.34 4576.58L1866.34 4523.38L1884.31 4538.78L1947.21 4479.74L1972 4508.5L2037.06 4443.8L2076.85 4483.59L2010.11 4550.34L2038.18 4578.41L2088.41 4628.63L1863 4854.04L1767.51 4949.53Z" fill="#E9F1EB"/>
<path d="M2010.11 4550.34L2076.85 4483.59L2037.06 4443.8L1972 4508.5M2010.11 4550.34L1977.5 4582.94L1945.59 4550.34M2010.11 4550.34L1972 4508.5M2010.11 4550.34L2038.18 4578.41M1972 4508.5L1947.21 4479.74L1884.31 4538.78M1972 4508.5L1938.5 4543.09L1945.59 4550.34M1884.31 4538.78L1866.34 4523.38L1813.34 4576.58M1884.31 4538.78L1727.35 4695.75M1551.86 4952.1L1523.62 4923.86L1542.88 4904.61L1535.18 4896.91V4880.22L1523.62 4867.38L1644.98 4745.58M1551.86 4952.1L1539.03 4964.94L1609.91 5035.82M1551.86 4952.1L1586.46 4916.5L1550.18 4880.22L1576.75 4853.65M1551.86 4952.1L1602.75 5002.99M1945.59 4550.34L1891.08 4604.84M1866.34 4629.58L1813.34 4576.58M1866.34 4629.58L1873.76 4637L1898.5 4612.26L1891.08 4604.84M1866.34 4629.58L1891.08 4604.84M1813.34 4576.58L1711 4679.31M1727.35 4695.75L1711 4679.31M1727.35 4695.75L1824.1 4792.5M1711 4679.31L1644.98 4745.58M1711 4679.31V4745.58M1824.1 4792.5H1758M1824.1 4792.5L2038.18 4578.41M1824.1 4792.5L1813.34 4803.25M1758 4858.6V4792.5M1758 4858.6L1695.75 4796.35M1758 4858.6L1771.75 4872.35L1742.03 4902.63M1758 4858.6L1813.34 4803.25M1644.98 4745.58H1711M1644.98 4745.58L1664.9 4765.5M1711 4745.58L1758 4792.5M1664.9 4765.5L1679.97 4780.56M1664.9 4765.5L1637 4793.4M1602.75 5002.99L1665.75 4939.99M1602.75 5002.99L1622.75 5022.99M1665.75 4939.99L1685.75 4959.99M1665.75 4939.99L1601.08 4875.32M1685.75 4959.99L1622.75 5022.99M1685.75 4959.99L1742.03 4902.63M1609.91 5035.82L1645.57 5071.47L1767.51 4949.53L1863 4854.04M1609.91 5035.82L1622.75 5022.99M1679.97 4780.56L1593.15 4867.38L1601.08 4875.32M1679.97 4780.56L1687.9 4788.5M1687.9 4788.5L1601.08 4875.32M1687.9 4788.5L1695.75 4796.35M1695.75 4796.35L1665.75 4826.35L1742.03 4902.63M2038.18 4578.41L2088.41 4628.63L1863 4854.04M1813.34 4803.25L1863 4854.04M1576.75 4853.65L1566 4842.9L1626.25 4782.65L1637 4793.4M1576.75 4853.65L1637 4793.4" stroke="#BBD7BC" stroke-width="2"/>
</g>
<g id="HAK_GWAN">
<path d="M2040.91 3604.33L2079.42 3642.84L2117.93 3681.34L2265.54 3533.73L2446.56 3714.75L2479.9 3748.09L2497.87 3766.06L2479.9 3784.03L2595.42 3899.56L2695.54 3799.43L2578.75 3682.64L2562 3665.89L2530.36 3634.25L2473.48 3577.37L2454.23 3596.63L2329.72 3472.12L2346.41 3455.43L2334.98 3444L2307.26 3416.28L2268.11 3377.13L2040.91 3604.33Z" fill="#E9F1EB"/>
<path d="M2265.54 3533.73L2117.93 3681.34L2079.42 3642.84M2265.54 3533.73L2264.5 3459.5M2265.54 3533.73L2446.56 3714.75M2497.87 3766.06L2479.9 3784.03L2595.42 3899.56L2695.54 3799.43L2578.75 3682.64M2497.87 3766.06L2479.9 3748.09M2497.87 3766.06L2578.75 3682.64M2454.23 3596.63L2473.48 3577.37L2530.36 3634.25M2454.23 3596.63L2329.72 3472.12M2454.23 3596.63L2510.66 3652.25M2329.72 3472.12L2346.41 3455.43L2334.98 3444M2329.72 3472.12L2318.25 3460.75M2079.42 3642.84L2040.91 3604.33L2268.11 3377.13L2307.26 3416.28M2079.42 3642.84L2264.5 3459.5M2307.26 3416.28L2264.5 3459.5M2307.26 3416.28L2334.98 3444M2264.5 3459.5L2318.25 3460.75M2264.5 3459.5L2482.75 3677.75M2318.25 3460.75L2334.98 3444M2482.75 3677.75L2446.56 3714.75M2482.75 3677.75L2510.66 3652.25M2446.56 3714.75L2479.9 3748.09M2530.36 3634.25L2562 3665.89M2530.36 3634.25L2510.66 3652.25M2479.9 3748.09L2562 3665.89M2562 3665.89L2578.75 3682.64" stroke="#BBD7BC" stroke-width="2"/>
</g>
<g id="GRASS_GROUND">
<path d="M2630.08 5987.96C2609.54 5992.85 2571.55 5993.09 2573.6 6029.03C2574.12 6038.11 2574.43 6043.83 2574.59 6047.11L2578.74 6095.78C2580.02 6102.2 2594.14 6113.75 2640.35 6108.62C2686.56 6103.48 3003.61 6076.53 3156.35 6063.69L3287.28 6029.03L3606.89 5896.82C3618.45 5889.98 3641.29 5868.59 3640.27 5837.78C3638.98 5799.27 3610.75 5769.75 3572.24 5768.47C3533.73 5767.18 3489.09 5789.94 3436.18 5782.58C3410.53 5779.02 3370.71 5768.47 3330.92 5764.61C3103.02 5742.56 2805.93 5918.65 2805.93 5918.65C2805.93 5918.65 2716.34 5967.42 2630.08 5987.96Z" fill="#E9F1EB"/>
<path d="M2574.59 6047.11C2574.43 6043.83 2574.12 6038.11 2573.6 6029.03C2571.55 5993.09 2609.54 5992.85 2630.08 5987.96C2716.34 5967.42 2805.93 5918.65 2805.93 5918.65C2805.93 5918.65 3103.02 5742.56 3330.92 5764.61C3370.71 5768.47 3410.53 5779.02 3436.18 5782.58C3489.09 5789.94 3533.73 5767.18 3572.24 5768.47C3610.75 5769.75 3638.98 5799.27 3640.27 5837.78C3641.29 5868.59 3618.45 5889.98 3606.89 5896.82L3287.28 6029.03L3156.35 6063.69C3003.61 6076.53 2686.56 6103.48 2640.35 6108.62C2594.14 6113.75 2580.02 6102.2 2578.74 6095.78L2574.59 6047.11ZM2574.59 6047.11L2573.6 6035.45C2574.24 6045.05 2575.07 6056.79 2574.59 6047.11Z" stroke="#BBD7BC" stroke-width="2"/>
</g>
<g id="EWHA_SHINSEGAE_BUILDING">
<path d="M810.783 5075.78L749.171 5137.39L652.5 5040.72L616.961 5005.18L677.899 4944.85L714.75 4908.37L746.122 4877.31L790.5 4833.75L825.621 4800.25L885.679 4739.03L921.904 4775.25L1019.17 4872.52L958.844 4932.85L904.933 4878.94L870.75 4913.12L845.426 4938.45L898.053 4991.07L846.724 5042.4L792.813 4988.49L758.156 5023.15L810.783 5075.78Z" fill="#E9F1EB"/>
<path d="M758.156 5023.15L810.783 5075.78L749.171 5137.39L652.5 5040.72M758.156 5023.15L792.813 4988.49M758.156 5023.15L736.224 5001.75M792.813 4988.49L846.724 5042.4L898.053 4991.07L845.426 4938.45M792.813 4988.49L810.783 4969L769.892 4925.12M792.813 4988.49L770.415 4965.5M845.426 4938.45L800.988 4894.5M845.426 4938.45L870.75 4913.12M904.933 4878.94L958.844 4932.85L1019.17 4872.52L921.904 4775.25M904.933 4878.94L870.75 4913.12M904.933 4878.94L900.5 4874.54M652.5 5040.72L616.961 5005.18L677.899 4944.85M652.5 5040.72L769.892 4925.12M921.904 4775.25L885.679 4739.03L825.621 4800.25M921.904 4775.25L910.053 4786.92M677.899 4944.85L714.75 4908.37M677.899 4944.85L736.224 5001.75M714.75 4908.37L746.122 4877.31M714.75 4908.37L770.415 4965.5M800.988 4894.5L781.25 4913.94M800.988 4894.5L890.169 4806.5M870.75 4913.12L847.374 4890M790.5 4833.75L746.122 4877.31M790.5 4833.75L825.621 4800.25M790.5 4833.75L847.374 4890M746.122 4877.31L781.25 4913.94M781.25 4913.94L769.892 4925.12M825.621 4800.25L875.25 4849.49M736.224 5001.75L770.415 4965.5M847.374 4890L882.57 4856.75M882.57 4856.75L875.25 4849.49M882.57 4856.75L890.169 4864.29M875.25 4849.49L904.933 4821.25L890.169 4806.5M890.169 4806.5L910.053 4786.92M890.169 4864.29L939.5 4815.75M890.169 4864.29L900.5 4874.54M939.5 4815.75L910.053 4786.92M939.5 4815.75L949.75 4826L900.5 4874.54M936 4884H990.75C993 4869.75 990.9 4841.25 964.5 4841.25C938.1 4841.25 934.5 4869.75 936 4884ZM815 5005H868.5C873.073 4989.25 874.324 4957.75 842.75 4957.75C811.177 4957.75 811.095 4989.25 815 5005Z" stroke="#BBD7BC" stroke-width="2"/>
</g>
<circle id="EWHA_POSCO_BUILDING" cx="3213" cy="3893" r="34" fill="#E9F1EB" stroke="#BBD7BC" stroke-width="2"/>
<g id="EWHA_POSCO_BUILDING_2">
<path d="M2907.34 3636.42L2956.75 3655.1L2970.67 3660.37L2985 3665.78L3018.25 3678.36L3034 3684.31L3054.75 3692.16L3128.01 3719.85L3143.61 3725.75L3158.81 3731.5L3192.5 3744.24L3207.1 3749.76L3221 3755.01L3270.59 3773.76L3253.91 3825.11L3279.58 3834.09L3296.27 3783L3289.5 3780.5L3296.27 3760.93L3332.21 3773.76L3345.68 3741.03L3359.16 3708.3L3321.94 3694.18L3328.36 3677.5L3260 3651.57L3246.5 3646.46L3233.75 3641.62L3197.25 3627.78L3183.25 3622.47L3169.75 3617.35L3155.25 3611.85L3102.75 3591.95L3089.25 3586.83L3075 3581.42L3057 3574.6L3022.5 3561.52L3010.42 3556.94L2998.47 3552.41L2945.85 3532.45L2938.14 3550.42L2916.32 3542.72L2905.57 3570.5L2900.92 3582.51V3610.75L2912.25 3615.75L2907.34 3636.42Z" fill="#E9F1EB"/>
<path d="M2907.34 3719.85V3821.26V3914.96H2998.47V3952.18H3140.95V3914.96V3867.75V3821.26H2998.47V3719.85H2952.91H2907.34Z" fill="#E9F1EB"/>
<path d="M2907.34 3719.85V3636.42M2907.34 3719.85V3821.26M2907.34 3719.85H2952.91M2998.47 3914.96H2907.34V3821.26M2998.47 3914.96V3952.18M2998.47 3914.96H3140.95M2998.47 3952.18H3140.95V3914.96M2998.47 3952.18V3867.75M2998.47 3821.26H3140.95V3867.75M2998.47 3821.26V3719.85H2952.91M2998.47 3821.26V3867.75M2998.47 3821.26H2952.91M2907.34 3636.42L2912.25 3615.75M2907.34 3636.42L2956.75 3655.1M3296.27 3760.93L3289.5 3780.5L3296.27 3783L3279.58 3834.09L3253.91 3825.11L3270.59 3773.76L3221 3755.01M3296.27 3760.93L3332.21 3773.76L3345.68 3741.03M3296.27 3760.93L2912.25 3615.75M3296.27 3760.93L3321.94 3694.18M3321.94 3694.18L3359.16 3708.3L3345.68 3741.03M3321.94 3694.18L3328.36 3677.5L3260 3651.57M2938.14 3550.42L2945.85 3532.45L2998.47 3552.41M2938.14 3550.42L2916.32 3542.72L2905.57 3570.5M2938.14 3550.42L2912.25 3615.75M2912.25 3615.75L2900.92 3610.75V3582.51L2905.57 3570.5M2907.34 3821.26H2952.91M2998.47 3867.75H3018.25M3018.25 3867.75V3851H3123.75V3867.75M3018.25 3867.75V3881.25H3123.75V3867.75M3123.75 3867.75H3140.95M3140.95 3867.75V3914.96M2952.91 3821.26V3801.5M2952.91 3801.5H2969.5V3731.5H2952.91M2952.91 3801.5H2937V3731.5H2952.91M2952.91 3731.5V3719.85M2905.57 3570.5L3345.68 3741.03M3034 3684.31L3075 3581.42M3034 3684.31L3054.75 3692.16M3034 3684.31L3018.25 3678.36M3075 3581.42L3057 3574.6M3075 3581.42L3089.25 3586.83M2970.67 3660.37L3010.42 3556.94M2970.67 3660.37L2985 3665.78M2970.67 3660.37L2956.75 3655.1M3010.42 3556.94L2998.47 3552.41M3010.42 3556.94L3022.5 3561.52M3143.61 3725.75L3183.25 3622.47M3143.61 3725.75L3128.01 3719.85M3143.61 3725.75L3158.81 3731.5M3183.25 3622.47L3197.25 3627.78M3183.25 3622.47L3169.75 3617.35M3246.5 3646.46L3207.1 3749.76M3246.5 3646.46L3233.75 3641.62M3246.5 3646.46L3260 3651.57M3207.1 3749.76L3221 3755.01M3207.1 3749.76L3192.5 3744.24M2998.47 3552.41L2985 3665.78M2985 3665.78L3018.25 3678.36M2956.75 3655.1L3022.5 3561.52M3022.5 3561.52L3057 3574.6M3057 3574.6L3054.75 3692.16M3054.75 3692.16L3128.01 3719.85M3089.25 3586.83L3018.25 3678.36M3089.25 3586.83L3102.75 3591.95M3128.01 3719.85L3197.25 3627.78M3197.25 3627.78L3233.75 3641.62M3158.81 3731.5L3169.75 3617.35M3158.81 3731.5L3192.5 3744.24M3169.75 3617.35L3155.25 3611.85M3233.75 3641.62L3221 3755.01M3192.5 3744.24L3260 3651.57M3102.75 3591.95L3089.25 3627.78L3140.95 3646.46L3155.25 3611.85M3102.75 3591.95L3155.25 3611.85" stroke="#BBD7BC" stroke-width="2"/>
</g>
<circle id="EDUCATION_BUILDING" cx="2985" cy="2875" r="34" fill="#E9F1EB" stroke="#BBD7BC" stroke-width="2"/>
<g id="EDUCATION_BUILDING_2">
<path d="M2642.92 2871.4L2671.25 2891.5L2872.68 3034.41L2921.25 2966L2796.95 2879.1L2824.19 2838L2835.46 2845.73L2872.68 2794.38L2858 2784.17L2865 2773.15L2877.82 2781.82L2918.89 2727.64L2829.23 2663.75L2851.6 2631.5L2940.71 2694.26L2953.55 2677.58L3009 2717.75L2997.26 2733.75L3025.75 2753.96L3049.25 2770L3089.61 2798.23L3101.16 2781.82L3112.71 2790.53L3106.29 2800.8L3158.92 2839.9L3196.15 2867.55L3250.06 2793.1L3208.64 2765.25L3197.43 2757.16L3203.85 2748.17L3165.34 2721.22L3158.92 2728.92L3114 2698.11L3120.41 2689.13L3087.04 2665.38L3053.67 2641.64L3045.97 2650.62L2906.75 2552L2877.82 2531.25L2822.57 2611.25L2690.67 2802.25L2642.92 2871.4Z" fill="#E9F1EB"/>
<path d="M2796.95 2879.1L2921.25 2966L2872.68 3034.41L2671.25 2891.5M2796.95 2879.1L2824.19 2838L2835.46 2845.73M2796.95 2879.1L2718.94 2822.75M2835.46 2845.73L2872.68 2794.38M2835.46 2845.73L2745.7 2784.17M2872.68 2794.38L2858 2784.17L2865 2773.15L2877.82 2781.82M2872.68 2794.38L2782.25 2731.49M2877.82 2781.82L2918.89 2727.64L2829.23 2663.75L2851.6 2631.5M2877.82 2781.82L2789 2721.75M2851.6 2631.5L2940.71 2694.26L2953.55 2677.58L3009 2717.75M2851.6 2631.5L2822.57 2611.25M3009 2717.75L2997.26 2733.75L3025.75 2753.96M3009 2717.75L3114 2698.11M3114 2698.11L3158.92 2728.92L3165.34 2721.22L3203.85 2748.17L3197.43 2757.16L3208.64 2765.25M3114 2698.11L3120.41 2689.13L3087.04 2665.38M3045.97 2650.62L3053.67 2641.64L3087.04 2665.38M3045.97 2650.62L2906.75 2552M3045.97 2650.62L3064.25 2748.25L3049.25 2770M2671.25 2891.5L2642.92 2871.4L2690.67 2802.25M2671.25 2891.5L2718.94 2822.75M2906.75 2552L2877.82 2531.25L2822.57 2611.25M2906.75 2552L2885.94 2582M2822.57 2611.25L2690.67 2802.25M2789 2721.75L2745.7 2784.17M2789 2721.75L2885.94 2582M2745.7 2784.17L2718.94 2822.75M2718.94 2822.75L2690.67 2802.25M2885.94 2582L3183.5 2802.75M3183.5 2802.75L3158.92 2839.9M3183.5 2802.75L3208.64 2765.25M3158.92 2839.9L3106.29 2800.8L3112.71 2790.53L3101.16 2781.82L3089.61 2798.23L3049.25 2770M3158.92 2839.9L3196.15 2867.55L3250.06 2793.1L3208.64 2765.25M3025.75 2753.96L3087.04 2665.38M3025.75 2753.96L3049.25 2770" stroke="#BBD7BC" stroke-width="2"/>
</g>
</g>
</svg>
