<svg width="3281" height="3209" viewBox="0 0 3281 3209" fill="none" xmlns="http://www.w3.org/2000/svg">
<g id="Building layer">
<g id="HAK_GWAN">
<path d="M1020.46 1802.16L1039.71 1821.42L1058.96 1840.67L1132.77 1766.87L1223.28 1857.38L1239.95 1874.05L1248.94 1883.03L1239.95 1892.02L1297.71 1949.78L1347.77 1899.72L1289.37 1841.32L1281 1832.95L1265.18 1817.12L1236.74 1788.69L1227.11 1798.31L1164.86 1736.06L1173.2 1727.72L1167.49 1722L1153.63 1708.14L1134.05 1688.57L1020.46 1802.16Z" fill="#F0F9FF"/>
<path d="M1132.77 1766.87L1058.96 1840.67L1039.71 1821.42M1132.77 1766.87L1132.25 1729.75M1132.77 1766.87L1223.28 1857.38M1248.94 1883.03L1239.95 1892.02L1297.71 1949.78L1347.77 1899.72L1289.37 1841.32M1248.94 1883.03L1239.95 1874.05M1248.94 1883.03L1289.37 1841.32M1227.11 1798.31L1236.74 1788.69L1265.18 1817.12M1227.11 1798.31L1164.86 1736.06M1227.11 1798.31L1255.33 1826.12M1164.86 1736.06L1173.2 1727.72L1167.49 1722M1164.86 1736.06L1159.12 1730.38M1039.71 1821.42L1020.46 1802.16L1134.05 1688.57L1153.63 1708.14M1039.71 1821.42L1132.25 1729.75M1153.63 1708.14L1132.25 1729.75M1153.63 1708.14L1167.49 1722M1132.25 1729.75L1159.12 1730.38M1132.25 1729.75L1241.37 1838.88M1159.12 1730.38L1167.49 1722M1241.37 1838.88L1223.28 1857.38M1241.37 1838.88L1255.33 1826.12M1223.28 1857.38L1239.95 1874.05M1265.18 1817.12L1281 1832.95M1265.18 1817.12L1255.33 1826.12M1239.95 1874.05L1281 1832.95M1281 1832.95L1289.37 1841.32" stroke="#74D4FF"/>
</g>
<g id="EDUCATION_BUILDING">
<path d="M1321.46 1435.7L1335.63 1445.75L1436.34 1517.21L1460.63 1483L1398.47 1439.55L1412.1 1419L1417.73 1422.86L1436.34 1397.19L1429 1392.09L1432.5 1386.58L1438.91 1390.91L1459.45 1363.82L1414.62 1331.88L1425.8 1315.75L1470.36 1347.13L1476.77 1338.79L1504.5 1358.88L1498.63 1366.88L1512.88 1376.98L1524.63 1385L1544.8 1399.12L1550.58 1390.91L1556.36 1395.27L1553.15 1400.4L1579.46 1419.95L1598.07 1433.77L1625.03 1396.55L1604.32 1382.63L1598.71 1378.58L1601.92 1374.09L1582.67 1360.61L1579.46 1364.46L1557 1349.06L1560.21 1344.56L1543.52 1332.69L1526.83 1320.82L1522.98 1325.31L1453.38 1276L1438.91 1265.62L1411.28 1305.63L1345.33 1401.13L1321.46 1435.7Z" fill="#F0F9FF"/>
<path d="M1398.47 1439.55L1460.63 1483L1436.34 1517.21L1335.63 1445.75M1398.47 1439.55L1412.1 1419L1417.73 1422.86M1398.47 1439.55L1359.47 1411.38M1417.73 1422.86L1436.34 1397.19M1417.73 1422.86L1372.85 1392.09M1436.34 1397.19L1429 1392.09L1432.5 1386.58L1438.91 1390.91M1436.34 1397.19L1391.12 1365.74M1438.91 1390.91L1459.45 1363.82L1414.62 1331.88L1425.8 1315.75M1438.91 1390.91L1394.5 1360.88M1425.8 1315.75L1470.36 1347.13L1476.77 1338.79L1504.5 1358.88M1425.8 1315.75L1411.28 1305.63M1504.5 1358.88L1498.63 1366.88L1512.88 1376.98M1504.5 1358.88L1557 1349.06M1557 1349.06L1579.46 1364.46L1582.67 1360.61L1601.92 1374.09L1598.71 1378.58L1604.32 1382.63M1557 1349.06L1560.21 1344.56L1543.52 1332.69M1522.98 1325.31L1526.83 1320.82L1543.52 1332.69M1522.98 1325.31L1453.38 1276M1522.98 1325.31L1532.13 1374.13L1524.63 1385M1335.63 1445.75L1321.46 1435.7L1345.33 1401.13M1335.63 1445.75L1359.47 1411.38M1453.38 1276L1438.91 1265.62L1411.28 1305.63M1453.38 1276L1442.97 1291M1411.28 1305.63L1345.33 1401.13M1394.5 1360.88L1372.85 1392.09M1394.5 1360.88L1442.97 1291M1372.85 1392.09L1359.47 1411.38M1359.47 1411.38L1345.33 1401.13M1442.97 1291L1591.75 1401.38M1591.75 1401.38L1579.46 1419.95M1591.75 1401.38L1604.32 1382.63M1579.46 1419.95L1553.15 1400.4L1556.36 1395.27L1550.58 1390.91L1544.8 1399.12L1524.63 1385M1579.46 1419.95L1598.07 1433.77L1625.03 1396.55L1604.32 1382.63M1512.88 1376.98L1543.52 1332.69M1512.88 1376.98L1524.63 1385" stroke="#74D4FF"/>
</g>
<g id="sk">
<path d="M600.08 2415.08L617.729 2432.73L635.379 2450.38V2490.81L770.156 2356.03L755.395 2341.27L750.26 2346.41L730.364 2326.51L698.141 2358.74L682.23 2374.65L679.021 2371.44L664.901 2385.56L646.931 2367.59L633.584 2380.75L628.714 2385.56L622.599 2391.59L617.069 2397.04L611.539 2402.5L599.438 2414.44L600.08 2415.08Z" fill="#F0F9FF"/>
<path d="M664.901 2385.56L679.021 2371.44L682.23 2374.65L698.141 2358.74M664.901 2385.56L646.931 2367.59L633.584 2380.75M664.901 2385.56L680.812 2401.47M664.901 2385.56L617.729 2432.73M698.141 2358.74L730.364 2326.51L750.26 2346.41L755.395 2341.27L770.156 2356.03L635.379 2490.81V2450.38L617.729 2432.73M698.141 2358.74L710.843 2371.44M710.843 2371.44L718.281 2378.88L688.25 2408.91L680.812 2401.47M710.843 2371.44L680.812 2401.47M617.729 2432.73L600.08 2415.08L599.438 2414.44L611.539 2402.5M611.539 2402.5L617.729 2408.69L623.222 2403.2M611.539 2402.5L617.069 2397.04M633.584 2380.75L639.625 2386.79L634.788 2391.63M633.584 2380.75L628.714 2385.56M628.714 2385.56L634.788 2391.63M628.714 2385.56L622.599 2391.59M634.788 2391.63L628.714 2397.7M628.714 2397.7L622.599 2391.59M628.714 2397.7L623.222 2403.2M622.599 2391.59L617.069 2397.04M617.069 2397.04L623.222 2403.2" stroke="#74D4FF"/>
</g>
<g id="&#234;&#181;&#144;&#236;&#156;&#161;&#235;&#172;&#184;&#237;&#153;&#148;&#234;&#180;&#128;">
<path d="M560.289 2363.09L578.901 2381.71L597.513 2400.32L634.737 2363.09L655.582 2342.25L663 2334.83L679.021 2318.81L702.767 2295.06L683.821 2276.12L664.875 2257.17L639.229 2231.53L627.677 2243.08L614.841 2230.24V2222.54L618.05 2219.33L605.856 2212.91L577.617 2241.15L584.035 2248.85C576.761 2250.14 558.106 2256.81 541.676 2273.24L505.736 2309.18L517.288 2318.81C517.074 2325.23 517.031 2338.83 518.572 2341.92L539.25 2327.5L567.111 2356.03L560.289 2363.09Z" fill="#F0F9FF"/>
<path d="M579.5 2369.63L583.378 2365.75L589.625 2359.5L593.093 2356.03L597.61 2351.52L602.128 2347L613.795 2358.67L609.129 2363.33L604.462 2368L600.962 2371.5L595.212 2377.25L591.167 2381.29L579.5 2369.63Z" fill="#F0F9FF"/>
<path d="M584.035 2248.85L577.617 2241.15L605.856 2212.91L618.05 2219.33L614.841 2222.54V2230.24L627.677 2243.08L639.229 2231.53L664.875 2257.17M584.035 2248.85C576.761 2250.14 558.106 2256.81 541.676 2273.24M584.035 2248.85C603.875 2245.35 621.94 2249.11 635.25 2251L620.563 2262.7M541.676 2273.24C525.246 2289.67 510.87 2304.05 505.736 2309.18M541.676 2273.24L505.736 2309.18M541.676 2273.24C534.476 2280.73 519.519 2300.33 517.288 2318.81M505.736 2309.18L517.288 2318.81M517.288 2318.81C517.074 2325.23 517.031 2338.83 518.572 2341.92L539.25 2327.5M539.25 2327.5L567.111 2356.03M539.25 2327.5L550.154 2318.81M567.111 2356.03L560.289 2363.09L578.901 2381.71M567.111 2356.03L587.375 2335.54M550.154 2318.81C550.031 2317.4 550.04 2315.58 550.261 2313.5M550.154 2318.81L556.819 2313.5M567.111 2284.87L577.525 2297M567.111 2284.87C568.729 2283.73 570.371 2282.7 572.021 2281.78M567.111 2284.87C565.21 2286.22 563.51 2287.65 561.99 2289.15M605.875 2274.41C604.261 2274.18 602.035 2274.06 599.375 2274.15M605.875 2274.41L602 2277.5M605.875 2274.41L620.563 2262.7M550.261 2313.5L599.375 2274.15M550.261 2313.5C550.488 2311.36 550.94 2308.94 551.703 2306.37M599.375 2274.15C596.909 2274.24 594.07 2274.51 591 2275.06M599.375 2274.15L602 2277.5M591 2275.06L551.703 2306.37M591 2275.06L596.625 2281.78M591 2275.06C588.781 2275.45 586.442 2275.99 584.035 2276.71M551.703 2306.37L556.819 2313.5M551.703 2306.37C552.185 2304.76 552.791 2303.08 553.544 2301.39M555.82 2297L577.617 2279.03M555.82 2297L563.5 2308.18M555.82 2297C556.611 2295.68 557.503 2294.36 558.503 2293.07M555.82 2297C554.944 2298.46 554.19 2299.93 553.544 2301.39M577.617 2279.03L587.375 2289.15M577.617 2279.03C579.784 2278.11 581.935 2277.34 584.035 2276.71M577.617 2279.03C575.756 2279.82 573.883 2280.74 572.021 2281.78M556.819 2313.5L560.159 2310.84M563.5 2308.18L567.761 2304.78M563.5 2308.18L561.83 2309.51M577.525 2297L582.45 2293.07M577.525 2297L572.021 2301.39M587.375 2289.15L592 2285.46M587.375 2289.15L582.45 2293.07M596.625 2281.78L602 2277.5M596.625 2281.78L592 2285.46M584.035 2276.71L592 2285.46M572.021 2281.78L582.45 2293.07M561.99 2289.15L572.021 2301.39M561.99 2289.15C560.702 2290.42 559.543 2291.73 558.503 2293.07M572.021 2301.39L567.761 2304.78M558.503 2293.07L567.761 2304.78M553.544 2301.39L560.159 2310.84M560.159 2310.84L561.83 2309.51M664.875 2257.17L683.821 2276.12M664.875 2257.17L626.125 2296.36M578.901 2381.71L597.513 2400.32L634.737 2363.09M578.901 2381.71L683.821 2276.12M683.821 2276.12L702.767 2295.06L679.021 2318.81M634.737 2363.09L597.513 2325.29M634.737 2363.09L655.582 2342.25M597.513 2325.29L587.375 2335.54M597.513 2325.29L611 2311.65M679.021 2318.81L620.563 2262.7M679.021 2318.81L663 2334.83M587.375 2335.54L561.83 2309.51M595.212 2377.25L591.167 2381.29L579.5 2369.63L583.378 2365.75M595.212 2377.25L583.378 2365.75M595.212 2377.25L600.962 2371.5M583.378 2365.75L589.625 2359.5M589.625 2359.5L600.962 2371.5M589.625 2359.5L593.093 2356.03M600.962 2371.5L604.462 2368M604.462 2368L593.093 2356.03M604.462 2368L609.129 2363.33M593.093 2356.03L597.61 2351.52M597.61 2351.52L602.128 2347L613.795 2358.67L609.129 2363.33M597.61 2351.52L609.129 2363.33M611 2311.65H626.125M611 2311.65L618.563 2304M626.125 2311.65V2296.36M626.125 2311.65L618.563 2304M626.125 2296.36L618.563 2304M648.75 2350.25V2335.54M648.75 2335.54L663 2334.83M648.75 2335.54L655.582 2342.25M663 2334.83L655.582 2342.25" stroke="#74D4FF"/>
</g>
<g id="EWHA_SHINSEGAE_BUILDING">
<path d="M411.392 2531.89L380.585 2562.69L332.25 2514.36L314.48 2496.59L344.95 2466.42L363.375 2448.18L379.061 2432.65L395.25 2416.88L412.811 2400.13L442.84 2369.51L460.952 2387.63L509.587 2436.26L479.422 2466.42L452.467 2439.47L435.375 2456.56L428.713 2463.22L455.026 2489.54L429.362 2515.2L402.407 2488.25L385.078 2505.57L411.392 2531.89Z" fill="#F0F9FF"/>
<path d="M385.078 2505.57L411.392 2531.89L380.585 2562.69L332.25 2514.36M385.078 2505.57L402.407 2488.25M385.078 2505.57L374.112 2494.88M402.407 2488.25L429.362 2515.2L455.026 2489.54L428.713 2463.22M402.407 2488.25L411.392 2478.5L390.946 2456.56M402.407 2488.25L391.207 2476.75M428.713 2463.22L406.494 2441.25M428.713 2463.22L435.375 2456.56M452.467 2439.47L479.422 2466.42L509.587 2436.26L460.952 2387.63M452.467 2439.47L435.375 2456.56M452.467 2439.47L450.25 2437.27M332.25 2514.36L314.48 2496.59L344.95 2466.42M332.25 2514.36L390.946 2456.56M460.952 2387.63L442.84 2369.51L412.811 2400.13M460.952 2387.63L455.026 2393.46M344.95 2466.42L363.375 2448.18M344.95 2466.42L374.112 2494.88M363.375 2448.18L379.061 2432.65M363.375 2448.18L391.207 2476.75M406.494 2441.25L396.625 2450.97M406.494 2441.25L445.084 2403.25M435.375 2456.56L423.687 2445M395.25 2416.88L379.061 2432.65M395.25 2416.88L412.811 2400.13M395.25 2416.88L423.687 2445M379.061 2432.65L396.625 2450.97M396.625 2450.97L390.946 2456.56M412.811 2400.13L437.625 2424.74M374.112 2494.88L391.207 2476.75M423.687 2445L441.285 2428.38M441.285 2428.38L437.625 2424.74M441.285 2428.38L445.084 2432.15M437.625 2424.74L452.467 2410.63L445.084 2403.25M445.084 2403.25L455.026 2393.46M445.084 2432.15L469.75 2407.88M445.084 2432.15L450.25 2437.27M469.75 2407.88L455.026 2393.46M469.75 2407.88L474.875 2413L450.25 2437.27M468 2442H495.375C496.5 2434.88 495.45 2420.63 482.25 2420.63C469.05 2420.63 467.25 2434.88 468 2442ZM413.5 2496.5H440.25C442.536 2488.63 443.162 2472.88 427.375 2472.88C411.588 2472.88 411.547 2488.63 413.5 2496.5Z" stroke="#74D4FF"/>
</g>
<g id="WELCH_RYANG_AUDITORIUM">
<path d="M962.053 2519.05L994.784 2581.31L997.993 2577.45L1020.46 2619.17L1042.92 2660.89L1089.95 2635.98L1109.55 2625.59L1126.87 2616.41L1161.65 2597.99L1140.29 2557.25L1085.28 2452.3L1063.46 2464.5C1057.89 2464.07 1042.53 2465.53 1025.59 2474.77C1008.65 2484.01 995.854 2496.59 991.575 2501.72L979.75 2508.66L962.053 2519.05Z" fill="#F0F9FF"/>
<path d="M1085.28 2452.3L1063.46 2464.5C1057.89 2464.07 1042.53 2465.53 1025.59 2474.77C1008.65 2484.01 995.854 2496.59 991.575 2501.72L979.75 2508.66M1085.28 2452.3L1140.29 2557.25M1085.28 2452.3L1076 2470.5L1037 2491M1020.46 2619.17L997.993 2577.45L994.784 2581.31L962.053 2519.05L979.75 2508.66M1020.46 2619.17L1042.92 2660.89L1089.95 2635.98M1020.46 2619.17L1034.39 2611.97M1140.29 2557.25L1161.65 2597.99L1126.87 2616.41M1140.29 2557.25L1128.37 2584.61L1113.18 2592.7M1140.29 2557.25L1087.34 2584.61M1034.39 2611.97L1061.25 2619.17L1076 2611.82M1034.39 2611.97L979.75 2508.66M1034.39 2611.97L1087.34 2584.61M979.75 2508.66L997.993 2511.5L1037 2491M1037 2491L1087.34 2584.61M1076 2611.82L1089.95 2635.98M1076 2611.82L1095.87 2601.92M1089.95 2635.98L1109.55 2625.59M1095.87 2601.92L1109.55 2625.59M1095.87 2601.92L1113.18 2592.7M1109.55 2625.59L1126.87 2616.41M1126.87 2616.41L1113.18 2592.7" stroke="#74D4FF"/>
</g>
<g id="&#236;&#164;&#145;&#234;&#176;&#149;&#235;&#139;&#185;">
<path d="M1238.67 2491.45L1203.37 2430.31L1221.02 2420.12L1238.67 2409.93L1245.08 2421.05L1300.28 2389.18L1291.89 2374.65L1298 2371.12L1311.65 2363.23L1325.31 2355.35L1361.25 2413.8L1346.95 2422.06L1332.64 2430.31V2436.26L1329.16 2438.18L1324.62 2430.31L1273.97 2459.56V2464.5L1256.32 2477.98L1238.67 2491.45Z" fill="#F0F9FF"/>
<path d="M1245.08 2421.05L1238.67 2409.93L1221.02 2420.12M1245.08 2421.05L1300.28 2389.18M1245.08 2421.05L1268.87 2462.26M1245.08 2421.05L1273.97 2432.5M1300.28 2389.18L1291.89 2374.65L1298 2371.12M1300.28 2389.18L1306.52 2385.37M1324.62 2430.31L1329.16 2438.18L1332.64 2436.26V2430.31L1346.95 2422.06M1324.62 2430.31L1273.97 2459.56M1324.62 2430.31L1330.5 2426.92M1273.97 2459.56V2464.5L1256.32 2477.98M1273.97 2459.56L1268.87 2462.26M1221.02 2420.12L1203.37 2430.31L1238.67 2491.45L1256.32 2477.98M1221.02 2420.12L1256.32 2477.98M1268.87 2462.26L1273.97 2432.5M1330.5 2426.92L1306.52 2385.37M1330.5 2426.92L1306.52 2413.8M1306.52 2385.37L1298 2371.12M1306.52 2385.37V2413.8M1298 2371.12L1311.65 2363.23M1273.97 2432.5L1306.52 2413.8M1346.95 2422.06L1361.25 2413.8L1325.31 2355.35L1311.65 2363.23M1346.95 2422.06L1311.65 2363.23" stroke="#74D4FF"/>
</g>
<g id="STUDENT_UNION">
<path d="M1148.82 2163.5L1135.98 2153.23H1129.56V2139.75L1166.79 2101.24H1191.82L1194.38 2103.81L1199.62 2097.5L1191.17 2089.05L1201.44 2078.78L1209.79 2087.12L1215.56 2081.35L1182.83 2046.05L1197.59 2029.36L1204.62 2036.68L1214.92 2026.15L1290.01 2101.24L1277.82 2113.44V2137.82H1290.65H1303.49V2167.99H1290.65H1284.88V2206.5H1188.61V2196.87L1152.02 2160.29L1148.82 2163.5Z" fill="#F0F9FF"/>
<path d="M1135.98 2153.23L1148.82 2163.5L1152.02 2160.29L1188.61 2196.87M1135.98 2153.23H1129.56V2139.75L1166.79 2101.24H1191.82L1194.38 2103.81M1135.98 2153.23H1164.87M1194.38 2103.81L1199.62 2097.5M1194.38 2103.81L1224.5 2131.98M1199.62 2097.5L1191.17 2089.05L1201.44 2078.78L1209.79 2087.12M1199.62 2097.5L1209.79 2087.12M1209.79 2087.12L1215.56 2081.35M1215.56 2081.35L1182.83 2046.05L1197.59 2029.36L1204.62 2036.68M1215.56 2081.35L1245.09 2112.13M1204.62 2036.68L1214.92 2026.15L1290.01 2101.24L1277.82 2113.44M1204.62 2036.68L1277.82 2113.44M1277.82 2113.44V2137.82M1277.82 2113.44L1262 2129.75L1245.09 2112.13M1277.82 2137.82H1290.65M1277.82 2137.82V2167.99H1284.88M1284.88 2167.99V2206.5H1188.61V2196.87M1284.88 2167.99H1290.65M1188.61 2196.87V2176.13L1164.87 2153.23M1164.87 2153.23H1230.75V2137.82L1224.5 2131.98M1224.5 2131.98L1245.09 2112.13M1290.65 2137.82H1303.49V2167.99H1290.65M1290.65 2137.82V2167.99" stroke="#74D4FF"/>
</g>
<g id="Ewha Campus Complex (ECC)">
<path fill-rule="evenodd" clip-rule="evenodd" d="M1274.61 2933.01L1666.1 2368.87L1677.66 2376.57L1660.97 2401.6L1594.37 2494.63L1583.25 2572.13L1531.87 2614.25L1508.62 2680.25L1427.5 2742.4L1393.87 2856.63L1326.87 2905.38L1319.87 2933.01L1296 2941.75L1274.61 2959.97V2933.01ZM1276.5 2967.03C1310.1 2957.61 1381.4 2934.42 1397.83 2916.97C1410.45 2907.55 1438.65 2880.64 1450.46 2848.29C1455.38 2837.81 1472.28 2809.79 1500.52 2781.55L1482.55 2768.71L1494.74 2751.38L1539.67 2758.44C1547.37 2753.52 1564.31 2743.42 1570.48 2742.4L1558.28 2733.41L1549.94 2746.25L1521.7 2729.56L1537.1 2705.81L1530.04 2702.61L1673.8 2528.04L1715.52 2488.25C1718.94 2474.77 1727.07 2445.76 1732.21 2437.54C1737.34 2429.33 1748.04 2408.02 1752.75 2398.39C1749.75 2395.83 1742.61 2392.23 1737.98 2398.39C1733.36 2404.56 1716.81 2427.06 1709.1 2437.54L1675.12 2412.17L1670.87 2418.25L1669.5 2432.75L1654.37 2453.25L1647.12 2448.25L1608 2494.63L1591.12 2576.75L1538.5 2619.5L1517.25 2683.13L1506 2691.13L1510.5 2700.63L1494.74 2713.25L1484.75 2709.13L1435.62 2747.88L1417.62 2808L1421.62 2810.63L1419.5 2828.38L1408 2832.13L1399.87 2860.63L1334.12 2908.88L1326.87 2939.25L1299.5 2948.38L1276.5 2967.03Z" fill="#F0F9FF"/>
<path fill-rule="evenodd" clip-rule="evenodd" d="M1221.5 2862.15L1239.95 2875.89L1617.97 2331.65L1591.12 2313.31L1558 2344L1560.62 2355.25L1546.75 2373.25L1538.75 2371.88L1522.37 2412.75L1473.28 2451.75L1477.47 2464L1468.25 2476.13H1458.37L1452.5 2517.13L1427.5 2542.13L1430 2552.88L1413.12 2581.25H1404.25L1394.99 2627.5L1330.44 2686.63L1271.25 2792.38L1221.5 2836.88V2862.15ZM1214.08 2856.63L1209.79 2853.43V2783.47L1330.44 2653.19L1325.95 2612.75L1394.99 2513.88L1424.5 2533L1402.37 2552.88L1386.87 2621.88L1323.12 2683.5L1264.75 2786.75L1214.08 2832.13V2856.63ZM1400.4 2506.13L1407.12 2510.88L1420.37 2493.5L1427.5 2497.63L1415.62 2517.13L1427.5 2527.5L1444 2513.88L1455.5 2455.13L1494.87 2423.13C1491.89 2416.5 1483.4 2402.95 1473.28 2401.75L1400.4 2506.13ZM1477.47 2395.75L1484.75 2399.88L1498.62 2378.13L1508.62 2383.25L1490.87 2407.25C1493.46 2410.54 1498.62 2417.73 1498.62 2420.13L1513.37 2409.63L1537.5 2352.25L1585.56 2309.51L1553.15 2287.36L1477.47 2395.75Z" fill="#F0F9FF"/>
<path d="M1617.97 2331.65L1239.95 2875.89L1221.5 2862.15M1617.97 2331.65L1666.1 2368.87M1617.97 2331.65L1591.12 2313.31M1666.1 2368.87L1274.61 2933.01V2959.97M1666.1 2368.87L1677.66 2376.57L1660.97 2401.6M1274.61 2959.97L1276.5 2967.03M1274.61 2959.97L1296 2941.75L1319.87 2933.01L1326.87 2905.38L1393.87 2856.63L1427.5 2742.4L1508.62 2680.25L1531.87 2614.25L1583.25 2572.13L1594.37 2494.63L1660.97 2401.6M1276.5 2967.03C1310.1 2957.61 1381.4 2934.42 1397.83 2916.97C1410.45 2907.55 1438.65 2880.64 1450.46 2848.29C1455.38 2837.81 1472.28 2809.79 1500.52 2781.55L1482.55 2768.71L1494.74 2751.38L1539.67 2758.44C1547.37 2753.52 1564.31 2743.42 1570.48 2742.4L1558.28 2733.41L1549.94 2746.25L1521.7 2729.56L1537.1 2705.81L1530.04 2702.61L1673.8 2528.04L1715.52 2488.25C1718.94 2474.77 1727.07 2445.76 1732.21 2437.54C1737.34 2429.33 1748.04 2408.02 1752.75 2398.39C1749.75 2395.83 1742.61 2392.23 1737.98 2398.39C1733.36 2404.56 1716.81 2427.06 1709.1 2437.54L1675.12 2412.17M1276.5 2967.03L1299.5 2948.38L1326.87 2939.25L1334.12 2908.88L1399.87 2860.63L1408 2832.13L1419.5 2828.38L1421.62 2810.63L1417.62 2808L1435.62 2747.88L1484.75 2709.13L1494.74 2713.25L1510.5 2700.63L1506 2691.13L1517.25 2683.13L1538.5 2619.5L1591.12 2576.75L1608 2494.63L1647.12 2448.25L1654.37 2453.25L1669.5 2432.75L1670.87 2418.25L1675.12 2412.17M1660.97 2401.6L1675.12 2412.17M1214.08 2856.63L1209.79 2853.43V2783.47L1330.44 2653.19L1325.95 2612.75L1394.99 2513.88M1214.08 2856.63V2832.13L1264.75 2786.75L1323.12 2683.5L1386.87 2621.88L1402.37 2552.88L1424.5 2533L1394.99 2513.88M1214.08 2856.63L1221.5 2862.15M1394.99 2513.88L1400.4 2506.13M1400.4 2506.13L1407.12 2510.88L1420.37 2493.5L1427.5 2497.63L1415.62 2517.13L1427.5 2527.5L1444 2513.88L1455.5 2455.13L1494.87 2423.13C1491.89 2416.5 1483.4 2402.95 1473.28 2401.75M1400.4 2506.13L1473.28 2401.75M1473.28 2401.75L1477.47 2395.75M1477.47 2395.75L1553.15 2287.36L1585.56 2309.51M1477.47 2395.75L1484.75 2399.88L1498.62 2378.13L1508.62 2383.25L1490.87 2407.25C1493.46 2410.54 1498.62 2417.73 1498.62 2420.13L1513.37 2409.63L1537.5 2352.25L1585.56 2309.51M1585.56 2309.51L1591.12 2313.31M1591.12 2313.31L1558 2344L1560.62 2355.25L1546.75 2373.25L1538.75 2371.88L1522.37 2412.75L1473.28 2451.75L1477.47 2464L1468.25 2476.13H1458.37L1452.5 2517.13L1427.5 2542.13L1430 2552.88L1413.12 2581.25H1404.25L1394.99 2627.5L1330.44 2686.63L1271.25 2792.38L1221.5 2836.88V2862.15" stroke="#74D4FF"/>
</g>
<g id="EWHA_POSCO_BUILDING">
<path d="M1453.67 1818.21L1478.38 1827.55L1485.33 1830.18L1492.5 1832.89L1509.13 1839.18L1517 1842.16L1527.38 1846.08L1564 1859.93L1571.8 1862.88L1579.41 1865.75L1596.25 1872.12L1603.55 1874.88L1610.5 1877.51L1635.3 1886.88L1626.95 1912.55L1639.79 1917.05L1648.13 1891.5L1644.75 1890.25L1648.13 1880.46L1666.1 1886.88L1672.84 1870.52L1679.58 1854.15L1660.97 1847.09L1664.18 1838.75L1630 1825.79L1623.25 1823.23L1616.88 1820.81L1598.63 1813.89L1591.63 1811.24L1584.88 1808.68L1577.63 1805.93L1551.38 1795.97L1544.63 1793.41L1537.5 1790.71L1528.5 1787.3L1511.25 1780.76L1505.21 1778.47L1499.24 1776.2L1472.92 1766.22L1469.07 1775.21L1458.16 1771.36L1452.78 1785.25L1450.46 1791.25V1805.37L1456.13 1807.88L1453.67 1818.21Z" fill="#F0F9FF"/>
<path d="M1453.67 1859.93V1910.63V1957.48H1499.24V1976.09H1570.48V1957.48V1933.88V1910.63H1499.24V1859.93H1476.45H1453.67Z" fill="#F0F9FF"/>
<path d="M1453.67 1859.93V1818.21M1453.67 1859.93V1910.63M1453.67 1859.93H1476.45M1499.24 1957.48H1453.67V1910.63M1499.24 1957.48V1976.09M1499.24 1957.48H1570.48M1499.24 1976.09H1570.48V1957.48M1499.24 1976.09V1933.88M1499.24 1910.63H1570.48V1933.88M1499.24 1910.63V1859.93H1476.45M1499.24 1910.63V1933.88M1499.24 1910.63H1476.45M1453.67 1818.21L1456.13 1807.88M1453.67 1818.21L1478.38 1827.55M1648.13 1880.46L1644.75 1890.25L1648.13 1891.5L1639.79 1917.05L1626.95 1912.55L1635.3 1886.88L1610.5 1877.51M1648.13 1880.46L1666.1 1886.88L1672.84 1870.52M1648.13 1880.46L1456.13 1807.88M1648.13 1880.46L1660.97 1847.09M1660.97 1847.09L1679.58 1854.15L1672.84 1870.52M1660.97 1847.09L1664.18 1838.75L1630 1825.79M1469.07 1775.21L1472.92 1766.22L1499.24 1776.2M1469.07 1775.21L1458.16 1771.36L1452.78 1785.25M1469.07 1775.21L1456.13 1807.88M1456.13 1807.88L1450.46 1805.37V1791.25L1452.78 1785.25M1453.67 1910.63H1476.45M1499.24 1933.88H1509.13M1509.13 1933.88V1925.5H1561.88V1933.88M1509.13 1933.88V1940.63H1561.88V1933.88M1561.88 1933.88H1570.48M1570.48 1933.88V1957.48M1476.45 1910.63V1900.75M1476.45 1900.75H1484.75V1865.75H1476.45M1476.45 1900.75H1468.5V1865.75H1476.45M1476.45 1865.75V1859.93M1452.78 1785.25L1672.84 1870.52M1517 1842.16L1537.5 1790.71M1517 1842.16L1527.38 1846.08M1517 1842.16L1509.13 1839.18M1537.5 1790.71L1528.5 1787.3M1537.5 1790.71L1544.63 1793.41M1485.33 1830.18L1505.21 1778.47M1485.33 1830.18L1492.5 1832.89M1485.33 1830.18L1478.38 1827.55M1505.21 1778.47L1499.24 1776.2M1505.21 1778.47L1511.25 1780.76M1571.8 1862.88L1591.63 1811.24M1571.8 1862.88L1564 1859.93M1571.8 1862.88L1579.41 1865.75M1591.63 1811.24L1598.63 1813.89M1591.63 1811.24L1584.88 1808.68M1623.25 1823.23L1603.55 1874.88M1623.25 1823.23L1616.88 1820.81M1623.25 1823.23L1630 1825.79M1603.55 1874.88L1610.5 1877.51M1603.55 1874.88L1596.25 1872.12M1499.24 1776.2L1492.5 1832.89M1492.5 1832.89L1509.13 1839.18M1478.38 1827.55L1511.25 1780.76M1511.25 1780.76L1528.5 1787.3M1528.5 1787.3L1527.38 1846.08M1527.38 1846.08L1564 1859.93M1544.63 1793.41L1509.13 1839.18M1544.63 1793.41L1551.38 1795.97M1564 1859.93L1598.63 1813.89M1598.63 1813.89L1616.88 1820.81M1579.41 1865.75L1584.88 1808.68M1579.41 1865.75L1596.25 1872.12M1584.88 1808.68L1577.63 1805.93M1616.88 1820.81L1610.5 1877.51M1596.25 1872.12L1630 1825.79M1551.38 1795.97L1544.63 1813.89L1570.48 1823.23L1577.63 1805.93M1551.38 1795.97L1577.63 1805.93" stroke="#74D4FF"/>
</g>
<g id="&#236;&#162;&#133;&#237;&#149;&#169;&#234;&#179;&#188;&#237;&#149;&#153;&#234;&#180;&#128; C">
<path d="M1863.78 1750.18L1846.45 1710.39L1863.78 1702.69V1697.55L1875.97 1691.13L1879.18 1697.55L1897.87 1689.41L1910.5 1683.91L1915.75 1681.62L1929.5 1675.63L1951.5 1666.04L1969.03 1658.4L1977.17 1678.88L1988.93 1708.46L1964.73 1718.13L1974.81 1741.19L1868.27 1787.4L1854.15 1754.03L1863.78 1750.18Z" fill="#F0F9FF"/>
<path d="M1863.78 1750.18L1846.45 1710.39L1863.78 1702.69V1697.55L1875.97 1691.13L1879.18 1697.55M1863.78 1750.18L1854.15 1754.03L1868.27 1787.4L1974.81 1741.19L1964.73 1718.13M1863.78 1750.18L1868.27 1760.25L1925.62 1734.5L1931 1745.75L1948.12 1737.75L1943.25 1727L1964.73 1718.13M1879.18 1697.55L1881.75 1702.69L1859.12 1713L1873.25 1745.75L1901.5 1733.13L1892.37 1710.39L1904.75 1705M1879.18 1697.55L1897.87 1689.41M1964.73 1718.13L1988.93 1708.46L1977.17 1678.88M1951.5 1666.04L1969.03 1658.4L1977.17 1678.88M1951.5 1666.04L1959.25 1686.75L1977.17 1678.88M1951.5 1666.04L1929.5 1675.63M1929.5 1675.63L1936.62 1691.13L1922.87 1696.88M1929.5 1675.63L1915.75 1681.62M1915.75 1681.62L1922.87 1696.88M1915.75 1681.62L1910.5 1683.91M1922.87 1696.88L1917.62 1699.38M1917.62 1699.38L1910.5 1683.91M1917.62 1699.38L1904.75 1705M1910.5 1683.91L1897.87 1689.41M1897.87 1689.41L1904.75 1705" stroke="#74D4FF"/>
</g>
<path id="Union" d="M1044.72 2978.04C1067.89 2977.03 1087.5 2995 1088.51 3018.17C1089.3 3036.35 1078.41 3052.34 1062.48 3058.87L1062.7 3059.84L1125.88 3057.08L1126.71 3076.06L718.1 3093.9L717.271 3074.92L785.668 3071.93L785.794 3070.95C769.359 3065.84 757.113 3050.86 756.319 3032.67C755.308 3009.5 773.274 2989.89 796.447 2988.88L1044.72 2978.04Z" fill="#F0F9FF" stroke="#74D4FF"/>
<g id="&#236;&#158;&#133;&#237;&#149;&#153;&#234;&#180;&#128;">
<path d="M1556.36 2791.17L1578.54 2873.97L1605.13 2864.98L1606.42 2870.76L1660.97 2854.07L1650.7 2825.19L1656.48 2823.26L1639.15 2769.99L1616.04 2779.62L1612.83 2771.92L1556.36 2791.17Z" fill="#F0F9FF"/>
<path d="M1556.36 2791.17L1578.54 2873.97M1556.36 2791.17L1612.83 2771.92L1616.04 2779.62L1639.15 2769.99M1556.36 2791.17L1587.45 2809.13M1578.54 2873.97L1605.13 2864.98L1606.42 2870.76L1660.97 2854.07M1578.54 2873.97L1594.75 2839.09M1660.97 2854.07L1650.7 2825.19L1656.48 2823.26L1639.15 2769.99M1660.97 2854.07L1624.02 2831.25M1639.15 2769.99L1616.04 2801.46M1587.45 2809.13L1594.75 2839.09M1587.45 2809.13L1601.75 2805.29M1616.04 2801.46L1624.02 2831.25M1616.04 2801.46L1601.75 2805.29M1624.02 2831.25L1609.39 2835.17M1594.75 2839.09L1609.39 2835.17M1609.39 2835.17L1601.75 2805.29" stroke="#74D4FF"/>
</g>
<g id="&#235;&#172;&#180;&#236;&#154;&#169;&#234;&#180;&#128;">
<path d="M1530.04 2702.6L1553.88 2682.87L1589.73 2653.19L1592.3 2655.75L1607.7 2645.49L1598.72 2639.07L1667.28 2556.28L1700.76 2515.84L1716.16 2528.68L1724.51 2518.41L1714.24 2513.92L1757.24 2431.12L1779.06 2442.36L1800.88 2453.59L1757.24 2535.74L1742.48 2528.68L1733.49 2540.87L1750.82 2556.28L1718.16 2597L1651.98 2679.5L1642.36 2675.01L1625.03 2694.9L1630.8 2702.6L1589.73 2726.99C1583.95 2728.49 1571.12 2730.59 1565.98 2726.99C1560.85 2723.4 1539.88 2709.24 1530.04 2702.6Z" fill="#F0F9FF"/>
<path d="M1704.22 2560.46L1719.75 2540.87L1728.37 2547.71L1712.84 2567.3L1704.22 2560.46Z" fill="#F0F9FF"/>
<path d="M1592.3 2655.75L1589.73 2653.19L1553.88 2682.87M1592.3 2655.75L1607.7 2645.49M1592.3 2655.75L1608.66 2675.33M1607.7 2645.49L1598.72 2639.07L1667.28 2556.28M1607.7 2645.49L1625.03 2660.25M1716.16 2528.68L1700.76 2515.84L1667.28 2556.28M1716.16 2528.68L1724.51 2518.41M1716.16 2528.68L1733.49 2540.87M1724.51 2518.41L1714.24 2513.92L1757.24 2431.12L1779.06 2442.36M1724.51 2518.41L1733.49 2523.54M1742.48 2528.68L1757.24 2535.74L1800.88 2453.59L1779.06 2442.36M1742.48 2528.68L1733.49 2540.87M1742.48 2528.68L1733.49 2523.54M1733.49 2540.87L1750.82 2556.28L1718.16 2597M1642.36 2675.01L1651.98 2679.5L1718.16 2597M1642.36 2675.01L1625.03 2694.9M1642.36 2675.01L1625.03 2660.25M1625.03 2694.9L1630.8 2702.6L1589.73 2726.99C1583.95 2728.49 1571.12 2730.59 1565.98 2726.99C1560.85 2723.4 1539.88 2709.24 1530.04 2702.6L1553.88 2682.87M1625.03 2694.9L1608.66 2675.33M1625.03 2660.25L1692.72 2576.64M1667.28 2556.28L1692.72 2576.64M1718.16 2597L1692.72 2576.64M1608.66 2675.33C1598.28 2683.15 1575.93 2698.03 1569.63 2694.9C1563.33 2691.78 1556.5 2685.58 1553.88 2682.87M1733.49 2523.54L1779.06 2442.36M1704.22 2560.46L1719.75 2540.87L1728.37 2547.71L1712.84 2567.3L1704.22 2560.46Z" stroke="#74D4FF"/>
</g>
<g id="&#235;&#176;&#149;&#235;&#172;&#188;&#234;&#180;&#128;">
<path d="M918.41 2893.86L908.142 2879.1L918.41 2863.7L938.948 2848.93V2826.47L969.781 2828.09L994.125 2829.36L1051.25 2832.35L1073.73 2833.53L1072.12 2852.79L1071.59 2859.13L1070.52 2872.04L1078.86 2879.1V2890.65L1067.95 2900.28V2909.26V2915.5V2936.22H1045.38H999.277V2931.73H985.799H965.287H934.455V2906.7L918.41 2893.86Z" fill="#F0F9FF"/>
<path d="M938.948 2848.93L918.41 2863.7L908.142 2879.1L918.41 2893.86L934.455 2906.7M938.948 2848.93V2826.47L969.781 2828.09M938.948 2848.93L956.25 2869.46M938.948 2848.93L969.125 2849.63M985.799 2931.73H999.277V2936.22H1045.38M985.799 2931.73L965.287 2906.7M985.799 2931.73H965.287M985.799 2931.73L1010.63 2911.38M934.455 2906.7V2931.73H965.287M934.455 2906.7L952.014 2890.5M1045.38 2936.22H1067.95V2915.5M1045.38 2936.22L1067.95 2915.5M1045.38 2936.22L1027.44 2911.38M1067.95 2915.5L1048.13 2894.38M1067.95 2915.5V2909.26M964.375 2879.1L952.014 2890.5M964.375 2879.1L977.331 2896.54M964.375 2879.1L956.25 2869.46M952.014 2890.5L965.287 2906.7M965.287 2906.7V2931.73M965.287 2906.7L977.331 2896.54M989.375 2886.38L1010.63 2911.38M989.375 2886.38L977.331 2896.54M989.375 2886.38V2875.5M1010.63 2911.38H1027.44M956.25 2869.46L973.75 2855.63M969.125 2849.63L969.781 2828.09M969.125 2849.63L973.75 2855.63M969.125 2849.63L994.125 2829.36M969.781 2828.09L994.125 2829.36M973.75 2855.63L989.375 2875.5M994.125 2829.36L1015.41 2855.63M994.125 2829.36L1051.25 2832.35M1015.41 2855.63L989.375 2875.5M1015.41 2855.63H1027.44M1027.44 2855.63L1051.25 2832.35M1027.44 2855.63L1048.13 2876.78M1051.25 2832.35L1073.73 2833.53L1072.12 2852.79M1051.25 2832.35L1072.12 2852.79M1072.12 2852.79L1048.13 2876.78M1072.12 2852.79L1071.59 2859.13M1048.13 2876.78V2894.38M1048.13 2876.78H1053.75M1027.44 2911.38L1048.13 2894.38M1048.13 2894.38H1053.75M1067.95 2909.26V2900.28L1078.86 2890.65V2879.1L1070.52 2872.04L1071.59 2859.13M1067.95 2909.26L1053.75 2894.38M1053.75 2894.38V2876.78M1053.75 2876.78L1071.59 2859.13M1027.44 2903.38H1013.25M1027.44 2903.38L1041.25 2890.89M1027.44 2903.38V2889.4M1013.25 2903.38L999.277 2886.38M1013.25 2903.38L1013.98 2889.67M999.277 2886.38V2875.5M999.277 2886.38L1027.44 2889.4M999.277 2875.5L1015.41 2862.63M999.277 2875.5L1014.7 2875.97M1015.41 2862.63H1027.44M1015.41 2862.63L1014.7 2875.97M1027.44 2862.63L1041.25 2876.78M1027.44 2862.63V2876.01M1041.25 2876.78V2890.89M1041.25 2876.78L1014.7 2875.97M1041.25 2890.89L1027.44 2889.4M1027.44 2889.4L1014.7 2875.97M1027.44 2889.4V2876.01M1014.7 2875.97L1013.98 2889.67M1013.98 2889.67L1027.44 2876.01" stroke="#74D4FF"/>
</g>
<g id="GRASS_GROUND">
<path d="M1315.04 2993.98C1304.77 2996.43 1285.77 2996.55 1286.8 3014.52C1287.06 3019.06 1287.22 3021.92 1287.3 3023.55L1289.37 3047.89C1290.01 3051.1 1297.07 3056.88 1320.17 3054.31C1343.28 3051.74 1501.8 3038.26 1578.18 3031.85L1643.64 3014.52L1803.45 2948.41C1809.22 2944.99 1820.65 2934.29 1820.13 2918.89C1819.49 2899.64 1805.37 2884.88 1786.12 2884.23C1766.86 2883.59 1744.54 2894.97 1718.09 2891.29C1705.26 2889.51 1685.36 2884.23 1665.46 2882.31C1551.51 2871.28 1402.97 2959.32 1402.97 2959.32C1402.97 2959.32 1358.17 2983.71 1315.04 2993.98Z" fill="#F0F9FF"/>
<path d="M1287.3 3023.55C1287.22 3021.92 1287.06 3019.06 1286.8 3014.52C1285.77 2996.55 1304.77 2996.43 1315.04 2993.98C1358.17 2983.71 1402.97 2959.32 1402.97 2959.32C1402.97 2959.32 1551.51 2871.28 1665.46 2882.31C1685.36 2884.23 1705.26 2889.51 1718.09 2891.29C1744.54 2894.97 1766.86 2883.59 1786.12 2884.23C1805.37 2884.88 1819.49 2899.64 1820.13 2918.89C1820.65 2934.29 1809.22 2944.99 1803.45 2948.41L1643.64 3014.52L1578.18 3031.85C1501.8 3038.26 1343.28 3051.74 1320.17 3054.31C1297.07 3056.88 1290.01 3051.1 1289.37 3047.89L1287.3 3023.55ZM1287.3 3023.55L1286.8 3017.73C1287.12 3022.52 1287.54 3028.4 1287.3 3023.55Z" stroke="#74D4FF"/>
</g>
<g id="International Education Building">
<path d="M681.588 2838.02L684.114 2877.17L684.797 2887.76L688.006 2937.5L720.125 2935.1L731.007 2934.29V2930.44H760.529V2937.5V2940.71H763.097V2949.7H779.141V2940.71H797.754V2945.2H818.291V2940.71H857.441V2937.5H874H894.665H899.157V2901.56C898.729 2900.28 897.232 2897.45 894.665 2896.43V2882.31H881.187V2869.47C859.794 2866.05 811.616 2862.8 790.052 2877.17V2884.87H782.35V2896.43H763.097L762.486 2887.62L761.762 2877.17L758.604 2831.61L727.5 2834.2L716.25 2835.13L681.588 2838.02Z" fill="#F0F9FF"/>
<path d="M731.007 2930.44V2934.29L720.125 2935.1M731.007 2930.44H760.529V2937.5M731.007 2930.44L730.818 2925.25M797.754 2940.71H779.141V2949.7H763.097V2940.71H760.529V2937.5M797.754 2940.71V2945.2H818.291V2940.71H857.441V2937.5M797.754 2940.71L800.5 2878.84M857.441 2937.5H874M857.441 2937.5H760.529M894.665 2896.43C897.232 2897.45 898.729 2900.28 899.157 2901.56V2937.5H894.665M894.665 2896.43V2882.31H881.187M894.665 2896.43V2937.5M881.187 2882.31V2869.47C859.794 2866.05 811.616 2862.8 790.052 2877.17M881.187 2882.31L875.25 2878.84M790.052 2877.17V2884.87H782.35V2896.43H763.097L762.486 2887.62M790.052 2877.17L800.5 2878.84M727.5 2834.2L758.604 2831.61L761.762 2877.17M727.5 2834.2L716.25 2835.13M727.5 2834.2L727.889 2844.87M716.25 2835.13L681.588 2838.02L684.114 2877.17M716.25 2835.13L727.889 2844.87M716.25 2835.13L717.001 2854.5M720.125 2935.1L688.006 2937.5L684.797 2887.76M720.125 2935.1L719.568 2920.74M720.125 2935.1L730.818 2925.25M727.889 2844.87L717.001 2854.5M727.889 2844.87L728.531 2862.5M717.001 2854.5L728.531 2862.5M717.001 2854.5L717.669 2871.75M728.531 2862.5L717.669 2871.75M728.531 2862.5L729.066 2877.17M717.669 2871.75L729.066 2877.17M717.669 2871.75L717.88 2877.17M729.066 2877.17L718.285 2887.62M729.066 2877.17L729.417 2886.8M718.285 2887.62L729.767 2896.43M718.285 2887.62L719.012 2906.37M718.285 2887.62L717.88 2877.17M729.767 2896.43L719.012 2906.37M729.767 2896.43L730.387 2913.43M729.767 2896.43L729.417 2886.8M719.012 2906.37L730.387 2913.43M719.012 2906.37L719.568 2920.74M730.387 2913.43L719.568 2920.74M730.387 2913.43L730.818 2925.25M719.568 2920.74L730.818 2925.25M684.797 2887.76L684.114 2877.17M684.797 2887.76L693.5 2887.75M762.486 2887.62L761.762 2877.17M762.486 2887.62L745.625 2887.65M762.486 2887.62L750.791 2877.17M761.762 2877.17H750.791M684.114 2877.17L693.5 2887.75M684.114 2877.17H702M693.5 2887.75L702 2877.17M693.5 2887.75L709.125 2887.72M702 2877.17L709.125 2887.72M702 2877.17H717.88M709.125 2887.72L717.88 2877.17M709.125 2887.72L745.625 2887.65M717.88 2877.17H739.821M729.417 2886.8L739.821 2877.17M739.821 2877.17L745.625 2887.65M739.821 2877.17H750.791M745.625 2887.65L750.791 2877.17M874 2937.5L875.25 2878.84M874 2937.5H894.665M875.25 2878.84H856M800.5 2878.84H812M812 2878.84V2896.43H856V2878.84M812 2878.84H856" stroke="#74D4FF"/>
</g>
<g id="&#236;&#149;&#189;&#237;&#149;&#153;&#234;&#180;&#128;">
<path d="M1395.91 2098.67H1378.58H1361.25V2187.88H1378.58H1398.47V2173.12H1469.71L1478.24 2187.88H1497.5H1515.92V2098.67H1497.5H1480.62V2119.85H1467.62H1455.59V2135.26H1417.09V2119.85H1405H1395.91V2098.67Z" fill="#F0F9FF"/>
<path d="M1417.09 2071.72H1434H1450H1480.62V2074.29H1512.07V2069.79H1527.8H1543.52V2060.17H1550.58V2042.2H1543.52V2002.41H1527.8H1512.07H1450H1434H1420.42L1417.09 2008.18V2033V2071.72Z" fill="#F0F9FF"/>
<path d="M1480.62 2098.67V2119.85M1480.62 2098.67V2074.29M1480.62 2098.67H1497.5M1480.62 2119.85H1467.62M1480.62 2119.85V2135.26M1455.59 2135.26V2119.85H1467.62M1455.59 2135.26H1417.09M1455.59 2135.26L1467.62 2148.26M1417.09 2135.26V2119.85H1405M1417.09 2135.26L1405 2148.26M1395.91 2119.85V2098.67H1378.58M1395.91 2119.85V2135.26M1395.91 2119.85H1405M1543.52 2042.2V2002.41H1527.8M1543.52 2042.2H1550.58V2060.17H1543.52M1543.52 2042.2V2060.17M1543.52 2060.17V2069.79H1527.8M1512.07 2069.79V2074.29H1480.62M1512.07 2069.79V2033M1512.07 2069.79H1527.8M1480.62 2074.29V2071.72H1450M1378.58 2098.67H1361.25V2187.88H1378.58M1378.58 2098.67V2153M1378.58 2153H1497.5M1378.58 2153L1387.5 2135.26H1395.91M1378.58 2153V2187.88M1497.5 2153V2098.67M1497.5 2153L1489.87 2135.26H1480.62M1497.5 2153V2187.88M1497.5 2098.67H1515.92V2187.88H1497.5M1480.62 2135.26L1467.62 2148.26M1467.62 2148.26V2119.85M1395.91 2135.26L1405 2148.26M1405 2148.26V2119.85M1378.58 2187.88H1398.47V2173.12H1469.71L1478.24 2187.88H1497.5M1434 2071.72H1417.09V2033M1434 2071.72H1450M1434 2071.72V2052.13M1434 2002.41H1420.42L1417.09 2008.18V2033M1434 2002.41H1450M1434 2002.41V2052.13M1450 2002.41V2033M1450 2002.41H1512.07M1450 2033H1512.07M1450 2033V2071.72M1450 2033L1434 2052.13M1512.07 2033V2002.41M1512.07 2002.41H1527.8M1527.8 2069.79V2002.41M1434 2052.13L1417.09 2033" stroke="#74D4FF"/>
</g>
<g id="&#236;&#139;&#160;&#234;&#179;&#181;&#237;&#149;&#153;&#234;&#180;&#128;">
<path d="M1987 735.498L2050.54 776.573L2035.78 796.469L2080.7 825.992L2111.51 776.573C2113.86 769.941 2116.39 755.137 2107.66 748.976L2101.13 744.639L2080.7 731.083L2033.21 699.558C2027.86 698.274 2014.98 698.659 2006.26 710.468C1997.53 722.277 1989.78 732.076 1987 735.498Z" fill="#F0F9FF"/>
<path d="M2080.7 731.083L2033.21 699.558C2027.86 698.274 2014.98 698.659 2006.26 710.468C1997.53 722.277 1989.78 732.076 1987 735.498L2050.54 776.573L2035.78 796.469L2080.7 825.992L2111.51 776.573C2113.86 769.941 2116.39 755.137 2107.66 748.976L2101.13 744.639M2080.7 731.083L2068.25 748.976L2084.38 759L2091 748.976L2095.38 751.75L2101.13 744.639M2080.7 731.083L2101.13 744.639" stroke="#74D4FF"/>
</g>
<g id="&#236;&#151;&#176;&#237;&#152;&#145;">
<path d="M2341.92 540.393L2351.21 472.751L2357.36 428.001L2367.59 353.63L2290.57 342.078L2280.94 406.9L2223.18 402.407L2214.84 451.825H2198.15L2186.6 520.498L2252.75 528.971L2264.26 530.445L2341.92 540.393Z" fill="#F0F9FF"/>
<path d="M2299.08 353.001L2355.53 360.934L2347.95 414.903L2291.5 406.97L2299.08 353.001Z" fill="#F0F9FF"/>
<path d="M2308.53 389.001L2339.23 393.315L2336.45 413.12L2305.75 408.806L2308.53 389.001Z" fill="#F0F9FF"/>
<path d="M2293.4 473.751L2327.22 477.305L2324.81 500.179L2291 496.625L2293.4 473.751Z" fill="#F0F9FF"/>
<path d="M2330 521.534L2333.04 500.251L2344.43 501.879L2341.38 523.162L2330 521.534Z" fill="#F0F9FF"/>
<path d="M2280.94 406.9L2290.57 342.078L2367.59 353.63L2357.36 428.001M2280.94 406.9L2223.18 402.407L2214.84 451.825M2280.94 406.9L2279.7 416.126M2214.84 451.825H2198.15L2186.6 520.498L2252.75 528.971M2214.84 451.825L2225.75 453.581M2264.26 530.445L2341.92 540.393L2351.21 472.751M2264.26 530.445L2252.75 528.971M2264.26 530.445L2273.43 462.501M2252.75 528.971L2261.75 459.376L2225.75 453.581M2225.75 453.581L2231.38 412.251L2279.7 416.126M2279.7 416.126L2273.43 462.501M2279.7 416.126L2326.75 423.32M2351.21 472.751L2357.36 428.001M2351.21 472.751L2326.75 469.527M2273.43 462.501L2320 468.637M2357.36 428.001L2333.88 424.409M2320 468.637L2326.75 423.32M2320 468.637L2326.75 469.527M2326.75 423.32L2333.88 424.409M2333.88 424.409L2326.75 469.527M2299.08 353.001L2355.53 360.934L2347.95 414.903L2291.5 406.97L2299.08 353.001ZM2308.53 389.001L2339.23 393.315L2336.45 413.12L2305.75 408.806L2308.53 389.001ZM2293.4 473.751L2327.22 477.305L2324.81 500.179L2291 496.625L2293.4 473.751ZM2330 521.534L2333.04 500.251L2344.43 501.879L2341.38 523.162L2330 521.534Z" stroke="#74D4FF"/>
</g>
<g id="&#236;&#130;&#176;&#237;&#149;&#153;&#237;&#152;&#145;&#235;&#160;&#165;&#234;&#180;&#128;">
<path d="M2298.91 223.988L2394.54 266.347L2396.47 263.138L2421.75 274.037L2551.75 330.083L2648.05 371.601L2645.48 376.736L2694.9 397.273L2702.41 380.376L2743.68 287.526L2366.25 125.425L2343.2 115.524L2298.91 223.988Z" fill="#F0F9FF"/>
<path d="M2702.41 380.376L2694.9 397.273L2645.48 376.736L2648.05 371.601L2551.75 330.083M2702.41 380.376L2743.68 287.526L2366.25 125.425M2702.41 380.376L2569.38 322.283M2366.25 125.425L2343.2 115.524L2298.91 223.988L2394.54 266.347L2396.47 263.138L2421.75 274.037M2366.25 125.425L2327.13 216.501L2431.5 262.078M2551.75 330.083L2558.13 317.37M2551.75 330.083L2421.75 274.037M2558.13 317.37L2438.63 265.189M2558.13 317.37L2569.38 322.283M2421.75 274.037L2431.5 262.078M2431.5 262.078L2438.63 265.189M2438.63 265.189L2479.25 250.126L2515.63 264.773M2569.38 322.283L2572.64 314.751M2572.64 314.751L2582.63 291.751L2554.44 280.401M2572.64 314.751L2564.88 311.259M2526.25 269.051L2515.63 289.126L2564.88 311.259M2526.25 269.051L2554.44 280.401M2526.25 269.051L2515.63 264.773M2540.88 274.037L2537.13 280.501L2572.64 295.876L2564.88 311.259M2554.44 280.401L2562.63 263.138L2524.38 247.876L2515.63 264.773M2416.75 228.049L2407 223.988L2416.75 200.876L2427 205.335M2416.75 228.049L2448.75 241.376L2458.13 218.876L2427 205.335M2416.75 228.049L2427 205.335M2665.96 327.621L2654 322.283L2664.13 302.376L2675.88 307.831M2665.96 327.621L2697.63 341.751L2707 322.283L2675.88 307.831M2665.96 327.621L2675.88 307.831" stroke="#74D4FF"/>
</g>
<g id="&#234;&#176;&#132;&#237;&#152;&#184;&#235;&#140;&#128;">
<path d="M1932.45 2183.39L1900.79 2239.88L1893.92 2252.13L1875.97 2284.15L1889.25 2291.82L1995.99 2353.44L2023.02 2306.62L1988.56 2286.72L1996.71 2272.62L2020.06 2232.17L1994.5 2217.41L1973.37 2205.21L1957.81 2232.17L1945.93 2225.31L1960.86 2199.44L1932.45 2183.39Z" fill="#F0F9FF"/>
<path d="M1932.45 2183.39L1960.86 2199.44M1932.45 2183.39L1939.38 2202.88M1932.45 2183.39L1900.79 2239.88M1995.99 2353.44L2023.02 2306.62M1995.99 2353.44L1889.25 2291.82M1995.99 2353.44L1988.56 2318.25M2023.02 2306.62L1988.56 2286.72M2023.02 2306.62L1988.56 2318.25M1988.56 2286.72L1996.71 2272.62M1988.56 2286.72L1975.49 2279.67M1957.81 2232.17L1973.37 2205.21L1994.5 2217.41M1957.81 2232.17L1945.93 2225.31L1960.86 2199.44M1957.81 2232.17L1949.34 2246.58M1957.81 2232.17L1940.88 2234.25M1960.86 2199.44L1939.38 2202.88M1889.25 2291.82L1875.97 2284.15L1893.92 2252.13M1889.25 2291.82L1900.79 2271.34M1939.38 2202.88L1926.06 2226.5M1914.31 2247.35L1900.79 2239.88M1914.31 2247.35L1907.89 2258.75M1914.31 2247.35L1926.06 2226.5M1900.79 2239.88L1893.92 2252.13M1907.89 2258.75L1893.92 2252.13M1907.89 2258.75L1900.79 2271.34M1900.79 2271.34L1988.56 2318.25M1940.88 2261L1962.41 2272.62M1940.88 2261L1928 2254.5L1936.13 2241.63L1948.34 2248.3M1940.88 2261L1948.34 2248.3M1996.71 2272.62L2020.06 2232.17L1994.5 2217.41M1996.71 2272.62L1984.13 2265.7M1949.34 2246.58L1984.13 2265.7M1949.34 2246.58L1948.34 2248.3M1962.41 2272.62L1994.5 2217.41M1962.41 2272.62L1975.49 2279.67M1975.49 2279.67L1984.13 2265.7M1948.34 2248.3L1940.88 2234.25M1940.88 2234.25L1926.06 2226.5" stroke="#74D4FF"/>
</g>
<g id="&#235;&#143;&#132;&#236;&#132;&#156;&#234;&#180;&#128;">
<path d="M2050.76 2337.08L2027.01 2398.7L2087.34 2421.16L2084.13 2428.86L2099.53 2434.64L2101.46 2428.86L2129.7 2441.05V2445.55L2143.82 2451.32L2145.74 2441.05L2202.86 2462.88L2226.61 2400.62L2237.52 2403.19L2242.01 2389.71L2238.68 2387.78C2241.5 2377.52 2249.2 2355.31 2257.41 2348.64L2247.15 2344.14L2270.25 2284.46L2208 2261.35L2211.85 2252.37L2195.8 2245.95L2194.52 2249.16L2154.08 2231.83L2152.8 2239.53L2147.03 2236.32L2145.74 2240.81L2134.83 2235.04L2138.04 2227.34L2117.5 2220.28L2114.29 2229.26L2091.19 2220.28L2069.37 2280.6L2061.67 2278.04C2057.6 2294.51 2047.67 2328.74 2040.49 2333.87L2050.76 2337.08Z" fill="#F0F9FF"/>
<path d="M2130.76 2294.75L2194.66 2318.01L2171.4 2381.91L2107.5 2358.65L2130.76 2294.75Z" fill="#F0F9FF"/>
<path d="M2133 2299.56L2189.85 2320.25L2169.16 2377.1L2112.31 2356.41L2133 2299.56Z" fill="#F0F9FF"/>
<path d="M2135.24 2304.36L2185.04 2322.49L2166.92 2372.29L2117.11 2354.17L2135.24 2304.36Z" fill="#F0F9FF"/>
<path d="M2137.48 2309.17L2180.24 2324.73L2164.68 2367.49L2121.92 2351.92L2137.48 2309.17Z" fill="#F0F9FF"/>
<path d="M2139.72 2313.98L2175.43 2326.97L2162.43 2362.68L2126.73 2349.68L2139.72 2313.98Z" fill="#F0F9FF"/>
<path d="M2141.96 2318.78L2170.62 2329.21L2160.19 2357.87L2131.53 2347.44L2141.96 2318.78Z" fill="#F0F9FF"/>
<path d="M2146.45 2328.4L2161.01 2333.7L2155.71 2348.26L2141.15 2342.96L2146.45 2328.4Z" fill="#F0F9FF"/>
<path d="M2144.21 2323.59L2165.82 2331.46L2157.95 2353.07L2136.34 2345.2L2144.21 2323.59Z" fill="#F0F9FF"/>
<path d="M1628 1592H1653V1617H1628V1592Z" fill="#F0F9FF"/>
<path d="M2106.48 2245.5L2126.73 2252.87L2224.5 2288.46L2241.32 2294.58L2199.94 2408.28L2192.24 2429.43L2057.5 2380.02L2099.56 2264.5L2106.48 2245.5Z" fill="#F0F9FF"/>
<path d="M2166.92 2372.29L2188.5 2380.15L2207.64 2387.12L2199.94 2408.28L2192.24 2429.43L2172.06 2422.03L2151.88 2414.62L2161.4 2387.81L2166.92 2372.29Z" fill="#F0F9FF"/>
<path d="M2200 2279.54L2224.5 2288.46L2241.32 2294.58L2225.7 2337.5L2209.33 2331.46L2185.04 2322.49L2200 2279.54Z" fill="#F0F9FF"/>
<path d="M2106.48 2245.5L2126.73 2252.87L2149.5 2261.16L2139.32 2292L2135.24 2304.36L2112.31 2295.81L2091.05 2287.88L2099.56 2264.5L2106.48 2245.5Z" fill="#F0F9FF"/>
<path d="M2072.98 2337.5L2095.04 2345.83L2117.11 2354.17L2100 2395.6L2078.75 2387.81L2057.5 2380.02L2072.98 2337.5Z" fill="#F0F9FF"/>
<path d="M2130.76 2294.75L2194.66 2318.01M2130.76 2294.75L2107.5 2358.65M2130.76 2294.75L2171.4 2381.91M2194.66 2318.01L2171.4 2381.91M2194.66 2318.01L2107.5 2358.65M2171.4 2381.91L2107.5 2358.65M2135.24 2304.36L2185.04 2322.49M2135.24 2304.36L2117.11 2354.17M2135.24 2304.36L2112.31 2295.81M2135.24 2304.36L2139.32 2292M2185.04 2322.49L2166.92 2372.29M2185.04 2322.49L2200 2279.54L2224.5 2288.46M2185.04 2322.49L2209.33 2331.46M2166.92 2372.29L2117.11 2354.17M2166.92 2372.29L2161.4 2387.81M2166.92 2372.29L2188.5 2380.15M2117.11 2354.17L2100 2395.6L2078.75 2387.81M2117.11 2354.17L2095.04 2345.83M2241.32 2294.58L2225.7 2337.5L2209.33 2331.46M2241.32 2294.58L2224.5 2288.46M2241.32 2294.58L2199.94 2408.28M2192.24 2429.43L2057.5 2380.02M2192.24 2429.43L2172.06 2422.03M2192.24 2429.43L2199.94 2408.28M2057.5 2380.02L2072.98 2337.5L2095.04 2345.83M2057.5 2380.02L2099.56 2264.5M2057.5 2380.02L2078.75 2387.81M2209.33 2331.46L2224.5 2288.46M2224.5 2288.46L2126.73 2252.87M2126.73 2252.87L2106.48 2245.5L2099.56 2264.5M2126.73 2252.87L2149.5 2261.16L2139.32 2292M2126.73 2252.87L2119.75 2271L2099.56 2264.5M2099.56 2264.5L2091.05 2287.88L2112.31 2295.81M2112.31 2295.81L2117.11 2283.88L2139.32 2292M2078.75 2387.81L2095.04 2345.83M2172.06 2422.03L2151.88 2414.62L2161.4 2387.81M2172.06 2422.03L2179.75 2401.62L2199.94 2408.28M2199.94 2408.28L2207.64 2387.12L2188.5 2380.15M2161.4 2387.81L2182.88 2395.6L2188.5 2380.15M2050.76 2337.08L2027.01 2398.7L2087.34 2421.16L2084.13 2428.86L2099.53 2434.64L2101.46 2428.86L2129.7 2441.05V2445.55L2143.82 2451.32L2145.74 2441.05L2202.86 2462.88L2226.61 2400.62L2237.52 2403.19L2242.01 2389.71L2238.68 2387.78C2241.5 2377.52 2249.2 2355.31 2257.41 2348.64L2247.15 2344.14L2270.25 2284.46L2208 2261.35L2211.85 2252.37L2195.8 2245.95L2194.52 2249.16L2154.08 2231.83L2152.8 2239.53L2147.03 2236.32L2145.74 2240.81L2134.83 2235.04L2138.04 2227.34L2117.5 2220.28L2114.29 2229.26L2091.19 2220.28L2069.37 2280.6L2061.67 2278.04C2057.6 2294.51 2047.67 2328.74 2040.49 2333.87L2050.76 2337.08ZM2133 2299.56L2189.85 2320.25L2169.16 2377.1L2112.31 2356.41L2133 2299.56ZM2137.48 2309.17L2180.24 2324.73L2164.68 2367.49L2121.92 2351.92L2137.48 2309.17ZM2139.72 2313.98L2175.43 2326.97L2162.43 2362.68L2126.73 2349.68L2139.72 2313.98ZM2141.96 2318.78L2170.62 2329.21L2160.19 2357.87L2131.53 2347.44L2141.96 2318.78ZM2146.45 2328.4L2161.01 2333.7L2155.71 2348.26L2141.15 2342.96L2146.45 2328.4ZM2144.21 2323.59L2165.82 2331.46L2157.95 2353.07L2136.34 2345.2L2144.21 2323.59ZM1628 1592H1653V1617H1628V1592Z" stroke="#74D4FF"/>
</g>
<g id="&#235;&#178;&#149;&#237;&#149;&#153;&#234;&#180;&#128;">
<path d="M2145.53 2065.3L2131.41 2109.91L2124.45 2131.88L2117.29 2154.51L2121.14 2156.44L2122.42 2153.87L2134.61 2156.44V2160.93L2230.24 2191.73V2184.03L2236.66 2187.88L2242.44 2174.41H2236.66L2239.73 2168.5L2245 2158.36L2240.51 2156.44L2245 2144.88L2200.72 2130.12L2218.69 2071.72L2225.11 2073.44L2232.39 2046.27L2239.67 2019.09L2230.87 2015.75L2238.34 1986.36L2225.11 1982.82L2228.11 1971.6L2221.9 1969.93L2225.11 1959.7L2232.03 1937.62L2238.34 1917.5L2167.35 1893.94V1901H2159.64L2156.01 1912.75L2149.83 1932.75L2137.82 1971.6L2159.64 1978.66L2155.15 1991.49L2141.03 1988.29L2137.82 2000.48L2133.33 1999.2L2124.99 2030L2137.82 2033.21L2128.84 2062.09L2145.53 2065.3Z" fill="#F0F9FF"/>
<path d="M2171.88 1905.92L2225.38 1923.3L2221.9 1934L2168.4 1916.62L2171.88 1905.92Z" fill="#F0F9FF"/>
<path d="M2147.98 1939.73L2214.87 1962.88L2208.69 1981.9L2169.37 1968.29L2141.8 1958.75L2147.98 1939.73Z" fill="#F0F9FF"/>
<path d="M2200.72 2130.12L2245 2144.88L2240.51 2156.44L2245 2158.36L2239.73 2168.5M2200.72 2130.12L2218.69 2071.72L2225.11 2073.44L2232.39 2046.27M2200.72 2130.12H2169.37L2170.92 2125.5M2230.87 2015.75L2239.67 2019.09L2232.39 2046.27M2230.87 2015.75L2238.34 1986.36L2225.11 1982.82L2228.11 1971.6L2221.9 1969.93L2225.11 1959.7M2230.87 2015.75L2209.87 2008.75M2159.64 1978.66L2137.82 1971.6L2149.83 1932.75M2159.64 1978.66L2155.15 1991.49M2159.64 1978.66L2205.12 1993.25M2155.15 1991.49L2141.03 1988.29L2137.82 2000.48M2155.15 1991.49L2160.87 1993.25M2137.82 2000.48L2133.33 1999.2L2124.99 2030L2137.82 2033.21M2137.82 2000.48L2159.64 2006L2152.06 2032.44M2137.82 2033.21L2128.84 2062.09L2145.53 2065.3L2131.41 2109.91M2137.82 2033.21L2139.5 2027.75L2152.06 2032.44M2221.9 1934L2225.38 1923.3L2171.88 1905.92L2168.4 1916.62M2221.9 1934L2168.4 1916.62M2221.9 1934L2232.03 1937.62M2168.4 1916.62L2156.01 1912.75M2208.69 1981.9L2214.87 1962.88L2147.98 1939.73L2141.8 1958.75L2169.37 1968.29M2208.69 1981.9L2205.12 1993.25M2208.69 1981.9L2217.25 1984.75L2209.87 2008.75M2208.69 1981.9L2169.37 1968.29M2232.03 1937.62L2238.34 1917.5L2167.35 1893.94V1901H2159.64L2156.01 1912.75M2232.03 1937.62L2225.11 1959.7M2156.01 1912.75L2149.83 1932.75M2225.11 1959.7L2149.83 1932.75M2205.12 1993.25L2201.62 2006L2209.87 2008.75M2209.87 2008.75L2200.72 2036.19M2169.37 1968.29L2160.87 1993.25M2160.87 1993.25L2174.37 2057.5M2174.37 2057.5L2155.42 2119.62M2174.37 2057.5L2159.64 2051L2164.62 2037.12L2152.06 2032.44M2174.37 2057.5L2191.77 2063M2131.41 2109.91L2153.62 2125.5L2155.42 2119.62M2131.41 2109.91L2124.45 2131.88M2170.92 2125.5L2155.42 2119.62M2170.92 2125.5L2191.77 2063M2239.73 2168.5L2236.66 2174.41H2242.44L2236.66 2187.88L2230.24 2184.03V2191.73L2134.61 2160.93V2156.44L2122.42 2153.87L2121.14 2156.44L2117.29 2154.51L2124.45 2131.88M2239.73 2168.5L2124.45 2131.88M2232.39 2046.27L2200.72 2036.19M2200.72 2036.19L2191.77 2063" stroke="#74D4FF"/>
</g>
<g id="&#236;&#167;&#132;&#236;&#132;&#160;&#235;&#175;&#184;&#234;&#180;&#128;">
<path d="M1671.24 1937.58L1688.89 1943.04L1706.54 1948.49L1725.15 1893.94L1735.42 1885.6L1752.88 1908.13L1766.22 1898.43L1764.94 1896.51L1786.76 1881.11L1771.36 1863.14L1783.55 1852.87H1841.96V1832.97V1814.36L1771.36 1815.64L1746.33 1832.97L1731.57 1812.43L1703.97 1832.97L1715.52 1848.37L1709.75 1852.87L1712.96 1858L1694.34 1870.2L1671.24 1937.58Z" fill="#F0F9FF"/>
<path d="M1735.42 1885.6L1725.15 1893.94L1706.54 1948.49L1688.89 1943.04M1735.42 1885.6L1752.88 1908.13L1766.22 1898.43L1764.94 1896.51L1786.76 1881.11L1771.36 1863.14M1735.42 1885.6L1742.81 1860.05M1771.36 1863.14L1783.55 1852.87H1841.96V1832.97M1771.36 1863.14L1742.81 1860.05M1746.33 1832.97L1771.36 1815.64L1841.96 1814.36V1832.97M1746.33 1832.97L1731.57 1812.43L1703.97 1832.97L1715.52 1848.37L1709.75 1852.87L1712.96 1858M1746.33 1832.97L1730.63 1844.75M1712.96 1858L1694.34 1870.2L1671.24 1937.58L1688.89 1943.04M1712.96 1858L1730.63 1844.75M1688.89 1943.04L1709.75 1885.6L1742.81 1860.05M1841.96 1832.97L1775.88 1834.5L1742.81 1860.05M1742.81 1860.05L1730.63 1844.75" stroke="#74D4FF"/>
</g>
<g id="&#236;&#157;&#180;&#237;&#153;&#148; &#236;&#151;&#173;&#236;&#130;&#172;&#234;&#180;&#128;">
<path d="M2051.18 1889.45L2028.08 1872.12L2024.23 1876.61L2012.99 1868.27L2001.76 1859.93L2021.21 1834L2038.35 1811.15L2034.49 1808.58L2043.5 1796.58L2049.9 1788.04L2053.87 1790.93L2119.37 1838.36L2124.35 1841.96L2117.61 1850.94L2110.87 1859.93L2106.38 1856.72L2087.12 1883.35L2071.47 1905L2067.87 1909.99L2057.92 1902.61L2047.97 1895.22L2051.18 1889.45Z" fill="#F0F9FF"/>
<path d="M2043.5 1850.52L2061.13 1826.25L2085.4 1843.88L2067.77 1868.15L2043.5 1850.52Z" fill="#F0F9FF"/>
<path d="M2051.18 1889.45L2028.08 1872.12L2024.23 1876.61L2012.99 1868.27M2051.18 1889.45L2047.97 1895.22L2057.92 1902.61M2051.18 1889.45L2071.47 1905M2038.35 1811.15L2034.49 1808.58L2043.5 1796.58M2038.35 1811.15L2021.21 1834M2038.35 1811.15L2058 1807.21M2038.35 1811.15L2053.87 1790.93M2106.38 1856.72L2110.87 1859.93L2117.61 1850.94M2106.38 1856.72L2103.37 1840.5M2106.38 1856.72L2087.12 1883.35M2106.38 1856.72L2119.37 1838.36M2043.5 1850.52L2061.13 1826.25M2043.5 1850.52L2067.77 1868.15M2043.5 1850.52L2021.21 1834M2061.13 1826.25L2085.4 1843.88M2061.13 1826.25L2058 1807.21M2085.4 1843.88L2067.77 1868.15M2085.4 1843.88L2103.37 1840.5M2067.77 1868.15L2087.12 1883.35M2117.61 1850.94L2124.35 1841.96L2119.37 1838.36M2117.61 1850.94L2103.37 1840.5M2043.5 1796.58L2049.9 1788.04L2053.87 1790.93M2043.5 1796.58L2058 1807.21M2012.99 1868.27L2001.76 1859.93L2021.21 1834M2012.99 1868.27L2024.23 1853.03M2058 1807.21L2103.37 1840.5M2058 1807.21L2024.23 1853.03M2057.92 1902.61L2067.87 1909.99L2071.47 1905M2057.92 1902.61L2069.8 1886.38M2103.37 1840.5L2069.8 1886.38M2069.8 1886.38L2024.23 1853.03M2087.12 1883.35L2071.47 1905M2119.37 1838.36L2053.87 1790.93" stroke="#74D4FF"/>
</g>
<g id="&#237;&#149;&#156;&#236;&#154;&#176;&#235;&#166;&#172;&#236;&#167;&#145;">
<path d="M2365.02 1565.98V1586.2V1606.42C2409.73 1612.41 2514.04 1638.51 2573.6 1694.98L2583.23 1684.72L2592.22 1691.78L2597.66 1684.72L2609.54 1669.31C2581.3 1646.85 2505.7 1596.4 2429.2 1574.33C2430.7 1565.98 2434.98 1548.65 2440.11 1546.09C2455.94 1555.93 2493.25 1577.15 2515.84 1583.31L2528.15 1561.5L2529.96 1558.28L2526.75 1552.51L2533.17 1537.1C2510.71 1527.05 2459.88 1501.93 2436.26 1481.91L2431.77 1487.04C2399.68 1462.23 2328.69 1395.01 2301.48 1324.67L2299.56 1325.95L2295.71 1319.53L2286.08 1324.67L2281.59 1316.32L2274.45 1319.53L2255.91 1327.88C2259.12 1339.86 2272.73 1373.96 2301.48 1414.52L2298.91 1416.44C2302.31 1420.83 2306.79 1426.35 2312.13 1432.62C2328.18 1451.47 2352.03 1477.1 2377.75 1499.1C2387.67 1507.59 2397.88 1515.53 2408.02 1522.34C2402.46 1529.61 2390.69 1548.53 2388.12 1565.98C2384.49 1565.34 2374.77 1564.44 2365.02 1565.98Z" fill="#F0F9FF"/>
<path d="M2440.11 1546.09C2434.98 1548.65 2430.7 1565.98 2429.2 1574.33C2505.7 1596.4 2581.3 1646.85 2609.54 1669.31L2597.66 1684.72M2440.11 1546.09C2455.94 1555.93 2493.25 1577.15 2515.84 1583.31L2528.15 1561.5M2440.11 1546.09C2432.14 1540.08 2414.56 1526.91 2408.02 1522.34M2301.48 1414.52C2272.73 1373.96 2259.12 1339.86 2255.91 1327.88L2274.45 1319.53M2301.48 1414.52L2298.91 1416.44C2302.31 1420.83 2306.79 1426.35 2312.13 1432.62M2301.48 1414.52L2309.87 1408.82M2408.02 1522.34C2402.46 1529.61 2390.69 1548.53 2388.12 1565.98C2384.49 1565.34 2374.77 1564.44 2365.02 1565.98V1586.2M2408.02 1522.34C2397.88 1515.53 2387.67 1507.59 2377.75 1499.1M2365.02 1586.2V1606.42C2409.73 1612.41 2514.04 1638.51 2573.6 1694.98L2583.23 1684.72L2592.22 1691.78L2597.66 1684.72M2365.02 1586.2C2416.04 1592.73 2533.99 1621.59 2597.66 1684.72M2528.15 1561.5L2529.96 1558.28L2526.75 1552.51L2533.17 1537.1C2510.71 1527.05 2459.88 1501.93 2436.26 1481.91L2431.77 1487.04C2399.68 1462.23 2328.69 1395.01 2301.48 1324.67L2299.56 1325.95L2295.71 1319.53L2286.08 1324.67L2281.59 1316.32L2274.45 1319.53M2528.15 1561.5C2501.15 1553.65 2456.99 1532.9 2410.75 1495.96M2274.45 1319.53C2306.13 1390.19 2350.18 1443.4 2393.99 1481.91M2377.75 1499.1L2385.87 1490.5M2377.75 1499.1C2352.03 1477.1 2328.18 1451.47 2312.13 1432.62M2393.99 1481.91L2385.87 1490.5M2393.99 1481.91C2399.59 1486.83 2405.18 1491.51 2410.75 1495.96M2385.87 1490.5L2402.87 1504.88L2410.75 1495.96M2312.13 1432.62L2323 1425.59M2309.87 1408.82L2318.25 1403.12L2331.25 1420.25L2323 1425.59M2309.87 1408.82L2323 1425.59" stroke="#74D4FF"/>
</g>
<g id="&#236;&#152;&#164;&#235;&#154;&#156;&#234;&#184;&#176;">
<path d="M2602.48 1522.98C2556.49 1508.44 2457.57 1456.62 2429.84 1365.74L2439.57 1361.63L2461.88 1352.19L2479.9 1344.56C2489.31 1373.66 2528.04 1438.52 2607.62 1465.22L2605.68 1487L2603.24 1514.5L2602.48 1522.98Z" fill="#F0F9FF"/>
<path d="M2603.24 1514.5L2602.48 1522.98C2556.49 1508.44 2457.57 1456.62 2429.84 1365.74L2439.57 1361.63M2603.24 1514.5L2587 1509L2590.86 1495.13M2603.24 1514.5L2605.68 1487M2605.68 1487L2607.62 1465.22C2528.04 1438.52 2489.31 1373.66 2479.9 1344.56L2461.88 1352.19M2605.68 1487L2594.12 1483.38L2593.12 1487M2593.12 1487L2590.86 1495.13M2593.12 1487C2580.23 1482.93 2560.91 1474.1 2540.5 1459.97M2460.5 1361.63L2464.75 1360L2461.88 1352.19M2460.5 1361.63L2451.69 1365.44M2460.5 1361.63C2463.45 1369.2 2466.81 1376.4 2470.5 1383.25M2439.57 1361.63L2442.88 1369.25L2451.69 1365.44M2439.57 1361.63L2461.88 1352.19M2451.69 1365.44C2454.25 1372.08 2460.15 1385.85 2463.25 1387.75L2470.5 1383.25M2470.5 1383.25C2488.91 1417.41 2515.51 1442.66 2540.5 1459.97M2590.86 1495.13C2579.91 1491.25 2553.58 1480.25 2535.88 1467.25L2540.5 1459.97M2571.12 1471.38L2560.5 1493.13L2568.5 1496.88L2578.5 1475.13L2571.12 1471.38Z" stroke="#74D4FF"/>
</g>
<g id="E&#237;&#149;&#152;&#236;&#154;&#176;&#236;&#138;&#164;">
<path d="M2494.02 1318.25L2485.04 1259.85H2481.83V1250.86H2485.04L2499.15 1186.68L2445.24 1173.2L2443.32 1190.53L2447.81 1192.46L2443.32 1207.86H2439.47V1225.19H2435.62V1233.53H2439.47V1240.59H2436.9V1249.58H2430.48L2436.9 1293.22H2441.39L2443.32 1310.55H2439.47L2441.39 1327.88L2494.02 1318.25Z" fill="#F0F9FF"/>
<path d="M2458.08 1163.58L2501.72 1171.28H2511.35L2520.56 1115.44L2518.33 1114.16V1105.17L2523.54 1106.57L2557.56 1047.65L2509.34 1019.81L2501.72 1033.01L2506.66 1035.86L2497.77 1051.26L2494.43 1049.34L2481.18 1072.28L2484.8 1074.37L2477.33 1087.3L2472.2 1085.92L2463.86 1130.5L2469.63 1132.05L2465.14 1148.82H2462.04L2458.08 1163.58Z" fill="#F0F9FF"/>
<path d="M2515.84 992.765L2562.69 1019.81L2590.93 967.829L2586.2 965.019L2590.93 956.827L2596.07 958.202L2611.47 877.978L2562 868.993L2557.56 885.587L2562.69 886.963L2560.13 904.291H2554.13L2545.36 937.023H2550.17L2548.28 944.083L2543.44 942.786L2530.6 965.019L2535.47 967.829L2526.75 982.931L2522.83 980.665L2515.84 992.765Z" fill="#F0F9FF"/>
<path d="M2555.63 847.172H2566.54L2587.72 849.097V852.306L2606.98 857.44L2619.17 797.753L2615.96 796.47V789.41H2619.81L2655.75 732.29L2606.98 702.767L2598.63 715.603L2603.77 719.454L2594.78 736.141L2590.93 732.29C2590.93 742.045 2582.37 750.902 2578.1 754.111L2582.59 757.32L2574.89 769.514L2570.39 767.589L2560.77 812.515L2565.26 813.798L2562.69 830.983L2559.76 831.768L2555.63 847.172Z" fill="#F0F9FF"/>
<path d="M2527.39 700.2H2477.33V715.603H2481.18V732.29H2477.33L2475.41 759.887L2481.18 764.38V767.589H2475.41L2465.78 796.47L2470.27 797.753L2463.86 817.649H2459.36L2455.51 827.918L2503.01 844.604L2524.83 780.425L2533.81 783.634L2537.02 774.007L2520.33 769.514V757.32H2529.32L2527.39 700.2Z" fill="#F0F9FF"/>
<path d="M2498.51 860.007L2449.09 844.604L2443.32 861.291H2449.09L2443.32 879.903H2440.11L2426.63 910.709L2432.41 912.635L2429.2 919.695L2425.35 917.769L2409.95 938.948L2413.8 940.874L2403.53 954.993L2400.32 953.068L2393.26 962.053L2396.47 964.324L2434.98 991.576L2467.71 945.366L2462.57 942.786L2470.27 933.814L2485.04 938.948L2488.24 926.754L2477.98 923.545L2498.51 860.007Z" fill="#F0F9FF"/>
<path d="M2422.78 1022.38L2377.21 988.367L2368.87 999.919L2373.36 1006.98L2364.38 1019.81L2361.17 1017.89L2345.12 1038.43L2350.26 1042.28L2341.91 1051.26H2333.57L2322.02 1094.9H2327.15L2324.59 1111.59H2316.88L2313.68 1123.79L2366.3 1138.55L2381.06 1083.99H2377.21L2379.14 1074.37L2384.27 1076.29L2386.2 1072.28L2393.26 1080.14L2400.32 1072.28L2391.97 1066.02L2422.78 1022.38Z" fill="#F0F9FF"/>
<path d="M2353.47 1156.52L2298.27 1139.83L2293.78 1155.23H2298.27L2295.71 1173.2L2291.85 1170.64L2286.08 1195.67L2291.85 1199.52L2286.08 1213H2281.59V1257.28L2289.29 1259.2V1277.82H2284.15V1288.73L2337.42 1286.16L2335.5 1229.04L2330.36 1226.47V1218.77L2335.5 1216.2L2346.41 1218.77L2348.97 1210.43L2337.42 1207.86L2353.47 1156.52Z" fill="#F0F9FF"/>
<path d="M2590.05 920.588L2582.16 950.049L2582.14 950.042L2566.91 976.414L2558.25 971.414L2572.86 946.101L2580.39 918L2590.05 920.588Z" fill="#F0F9FF"/>
<path d="M2471.87 895.012L2461.94 923.85L2461.92 923.842L2444.89 949.087L2436.6 943.495L2452.94 919.263L2462.42 891.756L2471.87 895.012Z" fill="#F0F9FF"/>
<path d="M2516.57 741.808L2513.38 772.141L2513.36 772.138L2502.45 800.567L2493.11 796.983L2503.58 769.695L2506.63 740.763L2516.57 741.808Z" fill="#F0F9FF"/>
<path d="M2588.64 809.802L2596.54 780.341L2596.56 780.347L2611.79 753.976L2620.45 758.976L2605.83 784.289L2598.3 812.39L2588.64 809.802Z" fill="#F0F9FF"/>
<path d="M2491.94 1127.61L2498.8 1097.9L2498.82 1097.9L2513.12 1071.02L2521.95 1075.71L2508.23 1101.52L2501.68 1129.86L2491.94 1127.61Z" fill="#F0F9FF"/>
<path d="M2461.5 1279.92L2459.9 1249.46L2459.93 1249.46L2466.26 1219.68L2476.04 1221.76L2469.96 1250.35L2471.49 1279.4L2461.5 1279.92Z" fill="#F0F9FF"/>
<path d="M2311 1250.42L2309.4 1219.96L2309.43 1219.96L2315.76 1190.18L2325.54 1192.26L2319.46 1220.85L2320.99 1249.9L2311 1250.42Z" fill="#F0F9FF"/>
<path d="M2351.75 1097.83L2359.64 1068.36L2359.67 1068.37L2374.89 1042L2383.55 1047L2368.94 1072.31L2361.41 1100.41L2351.75 1097.83Z" fill="#F0F9FF"/>
<path d="M2499.15 1186.68L2485.04 1250.86H2481.83V1259.85H2485.04L2494.02 1318.25L2441.39 1327.88L2439.47 1310.55H2443.32L2441.39 1293.22H2436.9M2499.15 1186.68L2445.24 1173.2L2443.32 1190.53L2447.81 1192.46L2443.32 1207.86H2439.47V1225.19H2435.62V1233.53H2439.47V1240.59H2436.9V1249.58H2430.48M2499.15 1186.68L2501.72 1171.28M2430.48 1249.58C2432.62 1264.13 2436.9 1293.22 2436.9 1293.22M2430.48 1249.58L2436.9 1293.22M2501.72 1171.28L2458.08 1163.58L2462.04 1148.82H2465.14L2469.63 1132.05L2463.86 1130.5L2472.2 1085.92L2477.33 1087.3L2484.8 1074.37L2481.18 1072.28L2494.43 1049.34L2497.77 1051.26L2506.66 1035.86L2501.72 1033.01L2509.34 1019.81L2557.56 1047.65M2501.72 1171.28H2511.35L2520.56 1115.44L2518.33 1114.16V1105.17L2523.54 1106.57L2557.56 1047.65M2557.56 1047.65L2562.69 1019.81M2562.69 1019.81L2515.84 992.765L2522.83 980.665L2526.75 982.931L2535.47 967.829L2530.6 965.019L2543.44 942.786L2548.28 944.083L2550.17 937.023H2545.36L2554.13 904.291H2560.13L2562.69 886.963L2557.56 885.587L2562 868.993M2562.69 1019.81L2590.93 967.829L2586.2 965.019L2590.93 956.827L2596.07 958.202L2611.47 877.978L2562 868.993M2562 868.993L2566.54 847.172M2566.54 847.172H2555.63L2559.76 831.768L2562.69 830.983L2565.26 813.798L2560.77 812.515L2570.39 767.589L2574.89 769.514L2582.59 757.32L2578.1 754.111C2582.37 750.902 2590.93 742.045 2590.93 732.29L2594.78 736.141L2603.77 719.454L2598.63 715.603M2566.54 847.172L2587.72 849.097V852.306L2606.98 857.44L2619.17 797.753L2615.96 796.47V789.41H2619.81L2655.75 732.29L2606.98 702.767L2598.63 715.603M2598.63 715.603L2527.39 700.2M2527.39 700.2H2477.33V715.603H2481.18V732.29H2477.33L2475.41 759.887L2481.18 764.38V767.589H2475.41L2465.78 796.47L2470.27 797.753L2463.86 817.649H2459.36L2455.51 827.918M2527.39 700.2L2529.32 757.32H2520.33V769.514L2537.02 774.007L2533.81 783.634L2524.83 780.425L2503.01 844.604L2455.51 827.918M2455.51 827.918L2449.09 844.604M2449.09 844.604L2498.51 860.007L2477.98 923.545L2488.24 926.754L2485.04 938.948L2470.27 933.814L2462.57 942.786L2467.71 945.366L2434.98 991.576L2396.47 964.324M2449.09 844.604L2443.32 861.291H2449.09L2443.32 879.903H2440.11L2426.63 910.709L2432.41 912.635L2429.2 919.695L2425.35 917.769L2409.95 938.948L2413.8 940.874L2403.53 954.993L2400.32 953.068L2393.26 962.053L2396.47 964.324M2396.47 964.324L2377.21 988.367M2377.21 988.367L2422.78 1022.38L2391.97 1066.02L2400.32 1072.28L2393.26 1080.14L2386.2 1072.28L2384.27 1076.29L2379.14 1074.37L2377.21 1083.99H2381.06L2366.3 1138.55L2313.68 1123.79M2377.21 988.367L2368.87 999.919L2373.36 1006.98L2364.38 1019.81L2361.17 1017.89L2345.12 1038.43L2350.26 1042.28L2341.91 1051.26H2333.57L2322.02 1094.9H2327.15L2324.59 1111.59H2316.88L2313.68 1123.79M2313.68 1123.79L2303.41 1121.22L2298.27 1139.83M2298.27 1139.83L2353.47 1156.52L2337.42 1207.86L2348.97 1210.43L2346.41 1218.77L2335.5 1216.2L2330.36 1218.77V1226.47L2335.5 1229.04L2337.42 1286.16L2284.15 1288.73V1277.82H2289.29V1259.2L2281.59 1257.28V1213H2286.08L2291.85 1199.52L2286.08 1195.67L2291.85 1170.64L2295.71 1173.2L2298.27 1155.23H2293.78L2298.27 1139.83ZM2582.14 950.042L2582.16 950.049L2590.05 920.588L2580.39 918L2572.86 946.101M2582.14 950.042L2566.91 976.414L2558.25 971.414L2572.86 946.101M2582.14 950.042L2572.86 946.101M2461.94 923.85L2471.87 895.012L2462.42 891.756L2452.94 919.263M2461.94 923.85L2461.92 923.842L2444.89 949.087L2436.6 943.495L2452.94 919.263M2461.94 923.85L2452.94 919.263M2513.38 772.141L2516.57 741.808L2506.63 740.763L2503.58 769.695M2513.38 772.141L2513.36 772.138L2502.45 800.567L2493.11 796.983L2503.58 769.695M2513.38 772.141L2503.58 769.695M2596.56 780.347L2596.54 780.341L2588.64 809.802L2598.3 812.39L2605.83 784.289M2596.56 780.347L2611.79 753.976L2620.45 758.976L2605.83 784.289M2596.56 780.347L2605.83 784.289M2498.8 1097.9L2491.94 1127.61L2501.68 1129.86L2508.23 1101.52M2498.8 1097.9L2498.82 1097.9L2513.12 1071.02L2521.95 1075.71L2508.23 1101.52M2498.8 1097.9L2508.23 1101.52M2459.9 1249.46L2461.5 1279.92L2471.49 1279.4L2469.96 1250.35M2459.9 1249.46L2459.93 1249.46L2466.26 1219.68L2476.04 1221.76L2469.96 1250.35M2459.9 1249.46L2469.96 1250.35M2309.4 1219.96L2311 1250.42L2320.99 1249.9L2319.46 1220.85M2309.4 1219.96L2309.43 1219.96L2315.76 1190.18L2325.54 1192.26L2319.46 1220.85M2309.4 1219.96L2319.46 1220.85M2359.67 1068.37L2359.64 1068.36L2351.75 1097.83L2361.41 1100.41L2368.94 1072.31M2359.67 1068.37L2374.89 1042L2383.55 1047L2368.94 1072.31M2359.67 1068.37L2368.94 1072.31" stroke="#74D4FF"/>
</g>
<g id="&#235;&#179;&#184;&#234;&#180;&#128;">
<path d="M1666.75 2104.45L1665.3 2110.87L1650.47 2176.63L1647.49 2189.81L1663.54 2193.66L1679.58 2197.51L1683.22 2185.38L1685.36 2178.26L1778.42 2197.51L1777.13 2207.46L1775.85 2217.41L1792.86 2220.94L1809.87 2224.47L1811.99 2214.5L1826.3 2147.38L1828.48 2137.18L1812.43 2133.97L1796.39 2130.76L1794.14 2141.03L1791.9 2151.3L1778.42 2148.74V2154.51L1750.82 2148.74V2144.24L1737.98 2141.68L1734.78 2144.24L1703.33 2137.18L1705.25 2130.76H1691.78L1696.62 2117.13L1698.84 2110.87L1682.79 2107.66L1666.75 2104.45Z" fill="#F0F9FF"/>
<path d="M1685.36 2178.26L1778.42 2197.51M1685.36 2178.26L1671.88 2156.38M1685.36 2178.26L1683.22 2185.38M1778.42 2197.51L1800.86 2185.38M1778.42 2197.51L1777.13 2207.46M1791.9 2151.3L1778.42 2148.74V2154.51L1750.82 2148.74V2144.24L1737.98 2141.68L1734.78 2144.24L1703.33 2137.18L1705.25 2130.76H1691.78M1791.9 2151.3L1794.14 2141.03M1791.9 2151.3L1800.86 2185.38M1691.78 2130.76L1696.62 2117.13M1691.78 2130.76L1671.88 2156.38M1812.43 2133.97L1828.48 2137.18L1826.3 2147.38M1812.43 2133.97L1796.39 2130.76L1794.14 2141.03M1812.43 2133.97L1800.86 2185.38M1792.86 2220.94L1775.85 2217.41L1777.13 2207.46M1792.86 2220.94L1809.87 2224.47L1811.99 2214.5M1792.86 2220.94L1800.86 2185.38M1794.14 2141.03L1826.3 2147.38M1826.3 2147.38L1811.99 2214.5M1800.86 2185.38L1671.88 2156.38M1663.54 2193.66L1647.49 2189.81L1650.47 2176.63M1663.54 2193.66L1679.58 2197.51L1683.22 2185.38M1663.54 2193.66L1671.88 2156.38M1682.79 2107.66L1698.84 2110.87L1696.62 2117.13M1682.79 2107.66L1666.75 2104.45L1665.3 2110.87M1682.79 2107.66L1671.88 2156.38M1665.3 2110.87L1696.62 2117.13M1665.3 2110.87L1650.47 2176.63M1683.22 2185.38L1650.47 2176.63M1777.13 2207.46L1811.99 2214.5" stroke="#74D4FF"/>
</g>
<g id="&#234;&#179;&#181;&#237;&#149;&#153;&#234;&#180;&#128;">
<path d="M1838.1 954.352L1847.09 935.74L1836.82 931.247L1845.49 916.24L1854.15 901.233L1880.62 913.125L1891.69 894.023L1870.57 881.829L1894.58 851.664L1912.37 861.933L1923.86 842.037L1899.4 827.918L1912.37 809.159L1920.25 797.753L1926.67 801.459L1931.49 794.151L1936.3 786.843L1945.28 792.619L1946.57 790.396L2033.85 846.53L2032.57 848.455L2040.91 854.231L2036.1 861.291L2031.29 868.351L2042.2 876.052L2034.73 887.125L2023.58 903.65L2004.97 892.739L1967.75 951.143L1985.08 962.053L1978.02 978.74L1970.96 995.427L1961.33 990.934L1953.63 1006.34L1944 1002.49L1942.72 1004.41L1847.09 958.651L1838.1 954.352Z" fill="#F0F9FF"/>
<path d="M1847.09 935.74L1838.1 954.352L1847.09 958.651M1847.09 935.74L1836.82 931.247L1845.49 916.24M1847.09 935.74L1852.62 926.625L1860.75 930.539M1847.09 935.74L1856.27 939.75M1880.62 913.125L1854.15 901.233L1845.49 916.24M1880.62 913.125L1891.69 894.023M1880.62 913.125L1942.72 939.141M1891.69 894.023L1870.57 881.829L1894.58 851.664L1912.37 861.933M1891.69 894.023L1905 901.233L1925.12 869.5L1912.37 861.933M1912.37 861.933L1923.86 842.037M1923.86 842.037L1899.4 827.918L1912.37 809.159M1923.86 842.037L1980.87 877.677M1926.67 801.459L1920.25 797.753L1912.37 809.159M1926.67 801.459L1922.37 807.125L1931.25 812.819M1926.67 801.459L1931.49 794.151M1945.28 792.619L1936.3 786.843L1931.49 794.151M1945.28 792.619L1946.57 790.396L2033.85 846.53L2032.57 848.455M1945.28 792.619L1940.12 800.046M2032.57 848.455L2040.91 854.231L2036.1 861.291M2032.57 848.455L2027.62 855.125M2031.29 868.351L2042.2 876.052L2034.73 887.125M2031.29 868.351L2027 874.25L2017.81 868.351M2031.29 868.351L2036.1 861.291M2004.97 892.739L2023.58 903.65L2034.73 887.125M2004.97 892.739L1967.75 951.143M2004.97 892.739L1994 885.881M1967.75 951.143L1985.08 962.053L1978.02 978.74M1967.75 951.143L1957 945.125M1961.33 990.934L1970.96 995.427L1978.02 978.74M1961.33 990.934L1953.63 1006.34L1944 1002.49M1961.33 990.934L1950.9 986.5M1961.33 990.934L1965.62 980.625L1955.37 976.125M1944 1002.49L1942.72 1004.41L1847.09 958.651M1944 1002.49L1950.9 986.5M1955.37 976.125L1860.75 930.539M1955.37 976.125L1950.9 986.5M1847.09 958.651L1856.27 939.75M1860.75 930.539L1856.27 939.75M1845.49 916.24L1978.02 978.74M2034.73 887.125L1912.37 809.159M2017.81 868.351L2027.62 855.125M2017.81 868.351L1931.25 812.819M2036.1 861.291L2027.62 855.125M1931.25 812.819L1940.12 800.046M1931.49 794.151L1940.12 800.046M1957 945.125L1994 885.881M1957 945.125L1942.72 939.141M1994 885.881L1980.87 877.677M1942.72 939.141L1980.87 877.677M1888.25 875.25L1905 884.625L1909.37 878.625L1893.5 869.5L1888.25 875.25Z" stroke="#74D4FF"/>
</g>
<g id="&#234;&#185;&#128;&#236;&#152;&#129;&#236;&#157;&#152;&#237;&#153;&#128;">
<path d="M2083.91 2710.95L2101.88 2717.37L2094.18 2735.98L2117.93 2744.32L2141.03 2678.22L2107.66 2664.74L2146.17 2559.48L2157.72 2562.69L2162.85 2545.37L2229.6 2569.11L2222.54 2584.51L2234.74 2589.65L2198.15 2692.34L2212.27 2697.47L2222.54 2669.87L2277.74 2691.05C2278.81 2691.48 2280.3 2694.13 2277.74 2701.32L2261.69 2746.25C2261.05 2747.1 2258.61 2748.43 2253.99 2746.89C2249.37 2745.35 2228.1 2738.12 2218.05 2734.7L2214.84 2743.04L2206.5 2739.19L2210.35 2730.2L2204.57 2727.64L2189.81 2771.92L2143.6 2754.59L2140.39 2765.5L2133.97 2763.58L2115.36 2814.92L2055.67 2789.89L2083.91 2710.95Z" fill="#F0F9FF"/>
<path d="M2117.93 2744.32L2094.18 2735.98L2101.88 2717.37L2083.91 2710.95L2055.67 2789.89L2115.36 2814.92L2133.97 2763.58L2140.39 2765.5L2143.6 2754.59M2117.93 2744.32L2141.03 2678.22L2107.66 2664.74L2146.17 2559.48L2157.72 2562.69L2162.85 2545.37L2229.6 2569.11L2222.54 2584.51L2234.74 2589.65L2198.15 2692.34M2117.93 2744.32L2143.6 2754.59M2198.15 2692.34L2212.27 2697.47M2198.15 2692.34L2187.75 2719.75L2204.57 2727.64M2212.27 2697.47L2222.54 2669.87L2277.74 2691.05C2278.81 2691.48 2280.3 2694.13 2277.74 2701.32L2261.69 2746.25C2261.05 2747.1 2258.61 2748.43 2253.99 2746.89C2249.37 2745.35 2228.1 2738.12 2218.05 2734.7M2212.27 2697.47L2229.6 2704.63L2218.05 2734.7M2218.05 2734.7L2214.84 2743.04L2206.5 2739.19L2210.35 2730.2L2204.57 2727.64M2204.57 2727.64L2189.81 2771.92L2143.6 2754.59M2162.85 2564.75L2218.05 2584.51M2162.85 2564.75C2134.61 2600.05 2128.02 2642.13 2128.25 2658.75M2162.85 2564.75L2181.25 2600.25M2218.05 2584.51C2216.98 2587.97 2214.84 2597.68 2214.84 2608.88C2214.84 2622.88 2207.65 2653.93 2185.25 2678.22M2218.05 2584.51L2181.25 2600.25M2185.25 2678.22L2128.25 2658.75M2185.25 2678.22L2164.75 2649.75M2128.25 2658.75L2164.75 2649.75M2181.25 2600.25L2164.75 2649.75" stroke="#74D4FF"/>
</g>
<g id="Art &#38; Design Building A">
<path d="M1815 2838.02L1755.31 2814.28L1796.61 2705.88L1801.52 2692.98L1809.87 2696.19L1840.52 2617.25L1861.21 2563.98L1961.97 2600.56L1942.08 2650.62L1894.58 2634.58L1884.36 2664.5L1908.7 2674.37L1889.45 2730.84L1850.3 2716.08L1845.81 2726.35L1857.36 2730.84L1815 2838.02Z" fill="#F0F9FF"/>
<path d="M1862.34 2732.7L1857.2 2745.53L1860.09 2746.86L1827.04 2834.1L1858.47 2845.51L1862.34 2833.76L1906.59 2850.09L1926.5 2857.5L1946.41 2864.91L1953.47 2845.65L1933.57 2837.95L1965.02 2747.46L1942.56 2739.76L1944.97 2730.77L1923.95 2723.71L1919.45 2736.55L1905.34 2732.7L1902.13 2743.61H1891.86L1862.34 2732.7Z" fill="#F0F9FF"/>
<path d="M1809.87 2696.19L1801.52 2692.98L1796.61 2705.88M1809.87 2696.19L1840.52 2617.25M1809.87 2696.19L1829.25 2703.75L1823.75 2717.17M1894.58 2634.58L1942.08 2650.62L1961.97 2600.56L1861.21 2563.98L1840.52 2617.25M1894.58 2634.58L1884.36 2664.5M1894.58 2634.58L1865.38 2625.22M1884.36 2664.5L1908.7 2674.37L1889.45 2730.84L1850.3 2716.08L1845.81 2726.35M1884.36 2664.5L1853.13 2656.13L1865.38 2625.22M1845.81 2726.35L1857.36 2730.84M1845.81 2726.35L1823.75 2717.17M1857.36 2730.84L1815 2838.02L1755.31 2814.28L1796.61 2705.88M1857.36 2730.84L1862.34 2732.7M1862.34 2732.7L1857.2 2745.53L1860.09 2746.86L1827.04 2834.1L1858.47 2845.51L1862.34 2833.76M1862.34 2732.7L1891.86 2743.61M1862.34 2833.76L1906.59 2850.09M1862.34 2833.76L1889.45 2751.91M1933.57 2837.95L1953.47 2845.65L1946.41 2864.91L1926.5 2857.5M1933.57 2837.95L1965.02 2747.46L1942.56 2739.76M1933.57 2837.95L1926.5 2857.5M1933.57 2837.95L1913.2 2830.38M1942.56 2739.76L1944.97 2730.77L1923.95 2723.71L1919.45 2736.55L1905.34 2732.7L1902.13 2743.61H1891.86M1942.56 2739.76L1933.58 2767.88M1891.86 2743.61L1889.45 2751.91M1840.52 2617.25L1865.38 2625.22M1796.61 2705.88L1823.75 2717.17M1906.59 2850.09L1926.5 2857.5M1906.59 2850.09L1913.2 2830.38M1913.2 2830.38L1933.58 2767.88M1889.45 2751.91L1933.58 2767.88M1894.38 2767.88L1917.38 2776.13L1901.38 2826.25L1877.88 2819L1894.38 2767.88Z" stroke="#74D4FF"/>
</g>
<g id="&#236;&#162;&#133;&#237;&#149;&#169;&#234;&#179;&#188;&#237;&#149;&#153;&#234;&#180;&#128;">
<path d="M1560.85 1678.3L1582.03 1727.07L1748.5 1655.28L1755.87 1672L1760.25 1682.13L1696 1709.35L1686.87 1713.2L1678.75 1716.63L1670.6 1720.07L1661.61 1723.87L1673.5 1748.63L1670.6 1757.21L1677.66 1771.36L1672.1 1774.57L1674.45 1779.7L1685.75 1773.25L1689.21 1774.57L1694.98 1768.15H1702.04L1705.25 1764.3H1712.95L1714.88 1759.81L1724.51 1755.96L1725.79 1752.1L1750.18 1741.84L1751.46 1744.4L1793.18 1727.07L1791.9 1723.87L1806.01 1718.09L1804.16 1714.13L1819.94 1707L1817.09 1698.44L1814.25 1689.88L1874.69 1665.46H1883.03L1886.24 1658.4L1892.66 1660.97L1896.51 1654.55L1902.87 1656.63L1908.06 1649.42L1913.87 1651.88L1917.69 1645.57L1908.06 1622.46L1899.08 1626.31L1889.45 1601.92L1804.09 1640.43L1775.75 1574.48L1768.79 1558.28H1764.94L1763.11 1554.63L1767.51 1549.3L1772 1551.22L1806.99 1491.38L1811.88 1483L1816.33 1475.39L1820.78 1467.79L1772 1445.97L1767.51 1447.25V1454.95H1761.09V1462.65L1755.31 1466.51L1756.6 1474.21L1718.73 1537.74L1645.62 1570.13L1634.01 1574.97L1632.73 1571.76H1628.24L1626.31 1576.89L1617.97 1574.97L1614.76 1582.03L1607.06 1580.1V1588.45L1614.76 1604.49V1611.55L1625.03 1635.94L1632.73 1632.78L1644.5 1627.94L1650.87 1625.32L1662.5 1620.55L1743.76 1587.16L1766.59 1637.75L1762.59 1639.68L1744.88 1647.38L1742.87 1643L1741 1638.91L1738.57 1633.63L1736.74 1629.63L1734.56 1624.88L1732.33 1620L1730.15 1615.25L1728.03 1610.63L1726.23 1606.7L1560.85 1678.3Z" fill="#F0F9FF"/>
<path d="M1765 1567.88C1765 1573.74 1760.24 1578.5 1754.37 1578.5C1748.51 1578.5 1743.75 1573.74 1743.75 1567.88C1743.75 1562.01 1748.51 1557.25 1754.37 1557.25C1760.24 1557.25 1765 1562.01 1765 1567.88Z" fill="#F0F9FF"/>
<path d="M1582.37 1668.98L1590.49 1665.5L1592.51 1670L1594.62 1674.72L1596.66 1679.25L1599.01 1684.5L1600.75 1688.38L1602.87 1693.12L1604.84 1697.5L1606.97 1702.25L1608.98 1706.75L1610.62 1710.4L1612.25 1714.04L1604.12 1717.54L1602.58 1714.08L1601.03 1710.63L1599.01 1706.12L1596.83 1701.25L1594.76 1696.63L1592.68 1692L1590.84 1687.88L1588.54 1682.75L1586.53 1678.25L1584.4 1673.5L1582.37 1668.98Z" fill="#F0F9FF"/>
<path d="M1626 1650.09L1633.87 1646.68L1635.73 1650.75L1637.33 1654.25L1639.21 1658.38L1640.92 1662.13L1642.69 1666L1644.4 1669.75L1646.23 1673.75L1648.34 1678.38L1650.45 1683L1652.1 1686.63L1654.05 1690.9L1656 1695.17L1647.87 1698.68L1645.98 1694.46L1644.08 1690.25L1642.45 1686.63L1640.42 1682.13L1638.34 1677.5L1636.65 1673.75L1634.85 1669.75L1633.16 1666L1631.42 1662.13L1629.5 1657.88L1627.87 1654.25L1626 1650.09Z" fill="#F0F9FF"/>
<path d="M1674.37 1629.15L1682.5 1625.63L1684.27 1629.63L1686.04 1633.63L1688 1638.04L1689.87 1642.25L1691.86 1646.75L1694.19 1652L1696.41 1657L1698.4 1661.5L1700.28 1665.75L1702.2 1670.08L1704.12 1674.41L1696.12 1677.86L1694.2 1673.56L1692.28 1669.25L1690.44 1665.13L1688.48 1660.75L1686.14 1655.5L1684.02 1650.75L1681.95 1646.13L1679.95 1641.63L1677.94 1637.13L1676.21 1633.25L1674.37 1629.15Z" fill="#F0F9FF"/>
<path d="M1718.24 1610.15L1726.23 1606.7L1728.03 1610.63L1730.15 1615.25L1732.33 1620L1734.56 1624.88L1736.74 1629.63L1738.57 1633.63L1741 1638.91L1742.87 1643L1746.77 1651.5L1748.5 1655.28L1740.51 1658.73L1738.73 1654.87L1736.96 1651L1735 1646.72L1733.07 1642.5L1730.77 1637.5L1729 1633.63L1726.75 1628.72L1724.47 1623.75L1722.18 1618.75L1720.06 1614.13L1718.24 1610.15Z" fill="#F0F9FF"/>
<path d="M1748.5 1655.28L1582.03 1727.07L1560.85 1678.3L1726.23 1606.7M1748.5 1655.28L1755.87 1672M1748.5 1655.28L1740.51 1658.73L1738.73 1654.87M1748.5 1655.28L1746.77 1651.5M1760.25 1682.13L1696 1709.35M1760.25 1682.13L1803.55 1665.46M1760.25 1682.13L1755.87 1672M1673.5 1748.63L1661.61 1723.87L1670.6 1720.07M1673.5 1748.63L1670.6 1757.21L1677.66 1771.36L1672.1 1774.57L1674.45 1779.7L1685.75 1773.25M1673.5 1748.63L1685.75 1773.25M1685.75 1773.25L1689.21 1774.57L1694.98 1768.15M1694.98 1768.15H1702.04L1705.25 1764.3M1694.98 1768.15L1691.25 1750.88L1682.5 1744.66L1670.6 1720.07M1705.25 1764.3H1712.95L1714.88 1759.81M1705.25 1764.3L1700.75 1746.5L1691.25 1740.8L1678.75 1716.63M1714.88 1759.81L1724.51 1755.96L1725.79 1752.1M1714.88 1759.81L1709.5 1743.25L1698.74 1737.5L1686.87 1713.2M1725.79 1752.1L1750.18 1741.84L1751.46 1744.4L1793.18 1727.07L1791.9 1723.87L1806.01 1718.09M1725.79 1752.1L1719.75 1737.5L1707.25 1733.75M1806.01 1718.09L1804.16 1714.13L1819.94 1707L1817.09 1698.44M1806.01 1718.09L1800 1705.25M1814.25 1689.88L1874.69 1665.46M1814.25 1689.88L1817.09 1698.44M1814.25 1689.88L1796.57 1697.13M1814.25 1689.88L1803.55 1665.46M1874.69 1665.46H1883.03L1886.24 1658.4M1874.69 1665.46L1863.25 1640.99M1886.24 1658.4L1892.66 1660.97L1896.51 1654.55M1886.24 1658.4L1875.87 1635.82M1896.51 1654.55L1902.87 1656.63L1908.06 1649.42M1896.51 1654.55L1887.48 1631.07M1908.06 1649.42L1913.87 1651.88L1917.69 1645.57L1908.06 1622.46L1899.08 1626.31M1908.06 1649.42L1899.08 1626.31M1899.08 1626.31L1889.45 1601.92L1804.09 1640.43M1899.08 1626.31L1887.48 1631.07M1804.09 1640.43L1769.24 1654.55M1804.09 1640.43L1775.75 1574.48M1764.94 1558.28H1768.79L1775.75 1574.48M1764.94 1558.28L1763.11 1554.63L1767.51 1549.3L1772 1551.22L1806.99 1491.38M1764.94 1558.28L1760.45 1549.3L1732.62 1561.19M1767.51 1454.95V1447.25L1772 1445.97L1820.78 1467.79L1816.33 1475.39M1767.51 1454.95H1761.09V1462.65M1767.51 1454.95L1775.75 1459.63L1785.12 1457.38L1816.33 1475.39M1761.09 1462.65L1755.31 1466.51L1756.6 1474.21M1761.09 1462.65L1772 1467.79L1780.5 1465L1811.88 1483M1756.6 1474.21L1718.73 1537.74L1645.62 1570.13M1756.6 1474.21L1764.94 1479.2L1775.75 1472.96L1785.12 1478.38M1634.01 1574.97L1632.73 1571.76H1628.24L1626.31 1576.89M1634.01 1574.97L1645.62 1570.13M1634.01 1574.97L1641.12 1593.77L1639.74 1600.88L1650.87 1625.32M1626.31 1576.89L1617.97 1574.97L1614.76 1582.03M1626.31 1576.89L1634.01 1596.66L1632.73 1603.87L1644.5 1627.94M1614.76 1582.03L1607.06 1580.1V1588.45L1614.76 1604.49V1611.55L1625.03 1635.94L1632.73 1632.78M1614.76 1582.03L1622.62 1601.29V1608.19L1632.73 1632.78M1743.76 1587.16L1766.59 1637.75L1762.59 1639.68M1743.76 1587.16L1775.75 1574.48M1743.76 1587.16L1662.5 1620.55M1743.76 1587.16L1732.62 1561.19M1744.88 1647.38L1762.59 1639.68M1744.88 1647.38L1742.87 1643M1744.88 1647.38L1736.96 1651M1726.23 1606.7L1718.24 1610.15L1720.06 1614.13M1726.23 1606.7L1728.03 1610.63M1670.6 1720.07L1678.75 1716.63M1678.75 1716.63L1686.87 1713.2M1686.87 1713.2L1696 1709.35M1696 1709.35L1707.25 1733.75M1707.25 1733.75L1796.57 1697.13M1817.09 1698.44L1800 1705.25M1800 1705.25L1796.57 1697.13M1863.25 1640.99L1875.87 1635.82M1863.25 1640.99L1803.55 1665.46M1875.87 1635.82L1887.48 1631.07M1803.55 1665.46L1800 1654.55L1773.87 1664.9M1755.87 1672L1773.87 1664.9M1773.87 1664.9L1769.24 1654.55M1762.59 1639.68L1769.24 1654.55M1662.5 1620.55L1650.87 1596.12M1662.5 1620.55L1650.87 1625.32M1650.87 1596.12L1652.37 1589.2L1645.62 1570.13M1650.87 1596.12L1732.62 1561.19M1650.87 1625.32L1644.5 1627.94M1644.5 1627.94L1632.73 1632.78M1732.62 1561.19L1785.12 1478.38M1785.12 1478.38L1806.99 1491.38M1806.99 1491.38L1811.88 1483M1811.88 1483L1816.33 1475.39M1584.4 1673.5L1582.37 1668.98L1590.49 1665.5L1592.51 1670M1584.4 1673.5L1592.51 1670M1584.4 1673.5L1586.53 1678.25M1592.51 1670L1594.62 1674.72M1594.62 1674.72L1586.53 1678.25M1594.62 1674.72L1596.66 1679.25M1586.53 1678.25L1588.54 1682.75M1588.54 1682.75L1596.66 1679.25M1588.54 1682.75L1590.84 1687.88M1596.66 1679.25L1599.01 1684.5M1590.84 1687.88L1599.01 1684.5M1590.84 1687.88L1592.68 1692M1599.01 1684.5L1600.75 1688.38M1600.75 1688.38L1592.68 1692M1600.75 1688.38L1602.87 1693.12M1592.68 1692L1594.76 1696.63M1594.76 1696.63L1602.87 1693.12M1594.76 1696.63L1596.83 1701.25M1602.87 1693.12L1604.84 1697.5M1604.84 1697.5L1596.83 1701.25M1604.84 1697.5L1606.97 1702.25M1596.83 1701.25L1599.01 1706.12M1599.01 1706.12L1606.97 1702.25M1599.01 1706.12L1601.03 1710.63M1606.97 1702.25L1608.98 1706.75M1601.03 1710.63L1608.98 1706.75M1601.03 1710.63L1602.58 1714.08M1608.98 1706.75L1610.62 1710.4M1610.62 1710.4L1612.25 1714.04L1604.12 1717.54L1602.58 1714.08M1610.62 1710.4L1602.58 1714.08M1627.87 1654.25L1626 1650.09L1633.87 1646.68L1635.73 1650.75M1627.87 1654.25L1635.73 1650.75M1627.87 1654.25L1629.5 1657.88M1635.73 1650.75L1637.33 1654.25M1637.33 1654.25L1629.5 1657.88M1637.33 1654.25L1639.21 1658.38M1629.5 1657.88L1631.42 1662.13M1631.42 1662.13L1639.21 1658.38M1631.42 1662.13L1633.16 1666M1639.21 1658.38L1640.92 1662.13M1640.92 1662.13L1633.16 1666M1640.92 1662.13L1642.69 1666M1633.16 1666L1634.85 1669.75M1634.85 1669.75L1642.69 1666M1634.85 1669.75L1636.65 1673.75M1642.69 1666L1644.4 1669.75M1644.4 1669.75L1636.65 1673.75M1644.4 1669.75L1646.23 1673.75M1636.65 1673.75L1638.34 1677.5M1638.34 1677.5L1646.23 1673.75M1638.34 1677.5L1640.42 1682.13M1646.23 1673.75L1648.34 1678.38M1648.34 1678.38L1640.42 1682.13M1648.34 1678.38L1650.45 1683M1640.42 1682.13L1642.45 1686.63M1642.45 1686.63L1650.45 1683M1642.45 1686.63L1644.08 1690.25M1650.45 1683L1652.1 1686.63M1652.1 1686.63L1644.08 1690.25M1652.1 1686.63L1654.05 1690.9M1644.08 1690.25L1645.98 1694.46M1645.98 1694.46L1647.87 1698.68L1656 1695.17L1654.05 1690.9M1645.98 1694.46L1654.05 1690.9M1676.21 1633.25L1674.37 1629.15L1682.5 1625.63L1684.27 1629.63M1676.21 1633.25L1684.27 1629.63M1676.21 1633.25L1677.94 1637.13M1684.27 1629.63L1686.04 1633.63M1677.94 1637.13L1686.04 1633.63M1677.94 1637.13L1679.95 1641.63M1686.04 1633.63L1688 1638.04M1679.95 1641.63L1688 1638.04M1679.95 1641.63L1681.95 1646.13M1688 1638.04L1689.87 1642.25M1681.95 1646.13L1689.87 1642.25M1681.95 1646.13L1684.02 1650.75M1689.87 1642.25L1691.86 1646.75M1684.02 1650.75L1691.86 1646.75M1684.02 1650.75L1686.14 1655.5M1691.86 1646.75L1694.19 1652M1686.14 1655.5L1694.19 1652M1686.14 1655.5L1688.48 1660.75M1694.19 1652L1696.41 1657M1688.48 1660.75L1696.41 1657M1688.48 1660.75L1690.44 1665.13M1696.41 1657L1698.4 1661.5M1690.44 1665.13L1698.4 1661.5M1690.44 1665.13L1692.28 1669.25M1698.4 1661.5L1700.28 1665.75M1692.28 1669.25L1700.28 1665.75M1692.28 1669.25L1694.2 1673.56M1700.28 1665.75L1702.2 1670.08M1694.2 1673.56L1696.12 1677.86L1704.12 1674.41L1702.2 1670.08M1694.2 1673.56L1702.2 1670.08M1720.06 1614.13L1728.03 1610.63M1720.06 1614.13L1722.18 1618.75M1728.03 1610.63L1730.15 1615.25M1722.18 1618.75L1730.15 1615.25M1722.18 1618.75L1724.47 1623.75M1730.15 1615.25L1732.33 1620M1724.47 1623.75L1732.33 1620M1724.47 1623.75L1726.75 1628.72M1732.33 1620L1734.56 1624.88M1726.75 1628.72L1734.56 1624.88M1726.75 1628.72L1729 1633.63M1734.56 1624.88L1736.74 1629.63M1729 1633.63L1736.74 1629.63M1729 1633.63L1730.77 1637.5M1736.74 1629.63L1738.57 1633.63M1730.77 1637.5L1738.57 1633.63M1730.77 1637.5L1733.07 1642.5M1738.57 1633.63L1741 1638.91M1733.07 1642.5L1741 1638.91M1733.07 1642.5L1735 1646.72M1741 1638.91L1742.87 1643M1735 1646.72L1742.87 1643M1735 1646.72L1736.96 1651M1742.87 1643L1746.77 1651.5M1736.96 1651L1738.73 1654.87M1738.73 1654.87L1746.77 1651.5M1765 1567.88C1765 1573.74 1760.24 1578.5 1754.37 1578.5C1748.51 1578.5 1743.75 1573.74 1743.75 1567.88C1743.75 1562.01 1748.51 1557.25 1754.37 1557.25C1760.24 1557.25 1765 1562.01 1765 1567.88Z" stroke="#74D4FF"/>
</g>
<g id="HUMAN_ECOLOGY_BUILDING">
<path d="M883.754 2474.77L822.783 2535.74L804.957 2517.91L769.514 2482.47L775.932 2476.05L761.812 2461.93L771.439 2452.3L767.589 2448.45V2440.11L761.812 2433.69L822.489 2372.79L855.5 2339.65L906.672 2288.29L933.172 2261.69L942.157 2269.39L973.605 2239.87L986 2254.25L1018.53 2221.9L1038.43 2241.8L1005.05 2275.17L1019.09 2289.21L1044.2 2314.32L931.5 2427.02L883.754 2474.77Z" fill="#F0F9FF"/>
<path d="M1005.05 2275.17L1038.43 2241.8L1018.53 2221.9L986 2254.25M1005.05 2275.17L988.75 2291.47L972.795 2275.17M1005.05 2275.17L986 2254.25M1005.05 2275.17L1019.09 2289.21M986 2254.25L973.605 2239.87L942.157 2269.39M986 2254.25L969.25 2271.55L972.795 2275.17M942.157 2269.39L933.172 2261.69L906.672 2288.29M942.157 2269.39L863.674 2347.88M775.932 2476.05L761.812 2461.93L771.439 2452.3L767.589 2448.45V2440.11L761.812 2433.69L822.489 2372.79M775.932 2476.05L769.514 2482.47L804.957 2517.91M775.932 2476.05L793.231 2458.25L775.091 2440.11L788.375 2426.83M775.932 2476.05L801.375 2501.49M972.795 2275.17L945.541 2302.42M933.172 2314.79L906.672 2288.29M933.172 2314.79L936.881 2318.5L949.25 2306.13L945.541 2302.42M933.172 2314.79L945.541 2302.42M906.672 2288.29L855.5 2339.65M863.674 2347.88L855.5 2339.65M863.674 2347.88L912.049 2396.25M855.5 2339.65L822.489 2372.79M855.5 2339.65V2372.79M912.049 2396.25H879M912.049 2396.25L1019.09 2289.21M912.049 2396.25L906.672 2401.63M879 2429.3V2396.25M879 2429.3L847.875 2398.17M879 2429.3L885.875 2436.17L871.017 2451.32M879 2429.3L906.672 2401.63M822.489 2372.79H855.5M822.489 2372.79L832.451 2382.75M855.5 2372.79L879 2396.25M832.451 2382.75L839.983 2390.28M832.451 2382.75L818.5 2396.7M801.375 2501.49L832.875 2469.99M801.375 2501.49L811.375 2511.49M832.875 2469.99L842.875 2479.99M832.875 2469.99L800.541 2437.66M842.875 2479.99L811.375 2511.49M842.875 2479.99L871.017 2451.32M804.957 2517.91L822.783 2535.74L883.754 2474.77L931.5 2427.02M804.957 2517.91L811.375 2511.49M839.983 2390.28L796.573 2433.69L800.541 2437.66M839.983 2390.28L843.951 2394.25M843.951 2394.25L800.541 2437.66M843.951 2394.25L847.875 2398.17M847.875 2398.17L832.875 2413.17L871.017 2451.32M1019.09 2289.21L1044.2 2314.32L931.5 2427.02M906.672 2401.63L931.5 2427.02M788.375 2426.83L783 2421.45L813.125 2391.33L818.5 2396.7M788.375 2426.83L818.5 2396.7" stroke="#74D4FF"/>
</g>
<g id="&#236;&#157;&#184;&#235;&#172;&#184;&#234;&#180;&#128;">
<path d="M1163.58 1671.24L1171.96 1660L1182.53 1645.83L1193.1 1631.67L1227.74 1585.24L1238.45 1570.88L1251.63 1553.22L1296.73 1492.75L1307.74 1478L1314.4 1469.07L1333.33 1482.87L1352.27 1496.67L1345.86 1505.25L1334.29 1520.75L1323.19 1535.63L1286.16 1585.24L1291.29 1589.09L1286.16 1596.79L1291.29 1600.64L1277.82 1617.97L1272.04 1614.76L1266.91 1621.18L1261.77 1617.97L1229.35 1662L1220.25 1674.35L1209.28 1689.25L1200.8 1700.76L1193.1 1694.98L1187.32 1703.33L1175.45 1694.66L1163.58 1686L1170.64 1677.01L1163.58 1671.24Z" fill="#F0F9FF"/>
<path d="M1286.16 1585.24L1291.29 1589.09L1286.16 1596.79M1286.16 1585.24L1261.77 1617.97M1286.16 1585.24L1323.19 1535.63M1286.16 1596.79L1291.29 1600.64L1277.82 1617.97L1272.04 1614.76M1286.16 1596.79L1272.04 1614.76M1272.04 1614.76L1266.91 1621.18L1261.77 1617.97M1261.77 1617.97L1229.35 1662M1193.1 1694.98L1200.8 1700.76L1209.28 1689.25M1193.1 1694.98L1187.32 1703.33L1175.45 1694.66M1193.1 1694.98L1201.75 1683.75M1170.64 1677.01L1163.58 1686L1175.45 1694.66M1170.64 1677.01L1163.58 1671.24L1171.96 1660M1170.64 1677.01L1179.38 1665.75M1175.45 1694.66L1201.29 1660M1333.33 1482.87L1314.4 1469.07L1307.74 1478M1333.33 1482.87L1352.27 1496.67L1345.86 1505.25M1333.33 1482.87L1257.67 1584.38M1179.38 1665.75L1171.96 1660M1179.38 1665.75L1201.29 1660M1171.96 1660L1182.53 1645.83M1201.75 1683.75L1209.28 1689.25M1201.75 1683.75L1201.29 1660M1209.28 1689.25L1220.25 1674.35M1201.29 1660V1638.5L1193.1 1631.67M1201.29 1660L1222.25 1657.13L1229.35 1662M1201.29 1660L1182.53 1645.83M1201.29 1660L1220.25 1674.35M1201.29 1660L1257.67 1584.38M1193.1 1631.67L1182.53 1645.83M1193.1 1631.67L1227.74 1585.24M1229.35 1662L1220.25 1674.35M1257.67 1584.38L1238.45 1570.88M1257.67 1584.38L1232.38 1589.09L1227.74 1585.24M1257.67 1584.38V1557.75L1251.63 1553.22M1238.45 1570.88L1227.74 1585.24M1238.45 1570.88L1251.63 1553.22M1251.63 1553.22L1296.73 1492.75M1296.73 1492.75L1334.29 1520.75M1296.73 1492.75L1307.74 1478M1334.29 1520.75L1323.19 1535.63M1334.29 1520.75L1345.86 1505.25M1323.19 1535.63L1315.75 1531V1483.88L1307.74 1478M1287.75 1506.13L1296.73 1512.38L1337.88 1500.13L1345.86 1505.25" stroke="#74D4FF"/>
</g>
<path id="Vector 222" d="M2600.56 1353.55L2586.44 1368.31L2572.32 1353.55L2534.45 1390.77C2526.75 1385.43 2510.32 1370.49 2506.21 1353.55L2517.77 1347.13L2506.21 1329.8C2511.56 1328.09 2522 1322.74 2520.98 1315.04C2519.95 1307.34 2515.41 1292.58 2513.27 1286.16C2513.06 1281.88 2513.15 1270.5 2515.2 1259.21C2517.25 1247.91 2535.74 1149.24 2544.72 1101.32L2564.62 1069.23L2582.59 1076.93L2573.6 1093.62L2534.45 1281.67L2551.78 1322.1L2559.48 1318.25L2571.04 1340.71L2584.51 1333.65L2600.56 1353.55Z" fill="#F0F9FF" stroke="#74D4FF" stroke-linecap="round"/>
<circle id="MAIN_GATE" cx="1607.75" cy="1949.75" r="15" fill="#F0F9FF" stroke="#74D4FF"/>
<circle id="MAIN_GATE_2" cx="1487.5" cy="1437" r="15.75" fill="#F0F9FF" stroke="#74D4FF"/>
<g id="HYUUT_GIL">
<path fill-rule="evenodd" clip-rule="evenodd" d="M1188.61 2735.34L1157.16 2673.08L1178.34 2637.78L1164.86 2628.8L1168.43 2622.63L1172.68 2615.25L1177.09 2607.63L1181.13 2600.63L1184.45 2594.88L1187.81 2589.05L1191.17 2583.23C1192.08 2580.99 1193.13 2578.73 1194.3 2576.45C1195.63 2573.86 1197.12 2571.25 1198.74 2568.63C1199.91 2566.75 1201.14 2564.88 1202.44 2563L1215.88 2573.63C1216.92 2571.97 1217.95 2570.29 1219.01 2568.63L1215.88 2573.63L1211.73 2580.25L1211.73 2580.25L1244.75 2605.88L1286.8 2610.88L1302.85 2619.17L1306.06 2656.86L1234.6 2698.11L1229.04 2688.49L1214.28 2701.96L1227.11 2721.22C1221.77 2725.92 1209.66 2736.23 1204.01 2739.83C1198.36 2743.42 1191.39 2738.33 1188.61 2735.34ZM1312.11 2605.88L1447.25 2411.87C1447.25 2410.8 1446.87 2408.28 1445.33 2406.74L1433.77 2395.18C1430.99 2393.9 1423.89 2392.49 1417.73 2397.11C1413.04 2400.63 1363.42 2433.38 1321.88 2460.71C1347.02 2486.42 1347.38 2505.88 1347.61 2518.54C1347.61 2518.91 1347.62 2519.27 1347.63 2519.63C1347.83 2529.73 1320 2579.33 1306.06 2602.88L1312.11 2605.88ZM1314.5 2465.56C1304.26 2472.29 1294.73 2478.55 1286.8 2483.75C1279.55 2488.69 1269.92 2495.8 1259.5 2504.33C1258.06 2505.51 1256.6 2506.72 1255.13 2507.95C1253.17 2509.6 1251.19 2511.29 1249.2 2513.01C1247.14 2514.81 1245.07 2516.64 1243 2518.51C1240.91 2520.4 1238.82 2522.33 1236.75 2524.29C1234.55 2526.36 1232.36 2528.48 1230.2 2530.63C1228.32 2532.5 1226.46 2534.39 1224.63 2536.3C1222.72 2538.29 1220.84 2540.31 1219.01 2542.33C1217.72 2543.76 1216.46 2545.19 1215.21 2546.63C1213.67 2548.41 1212.17 2550.2 1210.71 2552C1209.06 2554.04 1207.47 2556.08 1205.94 2558.13L1219.01 2568.63L1253 2594.88L1297 2599.13C1309.17 2579.08 1334.6 2534.83 1339 2518.13C1343.4 2501.43 1324.5 2476.12 1314.5 2465.56Z" fill="#F0F9FF"/>
<path d="M1214.28 2701.96L1227.11 2721.22C1221.77 2725.92 1209.66 2736.23 1204.01 2739.83C1198.36 2743.42 1191.39 2738.33 1188.61 2735.34L1157.16 2673.08L1178.34 2637.78M1214.28 2701.96L1229.04 2688.49M1214.28 2701.96L1204.01 2688.49L1215.88 2663.13M1229.04 2688.49L1234.6 2698.11L1306.06 2656.86M1229.04 2688.49L1215.88 2663.13M1306.06 2656.86L1302.85 2619.17M1306.06 2656.86L1282.25 2625.63L1215.88 2663.13M1302.85 2619.17L1312.11 2605.88M1302.85 2619.17L1286.8 2610.88L1244.75 2605.88L1211.73 2580.25M1445.33 2406.74C1446.87 2408.28 1447.25 2410.8 1447.25 2411.87L1312.11 2605.88M1445.33 2406.74C1443.79 2405.2 1436.98 2398.39 1433.77 2395.18M1445.33 2406.74L1433.77 2395.18M1433.77 2395.18C1430.99 2393.9 1423.89 2392.49 1417.73 2397.11C1413.04 2400.63 1363.42 2433.38 1321.88 2460.71M1286.8 2483.75C1294.73 2478.55 1304.26 2472.29 1314.5 2465.56M1286.8 2483.75C1278.45 2489.24 1268.46 2499.75 1257.87 2513.01M1286.8 2483.75C1279.55 2488.69 1269.92 2495.8 1259.5 2504.33M1191.17 2583.23L1187.81 2589.05M1191.17 2583.23L1204.01 2592.93M1191.17 2583.23C1192.08 2580.99 1193.13 2578.73 1194.3 2576.45M1178.34 2637.78L1164.86 2628.8L1168.43 2622.63M1178.34 2637.78C1179.54 2635.56 1180.82 2633.21 1182.18 2630.75M1312.11 2605.88L1306.06 2602.88C1320 2579.33 1347.83 2529.73 1347.63 2519.63C1347.62 2519.27 1347.61 2518.91 1347.61 2518.54C1347.38 2505.88 1347.02 2486.42 1321.88 2460.71M1321.88 2460.71C1319.38 2462.35 1316.92 2463.96 1314.5 2465.56M1314.5 2465.56C1324.5 2476.12 1343.4 2501.43 1339 2518.13C1334.6 2534.83 1309.17 2579.08 1297 2599.13L1253 2594.88L1219.01 2568.63M1219.01 2568.63L1205.94 2558.13M1219.01 2568.63L1219.01 2568.63M1211.73 2580.25L1198.74 2568.63M1211.73 2580.25L1211.73 2580.25M1182.18 2630.75L1168.43 2622.63M1182.18 2630.75C1183.61 2628.16 1185.13 2625.45 1186.72 2622.63M1168.43 2622.63L1172.68 2615.25M1172.68 2615.25L1186.72 2622.63M1172.68 2615.25L1177.09 2607.63M1186.72 2622.63C1187.95 2620.44 1189.22 2618.2 1190.54 2615.9M1177.09 2607.63L1190.54 2615.9M1177.09 2607.63L1181.13 2600.63M1190.54 2615.9C1191.76 2613.77 1193.01 2611.59 1194.3 2609.38M1181.13 2600.63L1194.3 2609.38M1181.13 2600.63L1184.45 2594.88M1194.3 2609.38C1195.39 2607.49 1196.51 2605.57 1197.65 2603.63M1184.45 2594.88L1197.65 2603.63M1184.45 2594.88L1187.81 2589.05M1197.65 2603.63C1198.7 2601.85 1199.75 2600.06 1200.83 2598.25M1187.81 2589.05L1200.83 2598.25M1200.83 2598.25C1201.87 2596.49 1202.94 2594.71 1204.01 2592.93M1204.01 2592.93C1205.21 2590.92 1206.43 2588.91 1207.67 2586.88M1194.3 2576.45L1207.67 2586.88M1194.3 2576.45C1195.63 2573.86 1197.12 2571.25 1198.74 2568.63M1207.67 2586.88C1209.01 2584.68 1210.36 2582.47 1211.73 2580.25M1198.74 2568.63C1199.91 2566.75 1201.14 2564.88 1202.44 2563M1202.44 2563L1215.88 2573.63M1202.44 2563C1203.56 2561.38 1204.73 2559.75 1205.94 2558.13M1215.88 2573.63C1216.92 2571.97 1217.95 2570.29 1219.01 2568.63M1215.88 2573.63C1214.49 2575.84 1213.09 2578.05 1211.73 2580.25M1215.88 2573.63L1219.01 2568.63M1215.88 2573.63L1211.73 2580.25M1205.94 2558.13C1207.47 2556.08 1209.06 2554.04 1210.71 2552M1210.71 2552L1223.74 2561.25M1210.71 2552C1212.17 2550.2 1213.67 2548.41 1215.21 2546.63M1223.74 2561.25C1225.23 2558.95 1226.73 2556.66 1228.23 2554.38M1223.74 2561.25C1222.15 2563.7 1220.57 2566.16 1219.01 2568.63M1215.21 2546.63L1228.23 2554.38M1215.21 2546.63C1216.46 2545.19 1217.72 2543.76 1219.01 2542.33M1228.23 2554.38C1229.53 2552.41 1230.84 2550.45 1232.15 2548.5M1219.01 2542.33L1232.15 2548.5M1219.01 2542.33C1220.84 2540.31 1222.72 2538.29 1224.63 2536.3M1232.15 2548.5C1233.68 2546.22 1235.21 2543.96 1236.75 2541.73M1224.63 2536.3L1236.75 2541.73M1224.63 2536.3C1226.46 2534.39 1228.32 2532.5 1230.2 2530.63M1236.75 2541.73C1238.01 2539.9 1239.27 2538.09 1240.53 2536.3M1230.2 2530.63L1240.53 2536.3M1230.2 2530.63C1232.36 2528.48 1234.55 2526.36 1236.75 2524.29M1240.53 2536.3C1241.87 2534.38 1243.22 2532.49 1244.56 2530.63M1236.75 2524.29L1244.56 2530.63M1236.75 2524.29C1238.82 2522.33 1240.91 2520.4 1243 2518.51M1244.56 2530.63C1246.11 2528.47 1247.66 2526.36 1249.2 2524.29M1243 2518.51L1249.2 2524.29M1243 2518.51C1245.07 2516.64 1247.14 2514.81 1249.2 2513.01M1249.2 2524.29C1250.66 2522.32 1252.12 2520.39 1253.56 2518.51M1249.2 2513.01L1253.56 2518.51M1249.2 2513.01C1251.19 2511.29 1253.17 2509.6 1255.13 2507.95M1253.56 2518.51C1255.01 2516.63 1256.44 2514.8 1257.87 2513.01M1257.87 2513.01L1255.13 2507.95M1255.13 2507.95C1256.6 2506.72 1258.06 2505.51 1259.5 2504.33M1259.5 2504.33L1264.25 2506.25" stroke="#74D4FF"/>
</g>
</g>
</svg>
