<svg width="88" height="88" viewBox="0 0 88 88" fill="none" xmlns="http://www.w3.org/2000/svg">
<rect width="88" height="88" fill="#F4F4F5"/>
<path d="M18.1212 51.0059C18.105 51.0221 18.0889 51.0301 18.0727 51.0301C18.0242 51.0301 18 50.9574 18 50.812C18 50.715 18.0242 50.618 18.0727 50.521C18.1374 50.4079 18.2505 50.3433 18.4121 50.3271C18.8646 50.2948 19.2929 50.1413 19.697 49.8665C20.101 49.5918 20.4565 49.2685 20.7636 48.8968C21.0707 48.5089 21.2889 48.1453 21.4181 47.8059L23.6484 42.2302C23.9555 41.4706 24.303 40.7353 24.6908 40.0242C25.0949 39.3131 25.604 38.7313 26.2181 38.2788C26.8484 37.8262 27.6403 37.6 28.5938 37.6C28.9655 37.6 29.3372 37.6485 29.709 37.7454C30.0968 37.8262 30.4201 37.9636 30.6786 38.1576C30.9372 38.3515 31.0665 38.6262 31.0665 38.9818C31.0665 39.0303 31.0665 39.0788 31.0665 39.1272C31.0665 39.1757 31.0584 39.2242 31.0423 39.2727C30.9938 39.5313 30.8483 39.7899 30.6059 40.0484C30.3797 40.307 30.2019 40.6303 30.0726 41.0181C30.0564 41.1313 29.9837 41.1878 29.8544 41.1878C29.7413 41.1878 29.717 41.1151 29.7817 40.9696C29.911 40.7757 30.0079 40.5494 30.0726 40.2909C30.1534 40.0161 30.1938 39.7414 30.1938 39.4666C30.1938 39.0464 30.0968 38.6747 29.9029 38.3515C29.709 38.0283 29.3776 37.8666 28.909 37.8666C28.4888 37.8666 28.0605 37.9879 27.6241 38.2303C27.1878 38.4727 26.808 38.8929 26.4848 39.4909L22 47.7574C21.5798 48.5332 21.1919 49.0908 20.8363 49.4302C20.4969 49.7534 20.2141 49.9554 19.9879 50.0362H25.8302C26.606 50.0362 27.3251 50.012 27.9878 49.9635C28.6504 49.915 29.0544 49.7938 29.1999 49.5998C29.3615 49.3736 29.4423 49.1312 29.4423 48.8726C29.4423 48.4685 29.2241 48.1696 28.7878 47.9756C28.7393 47.9433 28.715 47.911 28.715 47.8787C28.715 47.8463 28.7312 47.814 28.7635 47.7817C28.812 47.7494 28.8686 47.7494 28.9332 47.7817C29.0787 47.8463 29.2484 47.9918 29.4423 48.218C29.6524 48.4281 29.8463 48.6625 30.0241 48.9211C30.2019 49.1635 30.315 49.3574 30.3635 49.5029C30.412 49.6483 30.4362 49.7938 30.4362 49.9392C30.4362 50.6019 29.8625 50.9332 28.715 50.9332C27.81 50.9332 26.8403 50.9008 25.806 50.8362C24.7716 50.7715 23.7454 50.6988 22.7272 50.618C21.7252 50.5372 20.7798 50.4806 19.8909 50.4483C19.5515 50.416 19.2121 50.4645 18.8727 50.5938C18.5495 50.7069 18.299 50.8443 18.1212 51.0059Z" fill="#D4D4D8"/>
<path d="M37.0513 41.5757C36.825 41.5757 36.6634 41.503 36.5665 41.3575C36.5018 41.2767 36.4695 41.1717 36.4695 41.0424C36.4695 40.7838 36.5907 40.5737 36.8331 40.4121C37.0109 40.3151 37.1725 40.2666 37.318 40.2666C37.5604 40.2666 37.7301 40.3393 37.827 40.4848C37.8917 40.5656 37.924 40.6707 37.924 40.7999C37.924 41.0585 37.7947 41.2686 37.5361 41.4302C37.3907 41.5272 37.2291 41.5757 37.0513 41.5757ZM32.8332 50.9089C32.6715 50.9089 32.5342 50.8766 32.421 50.812C32.3241 50.7473 32.2756 50.6261 32.2756 50.4483C32.2756 50.2221 32.3322 49.9554 32.4453 49.6483C32.5746 49.3413 32.712 49.0342 32.8574 48.7271C33.019 48.4201 33.1402 48.1696 33.221 47.9756C33.3342 47.7494 33.4715 47.4585 33.6332 47.1029C33.8109 46.7312 33.9725 46.3837 34.118 46.0605C34.2796 45.7211 34.3927 45.4868 34.4574 45.3575C34.2311 45.5999 33.9564 45.907 33.6332 46.2787C33.3261 46.6342 33.0352 46.9817 32.7604 47.3211C32.4857 47.6605 32.2756 47.9271 32.1301 48.1211C32.0817 48.1857 32.0413 48.218 32.0089 48.218C31.9766 48.218 31.9604 48.1776 31.9604 48.0968C31.9604 47.9675 32.0008 47.8463 32.0817 47.7332C32.3887 47.3453 32.7281 46.909 33.0998 46.4241C33.4877 45.9393 33.8352 45.4948 34.1422 45.0908C34.4493 44.6706 34.6432 44.3959 34.7241 44.2666C34.9018 44.2343 35.1604 44.1858 35.4998 44.1211C35.8554 44.0565 36.0978 43.9676 36.2271 43.8545C36.2755 43.806 36.324 43.7817 36.3725 43.7817C36.4048 43.7817 36.421 43.8141 36.421 43.8787C36.4372 43.9272 36.421 43.9837 36.3725 44.0484C36.2755 44.1615 36.1059 44.4363 35.8634 44.8726C35.621 45.309 35.3624 45.7938 35.0877 46.3272C34.8291 46.8443 34.5867 47.313 34.3604 47.7332C34.1342 48.1696 33.9402 48.5898 33.7786 48.9938C33.617 49.3978 33.5362 49.6887 33.5362 49.8665C33.5362 50.0928 33.6493 50.2059 33.8756 50.2059C34.0857 50.2059 34.3523 50.0766 34.6756 49.818C35.015 49.5594 35.3543 49.2524 35.6937 48.8968C36.0331 48.5251 36.3321 48.1857 36.5907 47.8787C36.6715 47.7817 36.7685 47.6686 36.8816 47.5393C37.0109 47.3938 37.0917 47.3049 37.124 47.2726C37.1563 47.3049 37.1725 47.3615 37.1725 47.4423C37.1563 47.5554 37.1159 47.6686 37.0513 47.7817C36.9866 47.8787 36.922 47.9675 36.8574 48.0483C36.518 48.4685 36.1463 48.9049 35.7422 49.3574C35.3382 49.7938 34.8937 50.1655 34.4089 50.4726C33.9241 50.7635 33.3988 50.9089 32.8332 50.9089Z" fill="#D4D4D8"/>
<path d="M37.6909 51.0544C37.4808 51.0544 37.2303 51.014 36.9394 50.9332C36.6485 50.8685 36.503 50.6907 36.503 50.3998C36.503 50.2867 36.5273 50.1574 36.5757 50.012C36.6242 49.8665 36.6727 49.7372 36.7212 49.6241C36.8828 49.2039 37.0525 48.7756 37.2303 48.3393C37.408 47.9029 37.5939 47.4585 37.7878 47.0059C37.5777 47.2484 37.3757 47.4746 37.1818 47.6847C37.004 47.8787 36.8747 48.0241 36.7939 48.1211C36.7454 48.1857 36.705 48.218 36.6727 48.218C36.6404 48.218 36.6242 48.1776 36.6242 48.0968C36.6242 47.9675 36.6646 47.8463 36.7454 47.7332C36.9717 47.4423 37.2303 47.1352 37.5212 46.812C37.8121 46.4888 38.0949 46.1494 38.3697 45.7938C39.0484 44.3716 39.808 42.9979 40.6484 41.6727C41.4888 40.3313 42.4342 39.1434 43.4847 38.1091C43.808 37.802 44.1716 37.4869 44.5756 37.1636C44.9797 36.8404 45.408 36.5657 45.8605 36.3394C46.3292 36.1131 46.7898 36 47.2423 36C47.4847 36 47.7029 36.0646 47.8968 36.1939C48.1069 36.3232 48.22 36.5252 48.2362 36.8V37.503C48.2362 37.5677 48.1877 37.6 48.0908 37.6C48.0423 37.6 48.018 37.5838 48.018 37.5515C48.018 37.2929 47.9049 37.1232 47.6786 37.0424C47.4524 36.9454 47.2261 36.897 46.9999 36.897C46.111 36.897 45.311 37.1313 44.5999 37.6C43.8888 38.0525 43.2585 38.6505 42.709 39.3939C42.1595 40.1212 41.6666 40.9292 41.2302 41.8181C40.7939 42.6908 40.3979 43.5555 40.0424 44.412C39.703 45.2524 39.3797 46.0039 39.0727 46.6665C39.0727 46.6665 39.0727 46.6827 39.0727 46.715C39.0727 46.7474 39.0808 46.7635 39.0969 46.7635C39.1131 46.7635 39.2424 46.6423 39.4848 46.3999C39.7434 46.1413 40.0585 45.8423 40.4302 45.5029C40.8181 45.1635 41.2221 44.8726 41.6423 44.6302C42.0625 44.3716 42.4504 44.2423 42.806 44.2423C42.9837 44.2423 43.0969 44.307 43.1454 44.4363C43.1938 44.5494 43.2181 44.6787 43.2181 44.8241V45.0423C43.1373 45.6403 42.9272 46.2868 42.5878 46.9817C42.2646 47.6766 41.8444 48.3393 41.3272 48.9696C40.8262 49.5837 40.2605 50.0847 39.6302 50.4726C39.0161 50.8604 38.3697 51.0544 37.6909 51.0544ZM38.0787 50.6423C38.3373 50.6423 38.6121 50.5453 38.903 50.3514C39.21 50.1413 39.4444 49.9554 39.606 49.7938C39.7999 49.616 40.0343 49.3413 40.309 48.9696C40.5838 48.5817 40.8504 48.1615 41.109 47.709C41.3676 47.2564 41.5858 46.8201 41.7636 46.3999C41.9413 45.9797 42.0302 45.6403 42.0302 45.3817C42.0302 45.3009 42.0141 45.2282 41.9817 45.1635C41.9494 45.0989 41.8928 45.0666 41.812 45.0666C41.6666 45.0666 41.4726 45.1555 41.2302 45.3332C41.004 45.511 40.7535 45.7292 40.4787 45.9878C40.2201 46.2302 39.9777 46.4726 39.7515 46.715C39.5414 46.9413 39.3878 47.111 39.2909 47.2241C39.1131 47.4181 38.8868 47.7009 38.6121 48.0726C38.3373 48.4443 38.0868 48.8241 37.8606 49.212C37.6505 49.5837 37.5454 49.8988 37.5454 50.1574C37.5454 50.4806 37.7232 50.6423 38.0787 50.6423Z" fill="#D4D4D8"/>
<path d="M44.5648 51.0301C43.9022 51.0301 43.4416 50.9008 43.183 50.6423C42.9245 50.3837 42.7952 50.0685 42.7952 49.6968C42.7952 49.2281 42.9164 48.7271 43.1588 48.1938C43.4174 47.6605 43.6598 47.208 43.8861 46.8362C44.1446 46.4484 44.4921 46.0443 44.9285 45.6241C45.3648 45.2039 45.8416 44.8484 46.3588 44.5575C46.8759 44.2666 47.3769 44.1211 47.8618 44.1211C48.282 44.1211 48.5729 44.2262 48.7345 44.4363C48.8961 44.6302 48.9769 44.8645 48.9769 45.1393C48.9769 45.6403 48.8234 46.0524 48.5163 46.3756C48.2254 46.6989 47.8618 46.9655 47.4254 47.1756C46.9891 47.3696 46.5689 47.5312 46.1648 47.6605C45.9224 47.7251 45.6396 47.7898 45.3164 47.8544C44.9931 47.9191 44.6861 47.9514 44.3952 47.9514C44.282 48.2423 44.1931 48.5251 44.1285 48.7999C44.0638 49.0746 44.0315 49.3251 44.0315 49.5514C44.0315 49.8261 44.0962 50.0524 44.2255 50.2301C44.3709 50.4079 44.6053 50.4968 44.9285 50.4968C45.0578 50.4968 45.2113 50.4806 45.3891 50.4483C45.5669 50.416 45.7608 50.3675 45.9709 50.3029C46.4557 50.1413 46.9325 49.8827 47.4012 49.5271C47.8699 49.1716 48.2981 48.7918 48.686 48.3877C49.09 47.9675 49.3971 47.6201 49.6072 47.3453C49.6557 47.3938 49.6799 47.4504 49.6799 47.515C49.6799 47.5958 49.6234 47.7251 49.5102 47.9029C49.187 48.3554 48.7668 48.8241 48.2497 49.3089C47.7325 49.7938 47.1588 50.2059 46.5285 50.5453C45.8982 50.8685 45.2436 51.0301 44.5648 51.0301ZM44.5891 47.4665C44.7992 47.4827 45.0335 47.4827 45.2921 47.4665C45.5669 47.4342 45.8335 47.3776 46.0921 47.2968C46.7547 47.1029 47.2315 46.7958 47.5224 46.3756C47.8295 45.9393 47.983 45.5514 47.983 45.212C47.983 45.0181 47.9426 44.8565 47.8618 44.7272C47.781 44.5979 47.6517 44.5332 47.4739 44.5332C47.0052 44.5332 46.585 44.711 46.2133 45.0666C45.8416 45.406 45.5184 45.8019 45.2436 46.2544C44.9689 46.7069 44.7507 47.111 44.5891 47.4665Z" fill="#D4D4D8"/>
<path d="M49.3654 51.1756C49.3007 51.1756 49.3007 51.1109 49.3654 50.9816C49.4462 50.8362 49.5189 50.6746 49.5835 50.4968C49.6643 50.319 49.7452 50.1251 49.826 49.915C49.9876 49.5271 50.1654 49.0908 50.3593 48.6059C50.5532 48.1211 50.7391 47.6524 50.9169 47.1999C51.0946 46.7312 51.2482 46.3352 51.3775 46.012C51.5229 45.6726 51.6199 45.4544 51.6684 45.3575C51.4421 45.5999 51.1674 45.907 50.8441 46.2787C50.5371 46.6342 50.2462 46.9817 49.9714 47.3211C49.6967 47.6605 49.4866 47.9271 49.3411 48.1211C49.2926 48.1857 49.2522 48.218 49.2199 48.218C49.1876 48.218 49.1714 48.1776 49.1714 48.0968C49.1714 47.9675 49.2118 47.8463 49.2926 47.7332C49.5997 47.3453 49.9391 46.909 50.3108 46.4241C50.6987 45.9393 51.0461 45.4948 51.3532 45.0908C51.6603 44.6706 51.8542 44.3959 51.935 44.2666C52.1128 44.2343 52.3714 44.1858 52.7108 44.1211C53.0663 44.0565 53.3087 43.9676 53.438 43.8545C53.4865 43.806 53.535 43.7817 53.5835 43.7817C53.6158 43.7817 53.632 43.8141 53.632 43.8787C53.6481 43.9272 53.632 43.9837 53.5835 44.0484C53.4865 44.1454 53.3411 44.3555 53.1471 44.6787C52.9694 45.0019 52.7673 45.3736 52.5411 45.7938C52.3148 46.214 52.0966 46.6181 51.8865 47.0059C52.0482 46.7635 52.2583 46.4807 52.5168 46.1575C52.7916 45.8181 53.0906 45.4948 53.4138 45.1878C53.737 44.8645 54.0603 44.5979 54.3835 44.3878C54.7229 44.1777 55.038 44.0726 55.3289 44.0726C55.539 44.0726 55.7168 44.1211 55.8623 44.2181C56.0077 44.2989 56.1208 44.4524 56.2016 44.6787C56.2501 44.7918 56.2744 44.9211 56.2744 45.0666C56.2744 45.3413 56.2016 45.608 56.0562 45.8666C55.9269 46.109 55.8299 46.2948 55.7653 46.4241C55.7491 46.4726 55.6926 46.5211 55.5956 46.5696C55.4986 46.6019 55.4582 46.5857 55.4744 46.5211C55.4905 46.4403 55.4986 46.3595 55.4986 46.2787C55.5148 46.1979 55.5229 46.109 55.5229 46.012C55.5229 45.7373 55.4663 45.4868 55.3532 45.2605C55.2562 45.0342 55.0703 44.9211 54.7956 44.9211C54.537 44.9211 54.2219 45.0827 53.8502 45.406C53.4784 45.7292 53.1067 46.1009 52.735 46.5211C52.2663 47.0706 51.8946 47.5958 51.6199 48.0968C51.3451 48.5817 51.1189 49.0584 50.9411 49.5271C50.8441 49.7857 50.7472 50.0443 50.6502 50.3029C50.5532 50.5453 50.4805 50.7392 50.432 50.8847C50.2219 50.9008 50.0118 50.9493 49.8017 51.0301C49.5916 51.1271 49.4462 51.1756 49.3654 51.1756Z" fill="#D4D4D8"/>
<path d="M56.7946 50.9089C56.633 50.9089 56.4956 50.8766 56.3825 50.812C56.2694 50.7473 56.2128 50.6261 56.2128 50.4483C56.2128 50.2221 56.2694 49.9554 56.3825 49.6483C56.5118 49.3413 56.6492 49.0342 56.7946 48.7271C56.9401 48.4201 57.0613 48.1696 57.1583 47.9756C57.2391 47.8302 57.3441 47.6039 57.4734 47.2968C57.6189 46.9736 57.7643 46.6423 57.9098 46.3029C58.0714 45.9474 58.2007 45.6484 58.2976 45.406C58.4108 45.1635 58.4673 45.0423 58.4673 45.0423C58.3219 45.2039 58.1279 45.4302 57.8855 45.7211C57.6593 46.012 57.4088 46.3191 57.134 46.6423C56.8754 46.9494 56.633 47.2403 56.4067 47.515C56.1967 47.7898 56.0431 47.9918 55.9461 48.1211C55.8977 48.1857 55.8573 48.218 55.8249 48.218C55.7926 48.218 55.7765 48.1776 55.7765 48.0968C55.7765 47.9675 55.8169 47.8463 55.8977 47.7332C56.0916 47.4908 56.3259 47.1999 56.6007 46.8605C56.8754 46.5049 57.1502 46.1494 57.4249 45.7938C57.7158 45.4383 57.9663 45.1231 58.1764 44.8484C58.0471 44.8484 57.8774 44.8565 57.6673 44.8726C57.4734 44.8888 57.2956 44.913 57.134 44.9454C56.9724 44.9615 56.8835 44.9696 56.8674 44.9696C56.7865 44.9696 56.7946 44.9049 56.8916 44.7757C56.9886 44.6464 57.1179 44.5171 57.2795 44.3878C57.4411 44.2585 57.5623 44.1938 57.6431 44.1938C57.6593 44.1938 57.7886 44.2019 58.031 44.2181C58.2734 44.2181 58.4512 44.2181 58.5643 44.2181C58.8875 43.7817 59.2027 43.2807 59.5098 42.7151C59.833 42.1494 60.1481 41.5272 60.4552 40.8484C60.5845 40.8323 60.8027 40.7434 61.1097 40.5818C61.433 40.404 61.6835 40.2262 61.8612 40.0484C61.942 39.9676 62.0067 39.9272 62.0552 39.9272C62.1521 39.9272 62.1521 39.9919 62.0552 40.1212C61.942 40.2505 61.7481 40.5252 61.4734 40.9454C61.1986 41.3494 60.8915 41.8424 60.5522 42.4242C60.2128 42.9898 59.8895 43.5878 59.5825 44.2181H61.5461C61.7239 44.2181 61.8128 44.2423 61.8128 44.2908C61.8128 44.3555 61.6915 44.4201 61.4491 44.4848C61.1744 44.5656 60.8835 44.614 60.5764 44.6302C60.2855 44.6464 60.0108 44.6787 59.7522 44.7272C59.5098 44.7757 59.332 44.8807 59.2188 45.0423C59.1219 45.1555 58.9845 45.3979 58.8067 45.7696C58.629 46.1413 58.435 46.5696 58.2249 47.0544C58.031 47.5231 57.8613 47.9999 57.7158 48.4847C57.5704 48.9534 57.4815 49.3493 57.4492 49.6726V49.7695C57.4492 49.8988 57.4896 50.0039 57.5704 50.0847C57.6512 50.1655 57.732 50.2059 57.8128 50.2059C58.0229 50.2059 58.2896 50.0766 58.6128 49.818C58.9522 49.5594 59.2996 49.2524 59.6552 48.8968C60.0108 48.5251 60.3178 48.1857 60.5764 47.8787C60.6895 47.7494 60.7865 47.6282 60.8673 47.515C60.9643 47.4019 61.0208 47.3292 61.037 47.2968C61.0693 47.3615 61.0855 47.41 61.0855 47.4423C61.0855 47.5393 61.0532 47.6443 60.9885 47.7574C60.94 47.8706 60.8835 47.9675 60.8188 48.0483C60.5118 48.4524 60.14 48.8807 59.7037 49.3332C59.2673 49.7695 58.7986 50.1413 58.2976 50.4483C57.8128 50.7554 57.3118 50.9089 56.7946 50.9089Z" fill="#D4D4D8"/>
<path d="M62.0126 51.0301C61.3499 51.0301 60.8893 50.9008 60.6308 50.6423C60.3722 50.3837 60.2429 50.0685 60.2429 49.6968C60.2429 49.2281 60.3641 48.7271 60.6065 48.1938C60.8651 47.6605 61.1075 47.208 61.3338 46.8362C61.5924 46.4484 61.9398 46.0443 62.3762 45.6241C62.8125 45.2039 63.2893 44.8484 63.8065 44.5575C64.3236 44.2666 64.8246 44.1211 65.3095 44.1211C65.7297 44.1211 66.0206 44.2262 66.1822 44.4363C66.3438 44.6302 66.4246 44.8645 66.4246 45.1393C66.4246 45.6403 66.2711 46.0524 65.964 46.3756C65.6731 46.6989 65.3095 46.9655 64.8731 47.1756C64.4368 47.3696 64.0166 47.5312 63.6125 47.6605C63.3701 47.7251 63.0873 47.7898 62.7641 47.8544C62.4408 47.9191 62.1338 47.9514 61.8429 47.9514C61.7297 48.2423 61.6408 48.5251 61.5762 48.7999C61.5116 49.0746 61.4792 49.3251 61.4792 49.5514C61.4792 49.8261 61.5439 50.0524 61.6732 50.2301C61.8186 50.4079 62.053 50.4968 62.3762 50.4968C62.5055 50.4968 62.659 50.4806 62.8368 50.4483C63.0146 50.416 63.2085 50.3675 63.4186 50.3029C63.9035 50.1413 64.3802 49.8827 64.8489 49.5271C65.3176 49.1716 65.7458 48.7918 66.1337 48.3877C66.5378 47.9675 66.8448 47.6201 67.0549 47.3453C67.1034 47.3938 67.1277 47.4504 67.1277 47.515C67.1277 47.5958 67.0711 47.7251 66.958 47.9029C66.6347 48.3554 66.2145 48.8241 65.6974 49.3089C65.1802 49.7938 64.6065 50.2059 63.9762 50.5453C63.3459 50.8685 62.6913 51.0301 62.0126 51.0301ZM62.0368 47.4665C62.2469 47.4827 62.4812 47.4827 62.7398 47.4665C63.0146 47.4342 63.2812 47.3776 63.5398 47.2968C64.2024 47.1029 64.6792 46.7958 64.9701 46.3756C65.2772 45.9393 65.4307 45.5514 65.4307 45.212C65.4307 45.0181 65.3903 44.8565 65.3095 44.7272C65.2287 44.5979 65.0994 44.5332 64.9216 44.5332C64.4529 44.5332 64.0327 44.711 63.661 45.0666C63.2893 45.406 62.9661 45.8019 62.6913 46.2544C62.4166 46.7069 62.1984 47.111 62.0368 47.4665Z" fill="#D4D4D8"/>
<path d="M69.7876 37.1376C69.6273 37.4504 69.467 37.7656 69.3045 38.0784C69.2211 38.2383 69.4604 38.3601 69.5438 38.2001C69.7041 37.8873 69.8644 37.5722 70.0269 37.2594C70.1104 37.0994 69.871 36.9776 69.7876 37.1376Z" fill="#D4D4D8"/>
<path d="M68.8481 38.9677C68.6878 39.2805 68.5275 39.5956 68.3651 39.9084C68.2816 40.0684 68.521 40.1902 68.6044 40.0302L69.0875 39.0894C69.1709 38.9295 68.9316 38.8077 68.8481 38.9677Z" fill="#D4D4D8"/>
<path d="M68.2429 38.171L68.6886 38.4408C68.8357 38.5316 68.9477 38.2713 68.8006 38.1806C68.6513 38.0898 68.502 37.9991 68.3549 37.9107C68.2077 37.8224 68.0958 38.0803 68.2429 38.171Z" fill="#D4D4D8"/>
<path d="M69.6374 39.0175L70.0832 39.2873C70.2303 39.378 70.3423 39.1177 70.1951 39.027L69.7494 38.7572C69.6023 38.6665 69.4903 38.9267 69.6374 39.0175Z" fill="#D4D4D8"/>
<path d="M67.3091 39.619C67.3179 39.6429 67.3267 39.6691 67.3333 39.7002V39.8601C67.3245 39.9246 67.3157 39.9867 67.3091 40.0488C67.3025 40.1514 67.3135 40.2852 67.241 40.3759C66.87 40.8367 65.7765 41.5172 65.2517 41.8324L63.9364 42.6204C63.8859 42.5726 63.831 42.415 63.8925 42.3625L65.2429 41.1806L66.7558 39.7957C66.8502 39.7097 67.2916 39.3539 67.3091 39.6214V39.619Z" fill="#D4D4D8"/>
<path d="M67.3091 39.619C67.3179 39.6429 67.3267 39.6691 67.3333 39.7002V39.8601C67.3245 39.9246 67.3157 39.9867 67.3091 40.0488C67.3025 40.1514 67.3135 40.2852 67.241 40.3759C66.87 40.8367 65.7765 41.5172 65.2517 41.8324L63.9364 42.6204C63.8859 42.5726 63.831 42.415 63.8925 42.3625L65.2429 41.1806L66.7558 39.7957C66.8502 39.7097 67.2916 39.3539 67.3091 39.6214V39.619Z" fill="#D4D4D8"/>
</svg>
