<svg width="16" height="16" viewBox="0 0 16 16" fill="none" xmlns="http://www.w3.org/2000/svg">
<path d="M4 0.5H12C13.933 0.5 15.5 2.067 15.5 4V12C15.5 13.933 13.933 15.5 12 15.5H4C2.067 15.5 0.5 13.933 0.5 12V4C0.5 2.067 2.067 0.5 4 0.5Z" fill="#56A85B"/>
<path d="M4 0.5H12C13.933 0.5 15.5 2.067 15.5 4V12C15.5 13.933 13.933 15.5 12 15.5H4C2.067 15.5 0.5 13.933 0.5 12V4C0.5 2.067 2.067 0.5 4 0.5Z" stroke="#56A85B"/>
<path d="M7.78906 4.78906C7.9729 4.78906 8.15684 4.81261 8.33984 4.86035L8.33887 4.86133C8.5309 4.90183 8.6962 4.97016 8.83105 5.07129C8.9807 5.18352 9.05364 5.34393 9.05371 5.53906V5.60742C9.05371 5.63663 9.04802 5.66534 9.04004 5.69336L9.04102 5.69434C9.01384 5.83927 8.93287 5.97628 8.81152 6.10645L8.8125 6.10742C8.71619 6.21749 8.63852 6.35787 8.58105 6.53027L8.5791 6.5293C8.57025 6.56911 8.55243 6.60805 8.51562 6.63672C8.47509 6.66825 8.42671 6.67773 8.38281 6.67773C8.36013 6.67771 8.33119 6.6747 8.30371 6.66016C8.27342 6.64401 8.25033 6.61719 8.23926 6.58398C8.22928 6.55387 8.23119 6.52441 8.23535 6.50195C8.23964 6.47893 8.2483 6.45598 8.25781 6.43457L8.26074 6.42676L8.26562 6.41992C8.31925 6.33947 8.36062 6.24391 8.38867 6.13184L8.38965 6.12793C8.42512 6.00733 8.44238 5.88701 8.44238 5.76758C8.44237 5.58575 8.40124 5.42885 8.32031 5.29395C8.25163 5.17948 8.13298 5.11426 7.9375 5.11426C7.75983 5.11432 7.57494 5.16528 7.38184 5.27246C7.19807 5.37455 7.03009 5.55558 6.88379 5.82617V5.82715L4.77246 9.71973C4.57293 10.0881 4.38378 10.3617 4.20508 10.5322C4.16203 10.5732 4.11979 10.6105 4.0791 10.6445H6.48828C6.85145 10.6445 7.1879 10.634 7.49707 10.6113C7.6491 10.6002 7.76629 10.5802 7.85156 10.5547C7.9376 10.5289 7.97738 10.5004 7.99316 10.4805C8.05785 10.3898 8.08881 10.2963 8.08887 10.1973C8.08887 10.1214 8.06889 10.0595 8.03125 10.0078C7.99278 9.95509 7.93112 9.90678 7.83984 9.86621L7.83203 9.8623L7.8252 9.85742C7.79628 9.8381 7.74609 9.79664 7.74609 9.72852C7.74623 9.67762 7.77277 9.63836 7.79883 9.6123L7.80566 9.60547L7.81348 9.59961C7.87199 9.5606 7.93658 9.56691 7.98926 9.5918C8.07705 9.63082 8.16746 9.71149 8.25977 9.81836L8.40918 9.98242C8.45601 10.039 8.50012 10.099 8.54297 10.1611H8.54395C8.62885 10.277 8.68985 10.3783 8.71777 10.4619C8.74381 10.54 8.75683 10.6194 8.75684 10.6992C8.75684 10.8908 8.67063 11.0408 8.50488 11.1367C8.34721 11.2278 8.12312 11.2676 7.84668 11.2676C7.41824 11.2676 6.95944 11.2522 6.4707 11.2217C5.98308 11.1912 5.49858 11.1563 5.01855 11.1182C4.54809 11.0802 4.10435 11.0542 3.6875 11.0391H3.68164V11.0381C3.53815 11.0244 3.39345 11.0448 3.24707 11.1006L3.24512 11.1016C3.10293 11.1513 2.9982 11.2086 2.92773 11.2715C2.90922 11.29 2.87842 11.3125 2.83496 11.3125C2.75717 11.3125 2.7249 11.2489 2.71484 11.2188C2.70394 11.186 2.70118 11.1475 2.70117 11.1104C2.70117 11.0475 2.71628 10.9865 2.74512 10.9287L2.74805 10.9238C2.79851 10.8355 2.88596 10.7922 2.98535 10.7822H2.9873C3.18146 10.7684 3.3671 10.7023 3.54395 10.582C3.72568 10.4584 3.88538 10.3133 4.02344 10.1465C4.16383 9.96915 4.26118 9.80671 4.31738 9.65918V9.65723L5.36816 7.03223V7.03125C5.51411 6.67026 5.67889 6.3205 5.86328 5.98242L5.86426 5.98047C6.06091 5.63441 6.31013 5.34989 6.61133 5.12793L6.6123 5.12695C6.92959 4.89916 7.32415 4.78912 7.78906 4.78906Z" fill="white" stroke="white" stroke-width="0.2"/>
<path d="M13.375 4.2627C13.3986 4.27472 13.42 4.29549 13.4307 4.32324C13.4417 4.3522 13.4399 4.38527 13.4238 4.41602L13.1963 4.8584C13.1803 4.88913 13.1548 4.90921 13.125 4.91699C13.0965 4.92444 13.0676 4.92012 13.0439 4.9082C13.0204 4.8962 12.9989 4.87533 12.9883 4.84766C12.9772 4.8187 12.9791 4.78563 12.9951 4.75488C13.0715 4.60783 13.1471 4.4599 13.2227 4.3125C13.2387 4.28176 13.2642 4.26071 13.2939 4.25293C13.3224 4.2455 13.3514 4.25079 13.375 4.2627Z" fill="white" stroke="white" stroke-width="0.1"/>
<path d="M12.7344 5.55908C12.758 5.57111 12.7794 5.59188 12.79 5.61963C12.8011 5.64859 12.7992 5.68165 12.7832 5.7124L12.7822 5.71143L12.5557 6.15479C12.5396 6.18552 12.5142 6.2056 12.4844 6.21338C12.4559 6.22083 12.4269 6.21651 12.4033 6.20459C12.3797 6.19258 12.3583 6.17172 12.3477 6.14404C12.3366 6.11509 12.3385 6.08202 12.3545 6.05127C12.4309 5.90421 12.5065 5.75629 12.582 5.60889C12.5981 5.57815 12.6235 5.55709 12.6533 5.54932C12.6818 5.54189 12.7108 5.54717 12.7344 5.55908Z" fill="white" stroke="white" stroke-width="0.1"/>
<path d="M12.252 4.77197L12.4619 4.89893C12.524 4.93719 12.5266 5.00928 12.5068 5.05518C12.4966 5.07867 12.4785 5.10228 12.4512 5.11475C12.4212 5.1283 12.3867 5.1256 12.3564 5.10693V5.10596L12.1475 4.97998H12.1465C12.0848 4.9418 12.0818 4.87059 12.1016 4.82471C12.1118 4.80102 12.1307 4.77767 12.1582 4.76514C12.1879 4.75166 12.2216 4.75375 12.252 4.77197Z" fill="white" stroke="white" stroke-width="0.1"/>
<path d="M13.3682 5.32324L13.3691 5.32227L13.5791 5.44922V5.4502C13.6411 5.48847 13.6438 5.5596 13.624 5.60547C13.6139 5.62902 13.5958 5.6525 13.5684 5.66504C13.5386 5.67848 13.5047 5.67646 13.4746 5.6582L13.2646 5.53027H13.2637C13.2021 5.492 13.1991 5.4208 13.2188 5.375C13.229 5.35128 13.2477 5.32696 13.2754 5.31445C13.3051 5.30114 13.3381 5.30498 13.3682 5.32324Z" fill="white" stroke="white" stroke-width="0.1"/>
<path d="M11.4932 6.5127L11.418 6.50195L11.4922 6.5127C11.488 6.54338 11.4844 6.57103 11.4814 6.59863C11.4806 6.61486 11.4799 6.65256 11.4766 6.67969C11.4745 6.69622 11.4715 6.7151 11.4648 6.73438L11.4336 6.79199C11.3386 6.90995 11.1576 7.05031 10.9766 7.17578C10.7931 7.30293 10.6006 7.42059 10.4766 7.49512L9.85742 7.86621L9.80859 7.89551L9.76758 7.85645C9.74135 7.83165 9.72359 7.79228 9.71582 7.75977C9.71163 7.74213 9.70834 7.72041 9.71094 7.69824C9.71354 7.67622 9.72287 7.64655 9.74902 7.62402L10.3828 7.06836L11.0957 6.41699V6.41602C11.1201 6.39379 11.1887 6.33805 11.2549 6.30273C11.2852 6.28658 11.33 6.26573 11.374 6.26855C11.3994 6.27023 11.4286 6.28032 11.4512 6.30566C11.4667 6.32311 11.4736 6.34374 11.4775 6.36328L11.4912 6.41113L11.4932 6.41895V6.5127Z" fill="white"/>
<path d="M11.4932 6.5127L11.418 6.50195L11.4922 6.5127C11.488 6.54338 11.4844 6.57103 11.4814 6.59863C11.4806 6.61486 11.4799 6.65256 11.4766 6.67969C11.4745 6.69622 11.4715 6.7151 11.4648 6.73438L11.4336 6.79199C11.3386 6.90995 11.1576 7.05031 10.9766 7.17578C10.7931 7.30293 10.6006 7.42059 10.4766 7.49512L9.85742 7.86621L9.80859 7.89551L9.76758 7.85645C9.74135 7.83165 9.72359 7.79228 9.71582 7.75977C9.71163 7.74213 9.70834 7.72041 9.71094 7.69824C9.71354 7.67622 9.72287 7.64655 9.74902 7.62402L10.3828 7.06836L11.0957 6.41699V6.41602C11.1201 6.39379 11.1887 6.33805 11.2549 6.30273C11.2852 6.28658 11.33 6.26573 11.374 6.26855C11.3994 6.27023 11.4286 6.28032 11.4512 6.30566C11.4667 6.32311 11.4736 6.34374 11.4775 6.36328L11.4912 6.41113L11.4932 6.41895V6.5127Z" fill="white"/>
<path d="M11.4932 6.5127L11.418 6.50195L11.4922 6.5127C11.488 6.54338 11.4844 6.57103 11.4814 6.59863C11.4806 6.61486 11.4799 6.65256 11.4766 6.67969C11.4745 6.69622 11.4715 6.7151 11.4648 6.73438L11.4336 6.79199C11.3386 6.90995 11.1576 7.05031 10.9766 7.17578C10.7931 7.30293 10.6006 7.42059 10.4766 7.49512L9.85742 7.86621L9.80859 7.89551L9.76758 7.85645C9.74135 7.83165 9.72359 7.79228 9.71582 7.75977C9.71163 7.74213 9.70834 7.72041 9.71094 7.69824C9.71354 7.67622 9.72287 7.64655 9.74902 7.62402L10.3828 7.06836L11.0957 6.41699V6.41602C11.1201 6.39379 11.1887 6.33805 11.2549 6.30273C11.2852 6.28658 11.33 6.26573 11.374 6.26855C11.3994 6.27023 11.4286 6.28032 11.4512 6.30566C11.4667 6.32311 11.4736 6.34374 11.4775 6.36328L11.4912 6.41113L11.4932 6.41895V6.5127Z" stroke="white" stroke-width="0.15"/>
</svg>
