<svg width="392" height="160" viewBox="0 0 392 160" fill="none" xmlns="http://www.w3.org/2000/svg">
<path opacity="0.7" d="M-64.68 -22.1198C-66.3702 -24.8851 -67.5976 -24.2962 -68 -23.656V255.179L281.269 263.655C281.875 275.55 281.72 258.193 280.607 300.003C279.168 354.07 283.625 314.336 287.851 266.712C287.876 266.172 287.71 265.096 287.491 263.806L296 264.012C295.799 237.896 290.748 256.715 287.851 255.179C285.672 254.024 286.827 259.896 287.491 263.806L281.875 263.67C282.073 257.923 281.717 240.829 280.607 242.418C278.675 245.183 276.201 244.623 277.006 249.616C267.045 258.45 273.061 234.823 270.345 234.055C268.172 233.44 266.622 235.079 266.119 235.975C264.208 235.335 260.264 232.595 259.781 226.758C259.298 220.92 252.94 215.62 249.821 213.699C244.992 207.861 239.156 213.827 236.842 217.54C231.41 218.308 231.108 228.678 229.297 226.758C227.848 225.221 226.279 225.605 225.675 225.99C224.709 223.839 221.852 224.581 220.544 225.221C222.234 216.618 217.425 204.482 214.809 199.489C224.709 179.21 214.306 167.739 207.867 164.538C203.28 151.019 187.645 155.065 180.401 158.777C180.1 157.241 179.435 153.554 179.194 151.096C178.953 148.638 176.276 149.304 174.968 149.944C174.365 147.511 172.312 142.185 168.932 140.342C165.552 138.498 160.883 139.574 158.972 140.342V137.653C159.575 130.484 159.153 115.915 152.633 114.993C146.114 114.072 140.057 118.45 137.844 120.754C128.669 117.682 128.186 124.595 129.091 128.436C119.735 117.298 114.905 128.436 114.905 126.131C114.905 124.288 112.491 124.339 111.284 124.595C117.079 112.919 106.052 114.097 99.8143 116.146C101.746 113.687 101.022 110.512 100.418 109.616C110.076 108.08 110.076 95.9178 108.869 90.0287C113.457 73.4369 101.525 72.1055 94.9851 73.8978C93.7778 68.3672 87.8419 69.0329 85.0249 70.0571C88.4053 68.5208 88.6468 65.8323 88.345 64.6801C97.7016 65.8323 99.2107 56.6147 98.0034 52.774C97.0376 49.7014 92.973 45.8607 91.0615 44.3244C92.1682 43.9403 94.623 41.6359 95.5888 35.4908C96.5547 29.3457 93.7779 27.5534 92.2688 27.4253V21.2802C92.2688 11.6785 87.1378 7.83777 80.7994 4.76521C75.7288 2.30716 70.0344 5.27731 67.821 7.06963C56.7139 1.23177 54.1383 11.5504 54.2389 17.4395C51.8243 16.5178 49.2085 17.8236 48.2024 18.5917C50.617 13.3684 47.1963 9.24603 45.1841 7.83777C46.0896 2.84486 41.5623 1.30858 42.4677 0.54044C43.3732 -0.227699 44.8823 -0.995838 45.7878 -6.37282C46.6932 -11.7498 41.5622 -14.0542 41.5622 -15.2064C41.5622 -16.3586 48.2024 -18.279 45.7878 -28.6489C43.8561 -36.9448 37.5379 -36.9705 34.6203 -35.9463C34.1374 -43.0132 28.1814 -44.7799 25.2637 -44.7799C24.2979 -48.467 22.6479 -48.3646 21.9437 -47.8525C20.4345 -52.8454 21.9436 -56.302 9.56885 -58.6064C-0.330994 -60.4499 -3.10776 -55.4059 -2.2023 -52.4614C-4.2847 -53.3447 -6.16385 -48.8908 -6.9368 -46.2644C-7.63696 -46.2965 -9.25034 -46.2243 -12.4643 -45.9321C-19.2252 -45.3176 -21.3178 -35.6902 -21.519 -30.9534C-24.8995 -33.7186 -28.3604 -32.1056 -29.6683 -30.9534C-44.8802 -39.5565 -50.0917 -24.5522 -50.796 -15.9746C-60.1526 -21.3516 -58.3416 -9.06138 -59.247 -13.2862C-59.9714 -16.666 -61.9635 -16.4867 -62.869 -15.9746C-62.7684 -16.8708 -62.9897 -19.3545 -64.68 -22.1198Z" fill="white"/>
<g opacity="0.3" style="mix-blend-mode:overlay">
<path d="M417.75 -109.117C419.641 -112.215 421.02 -111.562 421.473 -110.848L422.121 200.929L13.6262 212.249C13.7913 183.046 14.9335 124.208 18.1818 122.479C21.4301 120.749 22.4781 125.183 22.5961 127.616C23.1595 127.042 24.8967 126.234 27.3384 127.6C29.7802 128.965 30.6236 132.741 30.7401 134.459C31.6431 134.312 33.9926 134.791 36.167 137.875C38.3413 140.96 37.1015 152.903 36.2099 158.489C47.4087 168.326 39.3023 179.521 42.3491 178.651C44.7866 177.955 46.5292 179.781 47.0959 180.781C49.2397 180.058 53.6595 176.979 54.1879 170.45C54.7163 163.92 61.84 157.969 65.3358 155.809C70.742 149.262 77.3048 155.91 79.9104 160.052C86.0094 160.889 86.3723 172.483 88.4002 170.329C90.0226 168.605 91.7849 169.028 92.4633 169.456C93.5422 167.047 96.7507 167.866 98.22 168.576C96.3031 158.963 101.672 145.374 104.596 139.781C93.4384 117.145 105.087 104.278 112.306 100.674C117.423 85.5391 134.979 90.0007 143.117 94.1232C143.453 92.4043 144.189 88.279 144.454 85.5296C144.72 82.7802 147.725 83.5139 149.194 84.2245C149.866 81.5023 152.157 75.5392 155.946 73.4644C159.736 71.3897 164.978 72.5736 167.125 73.425L167.118 70.4188C166.424 62.4049 166.865 46.113 174.179 45.0565C181.494 44 188.301 48.8716 190.791 51.4395C201.081 47.9676 201.639 55.6957 200.632 59.9937C211.107 47.5028 216.553 59.9375 216.547 57.3609C216.543 55.2995 219.253 55.3472 220.608 55.6287C214.078 42.5965 226.455 43.8698 233.461 46.1355C231.287 43.3947 232.093 39.8417 232.768 38.8373C221.925 37.1578 221.897 23.5587 223.238 16.9691C218.051 -1.56474 231.439 -3.10078 238.782 -1.12262C240.124 -7.31141 246.788 -6.59055 249.952 -5.45653C246.154 -7.16092 245.877 -10.1661 246.213 -11.4556C235.715 -10.1302 234 -20.4309 235.346 -24.7301C236.422 -28.1695 240.975 -32.4801 243.117 -34.2054C241.874 -34.6305 239.114 -37.1974 238.015 -44.0647C236.917 -50.932 240.029 -52.9471 241.723 -53.0962L241.708 -59.9673C241.686 -70.7035 247.436 -75.0182 254.542 -78.4789C260.227 -81.2475 266.625 -77.949 269.113 -75.9537C281.565 -82.5253 284.479 -70.9977 284.38 -64.4125C287.088 -65.4527 290.027 -64.003 291.158 -63.1481C288.436 -68.979 292.265 -73.6019 294.52 -75.1845C293.492 -80.7637 298.57 -82.4994 297.552 -83.3547C296.534 -84.21 294.838 -85.0629 293.81 -91.0716C292.781 -97.0802 298.534 -99.6772 298.531 -100.966C298.529 -102.254 291.072 -104.375 293.758 -115.979C295.906 -125.263 302.997 -125.317 306.274 -124.183C306.799 -132.087 313.48 -134.086 316.754 -134.098C317.83 -138.224 319.682 -138.116 320.473 -137.546C322.155 -143.135 320.454 -146.994 334.336 -149.62C345.443 -151.72 348.571 -146.091 347.561 -142.795C349.896 -143.791 352.016 -138.819 352.889 -135.885C353.675 -135.924 355.486 -135.849 359.094 -135.535C366.683 -134.875 369.054 -124.119 369.29 -118.823C373.078 -121.928 376.966 -120.138 378.436 -118.855C395.489 -128.535 401.372 -111.779 402.183 -102.191C412.671 -108.24 410.667 -94.4905 411.674 -99.218C412.479 -103 414.715 -102.807 415.732 -102.238C415.617 -103.24 415.86 -106.018 417.75 -109.117Z" fill="black"/>
</g>
<g opacity="0.4" filter="url(#filter0_d_2131_49818)">
<path d="M433.914 -141.472C435.499 -145.269 436.856 -144.635 437.336 -143.843L459.403 220.283L71.6173 271.791C69.7652 237.663 66.8038 168.827 69.7746 166.503C72.7454 164.178 74.0474 169.259 74.327 172.09C74.8233 171.366 76.4202 170.26 78.8368 171.626C81.2533 172.993 82.3154 177.325 82.5443 179.32C83.3932 179.064 85.6611 179.403 87.9415 182.802C90.222 186.201 89.8643 200.268 89.4004 206.876C100.73 217.318 93.7889 231.154 96.6273 229.853C98.8979 228.812 100.681 230.781 101.289 231.896C103.278 230.851 107.271 226.84 107.324 219.163C107.378 211.486 113.744 203.867 116.921 201.017C121.613 192.863 128.313 200.013 131.076 204.607C136.935 205.013 138.078 218.522 139.859 215.815C141.284 213.65 142.989 213.979 143.664 214.415C144.524 211.5 147.633 212.156 149.079 212.848C146.594 201.799 150.766 185.422 153.163 178.614C140.992 153.22 151.187 137.098 157.806 132.211C161.632 114.053 178.639 117.619 186.664 121.672C186.864 119.632 187.281 114.744 187.344 111.508C187.407 108.272 190.316 108.847 191.763 109.539C192.215 106.297 193.984 99.1164 197.445 96.3377C200.907 93.559 205.975 94.4507 208.076 95.2439L207.863 91.7331C206.651 82.4371 205.949 63.3652 212.834 61.4455C219.719 59.5259 226.53 64.5785 229.074 67.3447C238.624 62.3247 239.686 71.2996 239.024 76.4145C248.128 60.8421 254.164 74.8568 253.981 71.8474C253.836 69.44 256.417 69.2417 257.725 69.4435C250.617 54.8327 262.478 55.1599 269.298 57.1499C267.041 54.1521 267.563 49.9264 268.137 48.6898C257.707 47.7442 256.744 31.8618 257.567 24.0388C251.358 2.87557 263.987 -0.173455 271.108 1.44899C271.959 -5.90592 278.347 -5.68839 281.434 -4.66027C277.705 -6.29526 277.234 -9.77962 277.465 -11.3174C267.571 -8.78528 265.231 -20.6568 266.215 -25.8048C267.003 -29.9233 271.037 -35.3852 272.955 -37.6013C271.744 -37.9813 268.941 -40.721 267.424 -48.6398C265.907 -56.5586 268.729 -59.204 270.329 -59.537L269.843 -67.5618C269.083 -80.1005 274.256 -85.6795 280.777 -90.3879C285.994 -94.1547 292.307 -90.9014 294.811 -88.8038C306.203 -97.6471 309.768 -84.455 310.127 -76.7535C312.631 -78.2224 315.526 -76.8043 316.661 -75.9117C313.671 -82.4676 316.995 -88.2266 319.031 -90.2866C317.67 -96.7073 322.38 -99.2107 321.353 -100.114C320.326 -101.018 318.654 -101.855 317.262 -108.778C315.87 -115.7 321.164 -119.273 321.073 -120.777C320.982 -122.282 313.743 -124.061 315.499 -137.868C316.905 -148.913 323.646 -149.641 326.841 -148.624C326.797 -157.905 333.014 -160.866 336.127 -161.187C336.866 -166.108 338.636 -166.155 339.428 -165.564C340.643 -172.25 338.759 -176.598 351.784 -180.966C362.204 -184.461 365.566 -178.179 364.833 -174.234C366.986 -175.616 369.344 -170.006 370.376 -166.661C371.121 -166.78 372.849 -166.863 376.302 -166.834C383.566 -166.774 386.562 -154.432 387.151 -148.268C390.54 -152.251 394.362 -150.524 395.849 -149.163C411.403 -162.068 418.152 -143.047 419.583 -131.923C429.143 -139.972 428.183 -123.723 428.815 -129.34C429.321 -133.833 431.461 -133.818 432.468 -133.249C432.29 -134.408 432.329 -137.675 433.914 -141.472Z" fill="white"/>
</g>
<g opacity="0.9" filter="url(#filter1_d_2131_49818)">
<path d="M-46.4199 44.37C-47.7676 42.117 -48.8225 42.5112 -49.1815 42.9899L-57.3728 260.971L250.087 287.51C250.684 267.082 251.277 225.888 248.873 224.53C246.469 223.173 245.569 226.226 245.421 227.922C245.01 227.494 243.722 226.85 241.848 227.694C239.975 228.537 239.246 231.139 239.116 232.335C238.44 232.191 236.658 232.419 234.943 234.476C233.229 236.534 233.868 244.942 234.402 248.888C225.722 255.257 231.553 263.454 229.279 262.707C227.46 262.109 226.102 263.307 225.65 263.98C224.053 263.377 220.799 261.022 220.563 256.433C220.326 251.843 215.106 247.356 212.526 245.687C208.615 240.863 203.507 245.212 201.441 247.989C196.826 248.297 196.266 256.387 194.792 254.788C193.612 253.509 192.274 253.725 191.752 253.992C190.999 252.259 188.562 252.685 187.437 253.115C189.119 246.481 185.41 236.733 183.345 232.689C192.31 217.37 183.853 207.841 178.503 204.992C175.022 194.176 161.686 196.495 155.453 199.007C155.243 197.79 154.79 194.871 154.658 192.937C154.527 191.002 152.245 191.378 151.12 191.808C150.681 189.874 149.103 185.6 146.299 183.976C143.495 182.353 139.517 182.942 137.879 183.439L137.958 181.337C138.679 175.765 138.749 164.353 133.265 163.281C127.781 162.208 122.532 165.305 120.593 166.987C112.927 164.09 112.315 169.468 112.968 172.52C105.385 163.308 100.976 171.754 101.043 169.953C101.098 168.512 99.0548 168.421 98.0266 168.557C103.269 159.741 93.9123 160.068 88.5789 161.332C90.2841 159.515 89.765 156.994 89.281 156.261C97.4911 155.581 97.8484 146.073 97.0008 141.404C101.367 128.68 91.3185 126.996 85.7375 128.044C84.8793 123.656 79.8417 123.856 77.4301 124.505C80.333 123.486 80.6162 121.397 80.3949 120.48C88.2709 121.886 89.8175 114.761 88.9097 111.694C88.1834 109.239 84.8602 106.018 83.2893 104.714C84.2361 104.473 86.3791 102.804 87.3761 98.052C88.3732 93.3001 86.0784 91.7492 84.8064 91.5677L84.9869 86.7637C85.2689 79.2575 81.0441 75.9782 75.7761 73.2344C71.5616 71.0393 66.6604 73.0541 64.7366 74.3358C55.5183 69.173 53.0379 77.1007 52.9499 81.71C50.9357 80.8592 48.686 81.7389 47.8129 82.2852C50.0076 78.332 47.2369 74.9248 45.5773 73.7154C46.4894 69.861 42.7072 68.4158 43.4952 67.8641C44.2833 67.3124 45.5816 66.7933 46.505 62.6387C47.4284 58.484 43.1585 56.4058 43.1923 55.505C43.2262 54.6043 48.896 53.4611 47.1594 45.2242C45.7701 38.6346 40.4296 38.2737 37.933 38.917C37.7323 33.3664 32.7491 31.664 30.2826 31.5066C29.5744 28.5721 28.1766 28.5632 27.5662 28.9255C26.4371 24.9409 27.8144 22.3201 17.4206 19.8511C9.10562 17.8759 6.61001 21.6693 7.28898 24.0201C5.55449 23.2173 3.83502 26.5977 3.10441 28.6093C2.51344 28.5464 1.14742 28.5159 -1.57817 28.5709C-7.31171 28.6866 -9.36364 36.1 -9.67292 39.7923C-12.4494 37.4482 -15.4226 38.5225 -16.5621 39.3527C-29.1693 31.8066 -34.0158 43.2553 -34.8632 49.9229C-42.6151 45.2147 -41.4452 54.9204 -42.0865 51.5688C-42.5996 48.8875 -44.289 48.9202 -45.0695 49.2717C-44.9581 48.5765 -45.0723 46.623 -46.4199 44.37Z" fill="white"/>
</g>
<g opacity="0.2" filter="url(#filter2_f_2131_49818)" style="mix-blend-mode:plus-lighter">
<path d="M171.5 -150L186.313 -75.9376L245.267 -127.785L210.282 -59.7977L290.858 -69.6269L219.437 -33.6829L290.858 2.26102L210.282 -7.56812L245.267 60.4196L186.313 8.57172L171.5 82.6341L156.687 8.57172L97.7329 60.4196L132.718 -7.56812L52.1424 2.26102L123.563 -33.6829L52.1424 -69.6269L132.718 -59.7977L97.7329 -127.785L156.687 -75.9376L171.5 -150Z" fill="white"/>
</g>
<defs>
<filter id="filter0_d_2131_49818" x="40.8625" y="-206.871" width="446.189" height="509.076" filterUnits="userSpaceOnUse" color-interpolation-filters="sRGB">
<feFlood flood-opacity="0" result="BackgroundImageFix"/>
<feColorMatrix in="SourceAlpha" type="matrix" values="0 0 0 0 0 0 0 0 0 0 0 0 0 0 0 0 0 0 127 0" result="hardAlpha"/>
<feOffset dy="2.76492"/>
<feGaussianBlur stdDeviation="13.8246"/>
<feComposite in2="hardAlpha" operator="out"/>
<feColorMatrix type="matrix" values="0 0 0 0 0 0 0 0 0 0 0 0 0 0 0 0 0 0 0.08 0"/>
<feBlend mode="normal" in2="BackgroundImageFix" result="effect1_dropShadow_2131_49818"/>
<feBlend mode="normal" in="SourceGraphic" in2="effect1_dropShadow_2131_49818" result="shape"/>
</filter>
<filter id="filter1_d_2131_49818" x="-105.759" y="-26.3209" width="404.762" height="364.982" filterUnits="userSpaceOnUse" color-interpolation-filters="sRGB">
<feFlood flood-opacity="0" result="BackgroundImageFix"/>
<feColorMatrix in="SourceAlpha" type="matrix" values="0 0 0 0 0 0 0 0 0 0 0 0 0 0 0 0 0 0 127 0" result="hardAlpha"/>
<feOffset dy="2.76492"/>
<feGaussianBlur stdDeviation="24.1931"/>
<feComposite in2="hardAlpha" operator="out"/>
<feColorMatrix type="matrix" values="0 0 0 0 0 0 0 0 0 0 0 0 0 0 0 0 0 0 0.06 0"/>
<feBlend mode="normal" in2="BackgroundImageFix" result="effect1_dropShadow_2131_49818"/>
<feBlend mode="normal" in="SourceGraphic" in2="effect1_dropShadow_2131_49818" result="shape"/>
</filter>
<filter id="filter2_f_2131_49818" x="4.57073" y="-197.572" width="333.859" height="327.778" filterUnits="userSpaceOnUse" color-interpolation-filters="sRGB">
<feFlood flood-opacity="0" result="BackgroundImageFix"/>
<feBlend mode="normal" in="SourceGraphic" in2="BackgroundImageFix" result="shape"/>
<feGaussianBlur stdDeviation="23.7859" result="effect1_foregroundBlur_2131_49818"/>
</filter>
</defs>
</svg>
