<svg xmlns="http://www.w3.org/2000/svg" width="152" height="54" viewBox="0 0 152 54" fill="none">
  <path d="M1.10717 54C0.709725 54 0.397446 53.8864 0.170334 53.6593C-0.056778 53.489 -0.056778 53.347 0.170334 53.2334C1.41945 53.0063 2.49823 52.5521 3.40668 51.8707C4.31513 51.1325 5.05324 50.224 5.62102 49.1451C6.81336 47.1577 7.97731 45.1703 9.11287 43.183C10.2484 41.1388 11.3556 39.0946 12.4344 37.0505L20.6104 21.9748C21.9163 19.6467 23.0519 17.4038 24.0171 15.2461C25.0391 13.0883 25.834 11.5268 26.4018 10.5615C26.7992 9.82334 27.4805 9.17035 28.4458 8.60252C29.4678 7.97792 30.4614 7.49527 31.4266 7.15457C31.086 7.15457 30.7453 7.15457 30.4046 7.15457C30.0639 7.09779 29.6949 7.0694 29.2974 7.0694C27.5373 7.0694 25.6069 7.18297 23.5061 7.4101C21.4621 7.58044 19.4465 7.86435 17.4592 8.26183C15.5288 8.6593 13.8254 9.19874 12.3492 9.88013C10.873 10.5615 9.87937 11.3849 9.36837 12.3502C9.14126 12.8612 8.94253 13.3722 8.7722 13.8833C8.60187 14.3943 8.5167 14.9054 8.5167 15.4164C8.5167 16.7224 8.97092 17.6593 9.87937 18.2271C9.93615 18.2271 9.96454 18.2839 9.96454 18.3975C9.96454 18.511 9.85098 18.6246 9.62387 18.7382C9.45354 18.8517 9.2832 18.8801 9.11287 18.8233C8.60186 18.5394 7.97731 17.858 7.23919 16.7792C6.50108 15.6435 6.04686 14.7066 5.87652 13.9685C5.70619 13.2871 5.62102 12.6625 5.62102 12.0946C5.62102 10.6183 6.10363 9.48265 7.06886 8.6877C8.03409 7.83596 9.25481 7.23975 10.731 6.89905C12.2073 6.50158 13.7119 6.27445 15.2449 6.21766C16.8347 6.1041 18.2257 6.04732 19.4181 6.04732C21.235 6.04732 23.3925 6.04732 25.8908 6.04732C28.389 5.99054 30.6885 5.96214 32.7893 5.96214C33.3003 5.96214 33.8681 5.96214 34.4926 5.96214C35.1172 5.90536 35.7701 5.87697 36.4515 5.87697C37.9845 5.87697 39.5743 5.96214 41.2208 6.13249C42.8674 6.30284 44.372 6.67192 45.7347 7.23975C47.0973 7.80757 48.1477 8.68769 48.8858 9.88013C49.624 11.1293 49.993 12.4921 49.993 13.9685C49.993 15.388 49.7091 16.8076 49.1414 18.2271C48.5736 19.6467 47.8922 20.8675 47.0973 21.8896C46.5863 22.5142 45.9902 23.1388 45.3088 23.7634C44.6275 24.388 43.861 24.9842 43.0093 25.552C42.1577 26.1199 41.2208 26.6593 40.1988 27.1703C39.2336 27.6246 38.0696 27.9937 36.707 28.2776C36.6502 28.2776 36.5934 28.3628 36.5366 28.5331C36.5366 28.7035 36.5934 28.7886 36.707 28.7886C36.9909 28.8454 37.4735 28.9306 38.1548 29.0442C38.8929 29.1009 39.5459 29.1861 40.1136 29.2997C42.1009 29.6972 43.7474 30.5489 45.0533 31.8549C46.416 33.1041 47.0973 34.8076 47.0973 36.9653C47.0973 39.4069 46.4444 41.6498 45.1385 43.694C43.8894 45.7382 42.2712 47.4984 40.284 48.9748C38.2968 50.3943 36.2244 51.5016 34.0668 52.2965C31.3415 53.3186 28.2187 53.8297 24.6984 53.8297C22.5976 53.8297 20.4117 53.6309 18.1406 53.2334C15.8694 52.836 13.7971 52.1546 11.9234 51.1893C11.5259 50.9621 11.1285 50.7918 10.731 50.6782C10.3336 50.5079 9.90776 50.4227 9.45354 50.4227C8.65864 50.4227 7.80697 50.6498 6.89853 51.1041C6.33075 51.3312 5.59263 51.7571 4.68418 52.3817C3.77574 53.0063 2.75373 53.5173 1.61817 53.9148C1.50462 53.9716 1.33428 54 1.10717 54ZM21.9731 52.6372C23.4493 52.6372 24.9255 52.4953 26.4018 52.2114C27.878 51.8707 29.2123 51.4732 30.4046 51.0189C32.5054 50.224 34.4358 49.1167 36.196 47.6972C37.9561 46.2208 39.3755 44.489 40.4543 42.5016C41.5899 40.4574 42.1577 38.1861 42.1577 35.6877C42.1577 34.041 41.7318 32.7918 40.8801 31.9401C40.0285 31.0315 38.9497 30.4069 37.6438 30.0662C36.3379 29.7256 34.9752 29.5552 33.5558 29.5552C32.477 29.5552 31.455 29.612 30.4898 29.7256C29.5246 29.8391 28.6445 29.9811 27.8496 30.1514C26.2598 30.4353 24.8404 30.7476 23.5913 31.0883C23.3641 30.9748 23.3925 30.776 23.6764 30.4921C23.9603 30.1514 24.3294 29.7823 24.7836 29.3849C25.2946 28.9874 25.692 28.6751 25.9759 28.4479C26.0895 28.3344 26.3166 28.164 26.6573 27.9369C27.0547 27.653 27.367 27.511 27.5941 27.511C30.3762 27.511 32.8461 27.3407 35.0036 27C37.218 26.6593 39.12 25.836 40.7098 24.53C42.2996 23.1672 43.6055 21.0662 44.6275 18.2271C45.1385 16.7508 45.394 15.3028 45.394 13.8833C45.394 12.2366 44.9966 10.817 44.2017 9.6246C43.4068 8.37539 42.1293 7.63722 40.3692 7.4101C40.142 7.35331 39.8865 7.32492 39.6026 7.32492C39.3188 7.32492 39.0349 7.32492 38.751 7.32492C37.6722 7.32492 36.4799 7.46687 35.174 7.75079C33.9249 8.0347 32.988 8.57413 32.3635 9.36909C30.944 11.2429 29.5813 13.3722 28.2754 15.7571C26.9695 18.0852 25.7204 20.47 24.5281 22.9117C23.3358 25.2965 22.2002 27.5394 21.1214 29.6404C19.8155 32.1956 18.4812 34.7792 17.1186 37.3912C15.7559 40.0032 14.4216 42.6435 13.1157 45.3123C12.775 45.9937 12.6047 46.6467 12.6047 47.2713C12.6047 48.4069 13.3144 49.5142 14.7339 50.5931C15.6991 51.3312 16.8063 51.8707 18.0554 52.2114C19.3613 52.4953 20.6672 52.6372 21.9731 52.6372Z" fill="black"/>
  <path d="M49.413 52.5521C48.5046 52.5521 47.6813 52.3817 46.9432 52.041C46.2619 51.6435 45.9212 50.8202 45.9212 49.571C45.9212 47.5836 46.4322 45.5962 47.4542 43.6088C48.4762 41.5647 49.5266 39.776 50.6054 38.2429C51.5706 36.9369 52.6494 35.7161 53.8417 34.5804C55.0908 33.388 56.4251 32.3659 57.8446 31.5142C58.753 30.9464 59.9737 30.3502 61.5068 29.7256C63.0965 29.0442 64.4308 28.7035 65.5096 28.7035C66.4181 28.7035 67.2129 28.959 67.8943 29.47C68.5756 29.9243 68.9163 30.776 68.9163 32.0252C68.9163 33.9558 68.4053 35.9432 67.3833 37.9874C66.418 39.9748 65.396 41.735 64.3173 43.2681C63.8063 43.9495 63.2953 44.6025 62.7843 45.2271C62.2733 45.795 61.7055 46.3912 61.0809 47.0158C63.1817 47.0158 65.1122 46.4196 66.8723 45.2271C68.6324 43.9779 70.1654 42.4732 71.4713 40.7129L71.6416 40.5426C71.812 40.5426 71.8971 40.7129 71.8971 41.0536C71.8971 41.4511 71.7836 41.8202 71.5565 42.1609C70.4209 43.7508 69.0014 45.1703 67.2981 46.4196C65.5948 47.612 63.6643 48.2082 61.5068 48.2082C61.2796 48.2082 61.0525 48.2082 60.8254 48.2082C60.5983 48.2082 60.3712 48.1798 60.1441 48.123C56.9645 51.0757 53.3875 52.5521 49.413 52.5521ZM51.6274 51.1041C52.4223 51.1041 53.2739 50.8202 54.1824 50.2524C55.1476 49.6845 55.8857 49.1451 56.3967 48.6341C57.362 47.6688 58.242 46.6467 59.0369 45.5678C59.8318 44.4322 60.5699 43.2965 61.2513 42.1609C62.0461 40.7981 62.841 39.1798 63.6359 37.306C64.4308 35.4322 64.8283 33.6719 64.8283 32.0252C64.8283 30.7192 64.374 30.0662 63.4656 30.0662C62.7275 30.0662 61.819 30.3785 60.7402 31.0032C59.7182 31.6278 58.9517 32.1956 58.4407 32.7066C56.5103 34.694 54.8921 36.8517 53.5862 39.1798C52.8481 40.4858 52.0532 42.0189 51.2015 43.7792C50.3499 45.5394 49.924 47.1577 49.924 48.6341C49.924 48.8612 49.924 49.0883 49.924 49.3155C49.9808 49.4858 50.0376 49.6845 50.0944 49.9117C50.3215 50.7066 50.8325 51.1041 51.6274 51.1041Z" fill="black"/>
  <path d="M71.9523 52.5521C71.0439 52.5521 70.2206 52.3817 69.4825 52.041C68.8012 51.6435 68.4605 50.8202 68.4605 49.571C68.4605 47.5836 68.9715 45.5962 69.9935 43.6088C71.0155 41.5647 72.0659 39.776 73.1447 38.2429C74.1099 36.9369 75.1887 35.7161 76.381 34.5804C77.6301 33.388 78.9644 32.3659 80.3839 31.5142C81.2923 30.9464 82.5131 30.3502 84.0461 29.7256C85.6358 29.0442 86.9701 28.7035 88.0489 28.7035C88.9574 28.7035 89.7522 28.959 90.4336 29.47C91.1149 29.9243 91.4556 30.776 91.4556 32.0252C91.4556 33.9558 90.9446 35.9432 89.9226 37.9874C88.9574 39.9748 87.9354 41.735 86.8566 43.2681C86.3456 43.9495 85.8346 44.6025 85.3236 45.2271C84.8126 45.795 84.2448 46.3912 83.6202 47.0158C85.721 47.0158 87.6515 46.4196 89.4116 45.2271C91.1717 43.9779 92.7047 42.4732 94.0106 40.7129L94.1809 40.5426C94.3513 40.5426 94.4364 40.7129 94.4364 41.0536C94.4364 41.4511 94.3229 41.8202 94.0958 42.1609C92.9602 43.7508 91.5408 45.1703 89.8374 46.4196C88.1341 47.612 86.2036 48.2082 84.0461 48.2082C83.8189 48.2082 83.5918 48.2082 83.3647 48.2082C83.1376 48.2082 82.9105 48.1798 82.6834 48.123C79.5038 51.0757 75.9268 52.5521 71.9523 52.5521ZM74.1667 51.1041C74.9616 51.1041 75.8133 50.8202 76.7217 50.2524C77.6869 49.6845 78.425 49.1451 78.936 48.6341C79.9013 47.6688 80.7813 46.6467 81.5762 45.5678C82.3711 44.4322 83.1092 43.2965 83.7906 42.1609C84.5854 40.7981 85.3803 39.1798 86.1752 37.306C86.9701 35.4322 87.3676 33.6719 87.3676 32.0252C87.3676 30.7192 86.9133 30.0662 86.0049 30.0662C85.2668 30.0662 84.3583 30.3785 83.2796 31.0032C82.2576 31.6278 81.4911 32.1956 80.98 32.7066C79.0496 34.694 77.4314 36.8517 76.1255 39.1798C75.3874 40.4858 74.5925 42.0189 73.7409 43.7792C72.8892 45.5394 72.4633 47.1577 72.4633 48.6341C72.4633 48.8612 72.4633 49.0883 72.4633 49.3155C72.5201 49.4858 72.5769 49.6845 72.6337 49.9117C72.8608 50.7066 73.3718 51.1041 74.1667 51.1041Z" fill="black"/>
  <path d="M96.5357 52.6372C95.9679 52.6372 95.4853 52.5237 95.0878 52.2965C94.6904 52.0694 94.4917 51.6435 94.4917 51.0189C94.4917 50.224 94.6904 49.2871 95.0878 48.2082C95.542 47.1293 96.0247 46.0505 96.5357 44.9716C97.0467 43.8927 97.4725 43.0126 97.8132 42.3312C98.0971 41.8202 98.4661 41.0252 98.9203 39.9464C99.4313 38.8107 99.9423 37.6467 100.453 36.4543C101.021 35.205 101.475 34.1546 101.816 33.3028C102.213 32.4511 102.412 32.0252 102.412 32.0252C101.901 32.5931 101.22 33.388 100.368 34.4101C99.5733 35.4322 98.6932 36.511 97.728 37.6467C96.8195 38.7255 95.9679 39.7476 95.173 40.7129C94.4349 41.6782 93.8955 42.388 93.5548 42.8423C93.3845 43.0694 93.2425 43.183 93.129 43.183C93.0154 43.183 92.9586 43.041 92.9586 42.7571C92.9586 42.3028 93.1006 41.877 93.3845 41.4795C94.0658 40.6278 94.8891 39.6057 95.8543 38.4132C96.8196 37.164 97.7848 35.9148 98.75 34.6656C99.772 33.4164 100.652 32.3091 101.39 31.3438C100.936 31.3438 100.34 31.3722 99.6017 31.429C98.9203 31.4858 98.2958 31.571 97.728 31.6845C97.1602 31.7413 96.8479 31.7697 96.7912 31.7697C96.5073 31.7697 96.5357 31.5426 96.8763 31.0883C97.217 30.6341 97.6712 30.1798 98.239 29.7256C98.8068 29.2713 99.2326 29.0442 99.5165 29.0442C99.5733 29.0442 100.028 29.0726 100.879 29.1293C101.731 29.1293 102.355 29.1293 102.753 29.1293C103.888 27.5962 104.996 25.836 106.074 23.8486C107.21 21.8612 108.317 19.6751 109.396 17.2902C109.85 17.2334 110.617 16.9211 111.695 16.3533C112.831 15.7287 113.711 15.1041 114.336 14.4795C114.619 14.1956 114.847 14.0536 115.017 14.0536C115.358 14.0536 115.358 14.2808 115.017 14.735C114.619 15.1893 113.938 16.1546 112.973 17.6309C112.008 19.0505 110.929 20.7823 109.737 22.8265C108.544 24.8139 107.409 26.9148 106.33 29.1293H113.228C113.853 29.1293 114.165 29.2145 114.165 29.3849C114.165 29.612 113.739 29.8391 112.888 30.0662C111.923 30.3502 110.9 30.5205 109.822 30.5773C108.8 30.6341 107.834 30.7476 106.926 30.918C106.074 31.0883 105.45 31.4574 105.052 32.0252C104.712 32.4227 104.229 33.2744 103.605 34.5804C102.98 35.8864 102.299 37.3912 101.561 39.0946C100.879 40.7413 100.283 42.4164 99.772 44.1199C99.261 45.7666 98.9487 47.1577 98.8352 48.2934V48.6341C98.8352 49.0883 98.9771 49.4574 99.261 49.7413C99.5449 50.0252 99.8288 50.1672 100.113 50.1672C100.851 50.1672 101.788 49.7129 102.923 48.8044C104.116 47.8959 105.336 46.817 106.585 45.5678C107.834 44.2618 108.913 43.0694 109.822 41.9905C110.219 41.5363 110.56 41.1104 110.844 40.7129C111.184 40.3155 111.383 40.0599 111.44 39.9464C111.553 40.1735 111.61 40.3438 111.61 40.4574C111.61 40.7981 111.497 41.1672 111.27 41.5647C111.099 41.9621 110.9 42.3028 110.673 42.5868C109.595 44.0063 108.289 45.511 106.756 47.1009C105.223 48.6341 103.576 49.9401 101.816 51.0189C100.113 52.0978 98.3526 52.6372 96.5357 52.6372Z" fill="black"/>
  <path d="M122.617 52.8927C121.766 52.8927 120.999 52.7224 120.318 52.3817C119.693 52.041 119.381 51.4164 119.381 50.5079C119.381 49.9968 119.495 49.429 119.722 48.8044C120.233 47.4984 120.914 45.9085 121.766 44.0347C122.674 42.1609 123.583 40.3438 124.491 38.5836C125.4 36.7666 126.109 35.2902 126.62 34.1546C126.961 33.4732 127.131 32.9905 127.131 32.7066C127.131 32.1956 126.847 32.082 126.28 32.3659C125.712 32.6498 125.087 33.0473 124.406 33.5584C123.725 34.0694 123.214 34.4669 122.873 34.7508C121.397 36.1136 119.835 37.7319 118.189 39.6057C116.599 41.4227 115.123 43.3533 113.76 45.3975C112.454 47.3849 111.432 49.3722 110.694 51.3596C110.637 51.7003 110.268 51.9842 109.587 52.2114C108.906 52.4385 108.281 52.5521 107.713 52.5521C106.805 52.5521 106.464 52.2681 106.691 51.7003C107.997 48.7476 109.331 45.4826 110.694 41.9054C112.113 38.3281 113.703 34.6656 115.463 30.918C116.769 28.0789 118.217 25.1546 119.807 22.1451C121.453 19.1356 123.27 16.2681 125.258 13.5426C127.245 10.7603 129.431 8.31861 131.815 6.21766C133.916 4.40063 136.216 2.92429 138.714 1.78864C141.269 0.596214 144.023 0 146.975 0C148.281 0 149.417 0.283911 150.382 0.851734C151.347 1.36278 151.886 2.29968 152 3.66246V4.42902C152 5.22397 151.915 6.01893 151.745 6.81388C151.688 7.04101 151.461 7.15457 151.063 7.15457C150.893 7.15457 150.836 7.12618 150.893 7.0694C151.12 5.59306 150.722 4.54259 149.7 3.91798C148.735 3.29337 147.486 2.98107 145.953 2.98107C143.171 2.98107 140.616 3.49211 138.288 4.51419C135.96 5.53628 133.803 6.89905 131.815 8.60252C128.749 11.2713 126.081 14.6782 123.81 18.8233C121.539 22.9685 119.58 27.1987 117.933 31.5142C117.138 33.6151 116.343 35.7161 115.549 37.817C114.81 39.918 114.101 41.877 113.419 43.694C115.974 40.2871 118.416 37.3628 120.744 34.9211C123.128 32.4795 125.201 30.7476 126.961 29.7256C128.38 28.9306 129.658 28.5331 130.793 28.5331C131.872 28.5331 132.412 28.9874 132.412 29.8959C132.412 30.6909 132.014 31.7129 131.219 32.9621C130.822 33.5868 130.197 34.6372 129.346 36.1136C128.551 37.5899 127.699 39.2082 126.791 40.9685C125.939 42.6719 125.201 44.2618 124.576 45.7382C123.952 47.2145 123.639 48.2934 123.639 48.9748C123.639 49.8833 124.037 50.3375 124.832 50.3375C125.286 50.3375 125.797 50.1956 126.365 49.9117C126.989 49.6278 127.444 49.3722 127.727 49.1451C129.26 48.0095 130.765 46.6183 132.241 44.9716C133.717 43.3249 134.967 41.877 135.989 40.6278C136.045 40.571 136.074 40.6562 136.074 40.8833C136.074 41.1104 136.017 41.4511 135.903 41.9054C135.847 42.3028 135.676 42.6435 135.392 42.9274C134.768 43.7792 134.115 44.6025 133.434 45.3975C132.809 46.1356 132.184 46.8738 131.56 47.612C130.481 48.8612 129.175 50.0536 127.642 51.1893C126.166 52.3249 124.491 52.8927 122.617 52.8927Z" fill="black"/>
</svg>