<svg xmlns="http://www.w3.org/2000/svg" width="260" height="66" viewBox="0 0 260 66" fill="none">
  <path d="M1.02111 49.6774C0.65456 49.6774 0.366553 49.5723 0.157094 49.362C-0.0523648 49.2043 -0.0523648 49.0729 0.157094 48.9677C1.30912 48.7575 2.30405 48.3369 3.14189 47.7061C3.97972 47.0227 4.66046 46.1816 5.18411 45.1828C6.28377 43.3429 7.35725 41.503 8.40454 39.6631C9.5042 37.7706 10.5515 35.8781 11.5464 33.9857C12.7508 31.6726 13.9814 29.3596 15.2381 27.0466C16.4949 24.681 17.7517 22.3417 19.0084 20.0287C20.2128 17.8734 21.2863 15.7969 22.2288 13.7993C23.1714 11.8017 23.8783 10.356 24.3496 9.46236C24.7162 8.77897 25.3445 8.17443 26.2347 7.64875C27.1773 7.07049 28.0937 6.62365 28.9839 6.30824C28.6697 6.30824 28.3555 6.30824 28.0413 6.30824C27.7271 6.25567 27.3868 6.22939 27.0202 6.22939C25.3969 6.22939 23.6165 6.33453 21.679 6.5448C19.7939 6.70251 17.9349 6.96535 16.1022 7.33333C14.3218 7.70131 12.7508 8.20071 11.3893 8.83154C10.0279 9.46236 9.11147 10.2246 8.64018 11.1183C8.43073 11.5914 8.24745 12.0645 8.09035 12.5376C7.93326 13.0108 7.85471 13.4839 7.85471 13.957C7.85471 15.1661 8.27363 16.0335 9.11147 16.5591C9.16383 16.5591 9.19001 16.6117 9.19001 16.7168C9.19001 16.822 9.08529 16.9271 8.87583 17.0323C8.71873 17.1374 8.58782 17.1637 8.48309 17.1111C7.95944 16.8483 7.35725 16.2174 6.67651 15.2186C6.04813 14.1673 5.62921 13.2999 5.41975 12.6165C5.26266 11.9857 5.18411 11.4074 5.18411 10.8817C5.18411 9.51493 5.62921 8.46356 6.51941 7.7276C7.40961 6.93907 8.53546 6.3871 9.89694 6.07168C11.2584 5.7037 12.6461 5.49343 14.0599 5.44086C15.5261 5.33572 16.8091 5.28315 17.9087 5.28315C19.5844 5.28315 21.5743 5.28315 23.8783 5.28315C26.1824 5.23058 28.3031 5.2043 30.2406 5.2043C30.7119 5.2043 31.2356 5.2043 31.8116 5.2043C32.3876 5.15173 32.9898 5.12545 33.6182 5.12545C35.032 5.12545 36.4982 5.2043 38.0168 5.362C39.5354 5.51971 40.9231 5.86141 42.1798 6.38709C43.4366 6.91278 44.4053 7.7276 45.0861 8.83154C46.1334 10.4612 46.657 12.1959 46.657 14.0358C46.657 16.086 46.0548 18.0311 44.8504 19.871C43.6984 21.6583 42.2322 23.2354 40.4518 24.6021C38.6714 25.9689 36.8648 27.0203 35.032 27.7563C33.304 28.4397 31.3665 28.9128 29.2195 29.1756C27.1249 29.4385 25.2398 29.5699 23.5641 29.5699C23.0405 29.5699 22.5168 29.5699 21.9932 29.5699C21.5219 29.5173 21.103 29.4648 20.7364 29.4122C20.6317 29.4122 20.5793 29.3596 20.5793 29.2545C20.5793 29.0442 20.7888 28.7551 21.2077 28.3871C21.6266 27.9665 21.967 27.7826 22.2288 27.8351C22.6478 27.8877 23.0667 27.914 23.4856 27.914C23.9045 27.914 24.3496 27.914 24.8209 27.914C26.8108 27.914 28.9315 27.6511 31.1832 27.1254C33.4349 26.5998 35.5033 25.601 37.3884 24.129C39.3259 22.6045 40.7921 20.3967 41.7871 17.5054C42.0489 16.8745 42.206 16.2437 42.2584 15.6129C42.3631 14.9295 42.4155 14.2724 42.4155 13.6416C42.4155 11.8542 41.9704 10.2772 41.0802 8.91039C40.1899 7.5436 38.907 6.75507 37.2313 6.5448C37.0219 6.49223 36.7862 6.46595 36.5244 6.46595C36.2626 6.46595 36.0008 6.46595 35.7389 6.46595C34.744 6.46595 33.6444 6.59737 32.44 6.86021C31.2879 7.12305 30.4239 7.62246 29.8479 8.35842C28.5388 10.0932 27.282 12.0645 26.0776 14.2724C24.8733 16.4277 23.7212 18.6356 22.6216 20.8961C21.5219 23.1039 20.4746 25.1804 19.4797 27.1254C19.2179 27.6511 18.7204 28.5974 17.9873 29.9642C17.2542 31.2784 16.4425 32.8029 15.5523 34.5376C14.6621 36.2198 13.8243 37.902 13.0388 39.5842C12.2534 41.2664 11.625 42.7646 11.1537 44.0789C10.7348 45.3931 10.63 46.2867 10.8395 46.7599C10.8919 46.8124 10.9181 46.8913 10.9181 46.9964C10.9181 47.1541 10.8395 47.233 10.6824 47.233C10.2635 47.233 9.84457 47.1278 9.42566 46.9176C9.00674 46.7073 8.50927 46.6021 7.93326 46.6021C7.40961 46.6021 6.88597 46.7336 6.36232 46.9964C5.83867 47.2067 5.15793 47.601 4.32009 48.1792C3.48226 48.7575 2.53969 49.2306 1.4924 49.5986C1.38767 49.6511 1.23057 49.6774 1.02111 49.6774Z" fill="black"/>
  <path d="M41.3825 48.81C39.2355 48.81 37.7431 48.3895 36.9053 47.5484C36.0675 46.7073 35.6485 45.6822 35.6485 44.4731C35.6485 42.9486 36.0413 41.319 36.8267 39.5842C37.6646 37.8495 38.45 36.3775 39.1832 35.1685C40.021 33.9068 41.1468 32.5926 42.5607 31.2258C43.9745 29.859 45.5193 28.7025 47.195 27.7563C48.8706 26.81 50.4939 26.3369 52.0649 26.3369C53.4264 26.3369 54.3689 26.6786 54.8926 27.362C55.4162 27.9928 55.6781 28.7551 55.6781 29.6487C55.6781 31.2784 55.1806 32.6189 54.1857 33.6702C53.2431 34.7216 52.0649 35.589 50.651 36.2724C49.2372 36.9032 47.8757 37.4289 46.5666 37.8495C45.7811 38.0597 44.8647 38.27 43.8174 38.4803C42.7701 38.6906 41.7752 38.7957 40.8326 38.7957C40.4661 39.7419 40.1781 40.6619 39.9686 41.5556C39.7592 42.4492 39.6544 43.264 39.6544 44C39.6544 44.8937 39.8639 45.6296 40.2828 46.2079C40.7541 46.7861 41.5134 47.0753 42.5607 47.0753C42.9796 47.0753 43.4771 47.0227 44.0531 46.9176C44.6291 46.8124 45.2575 46.6547 45.9382 46.4444C47.5092 45.9188 49.0539 45.0777 50.5725 43.9211C52.0911 42.7646 53.4787 41.5293 54.7355 40.215C56.0446 38.8483 57.0395 37.718 57.7203 36.8244C57.8774 36.9821 57.9559 37.1661 57.9559 37.3763C57.9559 37.6392 57.7726 38.0597 57.4061 38.638C56.3588 40.1099 54.9973 41.6344 53.3216 43.2115C51.646 44.7885 49.787 46.129 47.7448 47.233C45.7026 48.2843 43.5818 48.81 41.3825 48.81ZM41.461 37.2186C42.1418 37.2712 42.9011 37.2712 43.7389 37.2186C44.6291 37.1135 45.4931 36.9295 46.3309 36.6667C48.4779 36.0358 50.0227 35.037 50.9652 33.6702C51.9602 32.2509 52.4576 30.9892 52.4576 29.8853C52.4576 29.2545 52.3267 28.7288 52.0649 28.3082C51.8031 27.8877 51.3841 27.6774 50.8081 27.6774C49.2896 27.6774 47.9281 28.2557 46.7237 29.4122C45.5193 30.5161 44.472 31.8041 43.5818 33.276C42.6916 34.7479 41.9847 36.0621 41.461 37.2186Z" fill="black"/>
  <path d="M56.9366 49.2831C56.7272 49.2831 56.7272 49.0729 56.9366 48.6523C57.1985 48.1792 57.4341 47.6535 57.6436 47.0753C57.9054 46.497 58.1672 45.8662 58.429 45.1828C58.9527 43.9211 59.5287 42.5018 60.1571 40.9247C60.7855 39.3477 61.3876 37.8232 61.9637 36.3513C62.5397 34.8268 63.0371 33.5388 63.4561 32.4875C63.9273 31.3835 64.2415 30.6738 64.3986 30.3584C63.6655 31.147 62.7753 32.1458 61.728 33.3548C60.7331 34.5113 59.7905 35.6416 58.9003 36.7455C58.0101 37.8495 57.3294 38.7168 56.8581 39.3477C56.701 39.5579 56.5701 39.6631 56.4654 39.6631C56.3606 39.6631 56.3083 39.5317 56.3083 39.2688C56.3083 38.8483 56.4392 38.454 56.701 38.086C57.6959 36.8244 58.7956 35.405 60 33.828C61.2567 32.2509 62.3826 30.8053 63.3775 29.491C64.3724 28.1243 65.0008 27.2306 65.2626 26.81C65.8387 26.7049 66.6765 26.5472 67.7761 26.3369C68.9282 26.1266 69.7136 25.8375 70.1326 25.4695C70.2897 25.3118 70.4468 25.233 70.6038 25.233C70.7086 25.233 70.7609 25.3381 70.7609 25.5484C70.8133 25.7061 70.7609 25.8901 70.6038 26.1004C70.2897 26.4158 69.8184 27.0992 69.19 28.1505C68.614 29.2019 67.9594 30.411 67.2263 31.7778C66.4932 33.1446 65.7863 34.4588 65.1056 35.7204C65.6292 34.9319 66.3099 34.0119 67.1478 32.9606C68.038 31.8566 69.0067 30.8053 70.054 29.8064C71.1013 28.7551 72.1486 27.8877 73.1959 27.2043C74.2956 26.5209 75.3167 26.1792 76.2592 26.1792C76.94 26.1792 77.516 26.3369 77.9873 26.6523C78.4586 26.9152 78.8251 27.4146 79.0869 28.1505C79.244 28.5185 79.3226 28.9391 79.3226 29.4122C79.3226 30.3059 79.0869 31.1732 78.6157 32.0143C78.1967 32.8029 77.8826 33.4074 77.6731 33.828C77.6207 33.9857 77.4374 34.1434 77.1233 34.3011C76.8091 34.4062 76.6782 34.3536 76.7305 34.1434C76.7829 33.8805 76.8091 33.6177 76.8091 33.3548C76.8614 33.092 76.8876 32.8029 76.8876 32.4875C76.8876 31.5938 76.7043 30.779 76.3378 30.043C76.0236 29.307 75.4214 28.9391 74.5312 28.9391C73.6934 28.9391 72.6723 29.4648 71.4679 30.5161C70.2635 31.5675 69.0591 32.7766 67.8547 34.1434C66.3361 35.9307 65.1317 37.6392 64.2415 39.2688C63.3513 40.8459 62.6182 42.3967 62.0422 43.9211C61.728 44.7622 61.4138 45.6033 61.0996 46.4444C60.7855 47.233 60.5498 47.8638 60.3927 48.3369C59.712 48.3895 59.0312 48.5472 58.3505 48.81C57.6698 49.1254 57.1985 49.2831 56.9366 49.2831Z" fill="black"/>
  <path d="M59.6435 66C57.6012 66 55.8994 65.6583 54.5379 64.9749C53.124 64.3441 52.1815 63.3716 51.7102 62.0573C51.6578 61.8996 51.6316 61.7419 51.6316 61.5842C51.5793 61.4265 51.5531 61.2425 51.5531 61.0323C51.5531 60.2437 51.7364 59.3501 52.1029 58.3513C52.4695 57.405 52.8622 56.3799 53.2811 55.276C53.4382 54.9606 53.6215 54.8029 53.831 54.8029C54.1975 54.8029 54.3022 55.0657 54.1452 55.5914C53.7786 56.3799 53.5953 57.221 53.5953 58.1147C53.5953 59.9546 54.407 61.4265 56.0303 62.5305C57.6012 63.687 59.4078 64.2652 61.45 64.2652C63.021 64.2652 64.5396 63.8973 66.0058 63.1613C68.4669 61.8996 70.483 60.1649 72.0539 57.957C73.6248 55.7491 75.0125 53.5149 76.2169 51.2545C78.0497 47.7324 79.6206 44.0526 80.9297 40.215C82.2912 36.325 83.7312 32.4875 85.2498 28.7025H83.4432C83.1814 28.7025 82.8934 28.7288 82.5792 28.7814C82.265 28.8339 81.977 28.8865 81.7152 28.9391L81.5581 28.8602C81.6628 28.282 82.1603 27.7826 83.0505 27.362C83.9931 26.8889 84.7262 26.6523 85.2498 26.6523H86.1924C86.9779 24.7599 87.8942 22.6834 88.9415 20.4229C90.0412 18.1625 91.2194 15.902 92.4762 13.6416C93.7329 11.3286 95.0944 9.2258 96.5606 7.33333C98.0792 5.44086 99.6501 3.94265 101.273 2.83871C103.944 0.946235 106.903 0 110.149 0C110.778 0 111.38 0.210274 111.956 0.630821C112.584 0.998803 112.872 1.57706 112.82 2.36559L112.584 5.2043C112.584 5.30944 112.506 5.38829 112.349 5.44086C112.191 5.49343 112.087 5.46714 112.034 5.362C111.825 4.31063 111.249 3.54839 110.306 3.07527C109.416 2.54958 108.369 2.28674 107.164 2.28674C105.227 2.28674 103.447 2.91756 101.823 4.17921C100.252 5.44086 98.5505 7.78016 96.7177 11.1971C96.037 12.5113 95.2777 14.0621 94.4398 15.8495C93.6544 17.6368 92.8689 19.4767 92.0834 21.3692C91.298 23.2616 90.5387 25.0227 89.8056 26.6523H95.461C95.8275 26.6523 96.1941 26.6523 96.5606 26.6523C96.9795 26.5998 97.3723 26.5472 97.7388 26.4946C97.7388 26.7049 97.5817 26.9152 97.2675 27.1254C97.0057 27.2832 96.7701 27.4146 96.5606 27.5197C95.2515 28.2031 94.0209 28.5974 92.8689 28.7025C91.7169 28.7551 90.4077 28.7551 88.9415 28.7025C87.7895 31.5938 86.6898 34.3536 85.6426 36.9821C84.6476 39.5579 83.548 42.0812 82.3436 44.552C81.3486 46.7599 80.1181 49.0992 78.6519 51.5699C77.1856 54.0406 75.51 56.3799 73.6248 58.5878C71.7397 60.7957 69.6451 62.583 67.3411 63.9498C64.9847 65.3166 62.4188 66 59.6435 66Z" fill="black"/>
  <path d="M93.3905 48.3369C92.5527 48.3369 91.7934 48.1792 91.1126 47.8638C90.4842 47.4958 90.1701 46.7336 90.1701 45.5771C90.1701 43.7372 90.6413 41.8972 91.5839 40.0573C92.5265 38.1649 93.4952 36.509 94.4902 35.0896C95.3803 33.8805 96.3753 32.7503 97.4749 31.6989C98.627 30.595 99.8575 29.6487 101.167 28.8602C102.005 28.3345 103.13 27.7826 104.544 27.2043C106.01 26.5735 107.241 26.2581 108.236 26.2581C109.074 26.2581 109.807 26.4946 110.435 26.9677C111.064 27.3883 111.378 28.1768 111.378 29.3333C111.378 31.1207 110.907 32.9606 109.964 34.853C109.074 36.6929 108.131 38.3226 107.136 39.7419C106.665 40.3728 106.194 40.9773 105.722 41.5556C105.251 42.0812 104.727 42.6332 104.151 43.2115C106.089 43.2115 107.869 42.6595 109.493 41.5556C111.116 40.399 112.53 39.006 113.734 37.3763L113.891 37.2186C114.048 37.2186 114.127 37.3763 114.127 37.6918C114.127 38.0597 114.022 38.4014 113.813 38.7168C112.765 40.1888 111.456 41.503 109.885 42.6595C108.314 43.7634 106.534 44.3154 104.544 44.3154C104.335 44.3154 104.125 44.3154 103.916 44.3154C103.706 44.3154 103.497 44.2891 103.287 44.2366C100.355 46.9701 97.056 48.3369 93.3905 48.3369ZM95.4327 46.9964C96.1658 46.9964 96.9513 46.7336 97.7891 46.2079C98.6793 45.6822 99.3601 45.1828 99.8314 44.7097C100.722 43.816 101.533 42.8698 102.266 41.871C102.999 40.8196 103.68 39.7682 104.309 38.7168C105.042 37.4552 105.775 35.957 106.508 34.2222C107.241 32.4875 107.608 30.8578 107.608 29.3333C107.608 28.1242 107.189 27.5197 106.351 27.5197C105.67 27.5197 104.832 27.8088 103.837 28.3871C102.895 28.9653 102.188 29.491 101.716 29.9642C99.9361 31.8041 98.4437 33.8017 97.2393 35.957C96.5586 37.1661 95.8255 38.5854 95.04 40.215C94.2545 41.8447 93.8618 43.3429 93.8618 44.7097C93.8618 44.9199 93.8618 45.1302 93.8618 45.3405C93.9141 45.4982 93.9665 45.6822 94.0189 45.8925C94.2283 46.6284 94.6996 46.9964 95.4327 46.9964Z" fill="black"/>
  <path d="M113.392 49.2831C113.183 49.2831 113.183 49.0729 113.392 48.6523C113.654 48.1792 113.89 47.6535 114.099 47.0753C114.361 46.497 114.623 45.8662 114.885 45.1828C115.408 43.9211 115.984 42.5018 116.613 40.9247C117.241 39.3477 117.843 37.8232 118.419 36.3513C118.995 34.8268 119.493 33.5388 119.912 32.4875C120.383 31.3835 120.697 30.6738 120.854 30.3584C120.121 31.147 119.231 32.1458 118.184 33.3548C117.189 34.5113 116.246 35.6416 115.356 36.7455C114.466 37.8495 113.785 38.7168 113.314 39.3477C113.157 39.5579 113.026 39.6631 112.921 39.6631C112.816 39.6631 112.764 39.5317 112.764 39.2688C112.764 38.8483 112.895 38.454 113.157 38.086C114.152 36.8244 115.251 35.405 116.456 33.828C117.712 32.2509 118.838 30.8053 119.833 29.491C120.828 28.1243 121.457 27.2306 121.718 26.81C122.294 26.7049 123.132 26.5472 124.232 26.3369C125.384 26.1266 126.169 25.8375 126.588 25.4695C126.745 25.3118 126.903 25.233 127.06 25.233C127.164 25.233 127.217 25.3381 127.217 25.5484C127.269 25.7061 127.217 25.8901 127.06 26.1004C126.745 26.4158 126.274 27.0992 125.646 28.1505C125.07 29.2019 124.415 30.411 123.682 31.7778C122.949 33.1446 122.242 34.4588 121.561 35.7204C122.085 34.9319 122.766 34.0119 123.604 32.9606C124.494 31.8566 125.462 30.8053 126.51 29.8064C127.557 28.7551 128.604 27.8877 129.652 27.2043C130.751 26.5209 131.772 26.1792 132.715 26.1792C133.396 26.1792 133.972 26.3369 134.443 26.6523C134.914 26.9152 135.281 27.4146 135.543 28.1505C135.7 28.5185 135.778 28.9391 135.778 29.4122C135.778 30.3059 135.543 31.1732 135.071 32.0143C134.652 32.8029 134.338 33.4074 134.129 33.828C134.076 33.9857 133.893 34.1434 133.579 34.3011C133.265 34.4062 133.134 34.3536 133.186 34.1434C133.239 33.8805 133.265 33.6177 133.265 33.3548C133.317 33.092 133.343 32.8029 133.343 32.4875C133.343 31.5938 133.16 30.779 132.794 30.043C132.479 29.307 131.877 28.9391 130.987 28.9391C130.149 28.9391 129.128 29.4648 127.924 30.5161C126.719 31.5675 125.515 32.7766 124.31 34.1434C122.792 35.9307 121.587 37.6392 120.697 39.2688C119.807 40.8459 119.074 42.3967 118.498 43.9211C118.184 44.7622 117.87 45.6033 117.555 46.4444C117.241 47.233 117.006 47.8638 116.848 48.3369C116.168 48.3895 115.487 48.5472 114.806 48.81C114.126 49.1254 113.654 49.2831 113.392 49.2831Z" fill="black"/>
  <path d="M134.793 49.362C134.584 49.362 134.584 49.1254 134.793 48.6523C135.055 48.1792 135.291 47.6535 135.5 47.0753C135.762 46.497 136.024 45.8662 136.286 45.1828C136.809 43.9211 137.385 42.5018 138.014 40.9247C138.642 39.3477 139.244 37.8232 139.82 36.3513C140.396 34.8268 140.894 33.5388 141.313 32.4875C141.784 31.3835 142.098 30.6738 142.255 30.3584C141.522 31.147 140.632 32.1458 139.585 33.3548C138.59 34.5113 137.647 35.6416 136.757 36.7455C135.867 37.8495 135.186 38.7168 134.715 39.3477C134.558 39.5579 134.427 39.6631 134.322 39.6631C134.217 39.6631 134.165 39.5317 134.165 39.2688C134.165 38.8483 134.296 38.454 134.558 38.086C135.553 36.8244 136.652 35.405 137.857 33.828C139.114 32.2509 140.239 30.8053 141.234 29.491C142.229 28.1243 142.858 27.2306 143.119 26.81C143.695 26.7049 144.533 26.5472 145.633 26.3369C146.785 26.1266 147.57 25.8375 147.989 25.4695C148.146 25.3118 148.304 25.233 148.461 25.233C148.565 25.233 148.618 25.3381 148.618 25.5484C148.67 25.7061 148.618 25.8901 148.461 26.1004C148.146 26.4683 147.597 27.3357 146.811 28.7025C146.078 30.0167 145.266 31.4886 144.376 33.1183C143.538 34.7479 142.753 36.2198 142.02 37.534C142.858 36.5352 143.669 35.589 144.455 34.6953C145.293 33.8017 145.869 33.1708 146.183 32.8029C146.811 32.172 147.675 31.3835 148.775 30.4373C149.874 29.491 151.026 28.6237 152.231 27.8351C153.435 27.0466 154.483 26.5998 155.373 26.4946C155.582 26.4421 155.766 26.4158 155.923 26.4158C156.08 26.4158 156.237 26.4158 156.394 26.4158C157.389 26.4158 157.886 26.7837 157.886 27.5197C157.886 27.8351 157.808 28.2031 157.651 28.6237C157.494 29.0442 157.284 29.4648 157.022 29.8853C156.708 30.5161 156.184 31.5149 155.451 32.8817C154.718 34.1959 154.064 35.405 153.488 36.509L157.179 32.8029C157.808 32.172 158.672 31.3835 159.771 30.4373C160.871 29.491 162.023 28.6237 163.227 27.8351C164.432 27.0466 165.479 26.5998 166.369 26.4946C166.579 26.4421 166.762 26.4158 166.919 26.4158C167.129 26.4158 167.286 26.4158 167.39 26.4158C168.543 26.4158 169.119 26.8363 169.119 27.6774C169.119 28.3082 168.778 29.1493 168.097 30.2007C167.731 30.779 167.155 31.7515 166.369 33.1183C165.584 34.4851 164.772 35.9833 163.934 37.6129C163.149 39.19 162.468 40.6619 161.892 42.0287C161.316 43.3955 161.028 44.3943 161.028 45.0251C161.028 45.761 161.395 46.129 162.128 46.129C162.809 46.129 163.673 45.7348 164.72 44.9462C165.82 44.1051 166.919 43.1063 168.019 41.9498C169.171 40.7933 170.166 39.6894 171.004 38.638C171.37 38.2174 171.711 37.7969 172.025 37.3763C172.391 36.9032 172.601 36.6404 172.653 36.5878C172.758 36.6929 172.81 36.8769 172.81 37.1398C172.81 37.5078 172.679 37.8757 172.418 38.2437C172.208 38.5591 171.999 38.8483 171.789 39.1111C170.794 40.4253 169.642 41.7921 168.333 43.2115C167.076 44.6308 165.689 45.8399 164.17 46.8387C162.651 47.7849 161.028 48.3369 159.3 48.4946C158.776 48.5472 158.253 48.4421 157.729 48.1792C157.206 47.9164 156.944 47.4958 156.944 46.9176C156.944 46.1816 157.127 45.3142 157.494 44.3154C157.912 43.3166 158.358 42.3178 158.829 41.319C159.352 40.3202 159.745 39.5054 160.007 38.8745C160.95 37.0346 161.814 35.2999 162.599 33.6702C163.385 32.0406 163.934 30.8841 164.249 30.2007C164.406 29.8853 164.484 29.6225 164.484 29.4122C164.484 29.0442 164.196 29.0179 163.62 29.3333C163.044 29.6487 162.337 30.1219 161.499 30.7527C160.714 31.3835 159.981 32.0143 159.3 32.6452C158.619 33.2234 158.174 33.6177 157.965 33.828C157.075 34.7216 156.001 35.9307 154.744 37.4552C153.54 38.9797 152.414 40.583 151.367 42.2652C150.32 43.8949 149.586 45.4193 149.168 46.8387C148.644 47.3118 148.146 47.5484 147.675 47.5484C147.309 47.5484 146.994 47.417 146.733 47.1541C146.523 46.8913 146.418 46.5759 146.418 46.2079C146.418 45.1565 146.733 43.9211 147.361 42.5018C148.042 41.0299 148.592 39.8208 149.01 38.8745C149.953 37.0346 150.817 35.2999 151.603 33.6702C152.388 32.0406 152.938 30.8841 153.252 30.2007C153.409 29.8853 153.488 29.6225 153.488 29.4122C153.488 29.0442 153.2 29.0179 152.624 29.3333C152.048 29.6487 151.341 30.1219 150.503 30.7527C149.717 31.3835 148.984 32.0143 148.304 32.6452C147.623 33.2234 147.178 33.6177 146.968 33.828C145.711 35.1422 144.533 36.4827 143.434 37.8495C142.386 39.2162 141.496 40.6882 140.763 42.2652C140.344 43.2115 139.899 44.2628 139.428 45.4194C138.956 46.5759 138.564 47.5484 138.249 48.3369C137.569 48.3895 136.888 48.5735 136.207 48.8889C135.527 49.2043 135.055 49.362 134.793 49.362Z" fill="black"/>
  <path d="M181.9 48.4158C181.377 48.4158 180.931 48.3106 180.565 48.1004C180.198 47.8901 180.015 47.4958 180.015 46.9176C180.015 46.1816 180.198 45.3405 180.565 44.3943C180.931 43.448 181.35 42.5281 181.822 41.6344C182.293 40.6882 182.712 39.9259 183.078 39.3477C181.246 41.2927 179.334 43.1326 177.344 44.8674C176.35 45.7085 175.25 46.497 174.046 47.233C172.841 47.9689 171.558 48.3369 170.197 48.3369C169.673 48.3369 169.307 48.1792 169.097 47.8638C168.888 47.4958 168.783 47.0753 168.783 46.6021C168.783 46.3393 168.809 46.1553 168.861 46.0502C169.123 44 169.778 41.871 170.825 39.6631C171.872 37.4552 173.155 35.3787 174.674 33.4337C176.192 31.4886 177.737 29.9116 179.308 28.7025C181.089 27.3357 183.052 26.6523 185.199 26.6523H194.232C194.494 26.6523 194.625 26.7575 194.625 26.9677C194.625 27.3883 194.389 27.5986 193.918 27.5986C193.394 27.5986 192.871 27.9403 192.347 28.6237C191.823 29.2545 191.431 29.7802 191.169 30.2007C190.802 30.779 190.226 31.7515 189.441 33.1183C188.655 34.4851 187.844 35.9833 187.006 37.6129C186.22 39.19 185.54 40.6619 184.964 42.0287C184.388 43.3955 184.1 44.3943 184.1 45.0251C184.1 45.761 184.466 46.129 185.199 46.129C185.985 46.129 186.875 45.761 187.87 45.0251C188.865 44.2891 189.86 43.3955 190.855 42.3441C191.902 41.2401 192.844 40.1625 193.682 39.1111C194.572 38.0072 195.279 37.1398 195.803 36.509C196.117 36.8244 196.091 37.2712 195.725 37.8495C195.41 38.3751 195.122 38.7957 194.86 39.1111C193.813 40.4779 192.609 41.8973 191.247 43.3692C189.886 44.7885 188.393 45.9976 186.77 46.9964C185.199 47.9426 183.576 48.4158 181.9 48.4158ZM173.417 45.6559C174.046 45.6559 174.91 45.2091 176.009 44.3154C177.161 43.3692 178.392 42.2127 179.701 40.8459C181.01 39.4265 182.241 37.9546 183.393 36.4301C184.545 34.853 185.487 33.4337 186.22 32.172C187.006 30.8578 187.399 29.859 187.399 29.1756C187.399 28.5974 187.215 28.2031 186.849 27.9928C186.535 27.7826 186.116 27.6774 185.592 27.6774C184.754 27.6774 183.838 27.9928 182.843 28.6237C181.9 29.2019 181.141 29.7802 180.565 30.3584C179.937 30.9367 179.177 31.8566 178.287 33.1183C177.449 34.3274 176.611 35.6679 175.774 37.1398C174.936 38.6117 174.229 40.0311 173.653 41.3979C173.077 42.7646 172.789 43.8686 172.789 44.7097C172.789 45.3405 172.998 45.6559 173.417 45.6559Z" fill="black"/>
  <path d="M194.778 49.362C194.568 49.362 194.568 49.1254 194.778 48.6523C195.039 48.1792 195.275 47.6535 195.485 47.0753C195.746 46.497 196.008 45.8662 196.27 45.1828C196.794 43.9211 197.37 42.5018 197.998 40.9247C198.626 39.3477 199.229 37.8232 199.805 36.3513C200.381 34.8268 200.878 33.5388 201.297 32.4875C201.768 31.3835 202.083 30.6738 202.24 30.3584C201.507 31.147 200.616 32.1458 199.569 33.3548C198.574 34.5113 197.632 35.6416 196.741 36.7455C195.851 37.8495 195.17 38.7168 194.699 39.3477C194.542 39.5579 194.411 39.6631 194.306 39.6631C194.202 39.6631 194.149 39.5317 194.149 39.2688C194.149 38.8483 194.28 38.454 194.542 38.086C195.537 36.8244 196.637 35.405 197.841 33.828C199.098 32.2509 200.224 30.8053 201.219 29.491C202.213 28.1243 202.842 27.2306 203.104 26.81C203.68 26.7049 204.518 26.5472 205.617 26.3369C206.769 26.1266 207.555 25.8375 207.974 25.4695C208.131 25.3118 208.288 25.233 208.445 25.233C208.55 25.233 208.602 25.3381 208.602 25.5484C208.654 25.7061 208.602 25.8901 208.445 26.1004C208.131 26.4683 207.581 27.3357 206.795 28.7025C206.062 30.0167 205.251 31.4886 204.36 33.1183C203.523 34.7479 202.737 36.2198 202.004 37.534C202.632 36.6929 203.313 35.8781 204.046 35.0896C204.779 34.3011 205.486 33.5388 206.167 32.8029C206.795 32.172 207.659 31.3835 208.759 30.4373C209.859 29.491 211.011 28.6237 212.215 27.8351C213.42 27.0466 214.467 26.5998 215.357 26.4946C215.566 26.4421 215.75 26.4158 215.907 26.4158C216.116 26.4158 216.273 26.4158 216.378 26.4158C217.53 26.4158 218.106 26.8363 218.106 27.6774C218.106 28.3082 217.766 29.1493 217.085 30.2007C216.718 30.779 216.142 31.7515 215.357 33.1183C214.624 34.4325 213.865 35.8781 213.079 37.4552C212.346 38.9797 211.691 40.4253 211.115 41.7921C210.592 43.1063 210.33 44.0788 210.33 44.7097C210.33 45.4456 210.697 45.8136 211.43 45.8136C212.32 45.8136 213.289 45.3668 214.336 44.4731C215.436 43.5794 216.614 42.4492 217.87 41.0824C219.127 39.6631 220.384 38.1649 221.641 36.5878C221.745 36.6929 221.798 36.8769 221.798 37.1398C221.798 37.5078 221.667 37.8757 221.405 38.2437C221.196 38.5591 220.986 38.8483 220.777 39.1111C220.253 39.7945 219.546 40.6619 218.656 41.7133C217.818 42.7121 216.954 43.7109 216.064 44.7097C215.174 45.6559 214.362 46.4182 213.629 46.9964C213.105 47.3644 212.425 47.7587 211.587 48.1792C210.749 48.5998 209.911 48.81 209.073 48.81C208.131 48.81 207.476 48.5735 207.11 48.1004C206.743 47.5747 206.56 46.9438 206.56 46.2079C206.56 45.3668 206.717 44.4731 207.031 43.5269C207.345 42.5806 207.686 41.687 208.052 40.8459C208.471 39.9522 208.785 39.2951 208.995 38.8745C209.937 37.0346 210.801 35.2999 211.587 33.6702C212.372 32.0406 212.922 30.8841 213.236 30.2007C213.393 29.8853 213.472 29.6225 213.472 29.4122C213.472 29.0442 213.184 29.0179 212.608 29.3333C212.032 29.6487 211.325 30.1219 210.487 30.7527C209.702 31.3835 208.969 32.0143 208.288 32.6452C207.607 33.2234 207.162 33.6177 206.952 33.828C205.015 35.8781 203.313 38.1649 201.847 40.6882C200.433 43.1589 199.229 45.7085 198.234 48.3369C197.553 48.3895 196.872 48.5735 196.191 48.8889C195.511 49.2043 195.039 49.362 194.778 49.362Z" fill="black"/>
  <path d="M223.532 48.81C221.595 48.81 220.233 48.4421 219.448 47.7061C218.662 46.9701 218.269 46.0239 218.269 44.8674C218.269 43.3429 218.767 41.6607 219.762 39.8208C220.757 37.9283 221.699 36.3513 222.589 35.0896C223.48 33.8805 224.475 32.7503 225.574 31.6989C226.726 30.595 227.957 29.6487 229.266 28.8602C230.104 28.3345 231.23 27.7826 232.644 27.2043C234.11 26.5735 235.34 26.2581 236.335 26.2581C237.54 26.2581 238.377 26.5472 238.849 27.1254C239.32 27.6511 239.556 28.3082 239.556 29.0968C239.556 29.7276 239.451 30.3847 239.241 31.0681C239.032 31.6989 238.796 32.3035 238.535 32.8817C238.377 33.1971 238.142 33.4337 237.828 33.5914C237.513 33.6965 237.356 33.644 237.356 33.4337C237.356 33.1708 237.383 32.9343 237.435 32.724C237.487 32.5137 237.513 32.2772 237.513 32.0143C237.513 31.0155 237.278 30.043 236.807 29.0968C236.388 28.098 235.733 27.5986 234.843 27.5986C233.9 27.5986 232.879 27.9403 231.779 28.6237C230.68 29.2545 229.921 29.8064 229.502 30.2796C228.14 31.6989 226.805 33.46 225.496 35.5627C224.239 37.6655 223.323 39.6631 222.747 41.5556C222.38 42.6595 222.197 43.6057 222.197 44.3943C222.197 45.2879 222.432 45.9188 222.904 46.2867C223.375 46.6547 223.951 46.8387 224.632 46.8387C225.155 46.8387 225.705 46.7599 226.281 46.6021C226.91 46.4444 227.564 46.2605 228.245 46.0502C229.816 45.5245 231.387 44.7097 232.958 43.6057C234.581 42.4492 236.047 41.2401 237.356 39.9785C238.665 38.6643 239.66 37.534 240.341 36.5878C240.446 36.6929 240.498 36.8507 240.498 37.0609C240.498 37.3238 240.393 37.6392 240.184 38.0072C239.975 38.3226 239.817 38.5854 239.713 38.7957C238.613 40.2676 237.173 41.7921 235.393 43.3692C233.612 44.8937 231.675 46.1816 229.58 47.233C227.538 48.2843 225.522 48.81 223.532 48.81Z" fill="black"/>
  <path d="M243.427 48.81C241.28 48.81 239.787 48.3895 238.949 47.5484C238.112 46.7073 237.693 45.6822 237.693 44.4731C237.693 42.9486 238.085 41.319 238.871 39.5842C239.709 37.8495 240.494 36.3775 241.227 35.1685C242.065 33.9068 243.191 32.5926 244.605 31.2258C246.019 29.859 247.563 28.7025 249.239 27.7563C250.915 26.81 252.538 26.3369 254.109 26.3369C255.47 26.3369 256.413 26.6786 256.937 27.362C257.46 27.9928 257.722 28.7551 257.722 29.6487C257.722 31.2784 257.225 32.6189 256.23 33.6702C255.287 34.7216 254.109 35.589 252.695 36.2724C251.281 36.9032 249.92 37.4289 248.611 37.8495C247.825 38.0597 246.909 38.27 245.862 38.4803C244.814 38.6906 243.819 38.7957 242.877 38.7957C242.51 39.7419 242.222 40.6619 242.013 41.5556C241.803 42.4492 241.699 43.264 241.699 44C241.699 44.8937 241.908 45.6296 242.327 46.2079C242.798 46.7861 243.557 47.0753 244.605 47.0753C245.024 47.0753 245.521 47.0227 246.097 46.9176C246.673 46.8124 247.302 46.6547 247.982 46.4444C249.553 45.9188 251.098 45.0777 252.617 43.9211C254.135 42.7646 255.523 41.5293 256.78 40.215C258.089 38.8483 259.084 37.718 259.764 36.8244C259.921 36.9821 260 37.1661 260 37.3763C260 37.6392 259.817 38.0597 259.45 38.638C258.403 40.1099 257.041 41.6344 255.366 43.2115C253.69 44.7885 251.831 46.129 249.789 47.233C247.747 48.2843 245.626 48.81 243.427 48.81ZM243.505 37.2186C244.186 37.2712 244.945 37.2712 245.783 37.2186C246.673 37.1135 247.537 36.9295 248.375 36.6667C250.522 36.0358 252.067 35.037 253.009 33.6702C254.004 32.2509 254.502 30.9892 254.502 29.8853C254.502 29.2545 254.371 28.7288 254.109 28.3082C253.847 27.8877 253.428 27.6774 252.852 27.6774C251.334 27.6774 249.972 28.2557 248.768 29.4122C247.563 30.5161 246.516 31.8041 245.626 33.276C244.736 34.7479 244.029 36.0621 243.505 37.2186Z" fill="black"/>
</svg>