<svg width="44" height="44" viewBox="0 0 44 44" fill="none" xmlns="http://www.w3.org/2000/svg">
<path d="M0 22C0 9.84974 9.84974 0 22 0C34.1503 0 44 9.84974 44 22C44 34.1503 34.1503 44 22 44C9.84974 44 0 34.1503 0 22Z" fill="#FFE2E2"/>
<path d="M22 32C27.5228 32 32 27.5228 32 22C32 16.4772 27.5228 12 22 12C16.4772 12 12 16.4772 12 22C12 27.5228 16.4772 32 22 32Z" stroke="#FB2C36" stroke-width="1.5" stroke-linecap="round" stroke-linejoin="round"/>
<path d="M22 16.6152V21.1152" stroke="#FB2C36" stroke-width="1.5" stroke-linecap="round" stroke-linejoin="round"/>
<path d="M21.9805 26.5762C22.3947 26.5762 22.7305 26.2404 22.7305 25.8262C22.7305 25.412 22.3947 25.0762 21.9805 25.0762C21.5663 25.0762 21.2305 25.412 21.2305 25.8262C21.2305 26.2404 21.5663 26.5762 21.9805 26.5762Z" stroke="#FB2C36" stroke-width="1.5" stroke-linecap="round" stroke-linejoin="round"/>
</svg>
