<svg width="158" height="50" viewBox="0 0 158 50" fill="none" xmlns="http://www.w3.org/2000/svg">
<path d="M18.0358 49.6448C16.1216 49.6448 14.1774 49.5856 12.2034 49.4671C10.2293 49.4079 8.28512 49.2599 6.37087 49.0231C2.12362 48.6679 0 47.3061 0 44.9378C0 43.7537 0.478563 42.3327 1.43569 40.675C3.70886 36.5897 6.04185 32.534 8.43467 28.508C10.8275 24.4227 13.1904 20.3375 15.5234 16.2522C16.2412 14.9497 17.1684 13.3215 18.305 11.3677C19.4416 9.41386 20.5782 7.54885 21.7148 5.77265C22.2532 4.94376 23.0308 4.11486 24.0478 3.28597C25.0647 2.39787 26.1116 1.83541 27.1883 1.59858C25.9321 1.65779 24.317 1.7466 22.3429 1.86501C20.4286 1.98342 18.4546 2.22025 16.4207 2.57549C14.4466 2.87153 12.652 3.37478 11.0369 4.08526C9.48152 4.73653 8.37485 5.65424 7.71682 6.83837C7.47754 7.37123 7.26817 7.90409 7.08871 8.43695C6.90925 8.96981 6.81952 9.50267 6.81952 10.0355C6.81952 11.3973 7.29808 12.3742 8.25521 12.9663C8.31503 12.9663 8.34494 13.0255 8.34494 13.1439C8.34494 13.2623 8.2253 13.3807 7.98602 13.4991C7.80655 13.6175 7.62709 13.6471 7.44763 13.5879C6.90925 13.2919 6.25123 12.5814 5.47356 11.4565C4.6959 10.2724 4.21733 9.29544 4.03787 8.52575C3.85841 7.81528 3.76868 7.164 3.76868 6.57194C3.76868 5.03257 4.27715 3.84843 5.2941 3.01954C6.31105 2.13144 7.59718 1.50977 9.15251 1.15453C10.7078 0.740086 12.2931 0.503259 13.9082 0.444049C15.5234 0.325638 16.9591 0.266432 18.2153 0.266432C21.3858 0.266432 24.5562 0.236829 27.7267 0.177623C30.8972 0.0592076 34.0378 0 37.1484 0C38.5243 0 39.8703 0 41.1863 0C42.5622 0 43.9081 0.0592076 45.2242 0.177623C46.7197 0.236829 47.7366 0.532862 48.275 1.06572C48.8732 1.59858 49.1723 2.24985 49.1723 3.01954C49.1723 3.96685 48.8433 5.06217 48.1853 6.30551C47.5871 7.48964 47.0188 8.58496 46.4804 9.59148C46.2411 10.0651 45.8523 10.4204 45.3139 10.6572C44.7755 10.8348 44.5662 10.6572 44.6858 10.1243C44.9849 8.9402 45.1344 7.75607 45.1344 6.57194C45.1344 5.50622 44.9251 4.55891 44.5063 3.73002C44.1474 2.84192 43.4296 2.22025 42.3528 1.86501C41.3359 1.56898 39.7506 1.42096 37.5971 1.42096C36.8194 1.42096 36.0118 1.45056 35.1744 1.50977C34.3967 1.50977 33.5891 1.53937 32.7516 1.59858C30.3588 1.7762 28.7437 2.39787 27.9062 3.46359C25.9321 6.1871 24.0179 9.14743 22.1634 12.3446C20.3688 15.4825 18.634 18.4725 16.9591 21.3144C16.8992 21.4328 16.8693 21.5808 16.8693 21.7584C16.8693 22.1137 17.1385 22.2913 17.6769 22.2913C19.7706 22.2913 22.0139 22.3209 24.4067 22.3801C26.8593 22.4393 29.0129 22.4393 30.8673 22.3801C31.286 22.3209 31.9142 22.2617 32.7516 22.2025C33.6489 22.1433 34.5462 22.0249 35.4436 21.8472C36.4007 21.6696 37.1185 21.4624 37.5971 21.2256C37.8962 21.048 38.0756 20.9591 38.1355 20.9591C38.4944 20.9591 38.4944 21.3144 38.1355 22.0249C37.8364 22.6761 37.298 23.357 36.5203 24.0675C35.8025 24.7188 34.965 25.0444 34.0079 25.0444C31.0767 25.0444 28.5941 24.9852 26.5602 24.8668C24.5862 24.7484 22.3728 24.6892 19.9202 24.6892C19.322 24.6892 18.6939 24.6892 18.0358 24.6892C17.3778 24.6892 16.66 24.7188 15.8823 24.778C15.2841 24.8372 14.8654 25.074 14.6261 25.4885C14.0279 26.5542 13.4895 27.5311 13.0109 28.4192C12.5922 29.3073 12.0538 30.3434 11.3958 31.5275C10.9172 32.4156 10.319 33.5702 9.60116 34.9911C8.94314 36.3529 8.34494 37.7738 7.80655 39.254C7.26817 40.675 6.99898 41.9183 6.99898 42.984C6.99898 44.8194 7.86638 46.0924 9.60116 46.8028C11.336 47.4541 13.4596 47.8094 15.972 47.8686C19.4416 47.8686 22.8514 47.5429 26.2013 46.8917C29.6111 46.1812 32.7815 45.0266 35.7127 43.4281C38.7038 41.7703 41.3059 39.55 43.5193 36.7673C43.6389 36.6489 43.7287 36.5897 43.7885 36.5897C43.968 36.5897 44.0876 36.7673 44.1474 37.1226C44.2072 37.4186 44.1773 37.6554 44.0577 37.833C42.2033 40.0829 40.4086 42.2735 38.6739 44.405C36.9391 46.4772 35.2043 47.7797 33.4695 48.3126C32.2133 48.6678 30.1794 48.9639 27.3678 49.2007C24.5562 49.4967 21.4456 49.6448 18.0358 49.6448Z" fill="white"/>
<path d="M50.2975 49.1119C49.46 49.1119 48.7421 48.8159 48.1439 48.2238C47.5457 47.6317 47.2466 46.5956 47.2466 45.1155C47.2466 43.8129 47.3363 42.2735 47.5158 40.4973C47.7551 38.7211 48.0841 36.9153 48.5028 35.0799C48.9216 33.1853 49.4002 31.5275 49.9385 30.1066C48.9216 31.5867 47.785 33.1261 46.5288 34.7247C45.2725 36.2641 44.2257 37.5666 43.3882 38.6323C43.2087 38.8692 43.0592 38.9876 42.9396 38.9876C42.8199 38.9876 42.7601 38.8396 42.7601 38.5435C42.7601 38.0699 42.9096 37.6258 43.2087 37.2114C44.465 35.4944 45.8708 33.5406 47.4261 31.3499C49.0412 29.1593 50.4171 27.1758 51.5537 25.3996C52.2117 25.2812 52.9894 25.1036 53.8867 24.8668C54.8438 24.63 55.5317 24.3043 55.9505 23.8899C56.2496 23.7123 56.429 23.6234 56.4889 23.6234C56.6683 23.6234 56.7581 23.7419 56.7581 23.9787C56.7581 24.1563 56.6683 24.3635 56.4889 24.6004C55.9505 25.37 55.3523 26.5542 54.6943 28.1528C54.096 29.7513 53.4679 31.5275 52.8099 33.4813C52.2117 35.4352 51.7032 37.3594 51.2845 39.254C50.9256 41.0894 50.7461 42.6584 50.7461 43.9609C50.7461 44.9082 50.8957 45.5891 51.1948 46.0036C51.4939 46.3588 51.8827 46.5364 52.3613 46.5364C53.0193 46.5364 53.7969 46.2108 54.6943 45.5595C55.6514 44.9082 56.459 44.2274 57.117 43.5169C57.9545 42.6288 58.8817 41.4446 59.8986 39.9645C60.9754 38.4843 61.9624 36.9153 62.8597 35.2575C63.8169 33.5998 64.5347 32.09 65.0133 30.7282C65.3722 29.7809 65.6115 28.9816 65.7311 28.3304C65.8508 27.6199 65.9106 27.0574 65.9106 26.643C65.9106 25.9325 65.8208 25.4292 65.6414 25.1332C65.4619 24.8372 65.3124 24.6596 65.1927 24.6004C64.8338 24.4819 64.6543 24.3339 64.6543 24.1563C64.6543 24.0379 64.774 23.9491 65.0133 23.8899C65.2525 23.7715 65.4918 23.7715 65.7311 23.8899C66.5088 24.1267 67.2864 24.4819 68.0641 24.9556C68.8418 25.37 69.2306 26.1989 69.2306 27.4423C69.2306 27.7383 69.2007 28.0935 69.1409 28.508C69.081 28.8632 68.9614 29.2777 68.7819 29.7513C68.423 30.6986 67.6753 32.0308 66.5387 33.7478C65.4619 35.4648 64.2057 37.2706 62.77 39.1652C61.3343 41.0598 59.8986 42.7768 58.4629 44.3162C57.0272 45.8555 55.771 46.9509 54.6943 47.6021C53.9764 48.0166 53.2287 48.3718 52.451 48.6678C51.6733 48.9639 50.9555 49.1119 50.2975 49.1119Z" fill="white"/>
<path d="M74.4301 49.2895C71.9774 49.2895 70.2725 48.8159 69.3154 47.8686C68.3583 46.9213 67.8797 45.7667 67.8797 44.405C67.8797 42.688 68.3284 40.8526 69.2257 38.8988C70.1828 36.9449 71.0801 35.2872 71.9176 33.9254C72.8747 32.5044 74.1609 31.0243 75.776 29.4849C77.3912 27.9455 79.1559 26.643 81.0701 25.5773C82.9844 24.5115 84.8388 23.9787 86.6334 23.9787C88.1887 23.9787 89.2655 24.3635 89.8637 25.1332C90.4619 25.8437 90.761 26.7022 90.761 27.7087C90.761 29.5441 90.1927 31.0539 89.0561 32.238C87.9794 33.4221 86.6334 34.3991 85.0183 35.1687C83.4031 35.8792 81.8478 36.4713 80.3523 36.9449C79.455 37.1818 78.4081 37.4186 77.2117 37.6554C76.0153 37.8922 74.8787 38.0107 73.8019 38.0107C73.3832 39.0764 73.0542 40.1125 72.8149 41.119C72.5756 42.1255 72.456 43.0432 72.456 43.8721C72.456 44.8786 72.6953 45.7075 73.1738 46.3588C73.7122 47.0101 74.5796 47.3357 75.776 47.3357C76.2546 47.3357 76.8229 47.2765 77.4809 47.1581C78.1389 47.0397 78.8568 46.862 79.6344 46.6252C81.429 46.0332 83.1937 45.0858 84.9285 43.7833C86.6633 42.4808 88.2486 41.0894 89.6842 39.6092C91.1797 38.0699 92.3163 36.7969 93.094 35.7904C93.2735 35.968 93.3632 36.1753 93.3632 36.4121C93.3632 36.7081 93.1538 37.1818 92.7351 37.833C91.5387 39.4908 89.9833 41.2078 88.0691 42.984C86.1548 44.7602 84.0312 46.27 81.6982 47.5133C79.3652 48.6975 76.9425 49.2895 74.4301 49.2895ZM74.5198 36.2345C75.2974 36.2937 76.1648 36.2937 77.122 36.2345C78.1389 36.116 79.126 35.9088 80.0831 35.6128C82.5357 34.9023 84.3004 33.7774 85.3772 32.238C86.5138 30.6394 87.0821 29.2185 87.0821 27.9751C87.0821 27.2647 86.9325 26.6726 86.6334 26.1989C86.3343 25.7253 85.8557 25.4885 85.1977 25.4885C83.4629 25.4885 81.9076 26.1397 80.5317 27.4423C79.1559 28.6856 77.9594 30.1362 76.9425 31.794C75.9256 33.4517 75.118 34.9319 74.5198 36.2345Z" fill="white"/>
<path d="M92.1988 49.9112C91.9595 49.9112 91.9595 49.6448 92.1988 49.1119C92.4979 48.579 92.7671 47.987 93.0064 47.3357C93.3055 46.6844 93.6046 45.9739 93.9037 45.2043C94.5019 43.7833 95.1599 42.1847 95.8777 40.4085C96.5956 38.6323 97.2835 36.9153 97.9416 35.2575C98.5996 33.5406 99.1679 32.09 99.6464 30.9059C100.185 29.6625 100.544 28.8632 100.723 28.508C99.8857 29.3961 98.8688 30.521 97.6724 31.8828C96.5358 33.1853 95.459 34.4583 94.4421 35.7016C93.4251 36.9449 92.6475 37.9218 92.1091 38.6323C91.9296 38.8692 91.7801 38.9876 91.6604 38.9876C91.5408 38.9876 91.481 38.8396 91.481 38.5435C91.481 38.0699 91.6305 37.6258 91.9296 37.2114C93.0662 35.7904 94.3224 34.1918 95.6983 32.4156C97.134 30.6394 98.4201 29.0112 99.5567 27.5311C100.693 25.9917 101.411 24.9852 101.71 24.5115C102.368 24.3931 103.325 24.2155 104.582 23.9787C105.898 23.7419 106.795 23.4162 107.274 23.0018C107.453 22.8242 107.632 22.7353 107.812 22.7353C107.932 22.7353 107.991 22.8538 107.991 23.0906C108.051 23.2682 107.991 23.4754 107.812 23.7123C107.453 24.1267 106.825 25.1036 105.928 26.643C105.09 28.1231 104.163 29.7809 103.146 31.6163C102.189 33.4517 101.291 35.1095 100.454 36.5897C101.172 35.6424 101.95 34.7247 102.787 33.8366C103.624 32.9485 104.432 32.09 105.21 31.2611C105.928 30.5506 106.915 29.6625 108.171 28.5968C109.427 27.5311 110.743 26.5542 112.119 25.6661C113.495 24.778 114.691 24.2747 115.708 24.1563C115.947 24.0971 116.157 24.0675 116.336 24.0675C116.576 24.0675 116.755 24.0675 116.875 24.0675C118.191 24.0675 118.849 24.5411 118.849 25.4885C118.849 26.1989 118.46 27.1462 117.682 28.3304C117.264 28.9816 116.605 30.077 115.708 31.6163C114.871 33.0965 114.003 34.7247 113.106 36.5009C112.269 38.2179 111.521 39.8461 110.863 41.3854C110.265 42.8656 109.965 43.9609 109.965 44.6714C109.965 45.5003 110.384 45.9147 111.222 45.9147C112.239 45.9147 113.345 45.4115 114.542 44.405C115.798 43.3985 117.144 42.1255 118.58 40.5861C120.015 38.9876 121.451 37.3002 122.887 35.524C123.006 35.6424 123.066 35.8496 123.066 36.1456C123.066 36.5601 122.917 36.9745 122.617 37.389C122.378 37.7442 122.139 38.0699 121.9 38.3659C121.301 39.1356 120.494 40.1125 119.477 41.2966C118.52 42.4216 117.533 43.5465 116.516 44.6714C115.499 45.7371 114.572 46.5956 113.734 47.2469C113.136 47.6613 112.358 48.1054 111.401 48.579C110.444 49.0527 109.487 49.2895 108.53 49.2895C107.453 49.2895 106.705 49.0231 106.286 48.4902C105.868 47.8982 105.658 47.1877 105.658 46.3588C105.658 45.4115 105.838 44.405 106.197 43.3393C106.556 42.2735 106.945 41.267 107.363 40.3197C107.842 39.3132 108.201 38.5731 108.44 38.0995C109.517 36.0272 110.504 34.0734 111.401 32.238C112.298 30.4026 112.927 29.1001 113.285 28.3304C113.465 27.9751 113.555 27.6791 113.555 27.4423C113.555 27.0278 113.226 26.9982 112.568 27.3535C111.91 27.7087 111.102 28.2416 110.145 28.952C109.248 29.6625 108.41 30.373 107.632 31.0835C106.855 31.7348 106.346 32.1788 106.107 32.4156C103.894 34.7247 101.95 37.3002 100.275 40.1421C98.6594 42.9248 97.2835 45.7963 96.1469 48.7567C95.3693 48.8159 94.5916 49.0231 93.8139 49.3783C93.0363 49.7336 92.4979 49.9112 92.1988 49.9112Z" fill="white"/>
<path d="M124.868 48.8455C124.27 48.8455 123.761 48.7271 123.342 48.4902C122.924 48.2534 122.714 47.8094 122.714 47.1581C122.714 46.3292 122.924 45.3523 123.342 44.2274C123.821 43.1024 124.329 41.9775 124.868 40.8526C125.406 39.7276 125.855 38.8099 126.214 38.0995C126.513 37.5666 126.902 36.7377 127.38 35.6128C127.919 34.4287 128.457 33.2149 128.995 31.9716C129.594 30.669 130.072 29.5737 130.431 28.6856C130.85 27.7975 131.059 27.3535 131.059 27.3535C130.521 27.9455 129.803 28.7744 128.906 29.8401C128.068 30.9059 127.141 32.0308 126.124 33.2149C125.167 34.3398 124.27 35.4056 123.432 36.4121C122.654 37.4186 122.086 38.1587 121.727 38.6323C121.548 38.8692 121.398 38.9876 121.278 38.9876C121.159 38.9876 121.099 38.8396 121.099 38.5435C121.099 38.0699 121.249 37.6258 121.548 37.2114C122.266 36.3233 123.133 35.2575 124.15 34.0142C125.167 32.7117 126.184 31.4091 127.201 30.1066C128.277 28.804 129.205 27.6495 129.982 26.643C129.504 26.643 128.876 26.6726 128.098 26.7318C127.38 26.791 126.722 26.8798 126.124 26.9982C125.526 27.0574 125.197 27.087 125.137 27.087C124.838 27.087 124.868 26.8502 125.227 26.3766C125.586 25.9029 126.064 25.4292 126.662 24.9556C127.261 24.4819 127.709 24.2451 128.008 24.2451C128.068 24.2451 128.547 24.2747 129.444 24.3339C130.341 24.3339 130.999 24.3339 131.418 24.3339C132.614 22.7353 133.781 20.8999 134.918 18.8277C136.114 16.7555 137.28 14.476 138.417 11.9893C138.896 11.9301 139.703 11.6045 140.84 11.0124C142.036 10.3612 142.963 9.70989 143.621 9.05862C143.92 8.76258 144.16 8.61457 144.339 8.61457C144.698 8.61457 144.698 8.85139 144.339 9.32504C143.92 9.7987 143.203 10.8052 142.186 12.3446C141.169 13.8247 140.032 15.6306 138.776 17.762C137.52 19.8342 136.323 22.0249 135.187 24.3339H142.455C143.113 24.3339 143.442 24.4227 143.442 24.6004C143.442 24.8372 142.993 25.074 142.096 25.3108C141.079 25.6069 140.002 25.7845 138.866 25.8437C137.789 25.9029 136.772 26.0213 135.815 26.1989C134.918 26.3766 134.26 26.7614 133.841 27.3535C133.482 27.7679 132.973 28.656 132.315 30.0178C131.657 31.3795 130.939 32.9485 130.162 34.7247C129.444 36.4417 128.816 38.1883 128.277 39.9645C127.739 41.6815 127.41 43.132 127.29 44.3162V44.6714C127.29 45.1451 127.44 45.5299 127.739 45.8259C128.038 46.122 128.337 46.27 128.636 46.27C129.414 46.27 130.401 45.7963 131.598 44.849C132.854 43.9017 134.14 42.7768 135.456 41.4742C136.772 40.1125 137.909 38.8692 138.866 37.7442C139.284 37.2706 139.643 36.8265 139.942 36.4121C140.301 35.9976 140.511 35.7312 140.571 35.6128C140.69 35.8496 140.75 36.0272 140.75 36.1456C140.75 36.5009 140.63 36.8857 140.391 37.3002C140.212 37.7146 140.002 38.0699 139.763 38.3659C138.626 39.8461 137.251 41.415 135.635 43.0728C134.02 44.6714 132.285 46.0332 130.431 47.1581C128.636 48.283 126.782 48.8455 124.868 48.8455Z" fill="white"/>
<path d="M144.451 50C143.374 50 142.237 49.852 141.041 49.556C139.845 49.2599 138.768 48.7863 137.811 48.135C136.913 47.4245 136.315 46.4772 136.016 45.2931C135.956 45.1155 135.926 44.849 135.926 44.4938C135.926 43.6649 136.106 42.7472 136.465 41.7407C136.883 40.7342 137.392 40.0237 137.99 39.6092C138.229 39.4908 138.409 39.4908 138.528 39.6092C138.708 39.7276 138.738 39.8461 138.618 39.9645C138.558 40.1421 138.469 40.3789 138.349 40.675C138.229 40.9118 138.14 41.1782 138.08 41.4742C137.9 43.0136 138.229 44.3754 139.067 45.5595C139.426 46.0332 139.845 46.4772 140.323 46.8917C140.861 47.3061 141.37 47.6613 141.849 47.9574C142.267 48.1942 142.776 48.3718 143.374 48.4902C143.972 48.5494 144.57 48.579 145.169 48.579C146.126 48.579 147.053 48.4606 147.95 48.2238C148.847 47.987 149.506 47.6021 149.924 47.0693C150.702 46.122 151.091 45.0562 151.091 43.8721C151.091 42.984 150.851 42.0367 150.373 41.0302C149.894 40.0237 149.147 38.958 148.13 37.833C147.472 37.1226 146.844 36.3529 146.245 35.524C145.647 34.6951 145.258 33.807 145.079 32.8597C145.019 32.6821 144.959 32.5044 144.899 32.3268C144.899 32.1492 144.899 31.9716 144.899 31.794C144.122 32.9189 143.314 33.9846 142.477 34.9911C141.699 35.9384 141.011 36.7673 140.413 37.4778C140.174 37.833 139.964 38.0107 139.785 38.0107C139.665 38.0107 139.605 37.8922 139.605 37.6554C139.605 37.1226 139.845 36.5601 140.323 35.968C140.802 35.4352 141.34 34.7839 141.938 34.0142C142.536 33.1853 143.015 32.534 143.374 32.0604C144.391 30.5802 145.139 29.4257 145.617 28.5968C146.156 27.7087 146.724 26.9094 147.322 26.1989C147.98 25.4292 148.788 24.8076 149.745 24.3339C150.762 23.8603 151.809 23.6234 152.885 23.6234C154.142 23.6234 155.278 23.8307 156.295 24.2451C157.372 24.6004 157.94 25.5477 158 27.087C158 27.7975 157.85 28.5376 157.551 29.3073C157.312 30.0178 157.043 30.6986 156.744 31.3499C156.564 31.7052 156.295 31.9716 155.936 32.1492C155.637 32.2676 155.488 32.2084 155.488 31.9716C155.488 31.7348 155.517 31.4683 155.577 31.1723C155.637 30.8763 155.667 30.6098 155.667 30.373C155.667 29.3665 155.488 28.4784 155.129 27.7087C154.83 26.8798 154.381 26.2877 153.783 25.9325C153.184 25.5181 152.556 25.3108 151.898 25.3108C150.941 25.3108 150.014 25.6957 149.117 26.4654C148.219 27.1758 147.771 28.1231 147.771 29.3073C147.771 29.4257 147.771 29.5737 147.771 29.7513C147.771 29.929 147.801 30.077 147.86 30.1954C148.1 31.1427 148.818 32.2084 150.014 33.3925C151.21 34.5767 152.138 35.6128 152.796 36.5009C153.932 38.0403 154.501 39.6092 154.501 41.2078C154.501 42.8064 154.022 44.2866 153.065 45.6483C152.168 46.9509 150.941 47.987 149.386 48.7567C147.89 49.5855 146.245 50 144.451 50Z" fill="white"/>
</svg>
