<svg width="10" height="13" viewBox="0 0 10 13" fill="none" xmlns="http://www.w3.org/2000/svg">
<path d="M8 7C7.17157 7 6.5 7.67157 6.5 8.5C6.5 9.15575 6.92152 9.71113 7.50781 9.91504C7.50307 9.94268 7.5 9.971 7.5 10V12.5C7.5 12.7761 7.72386 13 8 13C8.27614 13 8.5 12.7761 8.5 12.5V10C8.5 9.97095 8.49597 9.94274 8.49121 9.91504C9.07796 9.71138 9.5 9.15608 9.5 8.5C9.5 7.67157 8.82843 7 8 7ZM8 7C8.27614 7 8.5 6.77614 8.5 6.5V0.5C8.5 0.223858 8.27614 0 8 0C7.72386 0 7.5 0.223858 7.5 0.5V6.5C7.5 6.77614 7.72386 7 8 7ZM1.5 12.5V5C1.5 4.971 1.50307 4.94268 1.50781 4.91504C0.921518 4.71113 0.5 4.15575 0.5 3.5C0.5 2.84413 0.92136 2.2878 1.50781 2.08398C1.50318 2.05664 1.5 2.02867 1.5 2V0.5C1.5 0.223858 1.72386 0 2 0C2.27614 0 2.5 0.223858 2.5 0.5V2C2.5 2.02872 2.49586 2.05659 2.49121 2.08398C3.07812 2.28755 3.5 2.84381 3.5 3.5C3.5 4.15608 3.07796 4.71138 2.49121 4.91504C2.49597 4.94274 2.5 4.97095 2.5 5V12.5C2.5 12.7761 2.27614 13 2 13C1.72386 13 1.5 12.7761 1.5 12.5Z" stroke="#99A1AF" stroke-linecap="round"/>
</svg>
