<svg width="20" height="20" viewBox="0 0 20 20" fill="none" xmlns="http://www.w3.org/2000/svg">
<path d="M10 2C7.82734 2 7.55489 2.00922 6.7016 2.04813C5.8501 2.08698 5.26855 2.22224 4.75968 2.41997C4.23361 2.62441 3.78747 2.89797 3.34273 3.34271C2.89797 3.78744 2.62441 4.23363 2.41999 4.7597C2.22221 5.26855 2.087 5.8501 2.04811 6.7016C2.00919 7.55489 2 7.82734 2 10C2 12.1727 2.00919 12.4451 2.04811 13.2984C2.087 14.1499 2.22221 14.7314 2.41999 15.2403C2.62444 15.7664 2.898 16.2125 3.34273 16.6573C3.78749 17.102 4.23361 17.3756 4.75968 17.58C5.26855 17.7778 5.8501 17.913 6.7016 17.9519C7.55489 17.9908 7.82734 18 10 18C12.1727 18 12.4451 17.9908 13.2984 17.9519C14.1499 17.913 14.7314 17.7778 15.2403 17.58C15.7664 17.3756 16.2125 17.102 16.6573 16.6573C17.102 16.2125 17.3756 15.7664 17.58 15.2403C17.7778 14.7314 17.913 14.1499 17.9519 13.2984C17.9908 12.4451 18 12.1727 18 10C18 7.82734 17.9908 7.55489 17.9519 6.7016C17.913 5.8501 17.7778 5.26855 17.58 4.7597C17.3756 4.23363 17.102 3.78744 16.6573 3.34271C16.2125 2.89797 15.7664 2.62441 15.2403 2.41997C14.7314 2.22224 14.1499 2.08698 13.2984 2.04813C12.4451 2.00922 12.1727 2 10 2ZM10 3.44143C12.1361 3.44143 12.3891 3.4496 13.2327 3.48809C14.0127 3.52365 14.4363 3.65397 14.7182 3.76353C15.0916 3.90867 15.3581 4.08201 15.638 4.36196C15.918 4.6419 16.0913 4.90842 16.2365 5.28182C16.346 5.56372 16.4764 5.98733 16.5119 6.76731C16.5504 7.61089 16.5586 7.86392 16.5586 10C16.5586 12.1361 16.5504 12.3891 16.5119 13.2327C16.4764 14.0127 16.346 14.4363 16.2365 14.7182C16.0913 15.0916 15.918 15.3581 15.638 15.638C15.3581 15.918 15.0916 16.0913 14.7182 16.2365C14.4363 16.346 14.0127 16.4764 13.2327 16.5119C12.3893 16.5504 12.1362 16.5586 10 16.5586C7.86375 16.5586 7.61079 16.5504 6.76731 16.5119C5.98731 16.4764 5.56372 16.346 5.28184 16.2365C4.90839 16.0913 4.6419 15.918 4.36198 15.638C4.08204 15.3581 3.90867 15.0916 3.76353 14.7182C3.65397 14.4363 3.52367 14.0127 3.48809 13.2327C3.4496 12.3891 3.44143 12.1361 3.44143 10C3.44143 7.86392 3.4496 7.61089 3.48809 6.76731C3.52367 5.98731 3.65397 5.56372 3.76353 5.28184C3.90867 4.90839 4.08204 4.6419 4.36196 4.36198C4.6419 4.08201 4.90842 3.90867 5.28182 3.76353C5.56372 3.65397 5.98733 3.52365 6.76731 3.48809C7.61089 3.4496 7.86392 3.44143 10 3.44143" fill="#99A1AF"/>
<path d="M9.99875 12.6666C8.52596 12.6666 7.33206 11.4727 7.33206 9.99999C7.33206 8.52719 8.52596 7.33329 9.99875 7.33329C11.4715 7.33329 12.6654 8.52719 12.6654 9.99999C12.6654 11.4727 11.4715 12.6666 9.99875 12.6666ZM9.99875 5.89186C7.72987 5.89186 5.89062 7.73111 5.89062 9.99999C5.89062 12.2688 7.72987 14.1081 9.99875 14.1081C12.2676 14.1081 14.1068 12.2688 14.1068 9.99999C14.1068 7.73111 12.2676 5.89186 9.99875 5.89186ZM15.2292 5.72955C15.2292 6.25976 14.7993 6.68954 14.2691 6.68954C13.739 6.68954 13.3092 6.25976 13.3092 5.72955C13.3092 5.19936 13.739 4.76953 14.2691 4.76953C14.7993 4.76953 15.2292 5.19936 15.2292 5.72955Z" fill="#99A1AF"/>
</svg>
