<svg width="16" height="16" viewBox="0 0 16 16" fill="none" xmlns="http://www.w3.org/2000/svg">
<mask id="mask0_2881_21312" style="mask-type:alpha" maskUnits="userSpaceOnUse" x="0" y="0" width="16" height="16">
<rect width="16" height="16" fill="#D9D9D9"/>
</mask>
<g mask="url(#mask0_2881_21312)">
<path d="M3.33337 10.6666V7.33331C3.33337 7.14442 3.39726 6.98609 3.52504 6.85831C3.65282 6.73054 3.81115 6.66665 4.00004 6.66665C4.18893 6.66665 4.34726 6.73054 4.47504 6.85831C4.60282 6.98609 4.66671 7.14442 4.66671 7.33331V10.6666C4.66671 10.8555 4.60282 11.0139 4.47504 11.1416C4.34726 11.2694 4.18893 11.3333 4.00004 11.3333C3.81115 11.3333 3.65282 11.2694 3.52504 11.1416C3.39726 11.0139 3.33337 10.8555 3.33337 10.6666ZM7.33337 10.6666V7.33331C7.33337 7.14442 7.39726 6.98609 7.52504 6.85831C7.65282 6.73054 7.81115 6.66665 8.00004 6.66665C8.18893 6.66665 8.34726 6.73054 8.47504 6.85831C8.60282 6.98609 8.66671 7.14442 8.66671 7.33331V10.6666C8.66671 10.8555 8.60282 11.0139 8.47504 11.1416C8.34726 11.2694 8.18893 11.3333 8.00004 11.3333C7.81115 11.3333 7.65282 11.2694 7.52504 11.1416C7.39726 11.0139 7.33337 10.8555 7.33337 10.6666ZM2.00004 14C1.81115 14 1.65282 13.9361 1.52504 13.8083C1.39726 13.6805 1.33337 13.5222 1.33337 13.3333C1.33337 13.1444 1.39726 12.9861 1.52504 12.8583C1.65282 12.7305 1.81115 12.6666 2.00004 12.6666H14C14.1889 12.6666 14.3473 12.7305 14.475 12.8583C14.6028 12.9861 14.6667 13.1444 14.6667 13.3333C14.6667 13.5222 14.6028 13.6805 14.475 13.8083C14.3473 13.9361 14.1889 14 14 14H2.00004ZM11.3334 10.6666V7.33331C11.3334 7.14442 11.3973 6.98609 11.525 6.85831C11.6528 6.73054 11.8112 6.66665 12 6.66665C12.1889 6.66665 12.3473 6.73054 12.475 6.85831C12.6028 6.98609 12.6667 7.14442 12.6667 7.33331V10.6666C12.6667 10.8555 12.6028 11.0139 12.475 11.1416C12.3473 11.2694 12.1889 11.3333 12 11.3333C11.8112 11.3333 11.6528 11.2694 11.525 11.1416C11.3973 11.0139 11.3334 10.8555 11.3334 10.6666ZM14 5.33331H1.93337C1.76671 5.33331 1.62504 5.27498 1.50837 5.15831C1.39171 5.04165 1.33337 4.89998 1.33337 4.73331V4.36665C1.33337 4.24442 1.36393 4.13887 1.42504 4.04998C1.48615 3.96109 1.56671 3.88887 1.66671 3.83331L7.40004 0.966646C7.58893 0.877757 7.78893 0.833313 8.00004 0.833313C8.21115 0.833313 8.41115 0.877757 8.60004 0.966646L14.3 3.81665C14.4223 3.8722 14.5139 3.95554 14.575 4.06665C14.6362 4.17776 14.6667 4.29442 14.6667 4.41665V4.66665C14.6667 4.85554 14.6028 5.01387 14.475 5.14165C14.3473 5.26942 14.1889 5.33331 14 5.33331ZM4.30004 3.99998H11.7L8.00004 2.16665L4.30004 3.99998Z" fill="#FF5B5E"/>
</g>
</svg>
