<svg width="16" height="16" viewBox="0 0 16 16" fill="none" xmlns="http://www.w3.org/2000/svg">
<g clip-path="url(#clip0_352_26421)">
<path d="M14.2892 13.9292L1.72154 9.18692C1.51648 9.10951 1.33784 8.96683 1.20907 8.77761C1.0803 8.58838 1.00742 8.36145 1 8.12661V6.85655C1.00089 6.61569 1.07074 6.38104 1.19996 6.1849C1.32917 5.98876 1.51139 5.84077 1.72154 5.76128L14.2892 1.03064C14.3699 1.00115 14.4559 0.99279 14.5402 1.00624C14.6244 1.0197 14.7045 1.05458 14.7739 1.10803C14.8433 1.16148 14.8999 1.23198 14.9392 1.31372C14.9785 1.39547 14.9994 1.48613 15 1.57828V13.3816C14.9994 13.4737 14.9785 13.5644 14.9392 13.6461C14.8999 13.7279 14.8433 13.7984 14.7739 13.8518C14.7045 13.9053 14.6244 13.9402 14.5402 13.9536C14.4559 13.9671 14.3699 13.9587 14.2892 13.9292Z" fill="#99A1AF" stroke="#99A1AF" stroke-width="1.5" stroke-linecap="round" stroke-linejoin="round"/>
<path d="M9.59294 12.1811C9.50228 12.9904 9.12987 13.732 8.55156 14.2547C7.97325 14.7773 7.23254 15.0419 6.48028 14.9943C5.72802 14.9468 5.0208 14.5908 4.50265 13.9989C3.9845 13.4069 3.69439 12.6235 3.69141 11.8082V9.95557" stroke="#99A1AF" stroke-width="1.5" stroke-linecap="round" stroke-linejoin="round"/>
</g>
<defs>
<clipPath id="clip0_352_26421">
<rect width="16" height="16" fill="white"/>
</clipPath>
</defs>
</svg>
