<svg xmlns="http://www.w3.org/2000/svg" width="16" height="16" viewBox="0 0 16 16" fill="none">
  <path d="M9.02594 5.43598C10.1589 5.43598 11.0773 4.51757 11.0773 3.38465C11.0773 2.25173 10.1589 1.33331 9.02594 1.33331C7.89302 1.33331 6.97461 2.25173 6.97461 3.38465C6.97461 4.51757 7.89302 5.43598 9.02594 5.43598Z" stroke="#00D3F2" stroke-width="1.5385" stroke-linecap="round" stroke-linejoin="round"/>
  <path d="M9.02612 5.43555V9.53821H12.1031C12.3751 9.53821 12.636 9.64627 12.8284 9.83862C13.0207 10.031 13.1288 10.2919 13.1288 10.5639V14.6665" stroke="#00D3F2" stroke-width="1.5385" stroke-linecap="round" stroke-linejoin="round"/>
  <path d="M6.46181 7.487C5.81381 7.48766 5.17806 7.6637 4.62202 7.99646C4.06598 8.32922 3.61038 8.80628 3.30355 9.37704C2.99671 9.9478 2.8501 10.591 2.87924 11.2383C2.90839 11.8857 3.11222 12.513 3.46911 13.0539C3.826 13.5948 4.32263 14.029 4.90633 14.3104C5.49003 14.5919 6.13902 14.71 6.78446 14.6525C7.4299 14.5949 8.04772 14.3637 8.57238 13.9833C9.09703 13.603 9.50896 13.0878 9.76446 12.4923" stroke="#00D3F2" stroke-width="1.5385" stroke-linecap="round" stroke-linejoin="round"/>
</svg>