<svg xmlns="http://www.w3.org/2000/svg" width="24" height="24" viewBox="0 0 24 24" fill="none">
  <path d="M19.7 10.6C19.7 14.8959 15.383 19.1919 13.2562 21.0476C12.5865 21.632 11.6135 21.632 10.9438 21.0476C8.81698 19.1919 4.5 14.8959 4.5 10.6C4.5 8.58435 5.30071 6.65126 6.72599 5.22599C8.15126 3.80071 10.0844 3 12.1 3C14.1156 3 16.0487 3.80071 17.474 5.22599C18.8993 6.65126 19.7 8.58435 19.7 10.6Z" fill="#00BC7D"/>
  <path d="M12.0996 13.5C14.0326 13.5 15.5996 11.933 15.5996 10C15.5996 8.067 14.0326 6.5 12.0996 6.5C10.1666 6.5 8.59961 8.067 8.59961 10C8.59961 11.933 10.1666 13.5 12.0996 13.5Z" fill="white"/>
</svg>