<svg xmlns="http://www.w3.org/2000/svg" width="50" height="50" viewBox="0 0 50 50" fill="none">
  <g filter="url(#filter0_g_3396_44749)">
    <path d="M42.1501 24.7118L31.0653 24.2805C30.1385 24.2446 29.2797 23.9523 28.5195 23.5015C28.7468 22.63 29.1531 21.7988 29.7838 21.0996L35.0356 15.2769C35.2109 15.0827 35.1625 14.8379 35.0245 14.696C34.8885 14.5537 34.6487 14.5081 34.4604 14.6852L28.7945 20.0834C28.1143 20.7315 27.3057 21.149 26.4579 21.3827C26.0193 20.6013 25.7348 19.7184 25.6997 18.7658L25.2806 7.3731C25.2745 7.21311 25.1577 7.09668 25.0015 7.09668H25.0005C24.8449 7.09668 24.727 7.2126 24.721 7.3731L24.3014 18.7658C24.2665 19.7185 23.9821 20.6013 23.5434 21.3828C22.6956 21.149 21.8869 20.7315 21.2066 20.0834L15.5412 14.6852C15.3528 14.5066 15.114 14.5542 14.9765 14.6965C14.8385 14.8379 14.7907 15.0828 14.9654 15.277L20.2177 21.0997C20.8484 21.7989 21.2547 22.6299 21.482 23.5013C20.7217 23.9522 19.8627 24.2446 18.9357 24.2805L7.85098 24.7118C7.69482 24.718 7.58203 24.8392 7.58203 25.0002C7.58203 25.1607 7.69542 25.2808 7.85098 25.2869L18.9358 25.7177C19.8627 25.7538 20.7217 26.0462 21.482 26.4971C21.2547 27.3685 20.8484 28.1995 20.2177 28.8986L14.9654 34.7218C14.7906 34.9155 14.8385 35.1608 14.976 35.3016C15.0516 35.3793 15.1568 35.429 15.2677 35.429C15.3593 35.429 15.4556 35.3949 15.5412 35.3131L21.2066 29.9154C21.8869 29.2672 22.6955 28.8496 23.5435 28.6159C23.9821 29.3972 24.2665 30.28 24.3014 31.2325L24.721 42.6252C24.7271 42.7857 24.845 42.9026 25.0005 42.9026H25.0015C25.1577 42.9026 25.2746 42.7856 25.2806 42.6252L25.6997 31.2325C25.7348 30.2799 26.0192 29.3972 26.4578 28.6159C27.3056 28.8497 28.1143 29.2672 28.7945 29.9153L34.4604 35.313C34.6487 35.4922 34.8885 35.4455 35.0245 35.3016C35.1625 35.1608 35.2109 34.9155 35.0356 34.7218L29.7838 28.8986C29.1531 28.1994 28.7469 27.3683 28.5195 26.4969C29.2797 26.0461 30.1384 25.7538 31.0652 25.7178L42.15 25.2871C42.3062 25.2808 42.42 25.1608 42.42 25.0003C42.4202 24.8391 42.3063 24.7179 42.1501 24.7118Z" fill="url(#paint0_radial_3396_44749)"/>
  </g>
  <defs>
    <filter id="filter0_g_3396_44749" x="-1" y="-1" width="52" height="52" filterUnits="userSpaceOnUse" color-interpolation-filters="sRGB">
      <feFlood flood-opacity="0" result="BackgroundImageFix"/>
      <feBlend mode="normal" in="SourceGraphic" in2="BackgroundImageFix" result="shape"/>
      <feTurbulence type="fractalNoise" baseFrequency="0.99900001287460327 0.99900001287460327" numOctaves="3" seed="3773"/>
      <feDisplacementMap in="shape" scale="2" xChannelSelector="R" yChannelSelector="G" result="displacedImage" width="100%" height="100%"/>
      <feMerge result="effect1_texture_3396_44749">
        <feMergeNode in="displacedImage"/>
      </feMerge>
    </filter>
    <radialGradient id="paint0_radial_3396_44749" cx="0" cy="0" r="1" gradientUnits="userSpaceOnUse" gradientTransform="translate(25.001 24.9997) rotate(90.0057) scale(10.0003 9.72998)">
      <stop stop-color="#C3D49A"/>
      <stop offset="1" stop-color="#A3B690"/>
    </radialGradient>
  </defs>
</svg>