<svg xmlns="http://www.w3.org/2000/svg" width="24" height="24" viewBox="0 0 24 24" fill="none">
  <path d="M12.0996 3C14.1151 3 16.0484 3.80055 17.4736 5.22559C18.8988 6.65077 19.7001 8.58411 19.7002 10.5996C19.7002 14.8955 15.3826 19.1921 13.2559 21.0479C12.5861 21.632 11.613 21.6322 10.9434 21.0479C8.81655 19.1921 4.5 14.8955 4.5 10.5996C4.5001 8.58411 5.3004 6.65077 6.72559 5.22559C8.15077 3.8004 10.0841 3.0001 12.0996 3ZM12.1006 6.5C10.1676 6.5 8.60059 8.067 8.60059 10C8.60059 11.933 10.1676 13.5 12.1006 13.5C14.0334 13.4997 15.6006 11.9328 15.6006 10C15.6006 8.06717 14.0334 6.50026 12.1006 6.5Z" fill="white"/>
</svg>