<svg xmlns="http://www.w3.org/2000/svg" width="16" height="19" viewBox="0 0 16 19" fill="none">
  <path d="M7.59961 0C9.61507 0 11.5484 0.800554 12.9736 2.22559C14.3988 3.65077 15.2001 5.5841 15.2002 7.59961C15.2002 11.8955 10.8826 16.1921 8.75586 18.0479C8.0861 18.632 7.11301 18.6322 6.44336 18.0479C4.31655 16.1921 0 11.8955 0 7.59961C0.000103418 5.5841 0.800401 3.65077 2.22559 2.22559C3.65077 0.800401 5.5841 0.000103418 7.59961 0ZM7.60059 3.5C5.66759 3.5 4.10059 5.067 4.10059 7C4.10059 8.933 5.66759 10.5 7.60059 10.5C9.53336 10.4997 11.1006 8.93283 11.1006 7C11.1006 5.06717 9.53336 3.50026 7.60059 3.5Z" fill="#00BC7D"/>
</svg>