<svg width="60" height="60" viewBox="0 0 60 60" fill="none" xmlns="http://www.w3.org/2000/svg">
<path d="M30 0C46.5685 0 60 13.4315 60 30C60 46.5685 46.5685 60 30 60C13.4315 60 0 46.5685 0 30C0 13.4315 13.4315 0 30 0ZM20 35.7148C15.2662 35.7148 11.4289 39.5524 11.4287 44.2861C11.4287 49.02 15.2661 52.8574 20 52.8574C24.7338 52.8573 28.5713 49.0199 28.5713 44.2861C28.5711 39.5524 24.7337 35.7149 20 35.7148ZM40.7139 35.7148C35.9803 35.7151 32.1427 39.5525 32.1426 44.2861C32.1426 49.0199 35.9802 52.8572 40.7139 52.8574C45.4477 52.8574 49.2861 49.02 49.2861 44.2861C49.286 39.5524 45.4476 35.7148 40.7139 35.7148ZM27.75 31.25C26.9216 31.25 26.25 31.9216 26.25 32.75C26.25 33.5784 26.9216 34.25 27.75 34.25C28.5784 34.25 29.25 33.5784 29.25 32.75C29.25 31.9216 28.5784 31.25 27.75 31.25ZM32.25 31.25C31.4216 31.25 30.75 31.9216 30.75 32.75C30.75 33.5784 31.4216 34.25 32.25 34.25C33.0784 34.25 33.75 33.5784 33.75 32.75C33.75 31.9216 33.0784 31.25 32.25 31.25ZM12.8574 16.4297C8.12355 16.4297 4.28613 20.2671 4.28613 25.001C4.28628 29.7347 8.12365 33.5723 12.8574 33.5723C17.5911 33.5721 21.4286 29.7346 21.4287 25.001C21.4287 20.2672 17.5912 16.4298 12.8574 16.4297ZM47.3232 16.4297C42.5894 16.4297 38.751 20.2671 38.751 25.001C38.7511 29.7347 42.5895 33.5723 47.3232 33.5723C52.0568 33.572 55.8944 29.7346 55.8945 25.001C55.8945 20.2672 52.0569 16.4299 47.3232 16.4297ZM26.25 27C25.4216 27 24.75 27.6716 24.75 28.5C24.75 29.3284 25.4216 30 26.25 30C27.0784 30 27.75 29.3284 27.75 28.5C27.75 27.6716 27.0784 27 26.25 27ZM33.75 27C32.9216 27 32.25 27.6716 32.25 28.5C32.25 29.3284 32.9216 30 33.75 30C34.5784 30 35.25 29.3284 35.25 28.5C35.25 27.6716 34.5784 27 33.75 27ZM30 24C29.1716 24 28.5 24.6716 28.5 25.5C28.5 26.3284 29.1716 27 30 27C30.8284 27 31.5 26.3284 31.5 25.5C31.5 24.6716 30.8284 24 30 24ZM30 3.57227C25.2662 3.57234 21.4288 7.4098 21.4287 12.1436C21.4287 16.8774 25.2662 20.7148 30 20.7148C34.7339 20.7148 38.5713 16.8774 38.5713 12.1436C38.5712 7.40975 34.7338 3.57227 30 3.57227Z" fill="#94CA97"/>
</svg>
