<svg width="187" height="6" viewBox="0 0 187 6" fill="none" xmlns="http://www.w3.org/2000/svg">
<path d="M-3 0V6H186.5L176.5 0H-3ZM8.34197 4.15556H0.86658V1.38666H8.34197V4.15556ZM25.0971 4.15556H17.6218V1.38666H25.0971V4.15556ZM41.8523 4.15556H34.3769V1.38666H41.8523V4.15556ZM58.6075 4.15556H51.1321V1.38666H58.6075V4.15556ZM75.3627 4.15556H67.8873V1.38666H75.3627V4.15556ZM92.1179 4.15556H84.6425V1.38666H92.1179V4.15556ZM108.873 4.15556H101.398V1.38666H108.873V4.15556ZM125.628 4.15556H118.153V1.38666H125.628V4.15556ZM142.383 4.15556H134.908V1.38666H142.383V4.15556ZM159.139 4.15556H151.663V1.38666H159.139V4.15556ZM175.894 4.15556H168.418V1.38666H175.894V4.15556Z" fill="#94CA97"/>
</svg>
