<svg width="377" height="6" viewBox="0 0 377 6" fill="none" xmlns="http://www.w3.org/2000/svg">
<path d="M376.928 6H0V0H366.928L376.928 6ZM6.92969 4.15625H14.4102V1.38672H6.92969V4.15625ZM23.6895 4.15625H31.1699V1.38672H23.6895V4.15625ZM40.4492 4.15625H47.9297V1.38672H40.4492V4.15625ZM57.209 4.15625H64.6895V1.38672H57.209V4.15625ZM73.9688 4.15625H81.4492V1.38672H73.9688V4.15625ZM90.7305 4.15625H98.2109V1.38672H90.7305V4.15625ZM107.49 4.15625H114.971V1.38672H107.49V4.15625ZM124.25 4.15625H131.73V1.38672H124.25V4.15625ZM141.01 4.15625H148.49V1.38672H141.01V4.15625ZM157.77 4.15625H165.25V1.38672H157.77V4.15625ZM174.529 4.15625H182.01V1.38672H174.529V4.15625ZM191.289 1.38672V4.15625H198.77V1.38672H191.289ZM208.049 4.15527H215.524V1.38672H208.049V4.15527ZM224.804 4.15527H232.279V1.38672H224.804V4.15527ZM241.56 4.15527H249.034V1.38672H241.56V4.15527ZM258.314 4.15527H265.79V1.38672H258.314V4.15527ZM275.069 4.15527H282.545V1.38672H275.069V4.15527ZM291.825 4.15527H299.301V1.38672H291.825V4.15527ZM308.58 4.15527H316.056V1.38672H308.58V4.15527ZM325.336 4.15527H332.812V1.38672H325.336V4.15527ZM342.091 4.15527H349.566V1.38672H342.091V4.15527ZM358.847 4.15527H366.321V1.38672H358.847V4.15527Z" fill="#94CA97"/>
</svg>
