<svg width="19" height="19" viewBox="0 0 19 19" fill="none" xmlns="http://www.w3.org/2000/svg">
<path d="M9.36003 0C6.81798 0 6.49923 0.0109151 5.50087 0.057001C4.50461 0.103002 3.82421 0.263175 3.22883 0.497328C2.61332 0.739434 2.09134 1.06339 1.571 1.59005C1.05063 2.11671 0.730561 2.64509 0.491388 3.26807C0.259989 3.87066 0.101794 4.55932 0.0562892 5.56768C0.0107562 6.57816 0 6.90079 0 9.47371C0 12.0466 0.0107562 12.3692 0.0562892 13.3797C0.101794 14.388 0.259989 15.0767 0.491388 15.6793C0.730589 16.3023 1.05066 16.8306 1.571 17.3573C2.09137 17.884 2.61332 18.2079 3.22883 18.45C3.82421 18.6842 4.50461 18.8443 5.50087 18.8904C6.49923 18.9364 6.81798 18.9474 9.36003 18.9474C11.902 18.9474 12.2208 18.9364 13.2191 18.8904C14.2154 18.8444 14.8958 18.6842 15.4911 18.45C16.1066 18.2079 16.6286 17.884 17.149 17.3573C17.6694 16.8306 17.9894 16.3023 18.2286 15.6793C18.46 15.0767 18.6182 14.388 18.6637 13.3797C18.7092 12.3692 18.72 12.0466 18.72 9.47371C18.72 6.90079 18.7092 6.57816 18.6637 5.56768C18.6182 4.55932 18.46 3.87066 18.2286 3.26807C17.9894 2.64509 17.6694 2.11671 17.149 1.59005C16.6286 1.06339 16.1066 0.739434 15.4911 0.497328C14.8958 0.263175 14.2154 0.103002 13.2191 0.057001C12.2208 0.0109151 11.902 0 9.36003 0ZM9.36003 1.70696C11.8592 1.70696 12.1553 1.71663 13.1422 1.76221C14.0549 1.80432 14.5504 1.95865 14.8802 2.08839C15.3172 2.26027 15.629 2.46554 15.9565 2.79706C16.284 3.12857 16.4868 3.44418 16.6567 3.88637C16.7848 4.22019 16.9373 4.72184 16.9789 5.6455C17.024 6.64447 17.0335 6.94412 17.0335 9.47368C17.0335 12.0032 17.024 12.3029 16.9789 13.3019C16.9373 14.2256 16.7848 14.7272 16.6567 15.061C16.4868 15.5032 16.284 15.8188 15.9565 16.1503C15.629 16.4818 15.3171 16.6871 14.8803 16.859C14.5504 16.9887 14.0548 17.143 13.1422 17.1852C12.1554 17.2307 11.8594 17.2404 9.36 17.2404C6.86059 17.2404 6.56463 17.2307 5.57776 17.1851C4.66515 17.143 4.16955 16.9887 3.83976 16.859C3.40282 16.6871 3.09103 16.4818 2.76352 16.1503C2.43598 15.8188 2.23315 15.5032 2.06333 15.061C1.93515 14.7272 1.7827 14.2255 1.74106 13.3019C1.69603 12.3029 1.68647 12.0032 1.68647 9.47368C1.68647 6.94412 1.69603 6.64447 1.74106 5.6455C1.7827 4.72181 1.93515 4.22019 2.06333 3.88639C2.23315 3.44415 2.43598 3.12857 2.76349 2.79708C3.09103 2.46554 3.40285 2.26027 3.83973 2.08839C4.16955 1.95865 4.66517 1.80432 5.57776 1.76221C6.56474 1.71663 6.86079 1.70696 9.36 1.70696" fill="#007C4A"/>
</svg>
