<svg width="21" height="21" viewBox="0 0 21 21" fill="none" xmlns="http://www.w3.org/2000/svg">
<path fill-rule="evenodd" clip-rule="evenodd" d="M10.5 16.7162C16.0228 16.7162 20.5 13.0861 20.5 8.60811C20.5 4.13012 16.0228 0.5 10.5 0.5C4.97715 0.5 0.5 4.13012 0.5 8.60811C0.5 11.4847 2.34757 14.0115 5.13305 15.4507L3.65782 20.5011L9.68809 16.6899C9.95589 16.7073 10.2267 16.7162 10.5 16.7162Z" fill="black"/>
<path d="M5.13305 15.4507L5.613 15.5909C5.68007 15.3613 5.5751 15.1164 5.36258 15.0065L5.13305 15.4507ZM3.65782 20.5011L3.17787 20.3609C3.11957 20.5605 3.19088 20.7753 3.35695 20.9005C3.52301 21.0256 3.74918 21.0349 3.92495 20.9238L3.65782 20.5011ZM9.68809 16.6899L9.72059 16.1909C9.61517 16.1841 9.51027 16.2108 9.42096 16.2672L9.68809 16.6899ZM20.5 8.60811H20C20 12.7171 15.8498 16.2162 10.5 16.2162V16.7162V17.2162C16.1959 17.2162 21 13.4551 21 8.60811H20.5ZM10.5 0.5V1C15.8498 1 20 4.49913 20 8.60811H20.5H21C21 3.76112 16.1959 0 10.5 0V0.5ZM0.5 8.60811H1C1 4.49913 5.15022 1 10.5 1V0.5V0C4.80408 0 0 3.76112 0 8.60811H0.5ZM5.13305 15.4507L5.36258 15.0065C2.70097 13.6313 1 11.2545 1 8.60811H0.5H0C0 11.7149 1.99417 14.3917 4.90353 15.895L5.13305 15.4507ZM3.65782 20.5011L4.13776 20.6413L5.613 15.5909L5.13305 15.4507L4.65311 15.3106L3.17787 20.3609L3.65782 20.5011ZM9.68809 16.6899L9.42096 16.2672L3.39069 20.0784L3.65782 20.5011L3.92495 20.9238L9.95522 17.1125L9.68809 16.6899ZM10.5 16.7162V16.2162C10.2375 16.2162 9.97757 16.2077 9.72059 16.1909L9.68809 16.6899L9.65558 17.1888C9.9342 17.207 10.2158 17.2162 10.5 17.2162V16.7162Z" fill="black"/>
</svg>
