<svg width="102" height="32" viewBox="0 0 102 32" fill="none" xmlns="http://www.w3.org/2000/svg">
<g filter="url(#filter0_d_1992_31701)">
<path d="M1.70591 29.2711C1.67598 29.301 1.64605 29.316 1.61612 29.316C1.52634 29.316 1.48145 29.1813 1.48145 28.912C1.48145 28.7324 1.52634 28.5528 1.61612 28.3733C1.73584 28.1638 1.94534 28.044 2.24462 28.0141C3.08262 27.9543 3.87573 27.6699 4.62395 27.1611C5.37216 26.6524 6.03059 26.0538 6.59923 25.3654C7.16788 24.6471 7.57191 23.9738 7.81134 23.3453L11.9415 13.0199C12.5101 11.6132 13.1536 10.2515 13.8719 8.93464C14.6201 7.61778 15.5628 6.54035 16.7001 5.70235C17.8673 4.86435 19.3338 4.44535 21.0996 4.44535C21.788 4.44535 22.4763 4.53514 23.1647 4.71471C23.883 4.86435 24.4816 5.11875 24.9604 5.47789C25.4393 5.83703 25.6787 6.34582 25.6787 7.00425C25.6787 7.09403 25.6787 7.18382 25.6787 7.2736C25.6787 7.36339 25.6637 7.45317 25.6338 7.54296C25.544 8.02182 25.2747 8.50067 24.8257 8.97953C24.4067 9.45839 24.0775 10.057 23.8381 10.7752C23.8082 10.9847 23.6735 11.0895 23.4341 11.0895C23.2246 11.0895 23.1797 10.9548 23.2994 10.6855C23.5388 10.3263 23.7184 9.90732 23.8381 9.42846C23.9877 8.91967 24.0626 8.41089 24.0626 7.9021C24.0626 7.12396 23.883 6.4356 23.5238 5.83703C23.1647 5.23846 22.5512 4.93917 21.6832 4.93917C20.9051 4.93917 20.112 5.16364 19.3039 5.61257C18.4958 6.0615 17.7925 6.83964 17.1939 7.947L8.88877 23.2555C8.11063 24.692 7.39234 25.7246 6.73391 26.3531C6.10541 26.9516 5.58166 27.3258 5.16266 27.4754H15.9818C17.4184 27.4754 18.7502 27.4305 19.9773 27.3407C21.2044 27.2509 21.9526 27.0265 22.2219 26.6673C22.5212 26.2483 22.6709 25.7994 22.6709 25.3205C22.6709 24.5723 22.2668 24.0186 21.4588 23.6595C21.369 23.5996 21.3241 23.5398 21.3241 23.4799C21.3241 23.4201 21.354 23.3602 21.4139 23.3004C21.5037 23.2405 21.6084 23.2405 21.7281 23.3004C21.9975 23.4201 22.3117 23.6894 22.6709 24.1084C23.0599 24.4975 23.4191 24.9315 23.7483 25.4103C24.0775 25.8593 24.287 26.2184 24.3768 26.4878C24.4666 26.7571 24.5115 27.0265 24.5115 27.2958C24.5115 28.5229 23.449 29.1364 21.3241 29.1364C19.6481 29.1364 17.8524 29.0766 15.9369 28.9569C14.0215 28.8371 12.1211 28.7025 10.2356 28.5528C8.37998 28.4032 6.62916 28.2984 4.98309 28.2386C4.35459 28.1787 3.72609 28.2685 3.09759 28.5079C2.49902 28.7174 2.03512 28.9718 1.70591 29.2711Z" fill="url(#paint0_linear_1992_31701)"/>
<path d="M36.7616 11.8078C36.3426 11.8078 36.0433 11.6731 35.8638 11.4037C35.7441 11.2541 35.6842 11.0596 35.6842 10.8201C35.6842 10.3413 35.9087 9.95221 36.3576 9.65293C36.6868 9.47335 36.9861 9.38357 37.2554 9.38357C37.7044 9.38357 38.0186 9.51825 38.1982 9.7876C38.3179 9.93725 38.3778 10.1318 38.3778 10.3712C38.3778 10.8501 38.1383 11.2391 37.6595 11.5384C37.3901 11.718 37.0908 11.8078 36.7616 11.8078ZM28.9503 29.0915C28.651 29.0915 28.3966 29.0317 28.1871 28.912C28.0075 28.7923 27.9177 28.5678 27.9177 28.2386C27.9177 27.8196 28.0225 27.3258 28.232 26.7571C28.4714 26.1885 28.7258 25.6198 28.9952 25.0512C29.2944 24.4825 29.5189 24.0186 29.6686 23.6595C29.8781 23.2405 30.1324 22.7018 30.4317 22.0434C30.7609 21.355 31.0602 20.7115 31.3296 20.113C31.6289 19.4845 31.8384 19.0505 31.9581 18.8111C31.5391 19.26 31.0303 19.8286 30.4317 20.517C29.8631 21.1754 29.3244 21.8189 28.8156 22.4474C28.3068 23.0759 27.9177 23.5697 27.6484 23.9289C27.5586 24.0486 27.4838 24.1084 27.4239 24.1084C27.3641 24.1084 27.3341 24.0336 27.3341 23.884C27.3341 23.6445 27.4089 23.4201 27.5586 23.2106C28.1272 22.4923 28.7557 21.6842 29.4441 20.7864C30.1624 19.8885 30.8058 19.0655 31.3745 18.3172C31.9431 17.5391 32.3023 17.0303 32.4519 16.7909C32.7811 16.731 33.26 16.6412 33.8885 16.5215C34.5469 16.4018 34.9958 16.2372 35.2353 16.0277C35.3251 15.9379 35.4148 15.893 35.5046 15.893C35.5645 15.893 35.5944 15.9529 35.5944 16.0726C35.6243 16.1624 35.5944 16.2671 35.5046 16.3869C35.3251 16.5964 35.0108 17.1051 34.5619 17.9132C34.1129 18.7213 33.6341 19.6191 33.1253 20.6068C32.6464 21.5645 32.1975 22.4324 31.7785 23.2106C31.3595 24.0186 31.0004 24.7968 30.7011 25.545C30.4018 26.2932 30.2522 26.8319 30.2522 27.1611C30.2522 27.5801 30.4617 27.7896 30.8807 27.7896C31.2697 27.7896 31.7636 27.5502 32.3621 27.0714C32.9906 26.5925 33.6191 26.0239 34.2476 25.3654C34.8761 24.6771 35.4298 24.0486 35.9087 23.4799C36.0583 23.3004 36.2379 23.0909 36.4474 22.8514C36.6868 22.5821 36.8364 22.4175 36.8963 22.3576C36.9562 22.4175 36.9861 22.5222 36.9861 22.6719C36.9562 22.8814 36.8813 23.0909 36.7616 23.3004C36.6419 23.4799 36.5222 23.6445 36.4025 23.7942C35.774 24.5723 35.0856 25.3804 34.3374 26.2184C33.5892 27.0265 32.7662 27.7148 31.8683 28.2835C30.9704 28.8222 29.9978 29.0915 28.9503 29.0915Z" fill="url(#paint1_linear_1992_31701)"/>
<path d="M37.946 29.3609C37.557 29.3609 37.0931 29.2861 36.5543 29.1364C36.0156 29.0167 35.7463 28.6875 35.7463 28.1488C35.7463 27.9393 35.7912 27.6999 35.881 27.4305C35.9707 27.1611 36.0605 26.9217 36.1503 26.7122C36.4496 25.9341 36.7638 25.141 37.0931 24.3329C37.4223 23.5248 37.7665 22.7018 38.1256 21.8638C37.7365 22.3127 37.3624 22.7317 37.0033 23.1208C36.6741 23.4799 36.4346 23.7493 36.285 23.9289C36.1952 24.0486 36.1204 24.1084 36.0605 24.1084C36.0007 24.1084 35.9707 24.0336 35.9707 23.884C35.9707 23.6445 36.0456 23.4201 36.1952 23.2106C36.6142 22.6719 37.0931 22.1032 37.6318 21.5046C38.1705 20.9061 38.6942 20.2776 39.203 19.6191C40.46 16.9854 41.8667 14.4415 43.423 11.9874C44.9792 9.50328 46.7301 7.30353 48.6754 5.3881C49.274 4.81946 49.9474 4.23585 50.6956 3.63728C51.4438 3.03871 52.2369 2.52992 53.0749 2.11092C53.9428 1.69192 54.7958 1.48242 55.6338 1.48242C56.0827 1.48242 56.4868 1.60214 56.8459 1.84157C57.235 2.08099 57.4445 2.4551 57.4744 2.96389V4.26578C57.4744 4.3855 57.3846 4.44535 57.2051 4.44535C57.1153 4.44535 57.0704 4.41542 57.0704 4.35557C57.0704 3.87671 56.8609 3.56246 56.4419 3.41282C56.0229 3.23324 55.6039 3.14346 55.1849 3.14346C53.5388 3.14346 52.0573 3.57742 50.7405 4.44535C49.4236 5.28335 48.2564 6.39071 47.2388 7.76742C46.2213 9.11421 45.3085 10.6106 44.5004 12.2567C43.6923 13.8729 42.9591 15.474 42.3006 17.0602C41.6721 18.6165 41.0736 20.0082 40.5049 21.2353C40.5049 21.2353 40.5049 21.2652 40.5049 21.3251C40.5049 21.3849 40.5199 21.4149 40.5498 21.4149C40.5797 21.4149 40.8192 21.1904 41.2681 20.7415C41.747 20.2626 42.3306 19.7089 43.0189 19.0804C43.7372 18.4519 44.4854 17.9132 45.2636 17.4643C46.0417 16.9854 46.76 16.746 47.4184 16.746C47.7476 16.746 47.9571 16.8657 48.0469 17.1051C48.1367 17.3146 48.1816 17.5541 48.1816 17.8234V18.2275C48.032 19.3348 47.6429 20.532 47.0144 21.8189C46.4158 23.1058 45.6377 24.3329 44.68 25.5001C43.7522 26.6374 42.7047 27.5652 41.5375 28.2835C40.4002 29.0018 39.203 29.3609 37.946 29.3609ZM38.6643 28.5977C39.1432 28.5977 39.652 28.4181 40.1907 28.059C40.7593 27.6699 41.1933 27.3258 41.4926 27.0265C41.8517 26.6973 42.2857 26.1885 42.7945 25.5001C43.3032 24.7818 43.7971 24.0037 44.2759 23.1657C44.7548 22.3277 45.1588 21.5196 45.488 20.7415C45.8172 19.9633 45.9818 19.3348 45.9818 18.856C45.9818 18.7063 45.9519 18.5716 45.8921 18.4519C45.8322 18.3322 45.7275 18.2724 45.5778 18.2724C45.3085 18.2724 44.9493 18.437 44.5004 18.7662C44.0814 19.0954 43.6175 19.4994 43.1087 19.9783C42.6298 20.4272 42.1809 20.8761 41.7619 21.3251C41.3728 21.7441 41.0885 22.0583 40.909 22.2678C40.5797 22.627 40.1607 23.1507 39.652 23.8391C39.1432 24.5274 38.6793 25.2307 38.2603 25.949C37.8712 26.6374 37.6767 27.221 37.6767 27.6999C37.6767 28.2984 38.0059 28.5977 38.6643 28.5977Z" fill="url(#paint2_linear_1992_31701)"/>
<path d="M50.6756 29.316C49.4485 29.316 48.5956 29.0766 48.1167 28.5977C47.6379 28.1189 47.3984 27.5353 47.3984 26.8469C47.3984 25.979 47.6229 25.0512 48.0718 24.0635C48.5507 23.0759 48.9996 22.2379 49.4186 21.5495C49.8975 20.8312 50.5409 20.083 51.349 19.3049C52.1571 18.5267 53.04 17.8683 53.9977 17.3296C54.9554 16.7909 55.8832 16.5215 56.781 16.5215C57.5592 16.5215 58.0979 16.7161 58.3972 17.1051C58.6965 17.4643 58.8461 17.8982 58.8461 18.407C58.8461 19.3348 58.5618 20.098 57.9931 20.6966C57.4544 21.2951 56.781 21.789 55.973 22.178C55.1649 22.5372 54.3867 22.8365 53.6385 23.0759C53.1896 23.1956 52.6659 23.3153 52.0673 23.435C51.4687 23.5548 50.9001 23.6146 50.3614 23.6146C50.1519 24.1533 49.9873 24.6771 49.8675 25.1859C49.7478 25.6946 49.688 26.1585 49.688 26.5775C49.688 27.0863 49.8077 27.5053 50.0471 27.8345C50.3165 28.1637 50.7504 28.3284 51.349 28.3284C51.5884 28.3284 51.8727 28.2984 52.202 28.2386C52.5312 28.1787 52.8903 28.0889 53.2794 27.9692C54.1772 27.6699 55.0601 27.1911 55.9281 26.5326C56.796 25.8742 57.5891 25.1709 58.3074 24.4227C59.0556 23.6445 59.6243 23.0011 60.0133 22.4923C60.1031 22.5821 60.148 22.6868 60.148 22.8065C60.148 22.9562 60.0433 23.1956 59.8338 23.5248C59.2352 24.3628 58.457 25.2308 57.4993 26.1286C56.5416 27.0265 55.4791 27.7896 54.3119 28.4181C53.1447 29.0167 51.9326 29.316 50.6756 29.316ZM50.7205 22.7167C51.1096 22.7467 51.5435 22.7467 52.0224 22.7167C52.5312 22.6569 53.025 22.5521 53.5039 22.4025C54.7309 22.0434 55.6138 21.4747 56.1525 20.6966C56.7212 19.8885 57.0055 19.1702 57.0055 18.5417C57.0055 18.1826 56.9307 17.8833 56.781 17.6439C56.6314 17.4044 56.392 17.2847 56.0628 17.2847C55.1948 17.2847 54.4167 17.6139 53.7283 18.2724C53.04 18.9009 52.4414 19.6341 51.9326 20.4721C51.4238 21.3101 51.0198 22.0583 50.7205 22.7167Z" fill="url(#paint3_linear_1992_31701)"/>
<path d="M59.5654 29.5854C59.4457 29.5854 59.4457 29.4656 59.5654 29.2262C59.7151 28.9569 59.8498 28.6576 59.9695 28.3284C60.1191 27.9991 60.2688 27.64 60.4184 27.2509C60.7177 26.5326 61.0469 25.7246 61.4061 24.8267C61.7652 23.9289 62.1094 23.0609 62.4386 22.2229C62.7678 21.355 63.0521 20.6217 63.2916 20.0232C63.5609 19.3947 63.7405 18.9906 63.8303 18.8111C63.4113 19.26 62.9025 19.8286 62.3039 20.517C61.7353 21.1754 61.1966 21.8189 60.6878 22.4474C60.179 23.0759 59.7899 23.5697 59.5206 23.9289C59.4308 24.0486 59.3559 24.1084 59.2961 24.1084C59.2362 24.1084 59.2063 24.0336 59.2063 23.884C59.2063 23.6445 59.2811 23.4201 59.4308 23.2106C59.9994 22.4923 60.6279 21.6842 61.3163 20.7864C62.0345 19.8885 62.678 19.0655 63.2467 18.3172C63.8153 17.5391 64.1744 17.0303 64.3241 16.7909C64.6533 16.731 65.1322 16.6412 65.7607 16.5215C66.4191 16.4018 66.868 16.2372 67.1074 16.0277C67.1972 15.9379 67.287 15.893 67.3768 15.893C67.4367 15.893 67.4666 15.9529 67.4666 16.0726C67.4965 16.1624 67.4666 16.2671 67.3768 16.3869C67.1972 16.5664 66.9279 16.9555 66.5687 17.5541C66.2395 18.1526 65.8654 18.841 65.4464 19.6191C65.0274 20.3973 64.6234 21.1455 64.2343 21.8638C64.5336 21.4149 64.9227 20.8911 65.4015 20.2925C65.9103 19.664 66.464 19.0655 67.0626 18.4968C67.6611 17.8982 68.2597 17.4044 68.8583 17.0154C69.4868 16.6263 70.0704 16.4317 70.6091 16.4317C70.9982 16.4317 71.3274 16.5215 71.5967 16.7011C71.8661 16.8507 72.0756 17.1351 72.2252 17.5541C72.315 17.7636 72.3599 18.003 72.3599 18.2724C72.3599 18.7811 72.2252 19.275 71.9559 19.7538C71.7165 20.2027 71.5369 20.5469 71.4172 20.7864C71.3872 20.8761 71.2825 20.9659 71.1029 21.0557C70.9233 21.1156 70.8485 21.0856 70.8784 20.9659C70.9084 20.8163 70.9233 20.6666 70.9233 20.517C70.9533 20.3674 70.9682 20.2027 70.9682 20.0232C70.9682 19.5144 70.8635 19.0505 70.654 18.6315C70.4744 18.2125 70.1302 18.003 69.6214 18.003C69.1426 18.003 68.559 18.3023 67.8706 18.9009C67.1823 19.4994 66.4939 20.1878 65.8056 20.9659C64.9376 21.9835 64.2493 22.9562 63.7405 23.884C63.2317 24.7818 62.8127 25.6647 62.4835 26.5326C62.3039 27.0115 62.1243 27.4904 61.9448 27.9692C61.7652 28.4181 61.6305 28.7773 61.5407 29.0466C61.1517 29.0766 60.7626 29.1664 60.3735 29.316C59.9844 29.4956 59.7151 29.5854 59.5654 29.5854Z" fill="url(#paint4_linear_1992_31701)"/>
<path d="M73.3233 29.0915C73.0241 29.0915 72.7697 29.0317 72.5602 28.912C72.3507 28.7923 72.2459 28.5678 72.2459 28.2386C72.2459 27.8196 72.3507 27.3258 72.5602 26.7571C72.7996 26.1885 73.054 25.6198 73.3233 25.0512C73.5927 24.4825 73.8172 24.0186 73.9967 23.6595C74.1464 23.3901 74.3409 22.9711 74.5804 22.4025C74.8497 21.8039 75.1191 21.1904 75.3884 20.5619C75.6877 19.9035 75.9271 19.3498 76.1067 18.9009C76.3162 18.4519 76.421 18.2275 76.421 18.2275C76.1516 18.5267 75.7925 18.9457 75.3435 19.4845C74.9245 20.0232 74.4606 20.5918 73.9519 21.1904C73.473 21.759 73.0241 22.2978 72.6051 22.8065C72.216 23.3153 71.9317 23.6894 71.7521 23.9289C71.6623 24.0486 71.5875 24.1084 71.5276 24.1084C71.4678 24.1084 71.4379 24.0336 71.4379 23.884C71.4379 23.6445 71.5127 23.4201 71.6623 23.2106C72.0215 22.7616 72.4554 22.2229 72.9642 21.5944C73.473 20.936 73.9818 20.2776 74.4906 19.6191C75.0293 18.9607 75.4932 18.3771 75.8822 17.8683C75.6428 17.8683 75.3286 17.8833 74.9395 17.9132C74.5804 17.9431 74.2511 17.988 73.9519 18.0479C73.6526 18.0778 73.488 18.0928 73.458 18.0928C73.3084 18.0928 73.3233 17.9731 73.5029 17.7336C73.6825 17.4942 73.9219 17.2548 74.2212 17.0154C74.5205 16.7759 74.745 16.6562 74.8946 16.6562C74.9245 16.6562 75.164 16.6712 75.6129 16.7011C76.0618 16.7011 76.391 16.7011 76.6005 16.7011C77.1991 15.893 77.7827 14.9652 78.3514 13.9177C78.9499 12.8702 79.5335 11.718 80.1022 10.461C80.3416 10.4311 80.7456 10.2665 81.3143 9.96717C81.9129 9.63796 82.3767 9.30875 82.706 8.97953C82.8556 8.82989 82.9753 8.75507 83.0651 8.75507C83.2447 8.75507 83.2447 8.87478 83.0651 9.11421C82.8556 9.35364 82.4965 9.86242 81.9877 10.6406C81.4789 11.3888 80.9102 12.3016 80.2817 13.379C79.6532 14.4265 79.0547 15.5339 78.486 16.7011H82.1224C82.4516 16.7011 82.6162 16.746 82.6162 16.8358C82.6162 16.9555 82.3917 17.0752 81.9428 17.1949C81.434 17.3446 80.8953 17.4344 80.3266 17.4643C79.7879 17.4942 79.2791 17.5541 78.8003 17.6439C78.3514 17.7336 78.0221 17.9282 77.8126 18.2275C77.6331 18.437 77.3787 18.8859 77.0495 19.5742C76.7202 20.2626 76.3611 21.0557 75.972 21.9536C75.6129 22.8215 75.2986 23.7044 75.0293 24.6022C74.7599 25.4702 74.5953 26.2034 74.5355 26.802V26.9816C74.5355 27.221 74.6103 27.4155 74.7599 27.5652C74.9096 27.7148 75.0592 27.7896 75.2089 27.7896C75.5979 27.7896 76.0918 27.5502 76.6903 27.0714C77.3188 26.5925 77.9623 26.0239 78.6207 25.3654C79.2791 24.6771 79.8478 24.0486 80.3266 23.4799C80.5361 23.2405 80.7157 23.016 80.8654 22.8065C81.0449 22.597 81.1497 22.4624 81.1796 22.4025C81.2395 22.5222 81.2694 22.612 81.2694 22.6719C81.2694 22.8514 81.2095 23.046 81.0898 23.2555C81 23.465 80.8953 23.6445 80.7756 23.7942C80.2069 24.5424 79.5186 25.3355 78.7105 26.1735C77.9024 26.9816 77.0345 27.6699 76.1067 28.2386C75.2089 28.8072 74.2811 29.0915 73.3233 29.0915Z" fill="url(#paint5_linear_1992_31701)"/>
<path d="M82.9862 29.316C81.7591 29.316 80.9062 29.0766 80.4273 28.5977C79.9484 28.1189 79.709 27.5353 79.709 26.8469C79.709 25.979 79.9335 25.0512 80.3824 24.0635C80.8613 23.0759 81.3102 22.2379 81.7292 21.5495C82.208 20.8312 82.8515 20.083 83.6596 19.3049C84.4677 18.5267 85.3505 17.8683 86.3083 17.3296C87.266 16.7909 88.1938 16.5215 89.0916 16.5215C89.8698 16.5215 90.4085 16.7161 90.7078 17.1051C91.007 17.4643 91.1567 17.8982 91.1567 18.407C91.1567 19.3348 90.8724 20.098 90.3037 20.6966C89.765 21.2951 89.0916 21.789 88.2836 22.178C87.4755 22.5372 86.6973 22.8365 85.9491 23.0759C85.5002 23.1956 84.9764 23.3153 84.3779 23.435C83.7793 23.5548 83.2106 23.6146 82.6719 23.6146C82.4624 24.1533 82.2978 24.6771 82.1781 25.1859C82.0584 25.6946 81.9986 26.1585 81.9986 26.5775C81.9986 27.0863 82.1183 27.5053 82.3577 27.8345C82.6271 28.1637 83.061 28.3284 83.6596 28.3284C83.899 28.3284 84.1833 28.2984 84.5126 28.2386C84.8418 28.1787 85.2009 28.0889 85.59 27.9692C86.4878 27.6699 87.3707 27.1911 88.2387 26.5326C89.1066 25.8742 89.8997 25.1709 90.618 24.4227C91.3662 23.6445 91.9348 23.0011 92.3239 22.4923C92.4137 22.5821 92.4586 22.6868 92.4586 22.8065C92.4586 22.9562 92.3538 23.1956 92.1443 23.5248C91.5458 24.3628 90.7676 25.2308 89.8099 26.1286C88.8522 27.0265 87.7897 27.7896 86.6225 28.4181C85.4553 29.0167 84.2432 29.316 82.9862 29.316ZM83.0311 22.7167C83.4202 22.7467 83.8541 22.7467 84.333 22.7167C84.8418 22.6569 85.3356 22.5521 85.8144 22.4025C87.0415 22.0434 87.9244 21.4747 88.4631 20.6966C89.0318 19.8885 89.3161 19.1702 89.3161 18.5417C89.3161 18.1826 89.2413 17.8833 89.0916 17.6439C88.942 17.4044 88.7025 17.2847 88.3733 17.2847C87.5054 17.2847 86.7273 17.6139 86.0389 18.2724C85.3506 18.9009 84.752 19.6341 84.2432 20.4721C83.7344 21.3101 83.3304 22.0583 83.0311 22.7167Z" fill="url(#paint6_linear_1992_31701)"/>
</g>
<g filter="url(#filter1_d_1992_31701)">
<path d="M92.796 7.63146C92.8123 7.67212 92.8286 7.71685 92.8408 7.76971V8.04215C92.8245 8.15194 92.8082 8.25767 92.796 8.36339C92.7838 8.53824 92.8042 8.76595 92.67 8.92047C91.9828 9.70526 89.9578 10.8642 88.9859 11.4009L86.5502 12.7428C86.4567 12.6615 86.355 12.3931 86.4689 12.3036L88.9696 10.2908L91.7713 7.93237C91.9462 7.78598 92.7635 7.1801 92.796 7.63552V7.63146Z" fill="url(#paint7_linear_1992_31701)"/>
</g>
<g filter="url(#filter2_d_1992_31701)">
<path d="M97.386 3.40521C97.0891 3.93789 96.7923 4.47464 96.4914 5.00733C96.3369 5.27977 96.7801 5.48715 96.9346 5.21471C97.2314 4.68202 97.5283 4.14527 97.8292 3.61259C97.9837 3.34015 97.5405 3.13277 97.386 3.40521Z" fill="url(#paint8_linear_1992_31701)"/>
</g>
<g filter="url(#filter3_d_1992_31701)">
<path d="M95.6454 6.5224C95.3486 7.05508 95.0517 7.59183 94.7508 8.12451C94.5963 8.39695 95.0395 8.60433 95.1941 8.33189L96.0887 6.72978C96.2432 6.45734 95.7999 6.24996 95.6454 6.5224Z" fill="url(#paint9_linear_1992_31701)"/>
</g>
<g filter="url(#filter4_d_1992_31701)">
<path d="M94.5269 5.16556L95.3523 5.62505C95.6248 5.77957 95.8321 5.33634 95.5597 5.18182C95.2832 5.02731 95.0067 4.87279 94.7342 4.72234C94.4618 4.57188 94.2544 5.01104 94.5269 5.16556Z" fill="url(#paint10_linear_1992_31701)"/>
</g>
<g filter="url(#filter5_d_1992_31701)">
<path d="M97.1088 6.60434L97.9342 7.06384C98.2067 7.21836 98.414 6.77513 98.1416 6.62061L97.3161 6.16112C97.0437 6.0066 96.8363 6.44983 97.1088 6.60434Z" fill="url(#paint11_linear_1992_31701)"/>
</g>
<defs>
<filter id="filter0_d_1992_31701" x="-1.91927e-05" y="0.00095737" width="93.9401" height="31.0664" filterUnits="userSpaceOnUse" color-interpolation-filters="sRGB">
<feFlood flood-opacity="0" result="BackgroundImageFix"/>
<feColorMatrix in="SourceAlpha" type="matrix" values="0 0 0 0 0 0 0 0 0 0 0 0 0 0 0 0 0 0 127 0" result="hardAlpha"/>
<feOffset/>
<feGaussianBlur stdDeviation="0.740732"/>
<feComposite in2="hardAlpha" operator="out"/>
<feColorMatrix type="matrix" values="0 0 0 0 0.68134 0 0 0 0 0.833083 0 0 0 0 0.782233 0 0 0 1 0"/>
<feBlend mode="normal" in2="BackgroundImageFix" result="effect1_dropShadow_1992_31701"/>
<feBlend mode="normal" in="SourceGraphic" in2="effect1_dropShadow_1992_31701" result="shape"/>
</filter>
<filter id="filter1_d_1992_31701" x="84.937" y="5.98729" width="9.38523" height="8.23637" filterUnits="userSpaceOnUse" color-interpolation-filters="sRGB">
<feFlood flood-opacity="0" result="BackgroundImageFix"/>
<feColorMatrix in="SourceAlpha" type="matrix" values="0 0 0 0 0 0 0 0 0 0 0 0 0 0 0 0 0 0 127 0" result="hardAlpha"/>
<feOffset/>
<feGaussianBlur stdDeviation="0.740732"/>
<feComposite in2="hardAlpha" operator="out"/>
<feColorMatrix type="matrix" values="0 0 0 0 0.68134 0 0 0 0 0.833083 0 0 0 0 0.782233 0 0 0 1 0"/>
<feBlend mode="normal" in2="BackgroundImageFix" result="effect1_dropShadow_1992_31701"/>
<feBlend mode="normal" in="SourceGraphic" in2="effect1_dropShadow_1992_31701" result="shape"/>
</filter>
<filter id="filter2_d_1992_31701" x="94.9777" y="1.79588" width="4.36515" height="5.02738" filterUnits="userSpaceOnUse" color-interpolation-filters="sRGB">
<feFlood flood-opacity="0" result="BackgroundImageFix"/>
<feColorMatrix in="SourceAlpha" type="matrix" values="0 0 0 0 0 0 0 0 0 0 0 0 0 0 0 0 0 0 127 0" result="hardAlpha"/>
<feOffset/>
<feGaussianBlur stdDeviation="0.740732"/>
<feComposite in2="hardAlpha" operator="out"/>
<feColorMatrix type="matrix" values="0 0 0 0 0.68134 0 0 0 0 0.833083 0 0 0 0 0.782233 0 0 0 1 0"/>
<feBlend mode="normal" in2="BackgroundImageFix" result="effect1_dropShadow_1992_31701"/>
<feBlend mode="normal" in="SourceGraphic" in2="effect1_dropShadow_1992_31701" result="shape"/>
</filter>
<filter id="filter3_d_1992_31701" x="93.2372" y="4.91307" width="4.36515" height="5.02738" filterUnits="userSpaceOnUse" color-interpolation-filters="sRGB">
<feFlood flood-opacity="0" result="BackgroundImageFix"/>
<feColorMatrix in="SourceAlpha" type="matrix" values="0 0 0 0 0 0 0 0 0 0 0 0 0 0 0 0 0 0 127 0" result="hardAlpha"/>
<feOffset/>
<feGaussianBlur stdDeviation="0.740732"/>
<feComposite in2="hardAlpha" operator="out"/>
<feColorMatrix type="matrix" values="0 0 0 0 0.68134 0 0 0 0 0.833083 0 0 0 0 0.782233 0 0 0 1 0"/>
<feBlend mode="normal" in2="BackgroundImageFix" result="effect1_dropShadow_1992_31701"/>
<feBlend mode="normal" in="SourceGraphic" in2="effect1_dropShadow_1992_31701" result="shape"/>
</filter>
<filter id="filter4_d_1992_31701" x="92.9175" y="3.20994" width="4.2515" height="3.92973" filterUnits="userSpaceOnUse" color-interpolation-filters="sRGB">
<feFlood flood-opacity="0" result="BackgroundImageFix"/>
<feColorMatrix in="SourceAlpha" type="matrix" values="0 0 0 0 0 0 0 0 0 0 0 0 0 0 0 0 0 0 127 0" result="hardAlpha"/>
<feOffset/>
<feGaussianBlur stdDeviation="0.740732"/>
<feComposite in2="hardAlpha" operator="out"/>
<feColorMatrix type="matrix" values="0 0 0 0 0.68134 0 0 0 0 0.833083 0 0 0 0 0.782233 0 0 0 1 0"/>
<feBlend mode="normal" in2="BackgroundImageFix" result="effect1_dropShadow_1992_31701"/>
<feBlend mode="normal" in="SourceGraphic" in2="effect1_dropShadow_1992_31701" result="shape"/>
</filter>
<filter id="filter5_d_1992_31701" x="95.4994" y="4.64744" width="4.2515" height="3.92973" filterUnits="userSpaceOnUse" color-interpolation-filters="sRGB">
<feFlood flood-opacity="0" result="BackgroundImageFix"/>
<feColorMatrix in="SourceAlpha" type="matrix" values="0 0 0 0 0 0 0 0 0 0 0 0 0 0 0 0 0 0 127 0" result="hardAlpha"/>
<feOffset/>
<feGaussianBlur stdDeviation="0.740732"/>
<feComposite in2="hardAlpha" operator="out"/>
<feColorMatrix type="matrix" values="0 0 0 0 0.68134 0 0 0 0 0.833083 0 0 0 0 0.782233 0 0 0 1 0"/>
<feBlend mode="normal" in2="BackgroundImageFix" result="effect1_dropShadow_1992_31701"/>
<feBlend mode="normal" in="SourceGraphic" in2="effect1_dropShadow_1992_31701" result="shape"/>
</filter>
<linearGradient id="paint0_linear_1992_31701" x1="7.27276" y1="7.72271" x2="94.1853" y2="28.957" gradientUnits="userSpaceOnUse">
<stop stop-color="#AEC095"/>
<stop offset="1" stop-color="#5A9C6B"/>
</linearGradient>
<linearGradient id="paint1_linear_1992_31701" x1="7.27276" y1="7.72271" x2="94.1853" y2="28.957" gradientUnits="userSpaceOnUse">
<stop stop-color="#AEC095"/>
<stop offset="1" stop-color="#5A9C6B"/>
</linearGradient>
<linearGradient id="paint2_linear_1992_31701" x1="7.27276" y1="7.72271" x2="94.1853" y2="28.957" gradientUnits="userSpaceOnUse">
<stop stop-color="#AEC095"/>
<stop offset="1" stop-color="#5A9C6B"/>
</linearGradient>
<linearGradient id="paint3_linear_1992_31701" x1="7.27276" y1="7.72271" x2="94.1853" y2="28.957" gradientUnits="userSpaceOnUse">
<stop stop-color="#AEC095"/>
<stop offset="1" stop-color="#5A9C6B"/>
</linearGradient>
<linearGradient id="paint4_linear_1992_31701" x1="7.27276" y1="7.72271" x2="94.1853" y2="28.957" gradientUnits="userSpaceOnUse">
<stop stop-color="#AEC095"/>
<stop offset="1" stop-color="#5A9C6B"/>
</linearGradient>
<linearGradient id="paint5_linear_1992_31701" x1="7.27276" y1="7.72271" x2="94.1853" y2="28.957" gradientUnits="userSpaceOnUse">
<stop stop-color="#AEC095"/>
<stop offset="1" stop-color="#5A9C6B"/>
</linearGradient>
<linearGradient id="paint6_linear_1992_31701" x1="7.27276" y1="7.72271" x2="94.1853" y2="28.957" gradientUnits="userSpaceOnUse">
<stop stop-color="#AEC095"/>
<stop offset="1" stop-color="#5A9C6B"/>
</linearGradient>
<linearGradient id="paint7_linear_1992_31701" x1="86.8273" y1="8.63985" x2="93.2744" y2="9.23236" gradientUnits="userSpaceOnUse">
<stop stop-color="#AEC095"/>
<stop offset="1" stop-color="#5A9C6B"/>
</linearGradient>
<linearGradient id="paint8_linear_1992_31701" x1="96.5484" y1="3.73593" x2="97.9643" y2="3.80848" gradientUnits="userSpaceOnUse">
<stop stop-color="#AEC095"/>
<stop offset="1" stop-color="#5A9C6B"/>
</linearGradient>
<linearGradient id="paint9_linear_1992_31701" x1="94.8079" y1="6.85312" x2="96.2237" y2="6.92567" gradientUnits="userSpaceOnUse">
<stop stop-color="#AEC095"/>
<stop offset="1" stop-color="#5A9C6B"/>
</linearGradient>
<linearGradient id="paint10_linear_1992_31701" x1="94.481" y1="4.90588" x2="95.7724" y2="5.0359" gradientUnits="userSpaceOnUse">
<stop stop-color="#AEC095"/>
<stop offset="1" stop-color="#5A9C6B"/>
</linearGradient>
<linearGradient id="paint11_linear_1992_31701" x1="97.0629" y1="6.34366" x2="98.3543" y2="6.47352" gradientUnits="userSpaceOnUse">
<stop stop-color="#AEC095"/>
<stop offset="1" stop-color="#5A9C6B"/>
</linearGradient>
</defs>
</svg>
