<svg width="20" height="20" viewBox="0 0 20 20" fill="none" xmlns="http://www.w3.org/2000/svg">
<path d="M9.96484 3.48865C13.5373 3.4887 16.4336 6.43907 16.4336 10.0785C16.4336 13.7179 13.5373 16.6683 9.96484 16.6683C6.39231 16.6683 3.49611 13.7179 3.49609 10.0785C3.49609 6.43904 6.3923 3.48865 9.96484 3.48865ZM5.65234 8.64392L7.20215 13.8363H12.6201L14.4014 8.68103L9.96484 5.26794L5.65234 8.64392Z" fill="#00BC7D"/>
<path fill-rule="evenodd" clip-rule="evenodd" d="M8.93486 2.03354C8.5796 2.06338 7.93416 2.19536 7.5372 2.31935C6.78765 2.55342 6.23805 2.94892 6.0334 3.40142C5.91387 3.66563 5.88792 3.99301 5.96761 4.23126C6.06861 4.5332 6.02161 4.59844 5.82908 4.42351C5.71439 4.31934 5.42396 4.20803 5.20623 4.18486C4.67637 4.12844 4.0762 4.50934 3.55824 5.23081C3.35434 5.51484 3.08081 5.95972 2.98126 6.16925C2.88461 6.37264 2.54328 7.22667 2.49517 7.38555C2.47097 7.46542 2.43754 7.57162 2.42093 7.62155C2.27741 8.05248 2.11749 8.7396 2.04917 9.21907C1.98345 9.68051 1.98363 10.5256 2.0496 10.8449C2.22516 11.6951 2.67975 12.1573 3.35848 12.1756C3.47281 12.1787 3.56391 12.1969 3.56098 12.216C3.55803 12.2351 3.50995 12.2851 3.4541 12.3271C3.13459 12.5672 2.92313 12.983 2.9257 13.366C2.92862 13.8091 3.13986 14.335 3.53507 14.883C3.79728 15.2466 4.40031 15.8727 4.7777 16.1731C4.92471 16.2901 5.05302 16.396 5.06282 16.4083C5.0975 16.452 5.76247 16.9113 6.09638 17.1222C6.49907 17.3766 6.70219 17.4793 7.20115 17.6806C7.80054 17.9224 8.05091 17.9791 8.53772 17.9835C9.01055 17.9877 9.18765 17.9421 9.47666 17.7416C9.64548 17.6245 9.88666 17.2759 9.95156 17.0552C9.99283 16.9148 10.0524 16.8672 10.0524 16.9745C10.0524 17.0065 10.111 17.1462 10.1825 17.285C10.3949 17.6967 10.7019 17.9113 11.1786 17.9812C12.1871 18.1293 13.8104 17.3928 15.3457 16.0908C16.747 14.9022 17.3809 13.6504 16.9905 12.8422C16.8994 12.6537 16.6704 12.3835 16.5122 12.2778C16.468 12.2484 16.432 12.2121 16.432 12.1973C16.432 12.1825 16.5574 12.1616 16.7108 12.1509C17.1961 12.117 17.5489 11.8642 17.7775 11.3866C17.9418 11.0435 18.0002 10.6917 18 10.0466C17.9998 9.42675 17.9471 9.01949 17.7823 8.36585C17.3329 6.5829 16.5835 5.15561 15.7718 4.53661C15.2179 4.11414 14.7191 4.06871 14.1918 4.39269C14.0645 4.47089 13.9527 4.52706 13.9433 4.51751C13.934 4.50796 13.9549 4.39247 13.9899 4.26082C14.1044 3.82992 13.9998 3.38345 13.7071 3.05334C13.2597 2.54881 12.2102 2.15488 10.9842 2.03114C10.5625 1.98859 9.45484 1.98989 8.93486 2.03354ZM8.68534 3.02517C9.82874 3.23364 10.0328 3.23695 11.0369 3.06347C12.5005 2.81055 13.1865 2.86745 13.6106 3.27689C13.8516 3.50947 13.9512 3.85915 13.8985 4.28703C13.8636 4.56965 13.8122 4.69596 13.7483 4.65577C13.7248 4.64096 13.6173 4.56939 13.5095 4.49671C13.2169 4.29945 12.6637 4.01411 12.29 3.86783C11.5517 3.5786 10.8368 3.4447 10.0232 3.4431C9.20832 3.44154 8.60241 3.53946 7.84274 3.79554C7.49311 3.91339 6.78968 4.26812 6.45278 4.49645C6.13982 4.70852 6.1261 4.70275 6.0627 4.3318C5.9881 3.89553 6.12111 3.47153 6.40819 3.23027C6.56105 3.10185 6.85223 2.98 7.11212 2.93578C7.40579 2.88578 8.15395 2.9283 8.68534 3.02517ZM5.77562 4.47866C5.97894 4.58377 6.09638 4.67193 6.09638 4.71949C6.09638 4.73467 6.0122 4.8148 5.90927 4.89754C4.90953 5.70146 4.10977 6.92466 3.74838 8.20247C3.55318 8.89278 3.51811 9.16574 3.51515 10.0178C3.51237 10.8336 3.54976 11.1682 3.70917 11.7542C3.81681 12.15 3.82287 12.1382 3.52663 12.1101C2.73267 12.035 2.32125 11.5122 2.4287 10.715C2.48715 10.2812 2.60893 9.95935 3.06324 9.03754C3.55054 8.04885 3.60896 7.88445 3.70846 7.22216C3.91311 5.86016 3.9758 5.58386 4.17699 5.15765C4.34841 4.79446 4.55352 4.5556 4.79552 4.43731C4.95027 4.36164 5.0136 4.35199 5.27666 4.36375C5.52061 4.37468 5.61777 4.39704 5.77562 4.47866ZM15.1863 4.44551C15.4932 4.60396 15.7142 4.89475 15.8987 5.38294C16.0123 5.68378 16.1155 6.17891 16.2555 7.09509C16.36 7.77847 16.4602 8.08792 16.7792 8.71077C17.17 9.47406 17.2032 9.54148 17.3068 9.78184C17.7699 10.8563 17.6752 11.6031 17.0337 11.9363C16.8016 12.0568 16.4467 12.1304 16.2664 12.0952C16.1762 12.0777 16.1563 11.9872 16.2172 11.8713C16.2363 11.835 16.2953 11.595 16.3483 11.3381C16.4364 10.9112 16.4447 10.8009 16.4454 10.0541C16.4461 9.30625 16.4381 9.19889 16.3514 8.78338C16.1212 7.68015 15.7183 6.78967 15.0645 5.93869C14.8356 5.64072 14.3004 5.09375 14.0148 4.86592L13.8608 4.74302L13.8813 4.86614C13.8925 4.93385 13.9343 5.25884 13.974 5.58833C14.0137 5.91782 14.0696 6.35895 14.0981 6.56863C14.1267 6.7783 14.1979 7.31747 14.2564 7.76678C14.3518 8.49961 14.3743 8.60613 14.4749 8.80154C14.5988 9.04204 15.5692 11.0185 15.803 11.5064C15.8843 11.6762 15.9598 11.8232 15.9707 11.8332C16.0018 11.8617 16.0867 12.0883 16.0715 12.1022C16.0639 12.1091 15.9134 12.1843 15.737 12.2692C15.5606 12.3542 15.2158 12.5217 14.9707 12.6414C14.7257 12.7611 14.3608 12.9386 14.1599 13.0359C13.959 13.1333 13.6222 13.2965 13.4115 13.3986C13.2008 13.5007 12.9482 13.6215 12.8502 13.6669C12.7367 13.7195 12.6639 13.7643 12.5499 13.8735C12.4716 13.9486 12.3739 14.0539 12.2301 14.2131C12.1047 14.3519 11.8641 14.6127 11.6955 14.7926C11.3742 15.1354 10.6441 15.9269 10.2639 16.3444C10.1412 16.4792 10.0273 16.5895 10.0108 16.5895C9.99429 16.5895 9.6653 16.275 9.27971 15.8906C8.89412 15.5061 8.47157 15.0855 8.3407 14.9557C8.20987 14.8259 7.91869 14.5359 7.69369 14.3112C7.4687 14.0865 7.26719 13.9027 7.24588 13.9027C7.22126 13.8907 7.22126 13.8907 7.19527 13.8735C7.18874 13.8575 7.015 13.7571 6.80918 13.6504C6.60336 13.5437 6.33873 13.4037 6.22112 13.3393C6.10351 13.2749 5.6384 13.0304 5.18756 12.7959C4.07231 12.2159 3.8867 12.1134 3.8867 12.0778C3.8867 12.0609 3.93257 11.9622 3.98863 11.8585C4.04465 11.7547 4.17495 11.5064 4.27813 11.3068C4.38135 11.1071 4.49383 10.8947 4.52811 10.8348C4.56243 10.7748 4.65438 10.6033 4.73247 10.4535C4.81056 10.3038 5.06089 9.82995 5.28874 9.40061C5.58623 8.84002 5.70812 8.57396 5.7212 8.45662C5.73121 8.36676 5.74832 8.21154 5.75922 8.1117C5.77013 8.01185 5.79369 7.81579 5.81154 7.67601C5.84526 7.41216 5.8876 7.05958 6.05689 5.63302C6.11202 5.16836 6.16627 4.77885 6.17746 4.76749C6.18865 4.75609 6.54787 4.79668 6.97572 4.85771C7.40358 4.91875 7.87392 4.98566 8.02094 5.00639C8.16795 5.02709 8.64108 5.09433 9.07232 5.1558C9.50356 5.21723 9.90451 5.26675 9.96332 5.26584C10.0713 5.26414 10.8515 5.15387 11.9379 4.98679C12.8175 4.8515 13.2087 4.79305 13.5427 4.74697C13.774 4.7151 13.8794 4.68068 14.0003 4.59761C14.3834 4.33416 14.8538 4.27385 15.1863 4.44551ZM7.43466 8.88668C7.45326 8.90356 7.7572 9.11865 8.11004 9.3647C8.46287 9.61072 8.77077 9.83579 8.79426 9.86484C8.82533 9.90325 8.83211 10.0867 8.81917 10.5396C8.8094 10.8816 8.81425 11.1779 8.82993 11.1978C8.84565 11.2178 9.09103 11.4132 9.37526 11.6321C9.65949 11.851 9.91325 12.0511 9.93912 12.0769C10.0032 12.1406 10.0617 12.1357 10.1437 12.0597C10.1817 12.0245 10.4373 11.8252 10.7118 11.6169C10.9862 11.4086 11.2229 11.2209 11.2377 11.1998C11.2525 11.1788 11.2628 11.1288 11.2605 11.0889C11.2582 11.049 11.258 10.7547 11.2602 10.4349C11.2639 9.89105 11.2688 9.85122 11.3357 9.81768C11.3751 9.79796 11.6949 9.58578 12.0464 9.34615L12.6855 8.91046L11.9727 8.87942C11.5806 8.86232 11.2516 8.85673 11.2415 8.86696C11.2315 8.8772 11.2139 9.40991 11.2025 10.0508L11.1818 11.216H10.029H8.8763V10.036V8.856H8.13855C7.73279 8.856 7.41606 8.8698 7.43466 8.88668ZM3.91813 12.4169C4.32724 13.5226 5.2248 14.7114 6.17026 15.3999C7.19266 16.1444 8.31411 16.5457 9.65496 16.6469L9.98809 16.672L9.96867 16.771C9.92882 16.9739 9.75529 17.2808 9.59288 17.4356C9.42466 17.5959 9.09841 17.7513 8.93019 17.7513C8.60169 17.7513 8.10134 17.5348 7.7262 17.2302C7.59561 17.1242 7.19851 16.7478 6.84371 16.3937C6.47021 16.0209 6.0946 15.6813 5.95154 15.587C5.81564 15.4975 5.3957 15.2679 5.0183 15.0767C4.0995 14.6115 3.63116 14.2849 3.33866 13.9053C2.98312 13.444 3.07457 12.7848 3.55517 12.3445C3.66673 12.2423 3.77461 12.1643 3.79489 12.1712C3.8152 12.1781 3.87066 12.2887 3.91813 12.4169ZM16.4551 12.3264C16.6861 12.5274 16.8248 12.7579 16.8805 13.033C16.965 13.4507 16.8432 13.7647 16.4425 14.1621C16.1376 14.4645 15.8407 14.6542 14.998 15.0851C14.5812 15.2982 14.152 15.5319 14.0442 15.6044C13.9365 15.6769 13.5264 16.0564 13.133 16.4477C12.7274 16.8512 12.303 17.2378 12.1528 17.3407C11.4094 17.85 10.8335 17.8664 10.3966 17.3905C10.238 17.2179 10.0524 16.8659 10.0524 16.7379C10.0524 16.6537 10.1459 16.627 10.4445 16.6261C10.9519 16.6245 11.835 16.4126 12.4932 16.1347C13.3947 15.754 14.3127 15.0645 14.9591 14.2823C15.3691 13.7861 15.8245 13.0004 16.0259 12.4414C16.1485 12.1012 16.1851 12.0914 16.4551 12.3264Z" fill="#00BC7D"/>
</svg>
