<svg width="91" height="20" viewBox="0 0 91 20" fill="none" xmlns="http://www.w3.org/2000/svg">
<path fill-rule="evenodd" clip-rule="evenodd" d="M80.8795 0.0390625C75.7081 0.0390625 71.5195 4.38577 71.5195 9.75237C71.5195 14.0505 74.1988 17.6809 77.9194 18.9679C78.3874 19.0529 78.5629 18.7615 78.5629 18.5065C78.5629 18.2758 78.5512 17.5109 78.5512 16.6974C76.1995 17.1466 75.5911 16.1024 75.4039 15.5561C75.2986 15.2768 74.8423 14.4148 74.4445 14.1841C74.1169 14.0019 73.6489 13.5527 74.4328 13.5406C75.1699 13.5284 75.6964 14.2448 75.8719 14.5362C76.7143 16.0053 78.0598 15.5925 78.598 15.3375C78.6799 14.7062 78.9256 14.2812 79.1947 14.0384C77.1121 13.7955 74.9359 12.9578 74.9359 9.24242C74.9359 8.1861 75.2986 7.3119 75.8953 6.63197C75.8017 6.38914 75.4741 5.39352 75.9889 4.05794C75.9889 4.05794 76.7728 3.80297 78.5629 5.05356C79.3117 4.83501 80.1073 4.72573 80.9029 4.72573C81.6985 4.72573 82.4941 4.83501 83.2429 5.05356C85.033 3.79083 85.8169 4.05794 85.8169 4.05794C86.3317 5.39352 86.0041 6.38914 85.9105 6.63197C86.5072 7.3119 86.8699 8.17396 86.8699 9.24242C86.8699 12.9699 84.682 13.7955 82.5994 14.0384C82.9387 14.3419 83.2312 14.9247 83.2312 15.8353C83.2312 17.1345 83.2195 18.1787 83.2195 18.5065C83.2195 18.7615 83.395 19.065 83.863 18.9679C87.5602 17.6809 90.2395 14.0384 90.2395 9.75237C90.2395 4.38577 86.0509 0.0390625 80.8795 0.0390625Z" fill="#007C4A"/>
<path d="M45.5202 0.0390625C42.9781 0.0390625 42.6594 0.0499776 41.661 0.0960635C40.6648 0.142065 39.9844 0.302238 39.389 0.53639C38.7735 0.778497 38.2515 1.10245 37.7312 1.62911C37.2108 2.15577 36.8907 2.68415 36.6515 3.30713C36.4201 3.90972 36.262 4.59838 36.2164 5.60675C36.1709 6.61723 36.1602 6.93985 36.1602 9.51277C36.1602 12.0856 36.1709 12.4083 36.2164 13.4187C36.262 14.4271 36.4201 15.1158 36.6515 15.7184C36.8907 16.3413 37.2108 16.8697 37.7312 17.3964C38.2515 17.923 38.7735 18.247 39.389 18.4891C39.9844 18.7233 40.6648 18.8834 41.661 18.9294C42.6594 18.9755 42.9781 18.9864 45.5202 18.9864C48.0622 18.9864 48.3809 18.9755 49.3793 18.9294C50.3755 18.8834 51.0559 18.7233 51.6513 18.4891C52.2668 18.247 52.7888 17.923 53.3092 17.3964C53.8295 16.8697 54.1496 16.3413 54.3888 15.7184C54.6201 15.1158 54.7784 14.4271 54.8238 13.4187C54.8694 12.4083 54.8802 12.0856 54.8802 9.51277C54.8802 6.93985 54.8694 6.61723 54.8238 5.60675C54.7784 4.59838 54.6201 3.90972 54.3888 3.30713C54.1496 2.68415 53.8295 2.15577 53.3092 1.62911C52.7888 1.10245 52.2668 0.778497 51.6513 0.53639C51.0559 0.302238 50.3755 0.142065 49.3793 0.0960635C48.3809 0.0499776 48.0622 0.0390625 45.5202 0.0390625ZM45.5202 1.74602C48.0194 1.74602 48.3154 1.75569 49.3024 1.80127C50.215 1.84338 50.7106 1.99772 51.0404 2.12746C51.4773 2.29933 51.7891 2.5046 52.1166 2.83612C52.4442 3.16763 52.647 3.48324 52.8168 3.92543C52.945 4.25925 53.0975 4.7609 53.1391 5.68456C53.1841 6.68353 53.1937 6.98318 53.1937 9.51274C53.1937 12.0423 53.1841 12.342 53.1391 13.3409C53.0975 14.2646 52.945 14.7662 52.8168 15.1C52.647 15.5423 52.4442 15.8579 52.1166 16.1893C51.7891 16.5209 51.4773 16.7262 51.0404 16.898C50.7106 17.0278 50.215 17.1821 49.3024 17.2242C48.3156 17.2698 48.0196 17.2795 45.5202 17.2795C43.0207 17.2795 42.7248 17.2698 41.7379 17.2242C40.8253 17.1821 40.3297 17.0278 39.9999 16.898C39.563 16.7262 39.2512 16.5209 38.9237 16.1893C38.5961 15.8579 38.3933 15.5422 38.2235 15.1001C38.0953 14.7662 37.9429 14.2646 37.9012 13.3409C37.8562 12.342 37.8466 12.0423 37.8466 9.51274C37.8466 6.98318 37.8562 6.68353 37.9012 5.68456C37.9429 4.76087 38.0953 4.25926 38.2235 3.92546C38.3933 3.48321 38.5961 3.16763 38.9236 2.83615C39.2512 2.5046 39.563 2.29933 39.9999 2.12746C40.3297 1.99772 40.8253 1.84338 41.7379 1.80127C42.7249 1.75569 43.0209 1.74602 45.5202 1.74602" fill="#007C4A"/>
<path d="M45.5174 12.6721C43.7943 12.6721 42.3974 11.2583 42.3974 9.51427C42.3974 7.77017 43.7943 6.35634 45.5174 6.35634C47.2406 6.35634 48.6374 7.77017 48.6374 9.51427C48.6374 11.2583 47.2406 12.6721 45.5174 12.6721ZM45.5174 4.64939C42.8629 4.64939 40.7109 6.82744 40.7109 9.51427C40.7109 12.2011 42.8629 14.3791 45.5174 14.3791C48.172 14.3791 50.3239 12.2011 50.3239 9.51427C50.3239 6.82744 48.172 4.64939 45.5174 4.64939ZM51.637 4.45717C51.637 5.08506 51.1341 5.59401 50.5138 5.59401C49.8935 5.59401 49.3906 5.08506 49.3906 4.45717C49.3906 3.82932 49.8935 3.32031 50.5138 3.32031C51.1341 3.32031 51.637 3.82932 51.637 4.45717Z" fill="#007C4A"/>
<path d="M9.95703 1.84766C14.4225 1.84772 18.0427 5.51157 18.043 10.0312C18.043 14.5511 14.4227 18.2158 9.95703 18.2158C5.49135 18.2158 1.87109 14.5512 1.87109 10.0312C1.87133 5.51154 5.4915 1.84766 9.95703 1.84766ZM4.56641 8.25195L6.50391 14.7002H13.2764L15.5039 8.29688L9.95703 4.05859L4.56641 8.25195Z" fill="#007C4A" fill-opacity="0.6"/>
<path fill-rule="evenodd" clip-rule="evenodd" d="M8.66857 0.0416489C8.2245 0.0787138 7.41769 0.24262 6.9215 0.396606C5.98457 0.687308 5.29756 1.17849 5.04175 1.74046C4.89233 2.06858 4.8599 2.47517 4.95951 2.77106C5.08577 3.14604 5.02701 3.22706 4.78635 3.00982C4.64299 2.88045 4.27995 2.7422 4.00779 2.71343C3.34547 2.64336 2.59524 3.11641 1.9478 4.01242C1.69293 4.36516 1.35101 4.91767 1.22658 5.17789C1.10576 5.43049 0.679104 6.49112 0.618961 6.68844C0.588712 6.78764 0.546924 6.91953 0.526164 6.98153C0.346761 7.51672 0.146865 8.37007 0.0614626 8.96554C-0.0206876 9.5386 -0.0204648 10.5881 0.0619972 10.9847C0.281451 12.0406 0.849686 12.6146 1.6981 12.6374C1.84101 12.6412 1.95488 12.6637 1.95123 12.6875C1.94753 12.7112 1.88743 12.7733 1.81762 12.8254C1.41823 13.1237 1.15392 13.64 1.15713 14.1158C1.16078 14.666 1.42483 15.3191 1.91884 15.9998C2.2466 16.4513 3.00038 17.2288 3.47212 17.6019C3.65589 17.7473 3.81627 17.8787 3.82852 17.894C3.87187 17.9482 4.70308 18.5187 5.12047 18.7807C5.62384 19.0966 5.87773 19.2241 6.50143 19.4741C7.25068 19.7744 7.56364 19.8448 8.17215 19.8503C8.76319 19.8555 8.98456 19.7989 9.34582 19.5499C9.55685 19.4044 9.85832 18.9715 9.93945 18.6974C9.99104 18.5231 10.0655 18.4639 10.0655 18.5972C10.0655 18.6369 10.1387 18.8105 10.2282 18.9828C10.4936 19.494 10.8774 19.7606 11.4732 19.8475C12.7339 20.0313 14.7631 19.1167 16.6821 17.4997C18.4338 16.0236 19.2261 14.4689 18.7381 13.4651C18.6243 13.231 18.3381 12.8955 18.1402 12.7642C18.0851 12.7277 18.04 12.6827 18.04 12.6643C18.04 12.6459 18.1968 12.6199 18.3885 12.6066C18.9952 12.5645 19.4362 12.2506 19.7219 11.6575C19.9272 11.2313 20.0002 10.7944 20 9.99326C19.9998 9.22346 19.9339 8.71767 19.7279 7.9059C19.1661 5.69161 18.2294 3.91903 17.2148 3.15027C16.5223 2.62559 15.8989 2.56919 15.2397 2.97153C15.0807 3.06866 14.9409 3.13842 14.9292 3.12656C14.9175 3.1147 14.9437 2.97126 14.9874 2.80776C15.1305 2.27262 14.9998 1.71814 14.6339 1.30817C14.0746 0.681582 12.7628 0.192343 11.2302 0.0386729C10.7031 -0.0141739 9.31855 -0.0125506 8.66857 0.0416489ZM8.35668 1.27318C9.78593 1.53209 10.041 1.53619 11.2961 1.32075C13.1256 1.00664 13.9831 1.0773 14.5133 1.58579C14.8145 1.87465 14.939 2.30892 14.8731 2.84032C14.8295 3.19131 14.7652 3.34818 14.6854 3.29826C14.656 3.27987 14.5216 3.19099 14.3869 3.10072C14.0212 2.85574 13.3296 2.50137 12.8626 2.3197C11.9396 1.9605 11.046 1.7942 10.029 1.79222C9.0104 1.79028 8.25301 1.91189 7.30342 2.22992C6.86639 2.37629 5.9871 2.81683 5.56597 3.1004C5.17478 3.36378 5.15763 3.35661 5.07837 2.89592C4.98513 2.3541 5.15139 1.82753 5.51024 1.5279C5.70132 1.36841 6.06529 1.21708 6.39015 1.16216C6.75724 1.10007 7.69243 1.15287 8.35668 1.27318ZM4.71952 3.07831C4.97368 3.20885 5.12047 3.31833 5.12047 3.3774C5.12047 3.39625 5.01525 3.49576 4.88659 3.59852C3.63691 4.59693 2.63721 6.11605 2.18547 7.70299C1.94147 8.5603 1.89764 8.8993 1.89394 9.95754C1.89046 10.9706 1.9372 11.3862 2.13647 12.114C2.27101 12.6055 2.27858 12.5909 1.90828 12.556C0.915843 12.4627 0.401557 11.8134 0.535876 10.8234C0.608938 10.2847 0.761165 9.8849 1.32904 8.74008C1.93818 7.51221 2.01119 7.30803 2.13558 6.48553C2.39138 4.79403 2.46975 4.45088 2.72123 3.92156C2.93552 3.47051 3.1919 3.17386 3.4944 3.02695C3.68783 2.93298 3.767 2.92099 4.09582 2.9356C4.40077 2.94917 4.52221 2.97694 4.71952 3.07831ZM16.4829 3.03714C16.8665 3.23392 17.1427 3.59505 17.3733 4.20135C17.5154 4.57497 17.6444 5.18988 17.8194 6.32771C17.9499 7.17641 18.0753 7.56073 18.4739 8.33426C18.9625 9.28221 19.004 9.36595 19.1335 9.66445C19.7123 10.9989 19.594 11.9263 18.7921 12.3401C18.502 12.4898 18.0584 12.5811 17.833 12.5375C17.7202 12.5157 17.6954 12.4033 17.7715 12.2594C17.7954 12.2143 17.8691 11.9163 17.9354 11.5972C18.0455 11.067 18.0559 10.93 18.0567 10.0026C18.0576 9.0738 18.0476 8.94047 17.9392 8.42445C17.6515 7.05431 17.1479 5.9484 16.3306 4.89156C16.0444 4.52149 15.3754 3.8422 15.0185 3.55925L14.826 3.40662L14.8516 3.55952C14.8657 3.64362 14.9178 4.04723 14.9675 4.45643C15.0172 4.86563 15.087 5.41349 15.1227 5.67389C15.1583 5.93429 15.2474 6.60389 15.3205 7.16189C15.4398 8.07201 15.4679 8.20431 15.5936 8.44699C15.7485 8.74567 16.9615 11.2003 17.2537 11.8063C17.3554 12.0171 17.4497 12.1997 17.4634 12.2121C17.5023 12.2475 17.6084 12.5289 17.5894 12.5462C17.5799 12.5547 17.3918 12.6481 17.1713 12.7536C16.9507 12.8592 16.5197 13.0671 16.2134 13.2158C15.9071 13.3644 15.451 13.5849 15.1999 13.7058C14.9488 13.8267 14.5278 14.0294 14.2644 14.1562C14.0009 14.283 13.6852 14.433 13.5627 14.4894C13.4208 14.5548 13.3299 14.6104 13.1874 14.746C13.0895 14.8392 12.9674 14.9701 12.7877 15.1677C12.6309 15.3401 12.3302 15.664 12.1194 15.8875C11.7178 16.3132 10.8051 17.2961 10.3299 17.8147C10.1765 17.982 10.0341 18.119 10.0135 18.119C9.99286 18.119 9.58162 17.7284 9.09964 17.251C8.61765 16.7736 8.08946 16.2511 7.92588 16.0899C7.76233 15.9287 7.39836 15.5686 7.11712 15.2896C6.83587 15.0105 6.58399 14.7823 6.55734 14.7823C6.52658 14.7673 6.52658 14.7673 6.49408 14.746C6.48593 14.7261 6.26875 14.6014 6.01147 14.4689C5.7542 14.3364 5.42341 14.1626 5.2764 14.0826C5.12938 14.0026 4.54801 13.6989 3.98445 13.4077C2.59039 12.6873 2.35837 12.5601 2.35837 12.5158C2.35837 12.4949 2.41571 12.3724 2.48579 12.2435C2.55582 12.1146 2.71869 11.8063 2.84767 11.5583C2.97668 11.3103 3.11728 11.0465 3.16014 10.9721C3.20304 10.8977 3.31798 10.6846 3.41559 10.4986C3.5132 10.3126 3.82612 9.7242 4.11092 9.19099C4.48278 8.49479 4.63515 8.16436 4.65149 8.01863C4.66401 7.90702 4.6854 7.71426 4.69903 7.59026C4.71266 7.46626 4.74211 7.22277 4.76443 7.04917C4.80657 6.72149 4.8595 6.28361 5.07111 4.51194C5.14003 3.93486 5.20784 3.45112 5.22182 3.43701C5.23581 3.42285 5.68483 3.47326 6.21966 3.54906C6.75448 3.62486 7.34241 3.70796 7.52617 3.73371C7.70994 3.75941 8.30134 3.84292 8.8404 3.91926C9.37945 3.99555 9.88064 4.05706 9.95415 4.05593C10.0891 4.05381 11.0644 3.91687 12.4224 3.70936C13.5218 3.54135 14.0109 3.46875 14.4284 3.41153C14.7175 3.37194 14.8493 3.3292 15.0003 3.22603C15.4793 2.89885 16.0672 2.82395 16.4829 3.03714ZM6.79333 8.55273C6.81658 8.5737 7.1965 8.84082 7.63755 9.1464C8.07859 9.45194 8.46346 9.73146 8.49282 9.76753C8.53167 9.81524 8.54013 10.043 8.52396 10.6055C8.51175 11.0303 8.51781 11.3982 8.53741 11.423C8.55706 11.4478 8.86379 11.6905 9.21907 11.9623C9.57436 12.2341 9.89156 12.4827 9.9239 12.5147C10.004 12.5938 10.0771 12.5877 10.1796 12.4933C10.2272 12.4496 10.5467 12.2022 10.8897 11.9435C11.2327 11.6848 11.5286 11.4517 11.5471 11.4255C11.5657 11.3993 11.5785 11.3373 11.5756 11.2877C11.5727 11.2381 11.5726 10.8726 11.5753 10.4755C11.5799 9.80008 11.586 9.75062 11.6696 9.70896C11.7188 9.68447 12.1186 9.42096 12.558 9.12336L13.3569 8.58226L12.4658 8.54371C11.9757 8.52247 11.5645 8.51553 11.5519 8.52824C11.5394 8.54096 11.5174 9.20254 11.5032 9.99844L11.4772 11.4455H10.0363H8.59537V9.98009V8.51463H7.67319C7.16599 8.51463 6.77007 8.53176 6.79333 8.55273ZM2.39767 12.937C2.90905 14.3101 4.031 15.7866 5.21282 16.6416C6.49083 17.5663 7.89264 18.0647 9.5687 18.1903L9.98511 18.2215L9.96083 18.3444C9.91103 18.5965 9.69411 18.9776 9.4911 19.1698C9.28082 19.3689 8.87301 19.5619 8.66273 19.5619C8.25212 19.5619 7.62668 19.293 7.15774 18.9148C6.99451 18.7831 6.49814 18.3156 6.05464 17.8759C5.58776 17.4129 5.11825 16.9912 4.93942 16.8741C4.76955 16.7628 4.24462 16.4777 3.77288 16.2403C2.62438 15.6625 2.03895 15.2569 1.67333 14.7855C1.2289 14.2126 1.34321 13.3939 1.94397 12.847C2.08341 12.7201 2.21826 12.6232 2.24361 12.6318C2.269 12.6404 2.33832 12.7777 2.39767 12.937ZM18.0689 12.8246C18.3576 13.0742 18.5311 13.3604 18.6006 13.7021C18.7062 14.2209 18.554 14.6108 18.0532 15.1044C17.672 15.48 17.3009 15.7156 16.2475 16.2507C15.7264 16.5154 15.19 16.8056 15.0553 16.8957C14.9206 16.9857 14.408 17.457 13.9163 17.943C13.4092 18.4441 12.8788 18.9242 12.691 19.052C11.7617 19.6845 11.0418 19.7048 10.4957 19.1139C10.2975 18.8995 10.0655 18.4623 10.0655 18.3033C10.0655 18.1988 10.1824 18.1656 10.5556 18.1644C11.1898 18.1625 12.2937 17.8994 13.1165 17.5542C14.2434 17.0814 15.3909 16.2251 16.1989 15.2536C16.7114 14.6375 17.2806 13.6616 17.5324 12.9674C17.6857 12.5449 17.7314 12.5327 18.0689 12.8246Z" fill="#007C4A"/>
</svg>
