<svg width="19" height="19" viewBox="0 0 19 19" fill="none" xmlns="http://www.w3.org/2000/svg">
<path fill-rule="evenodd" clip-rule="evenodd" d="M9.36 0C4.1886 0 0 4.3467 0 9.71331C0 14.0114 2.6793 17.6418 6.3999 18.9288C6.8679 19.0138 7.0434 18.7224 7.0434 18.4674C7.0434 18.2367 7.0317 17.4718 7.0317 16.6583C4.68 17.1076 4.0716 16.0634 3.8844 15.517C3.7791 15.2377 3.3228 14.3757 2.925 14.145C2.5974 13.9629 2.1294 13.5136 2.9133 13.5015C3.6504 13.4894 4.1769 14.2057 4.3524 14.4971C5.1948 15.9662 6.5403 15.5534 7.0785 15.2985C7.1604 14.6671 7.4061 14.2421 7.6752 13.9993C5.5926 13.7565 3.4164 12.9187 3.4164 9.20336C3.4164 8.14704 3.7791 7.27284 4.3758 6.59291C4.2822 6.35007 3.9546 5.35446 4.4694 4.01888C4.4694 4.01888 5.2533 3.76391 7.0434 5.01449C7.7922 4.79595 8.5878 4.68667 9.3834 4.68667C10.179 4.68667 10.9746 4.79595 11.7234 5.01449C13.5135 3.75177 14.2974 4.01888 14.2974 4.01888C14.8122 5.35446 14.4846 6.35007 14.391 6.59291C14.9877 7.27284 15.3504 8.13489 15.3504 9.20336C15.3504 12.9308 13.1625 13.7565 11.0799 13.9993C11.4192 14.3028 11.7117 14.8856 11.7117 15.7963C11.7117 17.0954 11.7 18.1396 11.7 18.4674C11.7 18.7224 11.8755 19.0259 12.3435 18.9288C16.0407 17.6418 18.72 13.9993 18.72 9.71331C18.72 4.3467 14.5314 0 9.36 0Z" fill="#007C4A"/>
</svg>
